<?xml version="1.0" encoding="utf-8"?><!-- Generator: Iparigrafika Gear Generator by Abel Vincze http://geargenerator.com/ --><svg version="1.2" class="svggear" xmlns="http://www.w3.org/2000/svg" xmlns:xlink="http://www.w3.org/1999/xlink" x="0px" y="0px" width="180px" height="180px" viewBox="-90 -90 180 180" overflow="scroll" xml:space="preserve"><polygon id="gearpoly0" data-id="0" class="gear" fill="#ddd" stroke="#444" stroke-width="1" stroke-miterlimit="10" points="68.5,0 75.1869,-0.0001 75.2334,-0.0015 75.3155,-0.0057 75.4333,-0.0143 75.5865,-0.0287 75.7748,-0.0507 75.9981,-0.0816 76.256,-0.1231 76.5481,-0.1767 76.874,-0.2438 77.2333,-0.326 77.6254,-0.4247 78.0497,-0.5414 78.5056,-0.6777 78.9926,-0.8348 79.5098,-1.0142 80.0565,-1.2173 80.6319,-1.4455 81.2351,-1.7001 81.8654,-1.9824 82.5216,-2.2937 83.2029,-2.6353 83.9082,-3.0084 84.6364,-3.4142 85.3865,-3.8539 86.1572,-4.3287 86.9475,-4.8395 87.7561,-5.3875 88.5817,-5.9738 89.423,-6.5993 89.71,-7.2192 89.0997,-12.6979 88.6834,-13.2394 87.7251,-13.6645 86.7907,-14.0547 85.8813,-14.4114 84.998,-14.7358 84.1417,-15.0293 83.3132,-15.2931 82.5135,-15.5288 81.7434,-15.7375 81.0037,-15.9209 80.2951,-16.0802 79.6182,-16.2169 78.9737,-16.3325 78.3622,-16.4285 77.7842,-16.5063 77.2402,-16.5675 76.7306,-16.6136 76.2558,-16.6462 75.8162,-16.6667 75.412,-16.6767 75.0435,-16.6778 74.7108,-16.6716 74.4141,-16.6595 74.1534,-16.6433 73.9288,-16.6243 73.7402,-16.6043 73.5876,-16.5847 73.4708,-16.5671 73.3897,-16.5531 73.3441,-16.5443 66.8211,-15.073 63.2857,-26.2138 69.4635,-28.7729 69.506,-28.792 69.5803,-28.8273 69.6858,-28.8803 69.8218,-28.9522 69.9874,-29.0446 70.1819,-29.1586 70.4042,-29.2957 70.6536,-29.4569 70.929,-29.6436 71.2295,-29.8571 71.5539,-30.0983 71.9013,-30.3686 72.2704,-30.6689 72.6602,-31.0004 73.0693,-31.3641 73.4967,-31.7609 73.941,-32.1919 74.4009,-32.658 74.8751,-33.16 75.3622,-33.6988 75.8609,-34.2751 76.3698,-34.8897 76.8873,-35.5433 77.412,-36.2366 77.9424,-36.9701 78.477,-37.7445 79.0143,-38.5602 79.5527,-39.4178 80.0907,-40.3176 80.1186,-41.0002 77.4582,-45.8283 76.8663,-46.1693 75.8182,-46.1952 74.8057,-46.1982 73.829,-46.1797 72.8888,-46.1414 71.9853,-46.0849 71.119,-46.0116 70.29,-45.9233 69.4986,-45.8215 68.745,-45.7077 68.0293,-45.5837 67.3517,-45.451 66.712,-45.3112 66.1103,-45.1658 65.5465,-45.0165 65.0205,-44.8649 64.5321,-44.7125 64.081,-44.5609 63.667,-44.4116 63.2897,-44.2662 62.9488,-44.1262 62.6438,-43.9931 62.3743,-43.8684 62.1397,-43.7536 61.9394,-43.6502 61.7729,-43.5595 61.6394,-43.483 61.5382,-43.4221 61.4686,-43.3781 61.4299,-43.3525 55.9664,-39.4969 48.4368,-48.4368 53.165,-53.1652 53.1969,-53.1991 53.2521,-53.2602 53.3293,-53.3495 53.4274,-53.468 53.5451,-53.6167 53.6811,-53.7965 53.8341,-54.0082 54.0028,-54.2526 54.1858,-54.5305 54.3817,-54.8427 54.5891,-55.1897 54.8066,-55.5723 55.0327,-55.9911 55.2659,-56.4465 55.5048,-56.939 55.7477,-57.4692 55.9932,-58.0375 56.2398,-58.6441 56.4858,-59.2893 56.7297,-59.9735 56.9699,-60.6968 57.2048,-61.4593 57.4327,-62.2612 57.6522,-63.1025 57.8615,-63.9832 58.0591,-64.9032 58.2434,-65.8625 58.4126,-66.8608 58.5652,-67.898 58.3298,-68.5393 54.0243,-71.9818 53.3469,-72.0703 52.3688,-71.6932 51.4321,-71.3084 50.5369,-70.9176 49.6829,-70.5225 48.8699,-70.1245 48.0975,-69.7252 47.3654,-69.3264 46.6732,-68.9295 46.0205,-68.536 45.4068,-68.1476 44.8315,-67.7656 44.294,-67.3916 43.7937,-67.0271 43.33,-66.6734 42.902,-66.332 42.5091,-66.0043 42.1504,-65.6916 41.825,-65.3953 41.5321,-65.1166 41.2708,-64.8568 41.0399,-64.6171 40.8386,-64.3988 40.6658,-64.2029 40.5203,-64.0307 40.4012,-63.8832 40.3071,-63.7614 40.237,-63.6664 40.1895,-63.5992 40.1635,-63.5606 36.5914,-57.9078 26.2138,-63.2857 28.7726,-69.4637 28.7892,-69.5071 28.8167,-69.5847 28.8539,-69.6967 28.8991,-69.8438 28.9509,-70.0262 29.0078,-70.2443 29.0682,-70.4985 29.1305,-70.7888 29.1932,-71.1156 29.2547,-71.479 29.3136,-71.879 29.3681,-72.3157 29.4167,-72.7891 29.4579,-73.2991 29.4901,-73.8456 29.5116,-74.4284 29.521,-75.0473 29.5167,-75.7021 29.497,-76.3924 29.4605,-77.1178 29.4057,-77.8779 29.3308,-78.6723 29.2346,-79.5004 29.1154,-80.3616 28.9718,-81.2554 28.8023,-82.181 28.6054,-83.1378 28.3797,-84.1249 28.1238,-85.1415 27.6609,-85.6439 22.3657,-87.1767 21.706,-86.9993 20.9466,-86.2765 20.2285,-85.5626 19.551,-84.859 18.9132,-84.1671 18.3144,-83.4882 17.7536,-82.8238 17.2298,-82.1752 16.7423,-81.5436 16.2898,-80.9303 15.8715,-80.3366 15.4861,-79.7635 15.1327,-79.2123 14.81,-78.6841 14.5169,-78.1799 14.2522,-77.7007 14.0145,-77.2476 13.8028,-76.8214 13.6156,-76.4231 13.4517,-76.0535 13.3096,-75.7135 13.188,-75.4037 13.0856,-75.125 13.0009,-74.8779 12.9324,-74.6631 12.8788,-74.4812 12.8385,-74.3327 12.81,-74.2182 12.7919,-74.1379 12.7827,-74.0923 11.6457,-67.5028 0,-68.5 -0.0001,-75.1869 -0.0015,-75.2334 -0.0057,-75.3155 -0.0143,-75.4333 -0.0287,-75.5865 -0.0507,-75.7748 -0.0816,-75.9981 -0.1231,-76.256 -0.1767,-76.5481 -0.2438,-76.874 -0.326,-77.2333 -0.4247,-77.6254 -0.5414,-78.0497 -0.6777,-78.5056 -0.8348,-78.9926 -1.0142,-79.5098 -1.2173,-80.0565 -1.4455,-80.6319 -1.7001,-81.2351 -1.9824,-81.8654 -2.2937,-82.5216 -2.6353,-83.2029 -3.0084,-83.9082 -3.4142,-84.6364 -3.8539,-85.3865 -4.3287,-86.1572 -4.8395,-86.9475 -5.3875,-87.7561 -5.9738,-88.5817 -6.5993,-89.423 -7.2192,-89.71 -12.6979,-89.0997 -13.2394,-88.6834 -13.6645,-87.7251 -14.0547,-86.7907 -14.4114,-85.8813 -14.7358,-84.998 -15.0293,-84.1417 -15.2931,-83.3132 -15.5288,-82.5135 -15.7375,-81.7434 -15.9209,-81.0037 -16.0802,-80.2951 -16.2169,-79.6182 -16.3325,-78.9737 -16.4285,-78.3622 -16.5063,-77.7842 -16.5675,-77.2402 -16.6136,-76.7306 -16.6462,-76.2558 -16.6667,-75.8162 -16.6767,-75.412 -16.6778,-75.0435 -16.6716,-74.7108 -16.6595,-74.4141 -16.6433,-74.1534 -16.6243,-73.9288 -16.6043,-73.7402 -16.5847,-73.5876 -16.5671,-73.4708 -16.5531,-73.3897 -16.5443,-73.3441 -15.073,-66.8211 -26.2138,-63.2857 -28.7729,-69.4635 -28.792,-69.506 -28.8273,-69.5803 -28.8803,-69.6858 -28.9522,-69.8218 -29.0446,-69.9874 -29.1586,-70.1819 -29.2957,-70.4042 -29.4569,-70.6536 -29.6436,-70.929 -29.8571,-71.2295 -30.0983,-71.5539 -30.3686,-71.9013 -30.6689,-72.2704 -31.0004,-72.6602 -31.3641,-73.0693 -31.7609,-73.4967 -32.1919,-73.941 -32.658,-74.4009 -33.16,-74.8751 -33.6988,-75.3622 -34.2751,-75.8609 -34.8897,-76.3698 -35.5433,-76.8873 -36.2366,-77.412 -36.9701,-77.9424 -37.7445,-78.477 -38.5602,-79.0143 -39.4178,-79.5527 -40.3176,-80.0907 -41.0002,-80.1186 -45.8283,-77.4582 -46.1693,-76.8663 -46.1952,-75.8182 -46.1982,-74.8057 -46.1797,-73.829 -46.1414,-72.8888 -46.0849,-71.9853 -46.0116,-71.119 -45.9233,-70.29 -45.8215,-69.4986 -45.7077,-68.745 -45.5837,-68.0293 -45.451,-67.3517 -45.3112,-66.712 -45.1658,-66.1103 -45.0165,-65.5465 -44.8649,-65.0205 -44.7125,-64.5321 -44.5609,-64.081 -44.4116,-63.667 -44.2662,-63.2897 -44.1262,-62.9488 -43.9931,-62.6438 -43.8684,-62.3743 -43.7536,-62.1397 -43.6502,-61.9394 -43.5595,-61.7729 -43.483,-61.6394 -43.4221,-61.5382 -43.3781,-61.4686 -43.3525,-61.4299 -39.4969,-55.9664 -48.4368,-48.4368 -53.1652,-53.165 -53.1991,-53.1969 -53.2602,-53.2521 -53.3495,-53.3293 -53.468,-53.4274 -53.6167,-53.5451 -53.7965,-53.6811 -54.0082,-53.8341 -54.2526,-54.0028 -54.5305,-54.1858 -54.8427,-54.3817 -55.1897,-54.5891 -55.5723,-54.8066 -55.9911,-55.0327 -56.4465,-55.2659 -56.939,-55.5048 -57.4692,-55.7477 -58.0375,-55.9932 -58.6441,-56.2398 -59.2893,-56.4858 -59.9735,-56.7297 -60.6968,-56.9699 -61.4593,-57.2048 -62.2612,-57.4327 -63.1025,-57.6522 -63.9832,-57.8615 -64.9032,-58.0591 -65.8625,-58.2434 -66.8608,-58.4126 -67.898,-58.5652 -68.5393,-58.3298 -71.9818,-54.0243 -72.0703,-53.3469 -71.6932,-52.3688 -71.3084,-51.4321 -70.9176,-50.5369 -70.5225,-49.6829 -70.1245,-48.8699 -69.7252,-48.0975 -69.3264,-47.3654 -68.9295,-46.6732 -68.536,-46.0205 -68.1476,-45.4068 -67.7656,-44.8315 -67.3916,-44.294 -67.0271,-43.7937 -66.6734,-43.33 -66.332,-42.902 -66.0043,-42.5091 -65.6916,-42.1504 -65.3953,-41.825 -65.1166,-41.5321 -64.8568,-41.2708 -64.6171,-41.0399 -64.3988,-40.8386 -64.2029,-40.6658 -64.0307,-40.5203 -63.8832,-40.4012 -63.7614,-40.3071 -63.6664,-40.237 -63.5992,-40.1895 -63.5606,-40.1635 -57.9078,-36.5914 -63.2857,-26.2138 -69.4637,-28.7726 -69.5071,-28.7892 -69.5847,-28.8167 -69.6967,-28.8539 -69.8438,-28.8991 -70.0262,-28.9509 -70.2443,-29.0078 -70.4985,-29.0682 -70.7888,-29.1305 -71.1156,-29.1932 -71.479,-29.2547 -71.879,-29.3136 -72.3157,-29.3681 -72.7891,-29.4167 -73.2991,-29.4579 -73.8456,-29.4901 -74.4284,-29.5116 -75.0473,-29.521 -75.7021,-29.5167 -76.3924,-29.497 -77.1178,-29.4605 -77.8779,-29.4057 -78.6723,-29.3308 -79.5004,-29.2346 -80.3616,-29.1154 -81.2554,-28.9718 -82.181,-28.8023 -83.1378,-28.6054 -84.1249,-28.3797 -85.1415,-28.1238 -85.6439,-27.6609 -87.1767,-22.3657 -86.9993,-21.706 -86.2765,-20.9466 -85.5626,-20.2285 -84.859,-19.551 -84.1671,-18.9132 -83.4882,-18.3144 -82.8238,-17.7536 -82.1752,-17.2298 -81.5436,-16.7423 -80.9303,-16.2898 -80.3366,-15.8715 -79.7635,-15.4861 -79.2123,-15.1327 -78.6841,-14.81 -78.1799,-14.5169 -77.7007,-14.2522 -77.2476,-14.0145 -76.8214,-13.8028 -76.4231,-13.6156 -76.0535,-13.4517 -75.7135,-13.3096 -75.4037,-13.188 -75.125,-13.0856 -74.8779,-13.0009 -74.6631,-12.9324 -74.4812,-12.8788 -74.3327,-12.8385 -74.2182,-12.81 -74.1379,-12.7919 -74.0923,-12.7827 -67.5028,-11.6457 -68.5,0 -75.1869,0.0001 -75.2334,0.0015 -75.3155,0.0057 -75.4333,0.0143 -75.5865,0.0287 -75.7748,0.0507 -75.9981,0.0816 -76.256,0.1231 -76.5481,0.1767 -76.874,0.2438 -77.2333,0.326 -77.6254,0.4247 -78.0497,0.5414 -78.5056,0.6777 -78.9926,0.8348 -79.5098,1.0142 -80.0565,1.2173 -80.6319,1.4455 -81.2351,1.7001 -81.8654,1.9824 -82.5216,2.2937 -83.2029,2.6353 -83.9082,3.0084 -84.6364,3.4142 -85.3865,3.8539 -86.1572,4.3287 -86.9475,4.8395 -87.7561,5.3875 -88.5817,5.9738 -89.423,6.5993 -89.71,7.2192 -89.0997,12.6979 -88.6834,13.2394 -87.7251,13.6645 -86.7907,14.0547 -85.8813,14.4114 -84.998,14.7358 -84.1417,15.0293 -83.3132,15.2931 -82.5135,15.5288 -81.7434,15.7375 -81.0037,15.9209 -80.2951,16.0802 -79.6182,16.2169 -78.9737,16.3325 -78.3622,16.4285 -77.7842,16.5063 -77.2402,16.5675 -76.7306,16.6136 -76.2558,16.6462 -75.8162,16.6667 -75.412,16.6767 -75.0435,16.6778 -74.7108,16.6716 -74.4141,16.6595 -74.1534,16.6433 -73.9288,16.6243 -73.7402,16.6043 -73.5876,16.5847 -73.4708,16.5671 -73.3897,16.5531 -73.3441,16.5443 -66.8211,15.073 -63.2857,26.2138 -69.4635,28.7729 -69.506,28.792 -69.5803,28.8273 -69.6858,28.8803 -69.8218,28.9522 -69.9874,29.0446 -70.1819,29.1586 -70.4042,29.2957 -70.6536,29.4569 -70.929,29.6436 -71.2295,29.8571 -71.5539,30.0983 -71.9013,30.3686 -72.2704,30.6689 -72.6602,31.0004 -73.0693,31.3641 -73.4967,31.7609 -73.941,32.1919 -74.4009,32.658 -74.8751,33.16 -75.3622,33.6988 -75.8609,34.2751 -76.3698,34.8897 -76.8873,35.5433 -77.412,36.2366 -77.9424,36.9701 -78.477,37.7445 -79.0143,38.5602 -79.5527,39.4178 -80.0907,40.3176 -80.1186,41.0002 -77.4582,45.8283 -76.8663,46.1693 -75.8182,46.1952 -74.8057,46.1982 -73.829,46.1797 -72.8888,46.1414 -71.9853,46.0849 -71.119,46.0116 -70.29,45.9233 -69.4986,45.8215 -68.745,45.7077 -68.0293,45.5837 -67.3517,45.451 -66.712,45.3112 -66.1103,45.1658 -65.5465,45.0165 -65.0205,44.8649 -64.5321,44.7125 -64.081,44.5609 -63.667,44.4116 -63.2897,44.2662 -62.9488,44.1262 -62.6438,43.9931 -62.3743,43.8684 -62.1397,43.7536 -61.9394,43.6502 -61.7729,43.5595 -61.6394,43.483 -61.5382,43.4221 -61.4686,43.3781 -61.4299,43.3525 -55.9664,39.4969 -48.4368,48.4368 -53.165,53.1652 -53.1969,53.1991 -53.2521,53.2602 -53.3293,53.3495 -53.4274,53.468 -53.5451,53.6167 -53.6811,53.7965 -53.8341,54.0082 -54.0028,54.2526 -54.1858,54.5305 -54.3817,54.8427 -54.5891,55.1897 -54.8066,55.5723 -55.0327,55.9911 -55.2659,56.4465 -55.5048,56.939 -55.7477,57.4692 -55.9932,58.0375 -56.2398,58.6441 -56.4858,59.2893 -56.7297,59.9735 -56.9699,60.6968 -57.2048,61.4593 -57.4327,62.2612 -57.6522,63.1025 -57.8615,63.9832 -58.0591,64.9032 -58.2434,65.8625 -58.4126,66.8608 -58.5652,67.898 -58.3298,68.5393 -54.0243,71.9818 -53.3469,72.0703 -52.3688,71.6932 -51.4321,71.3084 -50.5369,70.9176 -49.6829,70.5225 -48.8699,70.1245 -48.0975,69.7252 -47.3654,69.3264 -46.6732,68.9295 -46.0205,68.536 -45.4068,68.1476 -44.8315,67.7656 -44.294,67.3916 -43.7937,67.0271 -43.33,66.6734 -42.902,66.332 -42.5091,66.0043 -42.1504,65.6916 -41.825,65.3953 -41.5321,65.1166 -41.2708,64.8568 -41.0399,64.6171 -40.8386,64.3988 -40.6658,64.2029 -40.5203,64.0307 -40.4012,63.8832 -40.3071,63.7614 -40.237,63.6664 -40.1895,63.5992 -40.1635,63.5606 -36.5914,57.9078 -26.2138,63.2857 -28.7726,69.4637 -28.7892,69.5071 -28.8167,69.5847 -28.8539,69.6967 -28.8991,69.8438 -28.9509,70.0262 -29.0078,70.2443 -29.0682,70.4985 -29.1305,70.7888 -29.1932,71.1156 -29.2547,71.479 -29.3136,71.879 -29.3681,72.3157 -29.4167,72.7891 -29.4579,73.2991 -29.4901,73.8456 -29.5116,74.4284 -29.521,75.0473 -29.5167,75.7021 -29.497,76.3924 -29.4605,77.1178 -29.4057,77.8779 -29.3308,78.6723 -29.2346,79.5004 -29.1154,80.3616 -28.9718,81.2554 -28.8023,82.181 -28.6054,83.1378 -28.3797,84.1249 -28.1238,85.1415 -27.6609,85.6439 -22.3657,87.1767 -21.706,86.9993 -20.9466,86.2765 -20.2285,85.5626 -19.551,84.859 -18.9132,84.1671 -18.3144,83.4882 -17.7536,82.8238 -17.2298,82.1752 -16.7423,81.5436 -16.2898,80.9303 -15.8715,80.3366 -15.4861,79.7635 -15.1327,79.2123 -14.81,78.6841 -14.5169,78.1799 -14.2522,77.7007 -14.0145,77.2476 -13.8028,76.8214 -13.6156,76.4231 -13.4517,76.0535 -13.3096,75.7135 -13.188,75.4037 -13.0856,75.125 -13.0009,74.8779 -12.9324,74.6631 -12.8788,74.4812 -12.8385,74.3327 -12.81,74.2182 -12.7919,74.1379 -12.7827,74.0923 -11.6457,67.5028 0,68.5 0.0001,75.1869 0.0015,75.2334 0.0057,75.3155 0.0143,75.4333 0.0287,75.5865 0.0507,75.7748 0.0816,75.9981 0.1231,76.256 0.1767,76.5481 0.2438,76.874 0.326,77.2333 0.4247,77.6254 0.5414,78.0497 0.6777,78.5056 0.8348,78.9926 1.0142,79.5098 1.2173,80.0565 1.4455,80.6319 1.7001,81.2351 1.9824,81.8654 2.2937,82.5216 2.6353,83.2029 3.0084,83.9082 3.4142,84.6364 3.8539,85.3865 4.3287,86.1572 4.8395,86.9475 5.3875,87.7561 5.9738,88.5817 6.5993,89.423 7.2192,89.71 12.6979,89.0997 13.2394,88.6834 13.6645,87.7251 14.0547,86.7907 14.4114,85.8813 14.7358,84.998 15.0293,84.1417 15.2931,83.3132 15.5288,82.5135 15.7375,81.7434 15.9209,81.0037 16.0802,80.2951 16.2169,79.6182 16.3325,78.9737 16.4285,78.3622 16.5063,77.7842 16.5675,77.2402 16.6136,76.7306 16.6462,76.2558 16.6667,75.8162 16.6767,75.412 16.6778,75.0435 16.6716,74.7108 16.6595,74.4141 16.6433,74.1534 16.6243,73.9288 16.6043,73.7402 16.5847,73.5876 16.5671,73.4708 16.5531,73.3897 16.5443,73.3441 15.073,66.8211 26.2138,63.2857 28.7729,69.4635 28.792,69.506 28.8273,69.5803 28.8803,69.6858 28.9522,69.8218 29.0446,69.9874 29.1586,70.1819 29.2957,70.4042 29.4569,70.6536 29.6436,70.929 29.8571,71.2295 30.0983,71.5539 30.3686,71.9013 30.6689,72.2704 31.0004,72.6602 31.3641,73.0693 31.7609,73.4967 32.1919,73.941 32.658,74.4009 33.16,74.8751 33.6988,75.3622 34.2751,75.8609 34.8897,76.3698 35.5433,76.8873 36.2366,77.412 36.9701,77.9424 37.7445,78.477 38.5602,79.0143 39.4178,79.5527 40.3176,80.0907 41.0002,80.1186 45.8283,77.4582 46.1693,76.8663 46.1952,75.8182 46.1982,74.8057 46.1797,73.829 46.1414,72.8888 46.0849,71.9853 46.0116,71.119 45.9233,70.29 45.8215,69.4986 45.7077,68.745 45.5837,68.0293 45.451,67.3517 45.3112,66.712 45.1658,66.1103 45.0165,65.5465 44.8649,65.0205 44.7125,64.5321 44.5609,64.081 44.4116,63.667 44.2662,63.2897 44.1262,62.9488 43.9931,62.6438 43.8684,62.3743 43.7536,62.1397 43.6502,61.9394 43.5595,61.7729 43.483,61.6394 43.4221,61.5382 43.3781,61.4686 43.3525,61.4299 39.4969,55.9664 48.4368,48.4368 53.1652,53.165 53.1991,53.1969 53.2602,53.2521 53.3495,53.3293 53.468,53.4274 53.6167,53.5451 53.7965,53.6811 54.0082,53.8341 54.2526,54.0028 54.5305,54.1858 54.8427,54.3817 55.1897,54.5891 55.5723,54.8066 55.9911,55.0327 56.4465,55.2659 56.939,55.5048 57.4692,55.7477 58.0375,55.9932 58.6441,56.2398 59.2893,56.4858 59.9735,56.7297 60.6968,56.9699 61.4593,57.2048 62.2612,57.4327 63.1025,57.6522 63.9832,57.8615 64.9032,58.0591 65.8625,58.2434 66.8608,58.4126 67.898,58.5652 68.5393,58.3298 71.9818,54.0243 72.0703,53.3469 71.6932,52.3688 71.3084,51.4321 70.9176,50.5369 70.5225,49.6829 70.1245,48.8699 69.7252,48.0975 69.3264,47.3654 68.9295,46.6732 68.536,46.0205 68.1476,45.4068 67.7656,44.8315 67.3916,44.294 67.0271,43.7937 66.6734,43.33 66.332,42.902 66.0043,42.5091 65.6916,42.1504 65.3953,41.825 65.1166,41.5321 64.8568,41.2708 64.6171,41.0399 64.3988,40.8386 64.2029,40.6658 64.0307,40.5203 63.8832,40.4012 63.7614,40.3071 63.6664,40.237 63.5992,40.1895 63.5606,40.1635 57.9078,36.5914 63.2857,26.2138 69.4637,28.7726 69.5071,28.7892 69.5847,28.8167 69.6967,28.8539 69.8438,28.8991 70.0262,28.9509 70.2443,29.0078 70.4985,29.0682 70.7888,29.1305 71.1156,29.1932 71.479,29.2547 71.879,29.3136 72.3157,29.3681 72.7891,29.4167 73.2991,29.4579 73.8456,29.4901 74.4284,29.5116 75.0473,29.521 75.7021,29.5167 76.3924,29.497 77.1178,29.4605 77.8779,29.4057 78.6723,29.3308 79.5004,29.2346 80.3616,29.1154 81.2554,28.9718 82.181,28.8023 83.1378,28.6054 84.1249,28.3797 85.1415,28.1238 85.6439,27.6609 87.1767,22.3657 86.9993,21.706 86.2765,20.9466 85.5626,20.2285 84.859,19.551 84.1671,18.9132 83.4882,18.3144 82.8238,17.7536 82.1752,17.2298 81.5436,16.7423 80.9303,16.2898 80.3366,15.8715 79.7635,15.4861 79.2123,15.1327 78.6841,14.81 78.1799,14.5169 77.7007,14.2522 77.2476,14.0145 76.8214,13.8028 76.4231,13.6156 76.0535,13.4517 75.7135,13.3096 75.4037,13.188 75.125,13.0856 74.8779,13.0009 74.6631,12.9324 74.4812,12.8788 74.3327,12.8385 74.2182,12.81 74.1379,12.7919 74.0923,12.7827 67.5028,11.6457 "/><g class="guides"><polyline fill="none" stroke="#444" stroke-width="0.5" stroke-miterlimit="10" points="10,0 -10,0"/><polyline fill="none" stroke="#444" stroke-width="0.5" stroke-miterlimit="10" points="0,10 0,-10"/></g><circle fill="#c00" class="firstmarker" stroke="none" stroke-miterlimit="10" cx="79.5083" cy="-8.8562" r="3.925"/><g class="geartext"><g class="text"><polyline fill="none" stroke="#444" stroke-width="0.5" stroke-linecap="square" stroke-miterlimit="1"  points="-35.85 -37.93 -37.02 -36.79 -38.15 -35.61 -39.25 -34.4 -40.3 -33.16 "/><polyline fill="none" stroke="#444" stroke-width="0.5" stroke-linecap="square" stroke-miterlimit="1"  points="-35.77 -33.39 -40.54 -37.84 "/><polyline fill="none" stroke="#444" stroke-width="0.5" stroke-linecap="square" stroke-miterlimit="1"  points="-38.09 -40.3 -38.18 -37.94 -38.15 -35.61 -38.02 -33.33 -37.78 -31.09 "/><polyline fill="none" stroke="#444" stroke-width="0.5" stroke-linecap="square" stroke-miterlimit="1"  points="-33.61 -35.56 -35.86 -35.64 -38.15 -35.61 -40.47 -35.48 -42.82 -35.23 "/><polyline fill="none" stroke="#444" stroke-width="0.5" stroke-linecap="square" stroke-miterlimit="1"  points="-27.67 -40.35 -27.95 -38.15 -29.13 -37.26 -31.33 -37.59 -35.5 -42.6 -35.16 -44.97 -33.74 -46.05 -31.36 -45.73 -27.67 -40.35 "/><polyline fill="none" stroke="#444" stroke-width="0.5" stroke-linecap="square" stroke-miterlimit="1"  points="-14.53 -55.2 -12.04 -45.74 -14.16 -47.69 -16.41 -49.54 -18.79 -51.3 -21.3 -52.96 -17.65 -43.88 "/><polyline fill="none" stroke="#444" stroke-width="0.5" stroke-linecap="square" stroke-miterlimit="1"  points="-3.76 -53.69 -5.43 -53.55 -7.1 -53.35 -8.76 -53.1 -10.42 -52.8 "/><polyline fill="none" stroke="#444" stroke-width="0.5" stroke-linecap="square" stroke-miterlimit="1"  points="-3.53 -50.44 -5.1 -50.3 -6.67 -50.12 -8.23 -49.88 -9.79 -49.6 "/><polyline fill="none" stroke="#444" stroke-width="0.5" stroke-linecap="square" stroke-miterlimit="1"  points="-0.41 -55.45 1.37 -57.07 1.13 -47.28 "/><polyline fill="none" stroke="#444" stroke-width="0.5" stroke-linecap="square" stroke-miterlimit="1"  points="2.61 -47.23 1.13 -47.28 -0.35 -47.3 "/><polyline fill="none" stroke="#444" stroke-width="0.5" stroke-linecap="square" stroke-miterlimit="1"  points="6.13 -51.83 7.74 -51.61 9.35 -51.35 10.95 -51.03 12.15 -49.08 11.76 -47.49 9.93 -46.24 8.48 -46.53 7.02 -46.77 5.74 -48.59 6.32 -53.45 8.23 -54.84 10.23 -56.16 11.98 -55.81 "/><polyline fill="none" stroke="#444" stroke-width="0.5" stroke-linecap="square" stroke-miterlimit="1"  points="23.24 -46.73 24.69 -45.98 26.11 -45.19 27.51 -44.35 29.78 -44.83 30.69 -46.19 30.09 -48.51 28.56 -49.43 27 -50.29 25.41 -51.11 21.06 -42.35 "/><polyline fill="none" stroke="#444" stroke-width="0.5" stroke-linecap="square" stroke-miterlimit="1"  points="28.58 -37.68 32.53 -42.88 "/><polyline fill="none" stroke="#444" stroke-width="0.5" stroke-linecap="square" stroke-miterlimit="1"  points="33.51 -44.18 34.5 -45.48 "/><polyline fill="none" stroke="#444" stroke-width="0.5" stroke-linecap="square" stroke-miterlimit="1"  points="36.32 -32.79 34.1 -32.78 34.2 -34.99 39.9 -40.82 "/><polyline fill="none" stroke="#444" stroke-width="0.5" stroke-linecap="square" stroke-miterlimit="1"  points="39.95 -36.07 38.8 -37.3 37.62 -38.49 36.4 -39.65 35.14 -40.77 "/><polyline fill="none" stroke="#444" stroke-width="0.5" stroke-linecap="square" stroke-miterlimit="1"  points="40.4 -24.6 39.61 -25.85 38.78 -27.07 37.92 -28.27 38.29 -30.46 40.85 -32.49 43.15 -32.17 44.13 -30.8 45.07 -29.41 45.97 -27.99 "/><polyline fill="none" stroke="#444" stroke-width="0.5" stroke-linecap="square" stroke-miterlimit="1"  points="44.74 -23.54 46.92 -22.85 49.1 -22.04 49.77 -20.49 48.86 -18.35 44.28 -16.63 "/><polyline fill="none" stroke="#444" stroke-width="0.5" stroke-linecap="square" stroke-miterlimit="1"  points="41.86 -22.02 50.52 -26.58 "/><polyline fill="none" stroke="#444" stroke-width="0.5" stroke-linecap="square" stroke-miterlimit="1"  points="46.83 -6.63 47.01 -5.16 47.15 -3.69 47.25 -2.22 48.92 -0.76 55.45 -0.87 57.02 -2.67 56.91 -4.46 56.74 -6.23 56.52 -8 "/><polyline fill="none" stroke="#444" stroke-width="0.5" stroke-linecap="square" stroke-miterlimit="1"  points="56.74 -6.23 47.01 -5.16 "/><polyline fill="none" stroke="#444" stroke-width="0.5" stroke-linecap="square" stroke-miterlimit="1"  points="53.03 9.21 53.29 7.54 53.5 5.87 53.66 4.2 53.76 2.52 "/><polyline fill="none" stroke="#444" stroke-width="0.5" stroke-linecap="square" stroke-miterlimit="1"  points="49.81 8.65 50.06 7.09 50.26 5.52 50.41 3.95 50.5 2.37 "/><polyline fill="none" stroke="#444" stroke-width="0.5" stroke-linecap="square" stroke-miterlimit="1"  points="53.94 12.88 55.08 14.99 45.64 12.42 "/><polyline fill="none" stroke="#444" stroke-width="0.5" stroke-linecap="square" stroke-miterlimit="1"  points="45.23 13.84 45.64 12.42 46 10.98 "/><polyline fill="none" stroke="#444" stroke-width="0.5" stroke-linecap="square" stroke-miterlimit="1"  points="45.8 17.21 44.28 16.63 "/><polyline fill="none" stroke="#444" stroke-width="0.5" stroke-linecap="square" stroke-miterlimit="1"  points="47.61 21.37 46.92 22.85 46.19 24.3 45.4 25.73 43.19 26.29 41.79 25.44 41.15 23.32 41.86 22.02 42.52 20.71 44.64 20.03 49.1 22.04 49.86 24.28 50.52 26.58 49.66 28.15 "/><polyline fill="none" stroke="#444" stroke-width="0.5" stroke-linecap="square" stroke-miterlimit="1"  points="37.63 36.17 36.48 37.33 35.29 38.45 34.08 39.53 33.85 41.84 34.88 43.11 37.27 43.24 38.6 42.05 39.9 40.82 41.15 39.56 34.1 32.78 "/><polyline fill="none" stroke="#444" stroke-width="0.5" stroke-linecap="square" stroke-miterlimit="1"  points="25.46 47.42 26.93 46.6 28.37 45.74 29.78 44.83 31.17 43.88 "/><polyline fill="none" stroke="#444" stroke-width="0.5" stroke-linecap="square" stroke-miterlimit="1"  points="23.91 44.55 25.29 43.78 26.65 42.97 27.98 42.11 29.28 41.22 "/><polyline fill="none" stroke="#444" stroke-width="0.5" stroke-linecap="square" stroke-miterlimit="1"  points="23.13 50.4 22.17 52.6 18.37 43.58 "/><polyline fill="none" stroke="#444" stroke-width="0.5" stroke-linecap="square" stroke-miterlimit="1"  points="17 44.14 18.37 43.58 19.72 42.99 "/><polyline fill="none" stroke="#444" stroke-width="0.5" stroke-linecap="square" stroke-miterlimit="1"  points="10.27 47.84 11.37 45.91 12.79 45.53 14.7 46.67 16.66 52.89 15.44 54.96 13.72 55.41 11.64 54.22 10.27 47.84 "/><polyline fill="none" stroke="#444" stroke-width="0.5" stroke-linecap="square" stroke-miterlimit="1"  points="-0.38 52.19 -2.01 52.15 -3.64 52.06 -5.27 51.92 -7.1 53.35 -7.32 54.97 -5.76 56.79 -3.98 56.94 -2.2 57.04 -0.42 57.08 -0.35 47.3 "/><polyline fill="none" stroke="#444" stroke-width="0.5" stroke-linecap="square" stroke-miterlimit="1"  points="-9.16 46.4 -9.79 49.6 -12.06 52.45 -14.53 55.2 -15.32 51.6 -15.9 48 -14.87 44.9 "/><polyline fill="none" stroke="#444" stroke-width="0.5" stroke-linecap="square" stroke-miterlimit="1"  points="-9.79 49.6 -11.33 49.27 -12.87 48.89 -14.39 48.47 -15.9 48 "/><polyline fill="none" stroke="#444" stroke-width="0.5" stroke-linecap="square" stroke-miterlimit="1"  points="-26.15 47.04 -24.67 47.84 -23.16 48.58 -21.63 49.28 -20.08 49.94 "/><polyline fill="none" stroke="#444" stroke-width="0.5" stroke-linecap="square" stroke-miterlimit="1"  points="-24.56 44.19 -23.17 44.94 -21.76 45.64 -20.32 46.3 -18.86 46.91 "/><polyline fill="none" stroke="#444" stroke-width="0.5" stroke-linecap="square" stroke-miterlimit="1"  points="-30.28 36.33 -29.13 37.26 -27.95 38.15 -26.75 39.01 -25.52 39.82 -27.28 42.57 -29.52 43.04 -30.85 42.1 -32.15 41.12 -34.46 41.34 -35.5 42.6 -35.16 44.97 -33.74 46.05 -32.28 47.08 -29.92 46.69 "/><polyline fill="none" stroke="#444" stroke-width="0.5" stroke-linecap="square" stroke-miterlimit="1"  points="-36.79 32.25 -34.58 32.27 -33.55 33.34 -33.61 35.56 -38.09 40.3 -40.49 40.24 -41.73 38.95 -41.7 36.55 -36.79 32.25 "/></g></g><g class="guides gearguides" opacity="0.2"><circle class="pitch" fill="none" stroke="#f00" stroke-miterlimit="10" cx="0" cy="0" r="80"/><circle class="outer" fill="none" stroke="#ccc" stroke-miterlimit="10" stroke-dasharray="2,2" cx="0" cy="0" r="90"/><circle class="base" fill="none" stroke="#00f" stroke-miterlimit="10" stroke-dasharray="2,2" cx="0" cy="0" r="75.18"/></g></svg>