<?xml version="1.0" encoding="utf-8"?><!-- Generator: Iparigrafika Gear Generator by Abel Vincze http://geargenerator.com/ --><svg version="1.2" class="svggear" xmlns="http://www.w3.org/2000/svg" xmlns:xlink="http://www.w3.org/1999/xlink" x="0px" y="0px" width="340px" height="340px" viewBox="-170 -170 340 340" overflow="scroll" xml:space="preserve"><polygon id="gearpoly1" data-id="1" class="gear" fill="#ddd" stroke="#444" stroke-width="1" stroke-miterlimit="10" points="148.5,0 150.3737,-0.0003 150.4113,-0.0011 150.4667,-0.003 150.54,-0.0063 150.6311,-0.0114 150.74,-0.0187 150.8666,-0.0285 151.011,-0.0413 151.173,-0.0575 151.3525,-0.0774 151.5497,-0.1014 151.7643,-0.1299 151.9962,-0.1633 152.2455,-0.2019 152.512,-0.2462 152.7956,-0.2966 153.0962,-0.3533 153.4137,-0.4169 153.748,-0.4876 154.099,-0.5658 154.4666,-0.6519 154.8505,-0.7463 155.2507,-0.8494 155.667,-0.9615 156.0994,-1.0829 156.5475,-1.2141 157.0113,-1.3553 157.4906,-1.507 157.9852,-1.6695 158.4949,-1.8432 159.0196,-2.0284 159.559,-2.2254 160.113,-2.4346 160.6813,-2.6564 161.2638,-2.891 161.8602,-3.1388 162.4703,-3.4001 163.0939,-3.6754 163.7307,-3.9648 164.3806,-4.2687 165.0432,-4.5874 165.7183,-4.9213 166.4057,-5.2706 167.1051,-5.6357 167.8163,-6.0168 168.5389,-6.4143 169.2728,-6.8285 169.8452,-7.2522 169.4092,-14.1606 168.788,-14.509 168.0079,-14.8276 167.241,-15.1311 166.4876,-15.4198 165.7478,-15.694 165.022,-15.9541 164.3102,-16.2005 163.6128,-16.4334 162.9299,-16.6532 162.2617,-16.8602 161.6084,-17.0548 160.9703,-17.2374 160.3475,-17.4083 159.7401,-17.5678 159.1484,-17.7163 158.5725,-17.8542 158.0126,-17.9818 157.4688,-18.0996 156.9413,-18.2078 156.4302,-18.3068 155.9357,-18.397 155.4578,-18.4789 154.9967,-18.5526 154.5526,-18.6188 154.1254,-18.6776 153.7154,-18.7295 153.3227,-18.7749 152.9472,-18.8141 152.5892,-18.8476 152.2487,-18.8757 151.9257,-18.8988 151.6203,-18.9173 151.3326,-18.9316 151.0627,-18.942 150.8105,-18.9491 150.5762,-18.953 150.3597,-18.9543 150.1611,-18.9533 149.9805,-18.9505 149.8177,-18.9461 149.6729,-18.9407 149.5461,-18.9345 149.4371,-18.9281 149.3461,-18.9217 149.273,-18.9157 149.2178,-18.9106 149.1804,-18.9068 147.3215,-18.6714 145.6466,-28.9709 147.4843,-29.3367 147.5209,-29.3449 147.5749,-29.3576 147.6462,-29.3751 147.7345,-29.3979 147.8399,-29.4262 147.9622,-29.4606 148.1013,-29.5013 148.257,-29.5488 148.4293,-29.6033 148.6179,-29.6653 148.8228,-29.7351 149.0438,-29.8131 149.2808,-29.8997 149.5335,-29.9951 149.8018,-30.0998 150.0856,-30.2141 150.3846,-30.3384 150.6987,-30.473 151.0277,-30.6182 151.3713,-30.7743 151.7295,-30.9418 152.1019,-31.121 152.4884,-31.3121 152.8887,-31.5156 153.3026,-31.7316 153.7299,-31.9607 154.1704,-32.203 154.6238,-32.4588 155.0899,-32.7286 155.5683,-33.0126 156.059,-33.3111 156.5615,-33.6243 157.0756,-33.9527 157.6011,-34.2964 158.1377,-34.6558 158.6851,-35.0312 159.2431,-35.4228 159.8112,-35.8309 160.3893,-36.2557 160.977,-36.6976 161.574,-37.1568 162.18,-37.6335 162.7948,-38.128 163.4179,-38.6406 164.0491,-39.1714 164.6881,-39.7207 165.1669,-40.248 163.3915,-46.9386 162.7142,-47.1591 161.887,-47.3194 161.0756,-47.4674 160.2803,-47.6036 159.5013,-47.7283 158.7386,-47.8418 157.9925,-47.9445 157.263,-48.0369 156.5503,-48.1192 155.8546,-48.1919 155.176,-48.2554 154.5145,-48.3099 153.8703,-48.356 153.2435,-48.394 152.6342,-48.4242 152.0424,-48.4471 151.4684,-48.463 150.9121,-48.4724 150.3736,-48.4756 149.853,-48.4731 149.3503,-48.4651 148.8657,-48.4521 148.3991,-48.4345 147.9505,-48.4127 147.5201,-48.3871 147.1079,-48.358 146.7138,-48.3259 146.3379,-48.2911 145.9803,-48.2541 145.6408,-48.2152 145.3195,-48.1749 145.0164,-48.1335 144.7314,-48.0914 144.4646,-48.049 144.216,-48.0066 143.9854,-47.9648 143.7728,-47.9238 143.5782,-47.8842 143.4016,-47.8461 143.2428,-47.8101 143.1019,-47.7765 142.9786,-47.7457 142.873,-47.7181 142.785,-47.6941 142.7145,-47.674 142.6613,-47.6582 142.6254,-47.6471 140.8481,-47.0537 137.1961,-56.8285 138.9271,-57.5458 138.9615,-57.561 139.0119,-57.5839 139.0784,-57.615 139.1606,-57.6546 139.2584,-57.703 139.3717,-57.7605 139.5001,-57.8276 139.6436,-57.9045 139.8019,-57.9916 139.9748,-58.0892 140.1622,-58.1977 140.3637,-58.3173 140.5792,-58.4484 140.8085,-58.5913 141.0512,-58.7464 141.3072,-58.9138 141.5763,-59.094 141.8581,-59.2873 142.1524,-59.4939 142.459,-59.7141 142.7776,-59.9483 143.1079,-60.1966 143.4497,-60.4595 143.8026,-60.7371 144.1664,-61.0298 144.5409,-61.3378 144.9256,-61.6613 145.3204,-62.0008 145.7248,-62.3563 146.1387,-62.7281 146.5617,-63.1166 146.9934,-63.5219 147.4336,-63.9442 147.882,-64.3839 148.3381,-64.8411 148.8018,-65.316 149.2726,-65.8089 149.7502,-66.32 150.2343,-66.8495 150.7245,-67.3975 151.2205,-67.9643 151.7219,-68.5501 152.2283,-69.1551 152.7395,-69.7793 153.255,-70.4231 153.7745,-71.0866 154.1412,-71.6971 151.0947,-77.9128 150.3874,-77.9969 149.5448,-77.9928 148.7202,-77.9797 147.9136,-77.9581 147.1252,-77.9283 146.355,-77.8909 145.6032,-77.8461 144.8697,-77.7944 144.1547,-77.7361 143.4581,-77.6717 142.7801,-77.6015 142.1207,-77.5259 141.4799,-77.4455 140.8577,-77.3604 140.2542,-77.2712 139.6694,-77.1782 139.1033,-77.0819 138.5558,-76.9825 138.0271,-76.8806 137.517,-76.7765 137.0255,-76.6706 136.5527,-76.5634 136.0985,-76.4551 135.6629,-76.3462 135.2457,-76.2371 134.8471,-76.1281 134.4669,-76.0198 134.105,-75.9124 133.7614,-75.8063 133.436,-75.7019 133.1288,-75.5997 132.8396,-75.4999 132.5683,-75.403 132.3149,-75.3094 132.0793,-75.2193 131.8613,-75.1333 131.6608,-75.0517 131.4777,-74.9748 131.3119,-74.903 131.1632,-74.8367 131.0315,-74.7763 130.9166,-74.722 130.8184,-74.6744 130.7368,-74.6336 130.6715,-74.6001 130.6225,-74.5743 130.5894,-74.5564 128.9621,-73.6277 123.4732,-82.5022 125.031,-83.5434 125.0618,-83.565 125.1068,-83.5973 125.1659,-83.6408 125.2388,-83.6956 125.3253,-83.7622 125.4251,-83.8407 125.5381,-83.9316 125.6638,-84.035 125.8021,-84.1513 125.9526,-84.2808 126.1152,-84.4237 126.2895,-84.5803 126.4753,-84.751 126.6723,-84.9359 126.8801,-85.1353 127.0985,-85.3495 127.3272,-85.5787 127.5659,-85.8232 127.8143,-86.0833 128.072,-86.3591 128.3388,-86.6509 128.6143,-86.9589 128.8983,-87.2834 129.1902,-87.6246 129.49,-87.9826 129.7971,-88.3577 130.1114,-88.7501 130.4323,-89.16 130.7597,-89.5876 131.093,-90.0331 131.4321,-90.4966 131.7765,-90.9783 132.1258,-91.4784 132.4798,-91.9971 132.838,-92.5345 133.2001,-93.0908 133.5657,-93.6661 133.9344,-94.2605 134.3059,-94.8742 134.6798,-95.5074 135.0556,-96.1601 135.4331,-96.8324 135.8118,-97.5245 136.1914,-98.2365 136.5714,-98.9685 136.9515,-99.7206 137.192,-100.3909 132.9914,-105.8928 132.2813,-105.8374 131.4557,-105.6689 130.6495,-105.4952 129.8626,-105.3166 129.0952,-105.1337 128.3471,-104.9467 127.6184,-104.7561 126.9091,-104.5622 126.2192,-104.3656 125.5486,-104.1665 124.8974,-103.9654 124.2653,-103.7627 123.6526,-103.5587 123.0589,-103.3539 122.4844,-103.1487 121.929,-102.9434 121.3925,-102.7385 120.875,-102.5342 120.3762,-102.3311 119.8963,-102.1295 119.4349,-101.9298 118.9921,-101.7323 118.5678,-101.5375 118.1617,-101.3457 117.7739,-101.1573 117.4042,-100.9727 117.0524,-100.7923 116.7184,-100.6163 116.4021,-100.4452 116.1034,-100.2794 115.822,-100.1192 115.5578,-99.9649 115.3106,-99.8169 115.0804,-99.6757 114.8668,-99.5414 114.6698,-99.4145 114.4891,-99.2953 114.3245,-99.1842 114.1759,-99.0814 114.043,-98.9874 113.9256,-98.9024 113.8235,-98.8268 113.7365,-98.7609 113.6644,-98.705 113.6069,-98.6595 113.5639,-98.6246 113.5349,-98.6006 112.1201,-97.3722 105.0054,-105.0054 106.3301,-106.3305 106.356,-106.3576 106.3939,-106.3982 106.4434,-106.4523 106.5042,-106.5203 106.576,-106.6025 106.6586,-106.699 106.7516,-106.8101 106.8548,-106.9361 106.9677,-107.0771 107.0901,-107.2335 107.2217,-107.4054 107.3621,-107.593 107.511,-107.7966 107.6681,-108.0164 107.8331,-108.2525 108.0055,-108.5052 108.1851,-108.7747 108.3715,-109.061 108.5644,-109.3645 108.7634,-109.6853 108.9681,-110.0236 109.1782,-110.3794 109.3934,-110.7531 109.6132,-111.1446 109.8373,-111.5543 110.0654,-111.9821 110.297,-112.4283 110.5318,-112.8929 110.7695,-113.3762 111.0095,-113.8781 111.2516,-114.3988 111.4954,-114.9385 111.7405,-115.4972 111.9865,-116.0749 112.233,-116.6719 112.4796,-117.2881 112.7259,-117.9237 112.9716,-118.5786 113.2162,-119.253 113.4594,-119.9469 113.7007,-120.6604 113.9397,-121.3935 114.1761,-122.1462 114.4095,-122.9186 114.6394,-123.7106 114.8655,-124.5224 114.9706,-125.2268 109.7773,-129.8035 109.0917,-129.6106 108.3148,-129.2842 107.558,-128.9566 106.8211,-128.6279 106.1041,-128.2988 105.4069,-127.9694 104.7294,-127.6403 104.0715,-127.3118 103.4332,-126.9844 102.8144,-126.6583 102.2148,-126.334 101.6345,-126.0119 101.0733,-125.6923 100.531,-125.3756 100.0076,-125.0622 99.5029,-124.7525 99.0167,-124.4469 98.549,-124.1456 98.0994,-123.8491 97.668,-123.5577 97.2545,-123.2718 96.8587,-122.9918 96.4805,-122.7179 96.1197,-122.4506 95.7761,-122.1902 95.4495,-121.937 95.1397,-121.6914 94.8464,-121.4536 94.5696,-121.2241 94.3089,-121.0032 94.0642,-120.7911 93.8352,-120.5883 93.6217,-120.395 93.4234,-120.2115 93.2401,-120.0382 93.0716,-119.8753 92.9177,-119.7231 92.7779,-119.582 92.6522,-119.4522 92.5402,-119.3341 92.4416,-119.2278 92.3563,-119.1338 92.2838,-119.0522 92.224,-118.9833 92.1765,-118.9274 92.1411,-118.8847 92.1174,-118.8556 90.9693,-117.3747 82.5022,-123.4732 83.5429,-125.0313 83.5631,-125.063 83.5923,-125.1102 83.6303,-125.1729 83.6766,-125.2515 83.7311,-125.3461 83.7933,-125.4569 83.8628,-125.584 83.9394,-125.7277 84.0226,-125.888 84.1122,-126.0653 84.2077,-126.2595 84.3088,-126.471 84.4152,-126.6997 84.5264,-126.9459 84.6421,-127.2097 84.7619,-127.4911 84.8855,-127.7905 85.0124,-128.1077 85.1424,-128.443 85.275,-128.7964 85.4098,-129.1681 85.5464,-129.5581 85.6845,-129.9666 85.8238,-130.3935 85.9637,-130.839 86.1039,-131.3031 86.244,-131.7859 86.3837,-132.2874 86.5225,-132.8077 86.66,-133.3468 86.7959,-133.9048 86.9297,-134.4817 87.0611,-135.0774 87.1896,-135.6921 87.3149,-136.3256 87.4365,-136.9781 87.5542,-137.6495 87.6673,-138.3398 87.7757,-139.049 87.8788,-139.777 87.9763,-140.5239 88.0677,-141.2895 88.1527,-142.0739 88.2309,-142.8769 88.3019,-143.6986 88.3653,-144.5389 88.331,-145.2503 82.3446,-148.7258 81.7098,-148.4029 81.0115,-147.9312 80.3331,-147.4622 79.6745,-146.9961 79.0355,-146.5334 78.4159,-146.0744 77.8156,-145.6194 77.2345,-145.1689 76.6724,-144.7232 76.129,-144.2827 75.6043,-143.8477 75.0979,-143.4185 74.6099,-142.9956 74.1398,-142.5792 73.6876,-142.1697 73.253,-141.7675 72.8358,-141.3729 72.4358,-140.9861 72.0527,-140.6076 71.6864,-140.2377 71.3366,-139.8766 71.0031,-139.5247 70.6856,-139.1824 70.3839,-138.8498 70.0977,-138.5273 69.8267,-138.2153 69.5708,-137.9139 69.3296,-137.6235 69.1028,-137.3445 68.8903,-137.0769 68.6916,-136.8212 68.5066,-136.5776 68.3349,-136.3463 68.1762,-136.1277 68.0303,-135.9219 67.8968,-135.7293 67.7754,-135.55 67.6659,-135.3843 67.5679,-135.2325 67.4811,-135.0948 67.4052,-134.9714 67.3398,-134.8625 67.2847,-134.7683 67.2395,-134.6891 67.2038,-134.625 67.1773,-134.5762 67.1598,-134.543 66.3227,-132.8667 56.8285,-137.1961 57.5453,-138.9273 57.5588,-138.9623 57.5783,-139.0143 57.6033,-139.0832 57.6335,-139.1693 57.6684,-139.2727 57.7078,-139.3935 57.7512,-139.5317 57.7983,-139.6876 57.8486,-139.8611 57.9019,-140.0524 57.9577,-140.2616 58.0156,-140.4887 58.0753,-140.7338 58.1363,-140.9969 58.1983,-141.2782 58.2609,-141.5777 58.3237,-141.8953 58.3864,-142.2313 58.4484,-142.5855 58.5095,-142.958 58.5692,-143.3488 58.6271,-143.758 58.6829,-144.1855 58.7362,-144.6314 58.7865,-145.0956 58.8335,-145.5782 58.8767,-146.079 58.9158,-146.5982 58.9505,-147.1355 58.9802,-147.6911 59.0046,-148.2649 59.0233,-148.8568 59.0359,-149.4667 59.0421,-150.0946 59.0414,-150.7405 59.0334,-151.4042 59.0177,-152.0856 58.9941,-152.7847 58.962,-153.5014 58.9211,-154.2355 58.871,-154.9871 58.8113,-155.7558 58.7417,-156.5417 58.6617,-157.3446 58.571,-158.1643 58.4692,-159.0008 58.2968,-159.6918 51.7474,-161.9327 51.1878,-161.4921 50.5949,-160.8933 50.0211,-160.301 49.466,-159.7154 48.9296,-159.1369 48.4115,-158.5658 47.9115,-158.0025 47.4294,-157.4473 46.965,-156.9005 46.5181,-156.3624 46.0883,-155.8333 45.6754,-155.3136 45.2792,-154.8036 44.8994,-154.3035 44.5357,-153.8137 44.188,-153.3344 43.8558,-152.866 43.5389,-152.4086 43.2371,-151.9627 42.95,-151.5284 42.6773,-151.106 42.4189,-150.6958 42.1743,-150.2981 41.9432,-149.913 41.7254,-149.5409 41.5206,-149.182 41.3283,-148.8365 41.1484,-148.5047 40.9804,-148.1867 40.8242,-147.8828 40.6792,-147.5933 40.5453,-147.3182 40.422,-147.0579 40.309,-146.8125 40.206,-146.5823 40.1127,-146.3673 40.0287,-146.1678 39.9536,-145.9839 39.8871,-145.8159 39.8288,-145.6639 39.7784,-145.528 39.7356,-145.4085 39.6999,-145.3053 39.6709,-145.2188 39.6485,-145.149 39.632,-145.096 39.6213,-145.06 39.1273,-143.2526 28.9709,-145.6466 29.3362,-147.4844 29.3427,-147.5214 29.3516,-147.5761 29.3627,-147.6486 29.3755,-147.739 29.3896,-147.8472 29.4046,-147.9733 29.4202,-148.1174 29.436,-148.2794 29.4515,-148.4594 29.4664,-148.6575 29.4804,-148.8735 29.4929,-149.1075 29.5036,-149.3595 29.5121,-149.6296 29.5181,-149.9175 29.521,-150.2234 29.5207,-150.5473 29.5166,-150.8889 29.5083,-151.2484 29.4955,-151.6257 29.4778,-152.0207 29.4548,-152.4333 29.4261,-152.8635 29.3914,-153.3112 29.3502,-153.7763 29.3021,-154.2588 29.2468,-154.7584 29.1839,-155.2752 29.113,-155.809 29.0338,-156.3598 28.9458,-156.9273 28.8487,-157.5114 28.7421,-158.1121 28.6256,-158.7291 28.4989,-159.3624 28.3616,-160.0118 28.2133,-160.6771 28.0537,-161.3582 27.8824,-162.0548 27.6991,-162.7669 27.5033,-163.4942 27.2948,-164.2365 27.0732,-164.9937 26.8381,-165.7656 26.5892,-166.5519 26.3262,-167.3524 26.0223,-167.9965 19.1616,-168.9166 18.6987,-168.3754 18.234,-167.6724 17.7868,-166.9795 17.3566,-166.2968 16.9433,-165.6248 16.5466,-164.9636 16.1661,-164.3136 15.8017,-163.675 15.4529,-163.0481 15.1194,-162.4331 14.8011,-161.8304 14.4976,-161.2402 14.2085,-160.6626 13.9335,-160.0981 13.6724,-159.5467 13.4248,-159.0088 13.1904,-158.4845 12.9689,-157.9742 12.7598,-157.4779 12.563,-156.9959 12.378,-156.5285 12.2045,-156.0758 12.0422,-155.6379 11.8907,-155.2152 11.7497,-154.8078 11.6188,-154.4158 11.4976,-154.0394 11.3859,-153.6789 11.2832,-153.3342 11.1892,-153.0057 11.1036,-152.6934 11.0258,-152.3975 10.9557,-152.1182 10.8928,-151.8555 10.8367,-151.6095 10.7871,-151.3805 10.7436,-151.1684 10.7058,-150.9735 10.6734,-150.7957 10.6459,-150.6352 10.623,-150.4921 10.6043,-150.3665 10.5894,-150.2584 10.5779,-150.1679 10.5695,-150.095 10.5637,-150.0399 10.5602,-150.0025 10.4283,-148.1334 0,-148.5 -0.0003,-150.3737 -0.0011,-150.4113 -0.003,-150.4667 -0.0063,-150.54 -0.0114,-150.6311 -0.0187,-150.74 -0.0285,-150.8666 -0.0413,-151.011 -0.0575,-151.173 -0.0774,-151.3525 -0.1014,-151.5497 -0.1299,-151.7643 -0.1633,-151.9962 -0.2019,-152.2455 -0.2462,-152.512 -0.2966,-152.7956 -0.3533,-153.0962 -0.4169,-153.4137 -0.4876,-153.748 -0.5658,-154.099 -0.6519,-154.4666 -0.7463,-154.8505 -0.8494,-155.2507 -0.9615,-155.667 -1.0829,-156.0994 -1.2141,-156.5475 -1.3553,-157.0113 -1.507,-157.4906 -1.6695,-157.9852 -1.8432,-158.4949 -2.0284,-159.0196 -2.2254,-159.559 -2.4346,-160.113 -2.6564,-160.6813 -2.891,-161.2638 -3.1388,-161.8602 -3.4001,-162.4703 -3.6754,-163.0939 -3.9648,-163.7307 -4.2687,-164.3806 -4.5874,-165.0432 -4.9213,-165.7183 -5.2706,-166.4057 -5.6357,-167.1051 -6.0168,-167.8163 -6.4143,-168.5389 -6.8285,-169.2728 -7.2522,-169.8452 -14.1606,-169.4092 -14.509,-168.788 -14.8276,-168.0079 -15.1311,-167.241 -15.4198,-166.4876 -15.694,-165.7478 -15.9541,-165.022 -16.2005,-164.3102 -16.4334,-163.6128 -16.6532,-162.9299 -16.8602,-162.2617 -17.0548,-161.6084 -17.2374,-160.9703 -17.4083,-160.3475 -17.5678,-159.7401 -17.7163,-159.1484 -17.8542,-158.5725 -17.9818,-158.0126 -18.0996,-157.4688 -18.2078,-156.9413 -18.3068,-156.4302 -18.397,-155.9357 -18.4789,-155.4578 -18.5526,-154.9967 -18.6188,-154.5526 -18.6776,-154.1254 -18.7295,-153.7154 -18.7749,-153.3227 -18.8141,-152.9472 -18.8476,-152.5892 -18.8757,-152.2487 -18.8988,-151.9257 -18.9173,-151.6203 -18.9316,-151.3326 -18.942,-151.0627 -18.9491,-150.8105 -18.953,-150.5762 -18.9543,-150.3597 -18.9533,-150.1611 -18.9505,-149.9805 -18.9461,-149.8177 -18.9407,-149.6729 -18.9345,-149.5461 -18.9281,-149.4371 -18.9217,-149.3461 -18.9157,-149.273 -18.9106,-149.2178 -18.9068,-149.1804 -18.6714,-147.3215 -28.9709,-145.6466 -29.3367,-147.4843 -29.3449,-147.5209 -29.3576,-147.5749 -29.3751,-147.6462 -29.3979,-147.7345 -29.4262,-147.8399 -29.4606,-147.9622 -29.5013,-148.1013 -29.5488,-148.257 -29.6033,-148.4293 -29.6653,-148.6179 -29.7351,-148.8228 -29.8131,-149.0438 -29.8997,-149.2808 -29.9951,-149.5335 -30.0998,-149.8018 -30.2141,-150.0856 -30.3384,-150.3846 -30.473,-150.6987 -30.6182,-151.0277 -30.7743,-151.3713 -30.9418,-151.7295 -31.121,-152.1019 -31.3121,-152.4884 -31.5156,-152.8887 -31.7316,-153.3026 -31.9607,-153.7299 -32.203,-154.1704 -32.4588,-154.6238 -32.7286,-155.0899 -33.0126,-155.5683 -33.3111,-156.059 -33.6243,-156.5615 -33.9527,-157.0756 -34.2964,-157.6011 -34.6558,-158.1377 -35.0312,-158.6851 -35.4228,-159.2431 -35.8309,-159.8112 -36.2557,-160.3893 -36.6976,-160.977 -37.1568,-161.574 -37.6335,-162.18 -38.128,-162.7948 -38.6406,-163.4179 -39.1714,-164.0491 -39.7207,-164.6881 -40.248,-165.1669 -46.9386,-163.3915 -47.1591,-162.7142 -47.3194,-161.887 -47.4674,-161.0756 -47.6036,-160.2803 -47.7283,-159.5013 -47.8418,-158.7386 -47.9445,-157.9925 -48.0369,-157.263 -48.1192,-156.5503 -48.1919,-155.8546 -48.2554,-155.176 -48.3099,-154.5145 -48.356,-153.8703 -48.394,-153.2435 -48.4242,-152.6342 -48.4471,-152.0424 -48.463,-151.4684 -48.4724,-150.9121 -48.4756,-150.3736 -48.4731,-149.853 -48.4651,-149.3503 -48.4521,-148.8657 -48.4345,-148.3991 -48.4127,-147.9505 -48.3871,-147.5201 -48.358,-147.1079 -48.3259,-146.7138 -48.2911,-146.3379 -48.2541,-145.9803 -48.2152,-145.6408 -48.1749,-145.3195 -48.1335,-145.0164 -48.0914,-144.7314 -48.049,-144.4646 -48.0066,-144.216 -47.9648,-143.9854 -47.9238,-143.7728 -47.8842,-143.5782 -47.8461,-143.4016 -47.8101,-143.2428 -47.7765,-143.1019 -47.7457,-142.9786 -47.7181,-142.873 -47.6941,-142.785 -47.674,-142.7145 -47.6582,-142.6613 -47.6471,-142.6254 -47.0537,-140.8481 -56.8285,-137.1961 -57.5458,-138.9271 -57.561,-138.9615 -57.5839,-139.0119 -57.615,-139.0784 -57.6546,-139.1606 -57.703,-139.2584 -57.7605,-139.3717 -57.8276,-139.5001 -57.9045,-139.6436 -57.9916,-139.8019 -58.0892,-139.9748 -58.1977,-140.1622 -58.3173,-140.3637 -58.4484,-140.5792 -58.5913,-140.8085 -58.7464,-141.0512 -58.9138,-141.3072 -59.094,-141.5763 -59.2873,-141.8581 -59.4939,-142.1524 -59.7141,-142.459 -59.9483,-142.7776 -60.1966,-143.1079 -60.4595,-143.4497 -60.7371,-143.8026 -61.0298,-144.1664 -61.3378,-144.5409 -61.6613,-144.9256 -62.0008,-145.3204 -62.3563,-145.7248 -62.7281,-146.1387 -63.1166,-146.5617 -63.5219,-146.9934 -63.9442,-147.4336 -64.3839,-147.882 -64.8411,-148.3381 -65.316,-148.8018 -65.8089,-149.2726 -66.32,-149.7502 -66.8495,-150.2343 -67.3975,-150.7245 -67.9643,-151.2205 -68.5501,-151.7219 -69.1551,-152.2283 -69.7793,-152.7395 -70.4231,-153.255 -71.0866,-153.7745 -71.6971,-154.1412 -77.9128,-151.0947 -77.9969,-150.3874 -77.9928,-149.5448 -77.9797,-148.7202 -77.9581,-147.9136 -77.9283,-147.1252 -77.8909,-146.355 -77.8461,-145.6032 -77.7944,-144.8697 -77.7361,-144.1547 -77.6717,-143.4581 -77.6015,-142.7801 -77.5259,-142.1207 -77.4455,-141.4799 -77.3604,-140.8577 -77.2712,-140.2542 -77.1782,-139.6694 -77.0819,-139.1033 -76.9825,-138.5558 -76.8806,-138.0271 -76.7765,-137.517 -76.6706,-137.0255 -76.5634,-136.5527 -76.4551,-136.0985 -76.3462,-135.6629 -76.2371,-135.2457 -76.1281,-134.8471 -76.0198,-134.4669 -75.9124,-134.105 -75.8063,-133.7614 -75.7019,-133.436 -75.5997,-133.1288 -75.4999,-132.8396 -75.403,-132.5683 -75.3094,-132.3149 -75.2193,-132.0793 -75.1333,-131.8613 -75.0517,-131.6608 -74.9748,-131.4777 -74.903,-131.3119 -74.8367,-131.1632 -74.7763,-131.0315 -74.722,-130.9166 -74.6744,-130.8184 -74.6336,-130.7368 -74.6001,-130.6715 -74.5743,-130.6225 -74.5564,-130.5894 -73.6277,-128.9621 -82.5022,-123.4732 -83.5434,-125.031 -83.565,-125.0618 -83.5973,-125.1068 -83.6408,-125.1659 -83.6956,-125.2388 -83.7622,-125.3253 -83.8407,-125.4251 -83.9316,-125.5381 -84.035,-125.6638 -84.1513,-125.8021 -84.2808,-125.9526 -84.4237,-126.1152 -84.5803,-126.2895 -84.751,-126.4753 -84.9359,-126.6723 -85.1353,-126.8801 -85.3495,-127.0985 -85.5787,-127.3272 -85.8232,-127.5659 -86.0833,-127.8143 -86.3591,-128.072 -86.6509,-128.3388 -86.9589,-128.6143 -87.2834,-128.8983 -87.6246,-129.1902 -87.9826,-129.49 -88.3577,-129.7971 -88.7501,-130.1114 -89.16,-130.4323 -89.5876,-130.7597 -90.0331,-131.093 -90.4966,-131.4321 -90.9783,-131.7765 -91.4784,-132.1258 -91.9971,-132.4798 -92.5345,-132.838 -93.0908,-133.2001 -93.6661,-133.5657 -94.2605,-133.9344 -94.8742,-134.3059 -95.5074,-134.6798 -96.1601,-135.0556 -96.8324,-135.4331 -97.5245,-135.8118 -98.2365,-136.1914 -98.9685,-136.5714 -99.7206,-136.9515 -100.3909,-137.192 -105.8928,-132.9914 -105.8374,-132.2813 -105.6689,-131.4557 -105.4952,-130.6495 -105.3166,-129.8626 -105.1337,-129.0952 -104.9467,-128.3471 -104.7561,-127.6184 -104.5622,-126.9091 -104.3656,-126.2192 -104.1665,-125.5486 -103.9654,-124.8974 -103.7627,-124.2653 -103.5587,-123.6526 -103.3539,-123.0589 -103.1487,-122.4844 -102.9434,-121.929 -102.7385,-121.3925 -102.5342,-120.875 -102.3311,-120.3762 -102.1295,-119.8963 -101.9298,-119.4349 -101.7323,-118.9921 -101.5375,-118.5678 -101.3457,-118.1617 -101.1573,-117.7739 -100.9727,-117.4042 -100.7923,-117.0524 -100.6163,-116.7184 -100.4452,-116.4021 -100.2794,-116.1034 -100.1192,-115.822 -99.9649,-115.5578 -99.8169,-115.3106 -99.6757,-115.0804 -99.5414,-114.8668 -99.4145,-114.6698 -99.2953,-114.4891 -99.1842,-114.3245 -99.0814,-114.1759 -98.9874,-114.043 -98.9024,-113.9256 -98.8268,-113.8235 -98.7609,-113.7365 -98.705,-113.6644 -98.6595,-113.6069 -98.6246,-113.5639 -98.6006,-113.5349 -97.3722,-112.1201 -105.0054,-105.0054 -106.3305,-106.3301 -106.3576,-106.356 -106.3982,-106.3939 -106.4523,-106.4434 -106.5203,-106.5042 -106.6025,-106.576 -106.699,-106.6586 -106.8101,-106.7516 -106.9361,-106.8548 -107.0771,-106.9677 -107.2335,-107.0901 -107.4054,-107.2217 -107.593,-107.3621 -107.7966,-107.511 -108.0164,-107.6681 -108.2525,-107.8331 -108.5052,-108.0055 -108.7747,-108.1851 -109.061,-108.3715 -109.3645,-108.5644 -109.6853,-108.7634 -110.0236,-108.9681 -110.3794,-109.1782 -110.7531,-109.3934 -111.1446,-109.6132 -111.5543,-109.8373 -111.9821,-110.0654 -112.4283,-110.297 -112.8929,-110.5318 -113.3762,-110.7695 -113.8781,-111.0095 -114.3988,-111.2516 -114.9385,-111.4954 -115.4972,-111.7405 -116.0749,-111.9865 -116.6719,-112.233 -117.2881,-112.4796 -117.9237,-112.7259 -118.5786,-112.9716 -119.253,-113.2162 -119.9469,-113.4594 -120.6604,-113.7007 -121.3935,-113.9397 -122.1462,-114.1761 -122.9186,-114.4095 -123.7106,-114.6394 -124.5224,-114.8655 -125.2268,-114.9706 -129.8035,-109.7773 -129.6106,-109.0917 -129.2842,-108.3148 -128.9566,-107.558 -128.6279,-106.8211 -128.2988,-106.1041 -127.9694,-105.4069 -127.6403,-104.7294 -127.3118,-104.0715 -126.9844,-103.4332 -126.6583,-102.8144 -126.334,-102.2148 -126.0119,-101.6345 -125.6923,-101.0733 -125.3756,-100.531 -125.0622,-100.0076 -124.7525,-99.5029 -124.4469,-99.0167 -124.1456,-98.549 -123.8491,-98.0994 -123.5577,-97.668 -123.2718,-97.2545 -122.9918,-96.8587 -122.7179,-96.4805 -122.4506,-96.1197 -122.1902,-95.7761 -121.937,-95.4495 -121.6914,-95.1397 -121.4536,-94.8464 -121.2241,-94.5696 -121.0032,-94.3089 -120.7911,-94.0642 -120.5883,-93.8352 -120.395,-93.6217 -120.2115,-93.4234 -120.0382,-93.2401 -119.8753,-93.0716 -119.7231,-92.9177 -119.582,-92.7779 -119.4522,-92.6522 -119.3341,-92.5402 -119.2278,-92.4416 -119.1338,-92.3563 -119.0522,-92.2838 -118.9833,-92.224 -118.9274,-92.1765 -118.8847,-92.1411 -118.8556,-92.1174 -117.3747,-90.9693 -123.4732,-82.5022 -125.0313,-83.5429 -125.063,-83.5631 -125.1102,-83.5923 -125.1729,-83.6303 -125.2515,-83.6766 -125.3461,-83.7311 -125.4569,-83.7933 -125.584,-83.8628 -125.7277,-83.9394 -125.888,-84.0226 -126.0653,-84.1122 -126.2595,-84.2077 -126.471,-84.3088 -126.6997,-84.4152 -126.9459,-84.5264 -127.2097,-84.6421 -127.4911,-84.7619 -127.7905,-84.8855 -128.1077,-85.0124 -128.443,-85.1424 -128.7964,-85.275 -129.1681,-85.4098 -129.5581,-85.5464 -129.9666,-85.6845 -130.3935,-85.8238 -130.839,-85.9637 -131.3031,-86.1039 -131.7859,-86.244 -132.2874,-86.3837 -132.8077,-86.5225 -133.3468,-86.66 -133.9048,-86.7959 -134.4817,-86.9297 -135.0774,-87.0611 -135.6921,-87.1896 -136.3256,-87.3149 -136.9781,-87.4365 -137.6495,-87.5542 -138.3398,-87.6673 -139.049,-87.7757 -139.777,-87.8788 -140.5239,-87.9763 -141.2895,-88.0677 -142.0739,-88.1527 -142.8769,-88.2309 -143.6986,-88.3019 -144.5389,-88.3653 -145.2503,-88.331 -148.7258,-82.3446 -148.4029,-81.7098 -147.9312,-81.0115 -147.4622,-80.3331 -146.9961,-79.6745 -146.5334,-79.0355 -146.0744,-78.4159 -145.6194,-77.8156 -145.1689,-77.2345 -144.7232,-76.6724 -144.2827,-76.129 -143.8477,-75.6043 -143.4185,-75.0979 -142.9956,-74.6099 -142.5792,-74.1398 -142.1697,-73.6876 -141.7675,-73.253 -141.3729,-72.8358 -140.9861,-72.4358 -140.6076,-72.0527 -140.2377,-71.6864 -139.8766,-71.3366 -139.5247,-71.0031 -139.1824,-70.6856 -138.8498,-70.3839 -138.5273,-70.0977 -138.2153,-69.8267 -137.9139,-69.5708 -137.6235,-69.3296 -137.3445,-69.1028 -137.0769,-68.8903 -136.8212,-68.6916 -136.5776,-68.5066 -136.3463,-68.3349 -136.1277,-68.1762 -135.9219,-68.0303 -135.7293,-67.8968 -135.55,-67.7754 -135.3843,-67.6659 -135.2325,-67.5679 -135.0948,-67.4811 -134.9714,-67.4052 -134.8625,-67.3398 -134.7683,-67.2847 -134.6891,-67.2395 -134.625,-67.2038 -134.5762,-67.1773 -134.543,-67.1598 -132.8667,-66.3227 -137.1961,-56.8285 -138.9273,-57.5453 -138.9623,-57.5588 -139.0143,-57.5783 -139.0832,-57.6033 -139.1693,-57.6335 -139.2727,-57.6684 -139.3935,-57.7078 -139.5317,-57.7512 -139.6876,-57.7983 -139.8611,-57.8486 -140.0524,-57.9019 -140.2616,-57.9577 -140.4887,-58.0156 -140.7338,-58.0753 -140.9969,-58.1363 -141.2782,-58.1983 -141.5777,-58.2609 -141.8953,-58.3237 -142.2313,-58.3864 -142.5855,-58.4484 -142.958,-58.5095 -143.3488,-58.5692 -143.758,-58.6271 -144.1855,-58.6829 -144.6314,-58.7362 -145.0956,-58.7865 -145.5782,-58.8335 -146.079,-58.8767 -146.5982,-58.9158 -147.1355,-58.9505 -147.6911,-58.9802 -148.2649,-59.0046 -148.8568,-59.0233 -149.4667,-59.0359 -150.0946,-59.0421 -150.7405,-59.0414 -151.4042,-59.0334 -152.0856,-59.0177 -152.7847,-58.9941 -153.5014,-58.962 -154.2355,-58.9211 -154.9871,-58.871 -155.7558,-58.8113 -156.5417,-58.7417 -157.3446,-58.6617 -158.1643,-58.571 -159.0008,-58.4692 -159.6918,-58.2968 -161.9327,-51.7474 -161.4921,-51.1878 -160.8933,-50.5949 -160.301,-50.0211 -159.7154,-49.466 -159.1369,-48.9296 -158.5658,-48.4115 -158.0025,-47.9115 -157.4473,-47.4294 -156.9005,-46.965 -156.3624,-46.5181 -155.8333,-46.0883 -155.3136,-45.6754 -154.8036,-45.2792 -154.3035,-44.8994 -153.8137,-44.5357 -153.3344,-44.188 -152.866,-43.8558 -152.4086,-43.5389 -151.9627,-43.2371 -151.5284,-42.95 -151.106,-42.6773 -150.6958,-42.4189 -150.2981,-42.1743 -149.913,-41.9432 -149.5409,-41.7254 -149.182,-41.5206 -148.8365,-41.3283 -148.5047,-41.1484 -148.1867,-40.9804 -147.8828,-40.8242 -147.5933,-40.6792 -147.3182,-40.5453 -147.0579,-40.422 -146.8125,-40.309 -146.5823,-40.206 -146.3673,-40.1127 -146.1678,-40.0287 -145.9839,-39.9536 -145.8159,-39.8871 -145.6639,-39.8288 -145.528,-39.7784 -145.4085,-39.7356 -145.3053,-39.6999 -145.2188,-39.6709 -145.149,-39.6485 -145.096,-39.632 -145.06,-39.6213 -143.2526,-39.1273 -145.6466,-28.9709 -147.4844,-29.3362 -147.5214,-29.3427 -147.5761,-29.3516 -147.6486,-29.3627 -147.739,-29.3755 -147.8472,-29.3896 -147.9733,-29.4046 -148.1174,-29.4202 -148.2794,-29.436 -148.4594,-29.4515 -148.6575,-29.4664 -148.8735,-29.4804 -149.1075,-29.4929 -149.3595,-29.5036 -149.6296,-29.5121 -149.9175,-29.5181 -150.2234,-29.521 -150.5473,-29.5207 -150.8889,-29.5166 -151.2484,-29.5083 -151.6257,-29.4955 -152.0207,-29.4778 -152.4333,-29.4548 -152.8635,-29.4261 -153.3112,-29.3914 -153.7763,-29.3502 -154.2588,-29.3021 -154.7584,-29.2468 -155.2752,-29.1839 -155.809,-29.113 -156.3598,-29.0338 -156.9273,-28.9458 -157.5114,-28.8487 -158.1121,-28.7421 -158.7291,-28.6256 -159.3624,-28.4989 -160.0118,-28.3616 -160.6771,-28.2133 -161.3582,-28.0537 -162.0548,-27.8824 -162.7669,-27.6991 -163.4942,-27.5033 -164.2365,-27.2948 -164.9937,-27.0732 -165.7656,-26.8381 -166.5519,-26.5892 -167.3524,-26.3262 -167.9965,-26.0223 -168.9166,-19.1616 -168.3754,-18.6987 -167.6724,-18.234 -166.9795,-17.7868 -166.2968,-17.3566 -165.6248,-16.9433 -164.9636,-16.5466 -164.3136,-16.1661 -163.675,-15.8017 -163.0481,-15.4529 -162.4331,-15.1194 -161.8304,-14.8011 -161.2402,-14.4976 -160.6626,-14.2085 -160.0981,-13.9335 -159.5467,-13.6724 -159.0088,-13.4248 -158.4845,-13.1904 -157.9742,-12.9689 -157.4779,-12.7598 -156.9959,-12.563 -156.5285,-12.378 -156.0758,-12.2045 -155.6379,-12.0422 -155.2152,-11.8907 -154.8078,-11.7497 -154.4158,-11.6188 -154.0394,-11.4976 -153.6789,-11.3859 -153.3342,-11.2832 -153.0057,-11.1892 -152.6934,-11.1036 -152.3975,-11.0258 -152.1182,-10.9557 -151.8555,-10.8928 -151.6095,-10.8367 -151.3805,-10.7871 -151.1684,-10.7436 -150.9735,-10.7058 -150.7957,-10.6734 -150.6352,-10.6459 -150.4921,-10.623 -150.3665,-10.6043 -150.2584,-10.5894 -150.1679,-10.5779 -150.095,-10.5695 -150.0399,-10.5637 -150.0025,-10.5602 -148.1334,-10.4283 -148.5,0 -150.3737,0.0003 -150.4113,0.0011 -150.4667,0.003 -150.54,0.0063 -150.6311,0.0114 -150.74,0.0187 -150.8666,0.0285 -151.011,0.0413 -151.173,0.0575 -151.3525,0.0774 -151.5497,0.1014 -151.7643,0.1299 -151.9962,0.1633 -152.2455,0.2019 -152.512,0.2462 -152.7956,0.2966 -153.0962,0.3533 -153.4137,0.4169 -153.748,0.4876 -154.099,0.5658 -154.4666,0.6519 -154.8505,0.7463 -155.2507,0.8494 -155.667,0.9615 -156.0994,1.0829 -156.5475,1.2141 -157.0113,1.3553 -157.4906,1.507 -157.9852,1.6695 -158.4949,1.8432 -159.0196,2.0284 -159.559,2.2254 -160.113,2.4346 -160.6813,2.6564 -161.2638,2.891 -161.8602,3.1388 -162.4703,3.4001 -163.0939,3.6754 -163.7307,3.9648 -164.3806,4.2687 -165.0432,4.5874 -165.7183,4.9213 -166.4057,5.2706 -167.1051,5.6357 -167.8163,6.0168 -168.5389,6.4143 -169.2728,6.8285 -169.8452,7.2522 -169.4092,14.1606 -168.788,14.509 -168.0079,14.8276 -167.241,15.1311 -166.4876,15.4198 -165.7478,15.694 -165.022,15.9541 -164.3102,16.2005 -163.6128,16.4334 -162.9299,16.6532 -162.2617,16.8602 -161.6084,17.0548 -160.9703,17.2374 -160.3475,17.4083 -159.7401,17.5678 -159.1484,17.7163 -158.5725,17.8542 -158.0126,17.9818 -157.4688,18.0996 -156.9413,18.2078 -156.4302,18.3068 -155.9357,18.397 -155.4578,18.4789 -154.9967,18.5526 -154.5526,18.6188 -154.1254,18.6776 -153.7154,18.7295 -153.3227,18.7749 -152.9472,18.8141 -152.5892,18.8476 -152.2487,18.8757 -151.9257,18.8988 -151.6203,18.9173 -151.3326,18.9316 -151.0627,18.942 -150.8105,18.9491 -150.5762,18.953 -150.3597,18.9543 -150.1611,18.9533 -149.9805,18.9505 -149.8177,18.9461 -149.6729,18.9407 -149.5461,18.9345 -149.4371,18.9281 -149.3461,18.9217 -149.273,18.9157 -149.2178,18.9106 -149.1804,18.9068 -147.3215,18.6714 -145.6466,28.9709 -147.4843,29.3367 -147.5209,29.3449 -147.5749,29.3576 -147.6462,29.3751 -147.7345,29.3979 -147.8399,29.4262 -147.9622,29.4606 -148.1013,29.5013 -148.257,29.5488 -148.4293,29.6033 -148.6179,29.6653 -148.8228,29.7351 -149.0438,29.8131 -149.2808,29.8997 -149.5335,29.9951 -149.8018,30.0998 -150.0856,30.2141 -150.3846,30.3384 -150.6987,30.473 -151.0277,30.6182 -151.3713,30.7743 -151.7295,30.9418 -152.1019,31.121 -152.4884,31.3121 -152.8887,31.5156 -153.3026,31.7316 -153.7299,31.9607 -154.1704,32.203 -154.6238,32.4588 -155.0899,32.7286 -155.5683,33.0126 -156.059,33.3111 -156.5615,33.6243 -157.0756,33.9527 -157.6011,34.2964 -158.1377,34.6558 -158.6851,35.0312 -159.2431,35.4228 -159.8112,35.8309 -160.3893,36.2557 -160.977,36.6976 -161.574,37.1568 -162.18,37.6335 -162.7948,38.128 -163.4179,38.6406 -164.0491,39.1714 -164.6881,39.7207 -165.1669,40.248 -163.3915,46.9386 -162.7142,47.1591 -161.887,47.3194 -161.0756,47.4674 -160.2803,47.6036 -159.5013,47.7283 -158.7386,47.8418 -157.9925,47.9445 -157.263,48.0369 -156.5503,48.1192 -155.8546,48.1919 -155.176,48.2554 -154.5145,48.3099 -153.8703,48.356 -153.2435,48.394 -152.6342,48.4242 -152.0424,48.4471 -151.4684,48.463 -150.9121,48.4724 -150.3736,48.4756 -149.853,48.4731 -149.3503,48.4651 -148.8657,48.4521 -148.3991,48.4345 -147.9505,48.4127 -147.5201,48.3871 -147.1079,48.358 -146.7138,48.3259 -146.3379,48.2911 -145.9803,48.2541 -145.6408,48.2152 -145.3195,48.1749 -145.0164,48.1335 -144.7314,48.0914 -144.4646,48.049 -144.216,48.0066 -143.9854,47.9648 -143.7728,47.9238 -143.5782,47.8842 -143.4016,47.8461 -143.2428,47.8101 -143.1019,47.7765 -142.9786,47.7457 -142.873,47.7181 -142.785,47.6941 -142.7145,47.674 -142.6613,47.6582 -142.6254,47.6471 -140.8481,47.0537 -137.1961,56.8285 -138.9271,57.5458 -138.9615,57.561 -139.0119,57.5839 -139.0784,57.615 -139.1606,57.6546 -139.2584,57.703 -139.3717,57.7605 -139.5001,57.8276 -139.6436,57.9045 -139.8019,57.9916 -139.9748,58.0892 -140.1622,58.1977 -140.3637,58.3173 -140.5792,58.4484 -140.8085,58.5913 -141.0512,58.7464 -141.3072,58.9138 -141.5763,59.094 -141.8581,59.2873 -142.1524,59.4939 -142.459,59.7141 -142.7776,59.9483 -143.1079,60.1966 -143.4497,60.4595 -143.8026,60.7371 -144.1664,61.0298 -144.5409,61.3378 -144.9256,61.6613 -145.3204,62.0008 -145.7248,62.3563 -146.1387,62.7281 -146.5617,63.1166 -146.9934,63.5219 -147.4336,63.9442 -147.882,64.3839 -148.3381,64.8411 -148.8018,65.316 -149.2726,65.8089 -149.7502,66.32 -150.2343,66.8495 -150.7245,67.3975 -151.2205,67.9643 -151.7219,68.5501 -152.2283,69.1551 -152.7395,69.7793 -153.255,70.4231 -153.7745,71.0866 -154.1412,71.6971 -151.0947,77.9128 -150.3874,77.9969 -149.5448,77.9928 -148.7202,77.9797 -147.9136,77.9581 -147.1252,77.9283 -146.355,77.8909 -145.6032,77.8461 -144.8697,77.7944 -144.1547,77.7361 -143.4581,77.6717 -142.7801,77.6015 -142.1207,77.5259 -141.4799,77.4455 -140.8577,77.3604 -140.2542,77.2712 -139.6694,77.1782 -139.1033,77.0819 -138.5558,76.9825 -138.0271,76.8806 -137.517,76.7765 -137.0255,76.6706 -136.5527,76.5634 -136.0985,76.4551 -135.6629,76.3462 -135.2457,76.2371 -134.8471,76.1281 -134.4669,76.0198 -134.105,75.9124 -133.7614,75.8063 -133.436,75.7019 -133.1288,75.5997 -132.8396,75.4999 -132.5683,75.403 -132.3149,75.3094 -132.0793,75.2193 -131.8613,75.1333 -131.6608,75.0517 -131.4777,74.9748 -131.3119,74.903 -131.1632,74.8367 -131.0315,74.7763 -130.9166,74.722 -130.8184,74.6744 -130.7368,74.6336 -130.6715,74.6001 -130.6225,74.5743 -130.5894,74.5564 -128.9621,73.6277 -123.4732,82.5022 -125.031,83.5434 -125.0618,83.565 -125.1068,83.5973 -125.1659,83.6408 -125.2388,83.6956 -125.3253,83.7622 -125.4251,83.8407 -125.5381,83.9316 -125.6638,84.035 -125.8021,84.1513 -125.9526,84.2808 -126.1152,84.4237 -126.2895,84.5803 -126.4753,84.751 -126.6723,84.9359 -126.8801,85.1353 -127.0985,85.3495 -127.3272,85.5787 -127.5659,85.8232 -127.8143,86.0833 -128.072,86.3591 -128.3388,86.6509 -128.6143,86.9589 -128.8983,87.2834 -129.1902,87.6246 -129.49,87.9826 -129.7971,88.3577 -130.1114,88.7501 -130.4323,89.16 -130.7597,89.5876 -131.093,90.0331 -131.4321,90.4966 -131.7765,90.9783 -132.1258,91.4784 -132.4798,91.9971 -132.838,92.5345 -133.2001,93.0908 -133.5657,93.6661 -133.9344,94.2605 -134.3059,94.8742 -134.6798,95.5074 -135.0556,96.1601 -135.4331,96.8324 -135.8118,97.5245 -136.1914,98.2365 -136.5714,98.9685 -136.9515,99.7206 -137.192,100.3909 -132.9914,105.8928 -132.2813,105.8374 -131.4557,105.6689 -130.6495,105.4952 -129.8626,105.3166 -129.0952,105.1337 -128.3471,104.9467 -127.6184,104.7561 -126.9091,104.5622 -126.2192,104.3656 -125.5486,104.1665 -124.8974,103.9654 -124.2653,103.7627 -123.6526,103.5587 -123.0589,103.3539 -122.4844,103.1487 -121.929,102.9434 -121.3925,102.7385 -120.875,102.5342 -120.3762,102.3311 -119.8963,102.1295 -119.4349,101.9298 -118.9921,101.7323 -118.5678,101.5375 -118.1617,101.3457 -117.7739,101.1573 -117.4042,100.9727 -117.0524,100.7923 -116.7184,100.6163 -116.4021,100.4452 -116.1034,100.2794 -115.822,100.1192 -115.5578,99.9649 -115.3106,99.8169 -115.0804,99.6757 -114.8668,99.5414 -114.6698,99.4145 -114.4891,99.2953 -114.3245,99.1842 -114.1759,99.0814 -114.043,98.9874 -113.9256,98.9024 -113.8235,98.8268 -113.7365,98.7609 -113.6644,98.705 -113.6069,98.6595 -113.5639,98.6246 -113.5349,98.6006 -112.1201,97.3722 -105.0054,105.0054 -106.3301,106.3305 -106.356,106.3576 -106.3939,106.3982 -106.4434,106.4523 -106.5042,106.5203 -106.576,106.6025 -106.6586,106.699 -106.7516,106.8101 -106.8548,106.9361 -106.9677,107.0771 -107.0901,107.2335 -107.2217,107.4054 -107.3621,107.593 -107.511,107.7966 -107.6681,108.0164 -107.8331,108.2525 -108.0055,108.5052 -108.1851,108.7747 -108.3715,109.061 -108.5644,109.3645 -108.7634,109.6853 -108.9681,110.0236 -109.1782,110.3794 -109.3934,110.7531 -109.6132,111.1446 -109.8373,111.5543 -110.0654,111.9821 -110.297,112.4283 -110.5318,112.8929 -110.7695,113.3762 -111.0095,113.8781 -111.2516,114.3988 -111.4954,114.9385 -111.7405,115.4972 -111.9865,116.0749 -112.233,116.6719 -112.4796,117.2881 -112.7259,117.9237 -112.9716,118.5786 -113.2162,119.253 -113.4594,119.9469 -113.7007,120.6604 -113.9397,121.3935 -114.1761,122.1462 -114.4095,122.9186 -114.6394,123.7106 -114.8655,124.5224 -114.9706,125.2268 -109.7773,129.8035 -109.0917,129.6106 -108.3148,129.2842 -107.558,128.9566 -106.8211,128.6279 -106.1041,128.2988 -105.4069,127.9694 -104.7294,127.6403 -104.0715,127.3118 -103.4332,126.9844 -102.8144,126.6583 -102.2148,126.334 -101.6345,126.0119 -101.0733,125.6923 -100.531,125.3756 -100.0076,125.0622 -99.5029,124.7525 -99.0167,124.4469 -98.549,124.1456 -98.0994,123.8491 -97.668,123.5577 -97.2545,123.2718 -96.8587,122.9918 -96.4805,122.7179 -96.1197,122.4506 -95.7761,122.1902 -95.4495,121.937 -95.1397,121.6914 -94.8464,121.4536 -94.5696,121.2241 -94.3089,121.0032 -94.0642,120.7911 -93.8352,120.5883 -93.6217,120.395 -93.4234,120.2115 -93.2401,120.0382 -93.0716,119.8753 -92.9177,119.7231 -92.7779,119.582 -92.6522,119.4522 -92.5402,119.3341 -92.4416,119.2278 -92.3563,119.1338 -92.2838,119.0522 -92.224,118.9833 -92.1765,118.9274 -92.1411,118.8847 -92.1174,118.8556 -90.9693,117.3747 -82.5022,123.4732 -83.5429,125.0313 -83.5631,125.063 -83.5923,125.1102 -83.6303,125.1729 -83.6766,125.2515 -83.7311,125.3461 -83.7933,125.4569 -83.8628,125.584 -83.9394,125.7277 -84.0226,125.888 -84.1122,126.0653 -84.2077,126.2595 -84.3088,126.471 -84.4152,126.6997 -84.5264,126.9459 -84.6421,127.2097 -84.7619,127.4911 -84.8855,127.7905 -85.0124,128.1077 -85.1424,128.443 -85.275,128.7964 -85.4098,129.1681 -85.5464,129.5581 -85.6845,129.9666 -85.8238,130.3935 -85.9637,130.839 -86.1039,131.3031 -86.244,131.7859 -86.3837,132.2874 -86.5225,132.8077 -86.66,133.3468 -86.7959,133.9048 -86.9297,134.4817 -87.0611,135.0774 -87.1896,135.6921 -87.3149,136.3256 -87.4365,136.9781 -87.5542,137.6495 -87.6673,138.3398 -87.7757,139.049 -87.8788,139.777 -87.9763,140.5239 -88.0677,141.2895 -88.1527,142.0739 -88.2309,142.8769 -88.3019,143.6986 -88.3653,144.5389 -88.331,145.2503 -82.3446,148.7258 -81.7098,148.4029 -81.0115,147.9312 -80.3331,147.4622 -79.6745,146.9961 -79.0355,146.5334 -78.4159,146.0744 -77.8156,145.6194 -77.2345,145.1689 -76.6724,144.7232 -76.129,144.2827 -75.6043,143.8477 -75.0979,143.4185 -74.6099,142.9956 -74.1398,142.5792 -73.6876,142.1697 -73.253,141.7675 -72.8358,141.3729 -72.4358,140.9861 -72.0527,140.6076 -71.6864,140.2377 -71.3366,139.8766 -71.0031,139.5247 -70.6856,139.1824 -70.3839,138.8498 -70.0977,138.5273 -69.8267,138.2153 -69.5708,137.9139 -69.3296,137.6235 -69.1028,137.3445 -68.8903,137.0769 -68.6916,136.8212 -68.5066,136.5776 -68.3349,136.3463 -68.1762,136.1277 -68.0303,135.9219 -67.8968,135.7293 -67.7754,135.55 -67.6659,135.3843 -67.5679,135.2325 -67.4811,135.0948 -67.4052,134.9714 -67.3398,134.8625 -67.2847,134.7683 -67.2395,134.6891 -67.2038,134.625 -67.1773,134.5762 -67.1598,134.543 -66.3227,132.8667 -56.8285,137.1961 -57.5453,138.9273 -57.5588,138.9623 -57.5783,139.0143 -57.6033,139.0832 -57.6335,139.1693 -57.6684,139.2727 -57.7078,139.3935 -57.7512,139.5317 -57.7983,139.6876 -57.8486,139.8611 -57.9019,140.0524 -57.9577,140.2616 -58.0156,140.4887 -58.0753,140.7338 -58.1363,140.9969 -58.1983,141.2782 -58.2609,141.5777 -58.3237,141.8953 -58.3864,142.2313 -58.4484,142.5855 -58.5095,142.958 -58.5692,143.3488 -58.6271,143.758 -58.6829,144.1855 -58.7362,144.6314 -58.7865,145.0956 -58.8335,145.5782 -58.8767,146.079 -58.9158,146.5982 -58.9505,147.1355 -58.9802,147.6911 -59.0046,148.2649 -59.0233,148.8568 -59.0359,149.4667 -59.0421,150.0946 -59.0414,150.7405 -59.0334,151.4042 -59.0177,152.0856 -58.9941,152.7847 -58.962,153.5014 -58.9211,154.2355 -58.871,154.9871 -58.8113,155.7558 -58.7417,156.5417 -58.6617,157.3446 -58.571,158.1643 -58.4692,159.0008 -58.2968,159.6918 -51.7474,161.9327 -51.1878,161.4921 -50.5949,160.8933 -50.0211,160.301 -49.466,159.7154 -48.9296,159.1369 -48.4115,158.5658 -47.9115,158.0025 -47.4294,157.4473 -46.965,156.9005 -46.5181,156.3624 -46.0883,155.8333 -45.6754,155.3136 -45.2792,154.8036 -44.8994,154.3035 -44.5357,153.8137 -44.188,153.3344 -43.8558,152.866 -43.5389,152.4086 -43.2371,151.9627 -42.95,151.5284 -42.6773,151.106 -42.4189,150.6958 -42.1743,150.2981 -41.9432,149.913 -41.7254,149.5409 -41.5206,149.182 -41.3283,148.8365 -41.1484,148.5047 -40.9804,148.1867 -40.8242,147.8828 -40.6792,147.5933 -40.5453,147.3182 -40.422,147.0579 -40.309,146.8125 -40.206,146.5823 -40.1127,146.3673 -40.0287,146.1678 -39.9536,145.9839 -39.8871,145.8159 -39.8288,145.6639 -39.7784,145.528 -39.7356,145.4085 -39.6999,145.3053 -39.6709,145.2188 -39.6485,145.149 -39.632,145.096 -39.6213,145.06 -39.1273,143.2526 -28.9709,145.6466 -29.3362,147.4844 -29.3427,147.5214 -29.3516,147.5761 -29.3627,147.6486 -29.3755,147.739 -29.3896,147.8472 -29.4046,147.9733 -29.4202,148.1174 -29.436,148.2794 -29.4515,148.4594 -29.4664,148.6575 -29.4804,148.8735 -29.4929,149.1075 -29.5036,149.3595 -29.5121,149.6296 -29.5181,149.9175 -29.521,150.2234 -29.5207,150.5473 -29.5166,150.8889 -29.5083,151.2484 -29.4955,151.6257 -29.4778,152.0207 -29.4548,152.4333 -29.4261,152.8635 -29.3914,153.3112 -29.3502,153.7763 -29.3021,154.2588 -29.2468,154.7584 -29.1839,155.2752 -29.113,155.809 -29.0338,156.3598 -28.9458,156.9273 -28.8487,157.5114 -28.7421,158.1121 -28.6256,158.7291 -28.4989,159.3624 -28.3616,160.0118 -28.2133,160.6771 -28.0537,161.3582 -27.8824,162.0548 -27.6991,162.7669 -27.5033,163.4942 -27.2948,164.2365 -27.0732,164.9937 -26.8381,165.7656 -26.5892,166.5519 -26.3262,167.3524 -26.0223,167.9965 -19.1616,168.9166 -18.6987,168.3754 -18.234,167.6724 -17.7868,166.9795 -17.3566,166.2968 -16.9433,165.6248 -16.5466,164.9636 -16.1661,164.3136 -15.8017,163.675 -15.4529,163.0481 -15.1194,162.4331 -14.8011,161.8304 -14.4976,161.2402 -14.2085,160.6626 -13.9335,160.0981 -13.6724,159.5467 -13.4248,159.0088 -13.1904,158.4845 -12.9689,157.9742 -12.7598,157.4779 -12.563,156.9959 -12.378,156.5285 -12.2045,156.0758 -12.0422,155.6379 -11.8907,155.2152 -11.7497,154.8078 -11.6188,154.4158 -11.4976,154.0394 -11.3859,153.6789 -11.2832,153.3342 -11.1892,153.0057 -11.1036,152.6934 -11.0258,152.3975 -10.9557,152.1182 -10.8928,151.8555 -10.8367,151.6095 -10.7871,151.3805 -10.7436,151.1684 -10.7058,150.9735 -10.6734,150.7957 -10.6459,150.6352 -10.623,150.4921 -10.6043,150.3665 -10.5894,150.2584 -10.5779,150.1679 -10.5695,150.095 -10.5637,150.0399 -10.5602,150.0025 -10.4283,148.1334 0,148.5 0.0003,150.3737 0.0011,150.4113 0.003,150.4667 0.0063,150.54 0.0114,150.6311 0.0187,150.74 0.0285,150.8666 0.0413,151.011 0.0575,151.173 0.0774,151.3525 0.1014,151.5497 0.1299,151.7643 0.1633,151.9962 0.2019,152.2455 0.2462,152.512 0.2966,152.7956 0.3533,153.0962 0.4169,153.4137 0.4876,153.748 0.5658,154.099 0.6519,154.4666 0.7463,154.8505 0.8494,155.2507 0.9615,155.667 1.0829,156.0994 1.2141,156.5475 1.3553,157.0113 1.507,157.4906 1.6695,157.9852 1.8432,158.4949 2.0284,159.0196 2.2254,159.559 2.4346,160.113 2.6564,160.6813 2.891,161.2638 3.1388,161.8602 3.4001,162.4703 3.6754,163.0939 3.9648,163.7307 4.2687,164.3806 4.5874,165.0432 4.9213,165.7183 5.2706,166.4057 5.6357,167.1051 6.0168,167.8163 6.4143,168.5389 6.8285,169.2728 7.2522,169.8452 14.1606,169.4092 14.509,168.788 14.8276,168.0079 15.1311,167.241 15.4198,166.4876 15.694,165.7478 15.9541,165.022 16.2005,164.3102 16.4334,163.6128 16.6532,162.9299 16.8602,162.2617 17.0548,161.6084 17.2374,160.9703 17.4083,160.3475 17.5678,159.7401 17.7163,159.1484 17.8542,158.5725 17.9818,158.0126 18.0996,157.4688 18.2078,156.9413 18.3068,156.4302 18.397,155.9357 18.4789,155.4578 18.5526,154.9967 18.6188,154.5526 18.6776,154.1254 18.7295,153.7154 18.7749,153.3227 18.8141,152.9472 18.8476,152.5892 18.8757,152.2487 18.8988,151.9257 18.9173,151.6203 18.9316,151.3326 18.942,151.0627 18.9491,150.8105 18.953,150.5762 18.9543,150.3597 18.9533,150.1611 18.9505,149.9805 18.9461,149.8177 18.9407,149.6729 18.9345,149.5461 18.9281,149.4371 18.9217,149.3461 18.9157,149.273 18.9106,149.2178 18.9068,149.1804 18.6714,147.3215 28.9709,145.6466 29.3367,147.4843 29.3449,147.5209 29.3576,147.5749 29.3751,147.6462 29.3979,147.7345 29.4262,147.8399 29.4606,147.9622 29.5013,148.1013 29.5488,148.257 29.6033,148.4293 29.6653,148.6179 29.7351,148.8228 29.8131,149.0438 29.8997,149.2808 29.9951,149.5335 30.0998,149.8018 30.2141,150.0856 30.3384,150.3846 30.473,150.6987 30.6182,151.0277 30.7743,151.3713 30.9418,151.7295 31.121,152.1019 31.3121,152.4884 31.5156,152.8887 31.7316,153.3026 31.9607,153.7299 32.203,154.1704 32.4588,154.6238 32.7286,155.0899 33.0126,155.5683 33.3111,156.059 33.6243,156.5615 33.9527,157.0756 34.2964,157.6011 34.6558,158.1377 35.0312,158.6851 35.4228,159.2431 35.8309,159.8112 36.2557,160.3893 36.6976,160.977 37.1568,161.574 37.6335,162.18 38.128,162.7948 38.6406,163.4179 39.1714,164.0491 39.7207,164.6881 40.248,165.1669 46.9386,163.3915 47.1591,162.7142 47.3194,161.887 47.4674,161.0756 47.6036,160.2803 47.7283,159.5013 47.8418,158.7386 47.9445,157.9925 48.0369,157.263 48.1192,156.5503 48.1919,155.8546 48.2554,155.176 48.3099,154.5145 48.356,153.8703 48.394,153.2435 48.4242,152.6342 48.4471,152.0424 48.463,151.4684 48.4724,150.9121 48.4756,150.3736 48.4731,149.853 48.4651,149.3503 48.4521,148.8657 48.4345,148.3991 48.4127,147.9505 48.3871,147.5201 48.358,147.1079 48.3259,146.7138 48.2911,146.3379 48.2541,145.9803 48.2152,145.6408 48.1749,145.3195 48.1335,145.0164 48.0914,144.7314 48.049,144.4646 48.0066,144.216 47.9648,143.9854 47.9238,143.7728 47.8842,143.5782 47.8461,143.4016 47.8101,143.2428 47.7765,143.1019 47.7457,142.9786 47.7181,142.873 47.6941,142.785 47.674,142.7145 47.6582,142.6613 47.6471,142.6254 47.0537,140.8481 56.8285,137.1961 57.5458,138.9271 57.561,138.9615 57.5839,139.0119 57.615,139.0784 57.6546,139.1606 57.703,139.2584 57.7605,139.3717 57.8276,139.5001 57.9045,139.6436 57.9916,139.8019 58.0892,139.9748 58.1977,140.1622 58.3173,140.3637 58.4484,140.5792 58.5913,140.8085 58.7464,141.0512 58.9138,141.3072 59.094,141.5763 59.2873,141.8581 59.4939,142.1524 59.7141,142.459 59.9483,142.7776 60.1966,143.1079 60.4595,143.4497 60.7371,143.8026 61.0298,144.1664 61.3378,144.5409 61.6613,144.9256 62.0008,145.3204 62.3563,145.7248 62.7281,146.1387 63.1166,146.5617 63.5219,146.9934 63.9442,147.4336 64.3839,147.882 64.8411,148.3381 65.316,148.8018 65.8089,149.2726 66.32,149.7502 66.8495,150.2343 67.3975,150.7245 67.9643,151.2205 68.5501,151.7219 69.1551,152.2283 69.7793,152.7395 70.4231,153.255 71.0866,153.7745 71.6971,154.1412 77.9128,151.0947 77.9969,150.3874 77.9928,149.5448 77.9797,148.7202 77.9581,147.9136 77.9283,147.1252 77.8909,146.355 77.8461,145.6032 77.7944,144.8697 77.7361,144.1547 77.6717,143.4581 77.6015,142.7801 77.5259,142.1207 77.4455,141.4799 77.3604,140.8577 77.2712,140.2542 77.1782,139.6694 77.0819,139.1033 76.9825,138.5558 76.8806,138.0271 76.7765,137.517 76.6706,137.0255 76.5634,136.5527 76.4551,136.0985 76.3462,135.6629 76.2371,135.2457 76.1281,134.8471 76.0198,134.4669 75.9124,134.105 75.8063,133.7614 75.7019,133.436 75.5997,133.1288 75.4999,132.8396 75.403,132.5683 75.3094,132.3149 75.2193,132.0793 75.1333,131.8613 75.0517,131.6608 74.9748,131.4777 74.903,131.3119 74.8367,131.1632 74.7763,131.0315 74.722,130.9166 74.6744,130.8184 74.6336,130.7368 74.6001,130.6715 74.5743,130.6225 74.5564,130.5894 73.6277,128.9621 82.5022,123.4732 83.5434,125.031 83.565,125.0618 83.5973,125.1068 83.6408,125.1659 83.6956,125.2388 83.7622,125.3253 83.8407,125.4251 83.9316,125.5381 84.035,125.6638 84.1513,125.8021 84.2808,125.9526 84.4237,126.1152 84.5803,126.2895 84.751,126.4753 84.9359,126.6723 85.1353,126.8801 85.3495,127.0985 85.5787,127.3272 85.8232,127.5659 86.0833,127.8143 86.3591,128.072 86.6509,128.3388 86.9589,128.6143 87.2834,128.8983 87.6246,129.1902 87.9826,129.49 88.3577,129.7971 88.7501,130.1114 89.16,130.4323 89.5876,130.7597 90.0331,131.093 90.4966,131.4321 90.9783,131.7765 91.4784,132.1258 91.9971,132.4798 92.5345,132.838 93.0908,133.2001 93.6661,133.5657 94.2605,133.9344 94.8742,134.3059 95.5074,134.6798 96.1601,135.0556 96.8324,135.4331 97.5245,135.8118 98.2365,136.1914 98.9685,136.5714 99.7206,136.9515 100.3909,137.192 105.8928,132.9914 105.8374,132.2813 105.6689,131.4557 105.4952,130.6495 105.3166,129.8626 105.1337,129.0952 104.9467,128.3471 104.7561,127.6184 104.5622,126.9091 104.3656,126.2192 104.1665,125.5486 103.9654,124.8974 103.7627,124.2653 103.5587,123.6526 103.3539,123.0589 103.1487,122.4844 102.9434,121.929 102.7385,121.3925 102.5342,120.875 102.3311,120.3762 102.1295,119.8963 101.9298,119.4349 101.7323,118.9921 101.5375,118.5678 101.3457,118.1617 101.1573,117.7739 100.9727,117.4042 100.7923,117.0524 100.6163,116.7184 100.4452,116.4021 100.2794,116.1034 100.1192,115.822 99.9649,115.5578 99.8169,115.3106 99.6757,115.0804 99.5414,114.8668 99.4145,114.6698 99.2953,114.4891 99.1842,114.3245 99.0814,114.1759 98.9874,114.043 98.9024,113.9256 98.8268,113.8235 98.7609,113.7365 98.705,113.6644 98.6595,113.6069 98.6246,113.5639 98.6006,113.5349 97.3722,112.1201 105.0054,105.0054 106.3305,106.3301 106.3576,106.356 106.3982,106.3939 106.4523,106.4434 106.5203,106.5042 106.6025,106.576 106.699,106.6586 106.8101,106.7516 106.9361,106.8548 107.0771,106.9677 107.2335,107.0901 107.4054,107.2217 107.593,107.3621 107.7966,107.511 108.0164,107.6681 108.2525,107.8331 108.5052,108.0055 108.7747,108.1851 109.061,108.3715 109.3645,108.5644 109.6853,108.7634 110.0236,108.9681 110.3794,109.1782 110.7531,109.3934 111.1446,109.6132 111.5543,109.8373 111.9821,110.0654 112.4283,110.297 112.8929,110.5318 113.3762,110.7695 113.8781,111.0095 114.3988,111.2516 114.9385,111.4954 115.4972,111.7405 116.0749,111.9865 116.6719,112.233 117.2881,112.4796 117.9237,112.7259 118.5786,112.9716 119.253,113.2162 119.9469,113.4594 120.6604,113.7007 121.3935,113.9397 122.1462,114.1761 122.9186,114.4095 123.7106,114.6394 124.5224,114.8655 125.2268,114.9706 129.8035,109.7773 129.6106,109.0917 129.2842,108.3148 128.9566,107.558 128.6279,106.8211 128.2988,106.1041 127.9694,105.4069 127.6403,104.7294 127.3118,104.0715 126.9844,103.4332 126.6583,102.8144 126.334,102.2148 126.0119,101.6345 125.6923,101.0733 125.3756,100.531 125.0622,100.0076 124.7525,99.5029 124.4469,99.0167 124.1456,98.549 123.8491,98.0994 123.5577,97.668 123.2718,97.2545 122.9918,96.8587 122.7179,96.4805 122.4506,96.1197 122.1902,95.7761 121.937,95.4495 121.6914,95.1397 121.4536,94.8464 121.2241,94.5696 121.0032,94.3089 120.7911,94.0642 120.5883,93.8352 120.395,93.6217 120.2115,93.4234 120.0382,93.2401 119.8753,93.0716 119.7231,92.9177 119.582,92.7779 119.4522,92.6522 119.3341,92.5402 119.2278,92.4416 119.1338,92.3563 119.0522,92.2838 118.9833,92.224 118.9274,92.1765 118.8847,92.1411 118.8556,92.1174 117.3747,90.9693 123.4732,82.5022 125.0313,83.5429 125.063,83.5631 125.1102,83.5923 125.1729,83.6303 125.2515,83.6766 125.3461,83.7311 125.4569,83.7933 125.584,83.8628 125.7277,83.9394 125.888,84.0226 126.0653,84.1122 126.2595,84.2077 126.471,84.3088 126.6997,84.4152 126.9459,84.5264 127.2097,84.6421 127.4911,84.7619 127.7905,84.8855 128.1077,85.0124 128.443,85.1424 128.7964,85.275 129.1681,85.4098 129.5581,85.5464 129.9666,85.6845 130.3935,85.8238 130.839,85.9637 131.3031,86.1039 131.7859,86.244 132.2874,86.3837 132.8077,86.5225 133.3468,86.66 133.9048,86.7959 134.4817,86.9297 135.0774,87.0611 135.6921,87.1896 136.3256,87.3149 136.9781,87.4365 137.6495,87.5542 138.3398,87.6673 139.049,87.7757 139.777,87.8788 140.5239,87.9763 141.2895,88.0677 142.0739,88.1527 142.8769,88.2309 143.6986,88.3019 144.5389,88.3653 145.2503,88.331 148.7258,82.3446 148.4029,81.7098 147.9312,81.0115 147.4622,80.3331 146.9961,79.6745 146.5334,79.0355 146.0744,78.4159 145.6194,77.8156 145.1689,77.2345 144.7232,76.6724 144.2827,76.129 143.8477,75.6043 143.4185,75.0979 142.9956,74.6099 142.5792,74.1398 142.1697,73.6876 141.7675,73.253 141.3729,72.8358 140.9861,72.4358 140.6076,72.0527 140.2377,71.6864 139.8766,71.3366 139.5247,71.0031 139.1824,70.6856 138.8498,70.3839 138.5273,70.0977 138.2153,69.8267 137.9139,69.5708 137.6235,69.3296 137.3445,69.1028 137.0769,68.8903 136.8212,68.6916 136.5776,68.5066 136.3463,68.3349 136.1277,68.1762 135.9219,68.0303 135.7293,67.8968 135.55,67.7754 135.3843,67.6659 135.2325,67.5679 135.0948,67.4811 134.9714,67.4052 134.8625,67.3398 134.7683,67.2847 134.6891,67.2395 134.625,67.2038 134.5762,67.1773 134.543,67.1598 132.8667,66.3227 137.1961,56.8285 138.9273,57.5453 138.9623,57.5588 139.0143,57.5783 139.0832,57.6033 139.1693,57.6335 139.2727,57.6684 139.3935,57.7078 139.5317,57.7512 139.6876,57.7983 139.8611,57.8486 140.0524,57.9019 140.2616,57.9577 140.4887,58.0156 140.7338,58.0753 140.9969,58.1363 141.2782,58.1983 141.5777,58.2609 141.8953,58.3237 142.2313,58.3864 142.5855,58.4484 142.958,58.5095 143.3488,58.5692 143.758,58.6271 144.1855,58.6829 144.6314,58.7362 145.0956,58.7865 145.5782,58.8335 146.079,58.8767 146.5982,58.9158 147.1355,58.9505 147.6911,58.9802 148.2649,59.0046 148.8568,59.0233 149.4667,59.0359 150.0946,59.0421 150.7405,59.0414 151.4042,59.0334 152.0856,59.0177 152.7847,58.9941 153.5014,58.962 154.2355,58.9211 154.9871,58.871 155.7558,58.8113 156.5417,58.7417 157.3446,58.6617 158.1643,58.571 159.0008,58.4692 159.6918,58.2968 161.9327,51.7474 161.4921,51.1878 160.8933,50.5949 160.301,50.0211 159.7154,49.466 159.1369,48.9296 158.5658,48.4115 158.0025,47.9115 157.4473,47.4294 156.9005,46.965 156.3624,46.5181 155.8333,46.0883 155.3136,45.6754 154.8036,45.2792 154.3035,44.8994 153.8137,44.5357 153.3344,44.188 152.866,43.8558 152.4086,43.5389 151.9627,43.2371 151.5284,42.95 151.106,42.6773 150.6958,42.4189 150.2981,42.1743 149.913,41.9432 149.5409,41.7254 149.182,41.5206 148.8365,41.3283 148.5047,41.1484 148.1867,40.9804 147.8828,40.8242 147.5933,40.6792 147.3182,40.5453 147.0579,40.422 146.8125,40.309 146.5823,40.206 146.3673,40.1127 146.1678,40.0287 145.9839,39.9536 145.8159,39.8871 145.6639,39.8288 145.528,39.7784 145.4085,39.7356 145.3053,39.6999 145.2188,39.6709 145.149,39.6485 145.096,39.632 145.06,39.6213 143.2526,39.1273 145.6466,28.9709 147.4844,29.3362 147.5214,29.3427 147.5761,29.3516 147.6486,29.3627 147.739,29.3755 147.8472,29.3896 147.9733,29.4046 148.1174,29.4202 148.2794,29.436 148.4594,29.4515 148.6575,29.4664 148.8735,29.4804 149.1075,29.4929 149.3595,29.5036 149.6296,29.5121 149.9175,29.5181 150.2234,29.521 150.5473,29.5207 150.8889,29.5166 151.2484,29.5083 151.6257,29.4955 152.0207,29.4778 152.4333,29.4548 152.8635,29.4261 153.3112,29.3914 153.7763,29.3502 154.2588,29.3021 154.7584,29.2468 155.2752,29.1839 155.809,29.113 156.3598,29.0338 156.9273,28.9458 157.5114,28.8487 158.1121,28.7421 158.7291,28.6256 159.3624,28.4989 160.0118,28.3616 160.6771,28.2133 161.3582,28.0537 162.0548,27.8824 162.7669,27.6991 163.4942,27.5033 164.2365,27.2948 164.9937,27.0732 165.7656,26.8381 166.5519,26.5892 167.3524,26.3262 167.9965,26.0223 168.9166,19.1616 168.3754,18.6987 167.6724,18.234 166.9795,17.7868 166.2968,17.3566 165.6248,16.9433 164.9636,16.5466 164.3136,16.1661 163.675,15.8017 163.0481,15.4529 162.4331,15.1194 161.8304,14.8011 161.2402,14.4976 160.6626,14.2085 160.0981,13.9335 159.5467,13.6724 159.0088,13.4248 158.4845,13.1904 157.9742,12.9689 157.4779,12.7598 156.9959,12.563 156.5285,12.378 156.0758,12.2045 155.6379,12.0422 155.2152,11.8907 154.8078,11.7497 154.4158,11.6188 154.0394,11.4976 153.6789,11.3859 153.3342,11.2832 153.0057,11.1892 152.6934,11.1036 152.3975,11.0258 152.1182,10.9557 151.8555,10.8928 151.6095,10.8367 151.3805,10.7871 151.1684,10.7436 150.9735,10.7058 150.7957,10.6734 150.6352,10.6459 150.4921,10.623 150.3665,10.6043 150.2584,10.5894 150.1679,10.5779 150.095,10.5695 150.0399,10.5637 150.0025,10.5602 148.1334,10.4283 "/><g class="guides"><polyline fill="none" stroke="#444" stroke-width="0.5" stroke-miterlimit="10" points="10,0 -10,0"/><polyline fill="none" stroke="#444" stroke-width="0.5" stroke-miterlimit="10" points="0,10 0,-10"/></g><circle fill="#c00" class="firstmarker" stroke="none" stroke-miterlimit="10" cx="159.6822" cy="-10.0787" r="3.925"/><g class="geartext"><g class="text"><polyline fill="none" stroke="#444" stroke-width="0.5" stroke-linecap="square" stroke-miterlimit="1"  points="-41 -111.18 -43.8 -110.11 -46.57 -108.97 -49.31 -107.75 -52.03 -106.47 "/><polyline fill="none" stroke="#444" stroke-width="0.5" stroke-linecap="square" stroke-miterlimit="1"  points="-44.21 -103.45 -48.93 -114.48 "/><polyline fill="none" stroke="#444" stroke-width="0.5" stroke-linecap="square" stroke-miterlimit="1"  points="-43.07 -116.81 -44.91 -112.9 -46.57 -108.97 -48.06 -105.02 -49.39 -101.08 "/><polyline fill="none" stroke="#444" stroke-width="0.5" stroke-linecap="square" stroke-miterlimit="1"  points="-38.92 -105.55 -42.69 -107.32 -46.57 -108.97 -50.56 -110.48 -54.66 -111.86 "/><polyline fill="none" stroke="#444" stroke-width="0.5" stroke-linecap="square" stroke-miterlimit="1"  points="-37.1 -118.84 -34.9 -122.63 -29.98 -105.32 "/><polyline fill="none" stroke="#444" stroke-width="0.5" stroke-linecap="square" stroke-miterlimit="1"  points="-27.3 -106.04 -29.98 -105.32 -32.63 -104.52 "/><polyline fill="none" stroke="#444" stroke-width="0.5" stroke-linecap="square" stroke-miterlimit="1"  points="3.38 -127.46 2.9 -109.46 0.13 -114 -2.86 -118.47 -6.08 -122.85 -9.52 -127.14 -8.18 -109.19 "/><polyline fill="none" stroke="#444" stroke-width="0.5" stroke-linecap="square" stroke-miterlimit="1"  points="21.56 -119.57 18.53 -120.08 15.48 -120.51 12.42 -120.86 9.36 -121.14 "/><polyline fill="none" stroke="#444" stroke-width="0.5" stroke-linecap="square" stroke-miterlimit="1"  points="20.5 -113.67 17.61 -114.15 14.72 -114.56 11.81 -114.89 8.9 -115.16 "/><polyline fill="none" stroke="#444" stroke-width="0.5" stroke-linecap="square" stroke-miterlimit="1"  points="28.26 -121.25 32.08 -123.4 35.19 -122.55 38.28 -121.62 40.38 -117.77 39.4 -114.93 35.58 -113.03 37.46 -109.26 36.49 -106.42 32.88 -104.45 30.22 -105.25 27.55 -105.98 25.54 -109.56 "/><polyline fill="none" stroke="#444" stroke-width="0.5" stroke-linecap="square" stroke-miterlimit="1"  points="32.71 -113.9 35.58 -113.03 "/><polyline fill="none" stroke="#444" stroke-width="0.5" stroke-linecap="square" stroke-miterlimit="1"  points="50.78 -97.02 48.31 -98.27 45.8 -99.46 43.27 -100.59 40.71 -101.65 42.94 -107.22 46.83 -108.86 49.57 -107.64 52.28 -106.35 56.34 -107.65 57.73 -110.3 56.25 -114.42 53.33 -115.81 50.38 -117.12 46.29 -115.58 "/><polyline fill="none" stroke="#444" stroke-width="0.5" stroke-linecap="square" stroke-miterlimit="1"  points="72.6 -93.66 74.95 -91.79 77.25 -89.86 79.5 -87.88 83.76 -88.01 85.83 -90.18 85.53 -94.55 83.11 -96.69 80.64 -98.76 78.11 -100.77 67.08 -86.54 "/><polyline fill="none" stroke="#444" stroke-width="0.5" stroke-linecap="square" stroke-miterlimit="1"  points="79.41 -75.4 88.11 -83.66 "/><polyline fill="none" stroke="#444" stroke-width="0.5" stroke-linecap="square" stroke-miterlimit="1"  points="90.29 -85.73 92.46 -87.79 "/><polyline fill="none" stroke="#444" stroke-width="0.5" stroke-linecap="square" stroke-miterlimit="1"  points="92.37 -64.23 88.29 -64.77 89 -68.82 100.86 -77.99 "/><polyline fill="none" stroke="#444" stroke-width="0.5" stroke-linecap="square" stroke-miterlimit="1"  points="99.75 -69.36 97.97 -71.87 96.12 -74.32 94.2 -76.73 92.23 -79.09 "/><polyline fill="none" stroke="#444" stroke-width="0.5" stroke-linecap="square" stroke-miterlimit="1"  points="98.33 -48.19 97.07 -50.66 95.76 -53.1 94.39 -55.51 95.5 -59.47 100.59 -62.64 104.73 -61.59 106.26 -58.92 107.71 -56.22 109.1 -53.47 "/><polyline fill="none" stroke="#444" stroke-width="0.5" stroke-linecap="square" stroke-miterlimit="1"  points="106.15 -45.52 110.06 -43.93 113.95 -42.17 114.98 -39.27 113.07 -35.45 104.49 -32.76 "/><polyline fill="none" stroke="#444" stroke-width="0.5" stroke-linecap="square" stroke-miterlimit="1"  points="100.64 -43.15 117.18 -50.24 "/><polyline fill="none" stroke="#444" stroke-width="0.5" stroke-linecap="square" stroke-miterlimit="1"  points="108.62 -13.82 108.94 -11.07 109.18 -8.31 109.36 -5.54 112.46 -2.85 124.46 -3.15 127.34 -6.45 127.13 -9.67 126.85 -12.89 126.48 -16.1 "/><polyline fill="none" stroke="#444" stroke-width="0.5" stroke-linecap="square" stroke-miterlimit="1"  points="126.85 -12.89 108.94 -11.07 "/><polyline fill="none" stroke="#444" stroke-width="0.5" stroke-linecap="square" stroke-miterlimit="1"  points="120.53 15.34 120.88 12.28 121.15 9.22 121.34 6.15 121.46 3.08 "/><polyline fill="none" stroke="#444" stroke-width="0.5" stroke-linecap="square" stroke-miterlimit="1"  points="114.58 14.58 114.91 11.68 115.17 8.76 115.35 5.85 115.46 2.92 "/><polyline fill="none" stroke="#444" stroke-width="0.5" stroke-linecap="square" stroke-miterlimit="1"  points="122.55 21.95 124.89 25.65 124.2 28.8 123.44 31.93 119.7 34.22 116.82 33.4 114.72 29.68 111.05 31.75 108.17 30.93 106.01 27.43 106.67 24.73 107.26 22.03 110.74 19.83 "/><polyline fill="none" stroke="#444" stroke-width="0.5" stroke-linecap="square" stroke-miterlimit="1"  points="115.44 26.77 114.72 29.68 "/><polyline fill="none" stroke="#444" stroke-width="0.5" stroke-linecap="square" stroke-miterlimit="1"  points="106.46 36.36 103.62 35.39 "/><polyline fill="none" stroke="#444" stroke-width="0.5" stroke-linecap="square" stroke-miterlimit="1"  points="97.07 50.66 98.33 48.19 99.51 45.69 100.64 43.15 101.7 40.59 107.27 42.81 108.91 46.7 107.69 49.44 106.41 52.15 107.71 56.22 110.37 57.6 114.49 56.11 115.87 53.2 117.18 50.24 115.63 46.15 "/><polyline fill="none" stroke="#444" stroke-width="0.5" stroke-linecap="square" stroke-miterlimit="1"  points="93.74 72.49 91.88 74.84 89.95 77.14 87.97 79.39 88.11 83.66 90.29 85.73 94.65 85.42 96.79 83 98.86 80.52 100.86 77.99 86.62 66.98 "/><polyline fill="none" stroke="#444" stroke-width="0.5" stroke-linecap="square" stroke-miterlimit="1"  points="74.44 96.03 76.84 94.11 79.2 92.14 81.51 90.1 83.76 88.01 "/><polyline fill="none" stroke="#444" stroke-width="0.5" stroke-linecap="square" stroke-miterlimit="1"  points="70.76 91.29 73.05 89.47 75.29 87.59 77.48 85.65 79.63 83.67 "/><polyline fill="none" stroke="#444" stroke-width="0.5" stroke-linecap="square" stroke-miterlimit="1"  points="71.2 102.13 70.24 106.41 60.32 91.38 "/><polyline fill="none" stroke="#444" stroke-width="0.5" stroke-linecap="square" stroke-miterlimit="1"  points="57.99 92.88 60.32 91.38 62.62 89.83 "/><polyline fill="none" stroke="#444" stroke-width="0.5" stroke-linecap="square" stroke-miterlimit="1"  points="47.06 102.19 48.31 98.27 50.78 97.02 54.67 98.32 60.51 108.81 59.12 112.96 56.25 114.42 52.08 113.09 47.06 102.19 "/><polyline fill="none" stroke="#444" stroke-width="0.5" stroke-linecap="square" stroke-miterlimit="1"  points="29.82 114.69 26.9 115.41 23.97 116.05 21.03 116.62 18.53 120.08 18.98 123.04 22.62 125.48 25.79 124.86 28.95 124.17 32.08 123.4 27.55 105.98 "/><polyline fill="none" stroke="#444" stroke-width="0.5" stroke-linecap="square" stroke-miterlimit="1"  points="11.2 108.93 11.81 114.89 9.36 121.14 6.6 127.33 3.22 121.46 0.14 115.5 0.13 109.5 "/><polyline fill="none" stroke="#444" stroke-width="0.5" stroke-linecap="square" stroke-miterlimit="1"  points="11.81 114.89 8.9 115.16 5.98 115.35 3.06 115.46 0.14 115.5 "/><polyline fill="none" stroke="#444" stroke-width="0.5" stroke-linecap="square" stroke-miterlimit="1"  points="-18.24 120.12 -15.2 120.55 -12.14 120.89 -9.08 121.16 -6.01 121.35 "/><polyline fill="none" stroke="#444" stroke-width="0.5" stroke-linecap="square" stroke-miterlimit="1"  points="-17.34 114.19 -14.45 114.59 -11.54 114.92 -8.63 115.18 -5.71 115.36 "/><polyline fill="none" stroke="#444" stroke-width="0.5" stroke-linecap="square" stroke-miterlimit="1"  points="-32.63 104.52 -29.98 105.32 -27.3 106.04 -24.61 106.7 -21.9 107.29 -23.1 113.17 -26.63 115.47 -29.55 114.76 -32.44 113.97 -36.21 115.98 -37.1 118.84 -34.9 122.63 -31.79 123.47 -28.65 124.24 -24.9 121.98 "/><polyline fill="none" stroke="#444" stroke-width="0.5" stroke-linecap="square" stroke-miterlimit="1"  points="-46.82 102.3 -43.03 100.69 -40.47 101.75 -38.92 105.55 -43.07 116.81 -47.12 118.47 -50.11 117.24 -51.81 113.21 -46.82 102.3 "/></g></g><g class="guides gearguides" opacity="0.2"><circle class="pitch" fill="none" stroke="#f00" stroke-miterlimit="10" cx="0" cy="0" r="160"/><circle class="outer" fill="none" stroke="#ccc" stroke-miterlimit="10" stroke-dasharray="2,2" cx="0" cy="0" r="170"/><circle class="base" fill="none" stroke="#00f" stroke-miterlimit="10" stroke-dasharray="2,2" cx="0" cy="0" r="150.35"/></g></svg>