<?xml version="1.0" encoding="utf-8"?><!-- Generator: Iparigrafika Gear Generator by Abel Vincze http://geargenerator.com/ --><svg version="1.2" class="svggear" xmlns="http://www.w3.org/2000/svg" xmlns:xlink="http://www.w3.org/1999/xlink" x="0px" y="0px" width="120px" height="120px" viewBox="-60 -60 120 120" overflow="scroll" xml:space="preserve"><polygon id="gearpoly0" data-id="0" class="gear" fill="#ddd" stroke="#444" stroke-width="1" stroke-miterlimit="10" points="38.5,0 46.9918,-0.0001 47.049,-0.0022 47.1632,-0.0104 47.334,-0.0285 47.5607,-0.0606 47.8426,-0.1104 48.1785,-0.182 48.5673,-0.2791 49.0075,-0.4055 49.4974,-0.5649 50.0353,-0.7608 50.6191,-0.9969 51.2466,-1.2764 51.9154,-1.6028 52.623,-1.9792 53.3665,-2.4087 54.1432,-2.8942 54.9499,-3.4386 55.7835,-4.0444 56.6405,-4.7142 57.5174,-5.4502 58.4107,-6.2548 59.3166,-7.1297 59.4677,-7.9746 58.7598,-12.1363 58.3378,-12.8837 57.1936,-13.41 56.0845,-13.8739 55.0135,-14.2786 53.9833,-14.6274 52.9963,-14.9235 52.055,-15.1705 51.1614,-15.3719 50.3177,-15.5314 49.5255,-15.6527 48.7864,-15.7396 48.1017,-15.7959 47.4727,-15.8257 46.9003,-15.8328 46.3852,-15.8212 45.928,-15.7949 45.529,-15.758 45.1883,-15.7145 44.9058,-15.6684 44.6812,-15.6236 44.514,-15.5843 44.4035,-15.5542 44.3488,-15.5373 36.3346,-12.7297 31.1472,-22.6297 38.0171,-27.6211 38.0621,-27.6565 38.1497,-27.7302 38.2772,-27.8453 38.4418,-28.0045 38.6405,-28.2105 38.8703,-28.4659 39.1277,-28.7729 39.4095,-29.1339 39.7122,-29.5508 40.0322,-30.0255 40.3658,-30.5596 40.7091,-31.1546 41.0583,-31.8118 41.4095,-32.5322 41.7586,-33.3168 42.1016,-34.1661 42.4343,-35.0806 42.7526,-36.0607 43.0522,-37.1063 43.329,-38.2172 43.5788,-39.3932 43.7973,-40.6335 43.423,-41.4058 40.4041,-44.3566 39.6234,-44.7132 38.3884,-44.4664 37.2185,-44.1899 36.1141,-43.8878 35.0756,-43.5644 34.1031,-43.2238 33.1964,-42.8703 32.3551,-42.5081 31.5787,-42.1412 30.8665,-41.7736 30.2175,-41.4095 29.6305,-41.0527 29.1041,-40.707 28.6369,-40.3763 28.227,-40.0641 27.8725,-39.7741 27.5714,-39.5098 27.3213,-39.2743 27.1199,-39.0709 26.9645,-38.9027 26.8524,-38.7726 26.7807,-38.6834 26.7464,-38.6375 21.913,-31.6555 11.8972,-36.6157 14.5212,-44.6919 14.5368,-44.7469 14.5643,-44.8581 14.5999,-45.0261 14.6395,-45.2516 14.6792,-45.5351 14.7149,-45.8767 14.7427,-46.2765 14.7585,-46.7342 14.7583,-47.2494 14.7382,-47.8215 14.6941,-48.4497 14.6221,-49.1328 14.5184,-49.8698 14.379,-50.659 14.2003,-51.4989 13.9786,-52.3876 13.7102,-53.3231 13.3916,-54.303 13.0194,-55.325 12.5904,-56.3865 12.1013,-57.4847 11.549,-58.6166 10.7922,-59.0214 6.6154,-59.6342 5.7742,-59.4638 4.9201,-58.5382 4.1362,-57.6268 3.4203,-56.7333 2.7703,-55.8612 2.1837,-55.0141 1.6579,-54.1952 1.1902,-53.4076 0.7778,-52.6544 0.4176,-51.9385 0.1066,-51.2624 -0.1586,-50.6287 -0.3812,-50.0396 -0.5649,-49.4974 -0.713,-49.004 -0.8293,-48.561 -0.9175,-48.1701 -0.9814,-47.8326 -1.0248,-47.5497 -1.0517,-47.3223 -1.0659,-47.1511 -1.0715,-47.0368 -1.0723,-46.9796 -0.8786,-38.49 -11.8972,-36.6157 -14.5213,-44.6918 -14.5411,-44.7456 -14.5841,-44.8516 -14.6541,-45.0085 -14.7547,-45.2142 -14.8892,-45.4669 -15.0611,-45.7642 -15.2736,-46.104 -15.5298,-46.4836 -15.8328,-46.9003 -16.1853,-47.3513 -16.5902,-47.8336 -17.05,-48.344 -17.5671,-48.8792 -18.1437,-49.4358 -18.782,-50.0103 -19.4837,-50.5989 -20.2507,-51.1979 -21.0845,-51.8035 -21.9863,-52.4115 -22.9573,-53.0181 -23.9985,-53.6191 -25.1106,-54.2102 -25.9608,-54.0928 -29.7001,-52.1335 -30.2805,-51.5012 -30.4274,-50.2504 -30.5259,-49.0523 -30.5799,-47.9086 -30.5932,-46.821 -30.5699,-45.7909 -30.5139,-44.8193 -30.4293,-43.9072 -30.3203,-43.0555 -30.1908,-42.2646 -30.045,-41.5348 -29.8871,-40.8662 -29.721,-40.2588 -29.5508,-39.7122 -29.3806,-39.2259 -29.2144,-38.7992 -29.056,-38.4311 -28.9093,-38.1205 -28.7781,-37.8661 -28.6662,-37.6664 -28.5771,-37.5196 -28.5144,-37.4238 -28.4814,-37.377 -23.3346,-30.6226 -31.1472,-22.6297 -38.0172,-27.621 -38.0648,-27.6529 -38.1619,-27.7134 -38.3108,-27.7991 -38.513,-27.9065 -38.7704,-28.0318 -39.0842,-28.1714 -39.4558,-28.3213 -39.8862,-28.4778 -40.3763,-28.6369 -40.9266,-28.7945 -41.5377,-28.9467 -42.2096,-29.0893 -42.9426,-29.2184 -43.7362,-29.3298 -44.5902,-29.4194 -45.504,-29.4831 -46.4766,-29.5169 -47.507,-29.5167 -48.594,-29.4786 -49.7361,-29.3986 -50.9317,-29.2727 -52.1789,-29.0973 -52.7977,-28.5026 -54.6712,-24.7196 -54.7691,-23.8669 -54.1528,-22.7686 -53.5282,-21.7414 -52.8996,-20.7845 -52.2711,-19.8968 -51.6467,-19.0771 -51.0304,-18.324 -50.4259,-17.6358 -49.837,-17.0108 -49.2674,-16.4471 -48.7205,-15.9423 -48.1997,-15.4943 -47.7083,-15.1005 -47.2494,-14.7583 -46.8259,-14.4649 -46.4405,-14.2174 -46.096,-14.0128 -45.7948,-13.8477 -45.5392,-13.719 -45.3312,-13.6232 -45.1728,-13.5568 -45.0657,-13.5161 -45.0116,-13.4976 -36.8776,-11.0584 -38.5,0 -46.9918,0.0001 -47.049,0.0022 -47.1632,0.0104 -47.334,0.0285 -47.5607,0.0606 -47.8426,0.1104 -48.1785,0.182 -48.5673,0.2791 -49.0075,0.4055 -49.4974,0.5649 -50.0353,0.7608 -50.6191,0.9969 -51.2466,1.2764 -51.9154,1.6028 -52.623,1.9792 -53.3665,2.4087 -54.1432,2.8942 -54.9499,3.4386 -55.7835,4.0444 -56.6405,4.7142 -57.5174,5.4502 -58.4107,6.2548 -59.3166,7.1297 -59.4677,7.9746 -58.7598,12.1363 -58.3378,12.8837 -57.1936,13.41 -56.0845,13.8739 -55.0135,14.2786 -53.9833,14.6274 -52.9963,14.9235 -52.055,15.1705 -51.1614,15.3719 -50.3177,15.5314 -49.5255,15.6527 -48.7864,15.7396 -48.1017,15.7959 -47.4727,15.8257 -46.9003,15.8328 -46.3852,15.8212 -45.928,15.7949 -45.529,15.758 -45.1883,15.7145 -44.9058,15.6684 -44.6812,15.6236 -44.514,15.5843 -44.4035,15.5542 -44.3488,15.5373 -36.3346,12.7297 -31.1472,22.6297 -38.0171,27.6211 -38.0621,27.6565 -38.1497,27.7302 -38.2772,27.8453 -38.4418,28.0045 -38.6405,28.2105 -38.8703,28.4659 -39.1277,28.7729 -39.4095,29.1339 -39.7122,29.5508 -40.0322,30.0255 -40.3658,30.5596 -40.7091,31.1546 -41.0583,31.8118 -41.4095,32.5322 -41.7586,33.3168 -42.1016,34.1661 -42.4343,35.0806 -42.7526,36.0607 -43.0522,37.1063 -43.329,38.2172 -43.5788,39.3932 -43.7973,40.6335 -43.423,41.4058 -40.4041,44.3566 -39.6234,44.7132 -38.3884,44.4664 -37.2185,44.1899 -36.1141,43.8878 -35.0756,43.5644 -34.1031,43.2238 -33.1964,42.8703 -32.3551,42.5081 -31.5787,42.1412 -30.8665,41.7736 -30.2175,41.4095 -29.6305,41.0527 -29.1041,40.707 -28.6369,40.3763 -28.227,40.0641 -27.8725,39.7741 -27.5714,39.5098 -27.3213,39.2743 -27.1199,39.0709 -26.9645,38.9027 -26.8524,38.7726 -26.7807,38.6834 -26.7464,38.6375 -21.913,31.6555 -11.8972,36.6157 -14.5212,44.6919 -14.5368,44.7469 -14.5643,44.8581 -14.5999,45.0261 -14.6395,45.2516 -14.6792,45.5351 -14.7149,45.8767 -14.7427,46.2765 -14.7585,46.7342 -14.7583,47.2494 -14.7382,47.8215 -14.6941,48.4497 -14.6221,49.1328 -14.5184,49.8698 -14.379,50.659 -14.2003,51.4989 -13.9786,52.3876 -13.7102,53.3231 -13.3916,54.303 -13.0194,55.325 -12.5904,56.3865 -12.1013,57.4847 -11.549,58.6166 -10.7922,59.0214 -6.6154,59.6342 -5.7742,59.4638 -4.9201,58.5382 -4.1362,57.6268 -3.4203,56.7333 -2.7703,55.8612 -2.1837,55.0141 -1.6579,54.1952 -1.1902,53.4076 -0.7778,52.6544 -0.4176,51.9385 -0.1066,51.2624 0.1586,50.6287 0.3812,50.0396 0.5649,49.4974 0.713,49.004 0.8293,48.561 0.9175,48.1701 0.9814,47.8326 1.0248,47.5497 1.0517,47.3223 1.0659,47.1511 1.0715,47.0368 1.0723,46.9796 0.8786,38.49 11.8972,36.6157 14.5213,44.6918 14.5411,44.7456 14.5841,44.8516 14.6541,45.0085 14.7547,45.2142 14.8892,45.4669 15.0611,45.7642 15.2736,46.104 15.5298,46.4836 15.8328,46.9003 16.1853,47.3513 16.5902,47.8336 17.05,48.344 17.5671,48.8792 18.1437,49.4358 18.782,50.0103 19.4837,50.5989 20.2507,51.1979 21.0845,51.8035 21.9863,52.4115 22.9573,53.0181 23.9985,53.6191 25.1106,54.2102 25.9608,54.0928 29.7001,52.1335 30.2805,51.5012 30.4274,50.2504 30.5259,49.0523 30.5799,47.9086 30.5932,46.821 30.5699,45.7909 30.5139,44.8193 30.4293,43.9072 30.3203,43.0555 30.1908,42.2646 30.045,41.5348 29.8871,40.8662 29.721,40.2588 29.5508,39.7122 29.3806,39.2259 29.2144,38.7992 29.056,38.4311 28.9093,38.1205 28.7781,37.8661 28.6662,37.6664 28.5771,37.5196 28.5144,37.4238 28.4814,37.377 23.3346,30.6226 31.1472,22.6297 38.0172,27.621 38.0648,27.6529 38.1619,27.7134 38.3108,27.7991 38.513,27.9065 38.7704,28.0318 39.0842,28.1714 39.4558,28.3213 39.8862,28.4778 40.3763,28.6369 40.9266,28.7945 41.5377,28.9467 42.2096,29.0893 42.9426,29.2184 43.7362,29.3298 44.5902,29.4194 45.504,29.4831 46.4766,29.5169 47.507,29.5167 48.594,29.4786 49.7361,29.3986 50.9317,29.2727 52.1789,29.0973 52.7977,28.5026 54.6712,24.7196 54.7691,23.8669 54.1528,22.7686 53.5282,21.7414 52.8996,20.7845 52.2711,19.8968 51.6467,19.0771 51.0304,18.324 50.4259,17.6358 49.837,17.0108 49.2674,16.4471 48.7205,15.9423 48.1997,15.4943 47.7083,15.1005 47.2494,14.7583 46.8259,14.4649 46.4405,14.2174 46.096,14.0128 45.7948,13.8477 45.5392,13.719 45.3312,13.6232 45.1728,13.5568 45.0657,13.5161 45.0116,13.4976 36.8776,11.0584 "/><g class="guides"><polyline fill="none" stroke="#444" stroke-width="0.5" stroke-miterlimit="10" points="10,0 -10,0"/><polyline fill="none" stroke="#444" stroke-width="0.5" stroke-miterlimit="10" points="0,10 0,-10"/></g><circle fill="#c00" class="firstmarker" stroke="none" stroke-miterlimit="10" cx="49.2919" cy="-8.3848" r="3.925"/><g class="geartext"><g class="text"><polyline fill="none" stroke="#444" stroke-width="0.5" stroke-linecap="square" stroke-miterlimit="1"  points="-16.96 -23.93 -17.7 -23.39 -18.43 -22.82 -19.13 -22.24 -19.82 -21.63 "/><polyline fill="none" stroke="#444" stroke-width="0.5" stroke-linecap="square" stroke-miterlimit="1"  points="-17.27 -21.4 -19.58 -24.25 "/><polyline fill="none" stroke="#444" stroke-width="0.5" stroke-linecap="square" stroke-miterlimit="1"  points="-18.03 -25.43 -18.26 -24.12 -18.43 -22.82 -18.53 -21.54 -18.58 -20.28 "/><polyline fill="none" stroke="#444" stroke-width="0.5" stroke-linecap="square" stroke-miterlimit="1"  points="-15.9 -22.43 -17.15 -22.66 -18.43 -22.82 -19.73 -22.93 -21.05 -22.98 "/><polyline fill="none" stroke="#444" stroke-width="0.5" stroke-linecap="square" stroke-miterlimit="1"  points="-12.22 -24.64 -12.55 -23.43 -13.28 -23.03 -14.47 -23.38 -16.4 -26.5 -16.02 -27.8 -15.15 -28.28 -13.85 -27.92 -12.22 -24.64 "/><polyline fill="none" stroke="#444" stroke-width="0.5" stroke-linecap="square" stroke-miterlimit="1"  points="-3.74 -31.87 -3.1 -26.4 -4.12 -27.65 -5.23 -28.86 -6.42 -30.03 -7.68 -31.15 -6.36 -25.81 "/><polyline fill="none" stroke="#444" stroke-width="0.5" stroke-linecap="square" stroke-miterlimit="1"  points="2.14 -30.17 1.2 -30.23 0.25 -30.25 -0.69 -30.24 -1.64 -30.21 "/><polyline fill="none" stroke="#444" stroke-width="0.5" stroke-linecap="square" stroke-miterlimit="1"  points="2.01 -28.35 1.12 -28.39 0.24 -28.42 -0.65 -28.41 -1.54 -28.37 "/><polyline fill="none" stroke="#444" stroke-width="0.5" stroke-linecap="square" stroke-miterlimit="1"  points="4.14 -30.89 5.26 -31.65 4.35 -26.22 "/><polyline fill="none" stroke="#444" stroke-width="0.5" stroke-linecap="square" stroke-miterlimit="1"  points="5.17 -26.08 4.35 -26.22 3.53 -26.35 "/><polyline fill="none" stroke="#444" stroke-width="0.5" stroke-linecap="square" stroke-miterlimit="1"  points="9.48 -25.81 8.38 -25.23 7.59 -25.48 7.02 -26.59 7.96 -30.13 9.16 -30.75 10.12 -30.45 10.75 -29.26 9.48 -25.81 "/><polyline fill="none" stroke="#444" stroke-width="0.5" stroke-linecap="square" stroke-miterlimit="1"  points="15.85 -24.68 16.61 -24.18 17.36 -23.65 18.09 -23.09 19.39 -23.22 19.98 -23.92 19.79 -25.26 18.99 -25.86 18.17 -26.44 17.33 -27 14.36 -22.37 "/><polyline fill="none" stroke="#444" stroke-width="0.5" stroke-linecap="square" stroke-miterlimit="1"  points="18.28 -19.3 20.8 -21.96 "/><polyline fill="none" stroke="#444" stroke-width="0.5" stroke-linecap="square" stroke-miterlimit="1"  points="21.43 -22.63 22.06 -23.29 "/><polyline fill="none" stroke="#444" stroke-width="0.5" stroke-linecap="square" stroke-miterlimit="1"  points="22.3 -16.09 21.06 -16.22 21.25 -17.45 24.8 -20.36 "/><polyline fill="none" stroke="#444" stroke-width="0.5" stroke-linecap="square" stroke-miterlimit="1"  points="24.53 -17.7 23.97 -18.46 23.38 -19.2 22.77 -19.92 22.13 -20.62 "/><polyline fill="none" stroke="#444" stroke-width="0.5" stroke-linecap="square" stroke-miterlimit="1"  points="24.08 -11.26 23.72 -12.01 23.33 -12.74 22.92 -13.47 23.26 -14.67 24.81 -15.64 26.08 -15.32 26.55 -14.5 26.99 -13.67 27.4 -12.82 "/><polyline fill="none" stroke="#444" stroke-width="0.5" stroke-linecap="square" stroke-miterlimit="1"  points="26.44 -10.41 27.62 -9.89 28.78 -9.3 29.06 -8.4 28.42 -7.26 25.76 -6.58 "/><polyline fill="none" stroke="#444" stroke-width="0.5" stroke-linecap="square" stroke-miterlimit="1"  points="24.74 -9.74 29.85 -11.75 "/><polyline fill="none" stroke="#444" stroke-width="0.5" stroke-linecap="square" stroke-miterlimit="1"  points="26.57 -0.83 26.58 0 26.57 0.83 26.53 1.66 27.38 2.57 31.03 2.92 32.02 2 32.07 1 32.08 0 32.07 -1 "/><polyline fill="none" stroke="#444" stroke-width="0.5" stroke-linecap="square" stroke-miterlimit="1"  points="32.08 0 26.58 0 "/><polyline fill="none" stroke="#444" stroke-width="0.5" stroke-linecap="square" stroke-miterlimit="1"  points="29.06 8.4 29.31 7.48 29.53 6.56 29.72 5.64 29.88 4.71 "/><polyline fill="none" stroke="#444" stroke-width="0.5" stroke-linecap="square" stroke-miterlimit="1"  points="27.3 7.89 27.53 7.03 27.74 6.17 27.92 5.3 28.07 4.42 "/><polyline fill="none" stroke="#444" stroke-width="0.5" stroke-linecap="square" stroke-miterlimit="1"  points="29.34 10.5 29.85 11.75 24.74 9.74 "/><polyline fill="none" stroke="#444" stroke-width="0.5" stroke-linecap="square" stroke-miterlimit="1"  points="24.42 10.5 24.74 9.74 25.03 8.96 "/><polyline fill="none" stroke="#444" stroke-width="0.5" stroke-linecap="square" stroke-miterlimit="1"  points="23.79 17.16 23.24 17.9 22.67 18.62 22.08 19.31 22.13 20.62 22.8 21.24 24.15 21.13 24.8 20.36 25.42 19.58 26.02 18.77 21.56 15.55 "/><polyline fill="none" stroke="#444" stroke-width="0.5" stroke-linecap="square" stroke-miterlimit="1"  points="17.9 24.38 18.66 23.81 19.39 23.22 20.11 22.6 20.8 21.96 "/><polyline fill="none" stroke="#444" stroke-width="0.5" stroke-linecap="square" stroke-miterlimit="1"  points="16.82 22.91 17.52 22.37 18.21 21.81 18.89 21.23 19.54 20.63 "/><polyline fill="none" stroke="#444" stroke-width="0.5" stroke-linecap="square" stroke-miterlimit="1"  points="16.84 26.23 16.48 27.53 13.66 22.81 "/><polyline fill="none" stroke="#444" stroke-width="0.5" stroke-linecap="square" stroke-miterlimit="1"  points="12.94 23.22 13.66 22.81 14.36 22.37 "/><polyline fill="none" stroke="#444" stroke-width="0.5" stroke-linecap="square" stroke-miterlimit="1"  points="9.48 25.81 9.94 24.65 10.71 24.33 11.86 24.81 13.44 28.12 12.92 29.37 12 29.76 10.75 29.26 9.48 25.81 "/><polyline fill="none" stroke="#444" stroke-width="0.5" stroke-linecap="square" stroke-miterlimit="1"  points="3.9 29.07 2.99 29.18 2.07 29.26 1.16 29.31 0.25 30.25 0.26 31.17 1.27 32.06 2.27 32 3.27 31.92 4.26 31.8 3.53 26.35 "/><polyline fill="none" stroke="#444" stroke-width="0.5" stroke-linecap="square" stroke-miterlimit="1"  points="-1.44 26.54 -1.54 28.37 -2.58 30.14 -3.74 31.87 -4.46 29.92 -5.07 27.96 -4.74 26.16 "/><polyline fill="none" stroke="#444" stroke-width="0.5" stroke-linecap="square" stroke-miterlimit="1"  points="-1.54 28.37 -2.43 28.31 -3.31 28.22 -4.19 28.11 -5.07 27.96 "/><polyline fill="none" stroke="#444" stroke-width="0.5" stroke-linecap="square" stroke-miterlimit="1"  points="-10.85 28.24 -9.96 28.56 -9.06 28.86 -8.15 29.13 -7.24 29.37 "/><polyline fill="none" stroke="#444" stroke-width="0.5" stroke-linecap="square" stroke-miterlimit="1"  points="-10.19 26.53 -9.35 26.83 -8.51 27.11 -7.66 27.36 -6.8 27.59 "/><polyline fill="none" stroke="#444" stroke-width="0.5" stroke-linecap="square" stroke-miterlimit="1"  points="-13.99 22.6 -13.28 23.03 -12.55 23.43 -11.81 23.81 -11.06 24.17 -11.83 25.84 -13.03 26.28 -13.85 25.86 -14.65 25.41 -15.92 25.72 -16.4 26.5 -16.02 27.8 -15.15 28.28 -14.26 28.74 -12.97 28.34 "/><polyline fill="none" stroke="#444" stroke-width="0.5" stroke-linecap="square" stroke-miterlimit="1"  points="-17.93 20.85 -16.7 20.68 -16.04 21.2 -15.9 22.43 -18.03 25.43 -19.36 25.58 -20.15 24.96 -20.33 23.63 -17.93 20.85 "/></g></g><g class="guides gearguides" opacity="0.2"><circle class="pitch" fill="none" stroke="#f00" stroke-miterlimit="10" cx="0" cy="0" r="50"/><circle class="outer" fill="none" stroke="#ccc" stroke-miterlimit="10" stroke-dasharray="2,2" cx="0" cy="0" r="60"/><circle class="base" fill="none" stroke="#00f" stroke-miterlimit="10" stroke-dasharray="2,2" cx="0" cy="0" r="46.98"/></g></svg>