  0
SECTION
  2
HEADER
  9
$ACADVER
  1
AC1014
  9
$ACADMAINTVER
 70
     0
  9
$DWGCODEPAGE
  3
ANSI_1252
  9
$INSBASE
 10
0.0
 20
0.0
 30
0.0
  9
$EXTMIN
 10
0.0
 20
0.0
 30
0.0
  9
$EXTMAX
 10
594.0
 20
841.0
 30
0.0
  9
$LIMMIN
 10
0.0
 20
0.0
  9
$LIMMAX
 10
12.0
 20
9.0
  9
$ORTHOMODE
 70
     0
  9
$REGENMODE
 70
     1
  9
$FILLMODE
 70
     0
  9
$QTEXTMODE
 70
     0
  9
$MIRRTEXT
 70
     1
  9
$DRAGMODE
 70
     2
  9
$LTSCALE
 40
1.0
  9
$OSMODE
 70
     0
  9
$ATTMODE
 70
     1
  9
$TEXTSIZE
 40
0.2
  9
$TRACEWID
 40
0.05
  9
$TEXTSTYLE
  7
STANDARD
  9
$CLAYER
  8
0
  9
$CELTYPE
  6
BYLAYER
  9
$CECOLOR
 62
   256
  9
$CELTSCALE
 40
1.0
  9
$DELOBJ
 70
     1
  9
$DISPSILH
 70
     0
  9
$DIMSCALE
 40
1.0
  9
$DIMASZ
 40
0.18
  9
$DIMEXO
 40
0.0625
  9
$DIMDLI
 40
0.38
  9
$DIMRND
 40
0.0
  9
$DIMDLE
 40
0.0
  9
$DIMEXE
 40
0.18
  9
$DIMTP
 40
0.0
  9
$DIMTM
 40
0.0
  9
$DIMTXT
 40
0.18
  9
$DIMCEN
 40
0.09
  9
$DIMTSZ
 40
0.0
  9
$DIMTOL
 70
     0
  9
$DIMLIM
 70
     0
  9
$DIMTIH
 70
     0
  9
$DIMTOH
 70
     0
  9
$DIMSE1
 70
     0
  9
$DIMSE2
 70
     0
  9
$DIMTAD
 70
     1
  9
$DIMZIN
 70
     0
  9
$DIMBLK
  1

  9
$DIMASO
 70
     1
  9
$DIMSHO
 70
     1
  9
$DIMPOST
  1

  9
$DIMAPOST
  1

  9
$DIMALT
 70
     0
  9
$DIMALTD
 70
     2
  9
$DIMALTF
 40
25.4
  9
$DIMLFAC
 40
1.0
  9
$DIMTOFL
 70
     0
  9
$DIMTVP
 40
0.0
  9
$DIMTIX
 70
     0
  9
$DIMSOXD
 70
     0
  9
$DIMSAH
 70
     0
  9
$DIMBLK1
  1

  9
$DIMBLK2
  1

  9
$DIMSTYLE
  2
STANDARD
  9
$DIMCLRD
 70
     0
  9
$DIMCLRE
 70
     0
  9
$DIMCLRT
 70
     0
  9
$DIMTFAC
 40
1.0
  9
$DIMGAP
 40
0.09
  9
$DIMJUST
 70
     0
  9
$DIMSD1
 70
     0
  9
$DIMSD2
 70
     0
  9
$DIMTOLJ
 70
     1
  9
$DIMTZIN
 70
     0
  9
$DIMALTZ
 70
     0
  9
$DIMALTTZ
 70
     0
  9
$DIMFIT
 70
     3
  9
$DIMUPT
 70
     0
  9
$DIMUNIT
 70
     2
  9
$DIMDEC
 70
     2
  9
$DIMTDEC
 70
     4
  9
$DIMALTU
 70
     2
  9
$DIMALTTD
 70
     2
  9
$DIMTXSTY
  7
STANDARD
  9
$DIMAUNIT
 70
     0
  9
$LUNITS
 70
     2
  9
$LUPREC
 70
     4
  9
$SKETCHINC
 40
0.1
  9
$FILLETRAD
 40
0.5
  9
$AUNITS
 70
     0
  9
$AUPREC
 70
     0
  9
$MENU
  1
.
  9
$ELEVATION
 40
0.0
  9
$PELEVATION
 40
0.0
  9
$THICKNESS
 40
0.0
  9
$LIMCHECK
 70
     0
  9
$BLIPMODE
 70
     0
  9
$CHAMFERA
 40
0.5
  9
$CHAMFERB
 40
0.5
  9
$CHAMFERC
 40
1.0
  9
$CHAMFERD
 40
0.0
  9
$SKPOLY
 70
     0
  9
$TDCREATE
 40
2450772.666465926
  9
$TDUPDATE
 40
2457494.677118044
  9
$TDINDWG
 40
0.0011564931
  9
$TDUSRTIMER
 40
0.0000000000
  9
$USRTIMER
 70
     1
  9
$ANGBASE
 50
0.0
  9
$ANGDIR
 70
     0
  9
$PDMODE
 70
     0
  9
$PDSIZE
 40
0.0
  9
$PLINEWID
 40
0.0
  9
$COORDS
 70
     1
  9
$SPLFRAME
 70
     0
  9
$SPLINETYPE
 70
     6
  9
$SPLINESEGS
 70
     8
  9
$ATTDIA
 70
     0
  9
$ATTREQ
 70
     1
  9
$HANDLING
 70
     1
  9
$HANDSEED
  5
AE
  9
$SURFTAB1
 70
     6
  9
$SURFTAB2
 70
     6
  9
$SURFTYPE
 70
     6
  9
$SURFU
 70
     6
  9
$SURFV
 70
     6
  9
$UCSNAME
  2

  9
$UCSORG
 10
0.0
 20
0.0
 30
0.0
  9
$UCSXDIR
 10
1.0
 20
0.0
 30
0.0
  9
$UCSYDIR
 10
0.0
 20
1.0
 30
0.0
  9
$PUCSNAME
  2

  9
$PUCSORG
 10
0.0
 20
0.0
 30
0.0
  9
$PUCSXDIR
 10
1.0
 20
0.0
 30
0.0
  9
$PUCSYDIR
 10
0.0
 20
1.0
 30
0.0
  9
$USERI1
 70
     0
  9
$USERI2
 70
     0
  9
$USERI3
 70
     0
  9
$USERI4
 70
     0
  9
$USERI5
 70
     0
  9
$USERR1
 40
0.0
  9
$USERR2
 40
0.0
  9
$USERR3
 40
0.0
  9
$USERR4
 40
0.0
  9
$USERR5
 40
0.0
  9
$WORLDVIEW
 70
     1
  9
$SHADEDGE
 70
     3
  9
$SHADEDIF
 70
    70
  9
$TILEMODE
 70
     1
  9
$MAXACTVP
 70
    48
  9
$PINSBASE
 10
0.0
 20
0.0
 30
0.0
  9
$PLIMCHECK
 70
     0
  9
$PEXTMIN
 10
0.0
 20
0.0
 30
0.0
  9
$PEXTMAX
 10
0.0
 20
0.0
 30
0.0
  9
$PLIMMIN
 10
0.0
 20
0.0
  9
$PLIMMAX
 10
12.0
 20
9.0
  9
$UNITMODE
 70
     0
  9
$VISRETAIN
 70
     1
  9
$PLINEGEN
 70
     0
  9
$PSLTSCALE
 70
     1
  9
$TREEDEPTH
 70
  3020
  9
$PICKSTYLE
 70
     1
  9
$CMLSTYLE
  2
STANDARD
  9
$CMLJUST
 70
     0
  9
$CMLSCALE
 40
1.0
  9
$PROXYGRAPHICS
 70
     1
  9
$MEASUREMENT
 70
     0
  0
ENDSEC
  0
SECTION
  2
CLASSES
  0
CLASS
  1
LWPOLYLINE
  2
AcDbPolyline
  3
"AutoCAD"
 90
        0
280
     0
281
     1
  0
CLASS
  1
IMAGE
  2
AcDbRasterImage
  3
ISM
 90
      127
280
     0
281
     1
  0
CLASS
  1
OLE2FRAME
  2
AcDbOle2Frame
  3
""
 90
        0
280
     0
281
     1
  0
CLASS
  1
HATCH
  2
AcDbHatch
  3
"ACAD_SEDONA"
 90
        0
280
     0
281
     1
  0
CLASS
  1
DICTIONARYVAR
  2
AcDbDictionaryVar
  3
"AutoCAD"
 90
        0
280
     0
281
     0
  0
CLASS
  1
RASTERVARIABLES
  2
AcDbRasterVariables
  3
ISM
 90
        0
280
     0
281
     0
  0
CLASS
  1
IMAGEDEF
  2
AcDbRasterImageDef
  3
ISM
 90
        0
280
     0
281
     0
  0
CLASS
  1
IMAGEDEF_REACTOR
  2
AcDbRasterImageDefReactor
  3
ISM
 90
        1
280
     0
281
     0
  0
CLASS
  1
IDBUFFER
  2
AcDbIdBuffer
  3
"Acad"
 90
        0
280
     0
281
     0
  0
CLASS
  1
SPATIAL_FILTER
  2
AcDbSpatialFilter
  3
"Acad"
 90
        0
280
     0
281
     0
  0
CLASS
  1
XRECORD
  2
AcDbXrecord
  3
"<Built In>"
 90
        0
280
     0
281
     0
  0
CLASS
  1
SORTENTSTABLE
  2
AcDbSortentsTable
  3
"AutoCAD"
 90
        0
280
     0
281
     0
  0
CLASS
  1
LAYER_INDEX
  2
AcDbLayerIndex
  3
"Acad"
 90
        0
280
     0
281
     0
  0
CLASS
  1
SPATIAL_INDEX
  2
AcDbSpatialIndex
  3
"Acad"
 90
        0
280
     0
281
     0
  0
CLASS
  1
OBJECT_PTR
  2
CAseDLPNTableRecord
  3
"ASE-LPNTableRecord"
 90
        1
280
     0
281
     0
  0
CLASS
  1
LAYOUT
  2
AcDbLayout
  3
"AutoCAD 2000"
 90
        1
280
     0
281
     0
  0
CLASS
  1
PLOTSETTINGS
  2
AcDbPlotSettings
  3
"AutoCAD 2000"
 90
        1
280
     0
281
     0
  0
CLASS
  1
ACDBDICTIONARYWDFLT
  2
AcDbDictionaryWithDefault
  3
"AutoCAD 2000"
 90
        1
280
     0
281
     0
  0
CLASS
  1
ACDBPLACEHOLDER
  2
AcDbPlaceHolder
  3
"AutoCAD 2000"
 90
        1
280
     0
281
     0
  0
CLASS
  1
VBA_PROJECT
  2
AcDbVbaProject
  3
"acadvba"
 90
        1
280
     0
281
     0
  0
CLASS
  1
WIPEOUT
  2
AcDbWipeout
  3
WipeOut|AutoCAD Express Tool|expresstools@autodesk.com
 90
      127
280
     0
281
     1
  0
CLASS
  1
WIPEOUTVARIABLES
  2
AcDbWipeoutVariables
  3
WipeOut|AutoCAD Express Tool|expresstools@autodesk.com
 90
        0
280
     0
281
     0
  0
CLASS
  1
RTEXT
  2
RText
  3
RText|AutoCAD Express Tool|expresstools@autodesk.com
 90
        0
280
     0
281
     1
  0
CLASS
  1
ARCALIGNEDTEXT
  2
AcDbArcAlignedText
  3
ATEXT|AutoCAD Express Tool|expresstools@autodesk.com
 90
        0
280
     0
281
     1
  0
ENDSEC
  0
SECTION
  2
TABLES
  0
TABLE
  2
VPORT
  5
8
100
AcDbSymbolTable
 70
     1
  0
VPORT
  5
25
100
AcDbSymbolTableRecord
100
AcDbViewportTableRecord
  2
*ACTIVE
 70
     0
 10
0.0
 20
0.0
 11
1.0
 21
1.0
 12
297.0
 22
420.5
 13
0.0
 23
0.0
 14
0.5
 24
0.5
 15
0.5
 25
0.5
 16
0.0
 26
0.0
 36
1.0
 17
0.0
 27
0.0
 37
0.0
 40
841.0
 41
0.706302
 42
50.0
 43
0.0
 44
0.0
 50
0.0
 51
0.0
 71
     0
 72
   100
 73
     1
 74
     1
 75
     0
 76
     0
 77
     0
 78
     0
  0
ENDTAB
  0
TABLE
  2
LTYPE
  5
5
100
AcDbSymbolTable
 70
     3
  0
LTYPE
  5
12
100
AcDbSymbolTableRecord
100
AcDbLinetypeTableRecord
  2
BYBLOCK
 70
    64
  3

 72
    65
 73
     0
 40
0.0
  0
LTYPE
  5
13
100
AcDbSymbolTableRecord
100
AcDbLinetypeTableRecord
  2
BYLAYER
 70
    64
  3

 72
    65
 73
     0
 40
0.0
  0
LTYPE
  5
14
100
AcDbSymbolTableRecord
100
AcDbLinetypeTableRecord
  2
CONTINUOUS
 70
     0
  3
Solid line
 72
    65
 73
     0
 40
0.0
  0
ENDTAB
  0
TABLE
  2
LAYER
  5
2
100
AcDbSymbolTable
 70
     1
  0
LAYER
  5
E
100
AcDbSymbolTableRecord
100
AcDbLayerTableRecord
  2
0
 70
     0
 62
     7
  6
CONTINUOUS
  0
ENDTAB
  0
TABLE
  2
STYLE
  5
3
100
AcDbSymbolTable
 70
     1
  0
STYLE
  5
F
100
AcDbSymbolTableRecord
100
AcDbTextStyleTableRecord
  2
STANDARD
 70
     0
 40
0.0
 41
1.0
 50
0.0
 71
     0
 42
0.2
  3
txt.shx
  4

  0
ENDTAB
  0
TABLE
  2
VIEW
  5
6
100
AcDbSymbolTable
 70
     0
  0
ENDTAB
  0
TABLE
  2
UCS
  5
7
100
AcDbSymbolTable
 70
     0
  0
ENDTAB
  0
TABLE
  2
APPID
  5
9
100
AcDbSymbolTable
 70
     1
  0
APPID
  5
10
100
AcDbSymbolTableRecord
100
AcDbRegAppTableRecord
  2
ACAD
 70
     0
  0
ENDTAB
  0
TABLE
  2
DIMSTYLE
  5
A
100
AcDbSymbolTable
 70
     1
  0
DIMSTYLE
105
1D
100
AcDbSymbolTableRecord
100
AcDbDimStyleTableRecord
  2
STANDARD
 70
     0
  3

  4

  5

  6

  7

 40
1.0
 41
0.18
 42
0.0625
 43
0.38
 44
0.18
 45
0.0
 46
0.0
 47
0.0
 48
0.0
 71
     0
 72
     0
 73
     1
 74
     1
 75
     0
 76
     0
 77
     0
 78
     0
140
0.18
141
0.09
142
0.0
143
25.4
144
1.0
145
0.0
146
1.0
147
0.09
170
     0
171
     2
172
     0
173
     0
174
     0
175
     0
176
     0
177
     0
178
     0
270
     2
271
     4
272
     4
273
     2
274
     2
275
     0
280
     0
281
     0
282
     0
283
     1
284
     0
285
     0
286
     0
287
     3
288
     0
340
F
  0
ENDTAB
  0
TABLE
  2
BLOCK_RECORD
  5
1
100
AcDbSymbolTable
 70
     5
  0
BLOCK_RECORD
  5
18
100
AcDbSymbolTableRecord
100
AcDbBlockTableRecord
  2
*MODEL_SPACE
  0
BLOCK_RECORD
  5
15
100
AcDbSymbolTableRecord
100
AcDbBlockTableRecord
  2
*PAPER_SPACE
  0
BLOCK_RECORD
  5
95
100
AcDbSymbolTableRecord
100
AcDbBlockTableRecord
  2
ROUNDED_RECTANGLE
  0
BLOCK_RECORD
  5
9A
100
AcDbSymbolTableRecord
100
AcDbBlockTableRecord
  2
RECTANGLE
  0
BLOCK_RECORD
  5
9F
100
AcDbSymbolTableRecord
100
AcDbBlockTableRecord
  2
CIRCLE
  0
BLOCK_RECORD
  5
A4
100
AcDbSymbolTableRecord
100
AcDbBlockTableRecord
  2
SQUARE
  0
BLOCK_RECORD
  5
A9
100
AcDbSymbolTableRecord
100
AcDbBlockTableRecord
  2
CENTER_DRAG_CIRCLE
  0
ENDTAB
  0
ENDSEC
  0
SECTION
  2
BLOCKS
  0
BLOCK
  5
19
100
AcDbEntity
  8
0
100
AcDbBlockBegin
  2
*MODEL_SPACE
 70
     0
 10
0.0
 20
0.0
 30
0.0
  3
*MODEL_SPACE
  1

  0
ENDBLK
  5
1A
100
AcDbEntity
  8
0
100
AcDbBlockEnd
  0
BLOCK
  5
16
100
AcDbEntity
 67
     1
  8
0
100
AcDbBlockBegin
  2
*PAPER_SPACE
 70
     0
 10
0.0
 20
0.0
 30
0.0
  3
*PAPER_SPACE
  1

  0
ENDBLK
  5
17
100
AcDbEntity
 67
     1
  8
0
100
AcDbBlockEnd
  0
BLOCK
  5
96
100
AcDbEntity
  8
0
100
AcDbBlockBegin
  2
ROUNDED_RECTANGLE
 70
     0
 10
0.0
 20
0.0
 30
0.0
  3
ROUNDED_RECTANGLE
  1

  0
LWPOLYLINE
  5
97
102
{ACAD_REACTORS
330
98
102
}
100
AcDbEntity
  8
0
  6
CONTINUOUS
 62
     7
100
AcDbPolyline
 90
        8
 70
     1
 10
65.0
 20
35.0
 42
0.414209
 10
70.0
 20
40.0
 10
70.0
 20
60.0
 42
0.414209
 10
65.0
 20
65.0
 10
35.0
 20
65.0
 42
0.414209
 10
30.0
 20
60.0
 10
30.0
 20
40.0
 42
0.414209
 10
35.0
 20
35.0
  0
HATCH
  5
98
100
AcDbEntity
  8
0
 62
   254
100
AcDbHatch
 10
0.0
 20
0.0
 30
0.0
210
0.0
220
0.0
230
1.0
  2
SOLID
 70
     1
 71
     1
 91
        1
 92
        3
 72
     1
 73
     1
 93
        8
 10
65.000000093999986
 20
35.0
 42
0.4142090102834559
 10
70.0
 20
39.999999905999999
 42
0.0
 10
70.0
 20
60.000000093999994
 42
0.4142090102834552
 10
65.000000093999986
 20
65.000000000000014
 42
0.0
 10
34.999999905999999
 20
65.0
 42
0.414209010283455
 10
30.0
 20
60.000000094000001
 42
0.0
 10
30.0
 20
39.999999905999992
 42
0.4142090102834558
 10
34.999999905999999
 20
35.0
 42
0.0
 97
        1
330
97
 75
     0
 76
     1
 98
        0
  0
ENDBLK
  5
99
100
AcDbEntity
  8
0
100
AcDbBlockEnd
  0
BLOCK
  5
9B
100
AcDbEntity
  8
0
100
AcDbBlockBegin
  2
RECTANGLE
 70
     0
 10
0.0
 20
0.0
 30
0.0
  3
RECTANGLE
  1

  0
LWPOLYLINE
  5
9C
102
{ACAD_REACTORS
330
9D
102
}
100
AcDbEntity
  8
0
  6
CONTINUOUS
 62
     7
100
AcDbPolyline
 90
        4
 70
     1
 10
30.0
 20
35.0
 10
70.0
 20
35.0
 10
70.0
 20
65.0
 10
30.0
 20
65.0
  0
HATCH
  5
9D
100
AcDbEntity
  8
0
 62
   254
100
AcDbHatch
 10
0.0
 20
0.0
 30
0.0
210
0.0
220
0.0
230
1.0
  2
SOLID
 70
     1
 71
     1
 91
        1
 92
        3
 72
     0
 73
     1
 93
        4
 10
30.0
 20
35.0
 10
70.0
 20
35.0
 10
70.0
 20
65.000000000000014
 10
30.0
 20
65.000000000000014
 97
        1
330
9C
 75
     0
 76
     1
 98
        0
  0
ENDBLK
  5
9E
100
AcDbEntity
  8
0
100
AcDbBlockEnd
  0
BLOCK
  5
A0
100
AcDbEntity
  8
0
100
AcDbBlockBegin
  2
CIRCLE
 70
     0
 10
0.0
 20
0.0
 30
0.0
  3
CIRCLE
  1

  0
LWPOLYLINE
  5
A1
102
{ACAD_REACTORS
330
A2
102
}
100
AcDbEntity
  8
0
  6
CONTINUOUS
 62
     7
100
AcDbPolyline
 90
        2
 70
     1
 10
30.0
 20
50.0
 42
-1.0
 10
70.0
 20
50.0
 42
-1.0
  0
HATCH
  5
A2
100
AcDbEntity
  8
0
 62
   254
100
AcDbHatch
 10
0.0
 20
0.0
 30
0.0
210
0.0
220
0.0
230
1.0
  2
SOLID
 70
     1
 71
     1
 91
        1
 92
        3
 72
     1
 73
     1
 93
        2
 10
30.000000000000004
 20
50.0
 42
-0.9999999999999999
 10
70.0
 20
50.0
 42
-1.0000000000000071
 97
        1
330
A1
 75
     0
 76
     1
 98
        0
  0
ENDBLK
  5
A3
100
AcDbEntity
  8
0
100
AcDbBlockEnd
  0
BLOCK
  5
A5
100
AcDbEntity
  8
0
100
AcDbBlockBegin
  2
SQUARE
 70
     0
 10
0.0
 20
0.0
 30
0.0
  3
SQUARE
  1

  0
LWPOLYLINE
  5
A6
102
{ACAD_REACTORS
330
A7
102
}
100
AcDbEntity
  8
0
  6
CONTINUOUS
 62
     7
100
AcDbPolyline
 90
        4
 70
     1
 10
30.0
 20
30.0
 10
70.0
 20
30.0
 10
70.0
 20
70.0
 10
30.0
 20
70.0
  0
HATCH
  5
A7
100
AcDbEntity
  8
0
 62
   254
100
AcDbHatch
 10
0.0
 20
0.0
 30
0.0
210
0.0
220
0.0
230
1.0
  2
SOLID
 70
     1
 71
     1
 91
        1
 92
        3
 72
     0
 73
     1
 93
        4
 10
30.0
 20
30.0
 10
70.0
 20
30.0
 10
70.0
 20
70.0
 10
30.0
 20
70.0
 97
        1
330
A6
 75
     0
 76
     1
 98
        0
  0
ENDBLK
  5
A8
100
AcDbEntity
  8
0
100
AcDbBlockEnd
  0
BLOCK
  5
AA
100
AcDbEntity
  8
0
100
AcDbBlockBegin
  2
CENTER_DRAG_CIRCLE
 70
     0
 10
0.0
 20
0.0
 30
0.0
  3
CENTER_DRAG_CIRCLE
  1

  0
LWPOLYLINE
  5
AB
102
{ACAD_REACTORS
330
AC
102
}
100
AcDbEntity
  8
0
  6
CONTINUOUS
 62
     7
100
AcDbPolyline
 90
        2
 70
     1
 10
28.75
 20
50.0
 42
-1.0
 10
68.75
 20
50.0
 42
-1.0
  0
HATCH
  5
AC
100
AcDbEntity
  8
0
 62
   254
100
AcDbHatch
 10
0.0
 20
0.0
 30
0.0
210
0.0
220
0.0
230
1.0
  2
SOLID
 70
     1
 71
     1
 91
        1
 92
        3
 72
     1
 73
     1
 93
        2
 10
28.749999999999996
 20
50.0
 42
-0.9999999999999999
 10
68.749999999999986
 20
50.0
 42
-1.0000000000000071
 97
        1
330
AB
 75
     0
 76
     1
 98
        0
  0
ENDBLK
  5
AD
100
AcDbEntity
  8
0
100
AcDbBlockEnd
  0
ENDSEC
  0
SECTION
  2
ENTITIES
  0
LWPOLYLINE
  5
32
102
{ACAD_REACTORS
330
31
102
}
100
AcDbEntity
  8
0
  6
CONTINUOUS
 62
     7
100
AcDbPolyline
 90
       18
 70
     1
 10
321.383706
 20
101.625
 10
266.833333
 20
101.625
 10
266.833333
 20
86.6
 10
290.833333
 20
86.6
 10
290.833333
 20
71.55
 10
396.833333
 20
71.55
 42
0.414209
 10
407.433333
 20
82.15
 10
407.433333
 20
689.75
 42
0.414209
 10
396.833333
 20
700.35
 10
290.833333
 20
700.35
 10
290.833333
 20
685.35
 10
266.833333
 20
685.35
 10
266.833333
 20
670.275
 10
321.383706
 20
670.275
 10
338.333333
 20
670.275
 42
-0.414214
 10
341.333333
 20
667.275
 10
341.333333
 20
104.625
 42
-0.414214
 10
338.333333
 20
101.625
  0
LWPOLYLINE
  5
33
102
{ACAD_REACTORS
330
31
102
}
100
AcDbEntity
  8
0
  6
CONTINUOUS
 62
     7
100
AcDbPolyline
 90
        2
 70
     1
 10
353.933333
 20
641.2
 42
-1.0
 10
353.933333
 20
638.2
 42
-1.0
  0
LWPOLYLINE
  5
34
102
{ACAD_REACTORS
330
31
102
}
100
AcDbEntity
  8
0
  6
CONTINUOUS
 62
     7
100
AcDbPolyline
 90
        2
 70
     1
 10
343.933333
 20
632.2
 42
1.0
 10
343.933333
 20
635.2
 42
1.0
  0
LWPOLYLINE
  5
35
102
{ACAD_REACTORS
330
31
102
}
100
AcDbEntity
  8
0
  6
CONTINUOUS
 62
     7
100
AcDbPolyline
 90
        2
 70
     1
 10
353.933333
 20
611.7
 42
-1.0
 10
353.933333
 20
608.7
 42
-1.0
  0
LWPOLYLINE
  5
36
102
{ACAD_REACTORS
330
31
102
}
100
AcDbEntity
  8
0
  6
CONTINUOUS
 62
     7
100
AcDbPolyline
 90
        2
 70
     1
 10
343.933333
 20
602.7
 42
1.0
 10
343.933333
 20
605.7
 42
1.0
  0
LWPOLYLINE
  5
37
102
{ACAD_REACTORS
330
31
102
}
100
AcDbEntity
  8
0
  6
CONTINUOUS
 62
     7
100
AcDbPolyline
 90
        2
 70
     1
 10
353.933333
 20
582.2
 42
-1.0
 10
353.933333
 20
579.2
 42
-1.0
  0
LWPOLYLINE
  5
38
102
{ACAD_REACTORS
330
31
102
}
100
AcDbEntity
  8
0
  6
CONTINUOUS
 62
     7
100
AcDbPolyline
 90
        2
 70
     1
 10
343.933333
 20
573.2
 42
1.0
 10
343.933333
 20
576.2
 42
1.0
  0
LWPOLYLINE
  5
39
102
{ACAD_REACTORS
330
31
102
}
100
AcDbEntity
  8
0
  6
CONTINUOUS
 62
     7
100
AcDbPolyline
 90
        2
 70
     1
 10
353.933333
 20
552.7
 42
-1.0
 10
353.933333
 20
549.7
 42
-1.0
  0
LWPOLYLINE
  5
3A
102
{ACAD_REACTORS
330
31
102
}
100
AcDbEntity
  8
0
  6
CONTINUOUS
 62
     7
100
AcDbPolyline
 90
        2
 70
     1
 10
343.933333
 20
543.7
 42
1.0
 10
343.933333
 20
546.7
 42
1.0
  0
LWPOLYLINE
  5
3B
102
{ACAD_REACTORS
330
31
102
}
100
AcDbEntity
  8
0
  6
CONTINUOUS
 62
     7
100
AcDbPolyline
 90
        2
 70
     1
 10
353.933333
 20
523.2
 42
-1.0
 10
353.933333
 20
520.2
 42
-1.0
  0
LWPOLYLINE
  5
3C
102
{ACAD_REACTORS
330
31
102
}
100
AcDbEntity
  8
0
  6
CONTINUOUS
 62
     7
100
AcDbPolyline
 90
        2
 70
     1
 10
343.933333
 20
514.2
 42
1.0
 10
343.933333
 20
517.2
 42
1.0
  0
LWPOLYLINE
  5
3D
102
{ACAD_REACTORS
330
31
102
}
100
AcDbEntity
  8
0
  6
CONTINUOUS
 62
     7
100
AcDbPolyline
 90
        2
 70
     1
 10
353.933333
 20
493.7
 42
-1.0
 10
353.933333
 20
490.7
 42
-1.0
  0
LWPOLYLINE
  5
3E
102
{ACAD_REACTORS
330
31
102
}
100
AcDbEntity
  8
0
  6
CONTINUOUS
 62
     7
100
AcDbPolyline
 90
        2
 70
     1
 10
343.933333
 20
484.7
 42
1.0
 10
343.933333
 20
487.7
 42
1.0
  0
LWPOLYLINE
  5
3F
102
{ACAD_REACTORS
330
31
102
}
100
AcDbEntity
  8
0
  6
CONTINUOUS
 62
     7
100
AcDbPolyline
 90
        2
 70
     1
 10
353.933333
 20
464.2
 42
-1.0
 10
353.933333
 20
461.2
 42
-1.0
  0
LWPOLYLINE
  5
40
102
{ACAD_REACTORS
330
31
102
}
100
AcDbEntity
  8
0
  6
CONTINUOUS
 62
     7
100
AcDbPolyline
 90
        2
 70
     1
 10
343.933333
 20
455.2
 42
1.0
 10
343.933333
 20
458.2
 42
1.0
  0
LWPOLYLINE
  5
41
102
{ACAD_REACTORS
330
31
102
}
100
AcDbEntity
  8
0
  6
CONTINUOUS
 62
     7
100
AcDbPolyline
 90
        2
 70
     1
 10
353.933333
 20
434.7
 42
-1.0
 10
353.933333
 20
431.7
 42
-1.0
  0
LWPOLYLINE
  5
42
102
{ACAD_REACTORS
330
31
102
}
100
AcDbEntity
  8
0
  6
CONTINUOUS
 62
     7
100
AcDbPolyline
 90
        2
 70
     1
 10
343.933333
 20
425.7
 42
1.0
 10
343.933333
 20
428.7
 42
1.0
  0
LWPOLYLINE
  5
43
102
{ACAD_REACTORS
330
31
102
}
100
AcDbEntity
  8
0
  6
CONTINUOUS
 62
     7
100
AcDbPolyline
 90
        2
 70
     1
 10
353.933333
 20
405.2
 42
-1.0
 10
353.933333
 20
402.2
 42
-1.0
  0
LWPOLYLINE
  5
44
102
{ACAD_REACTORS
330
31
102
}
100
AcDbEntity
  8
0
  6
CONTINUOUS
 62
     7
100
AcDbPolyline
 90
        2
 70
     1
 10
343.933333
 20
396.2
 42
1.0
 10
343.933333
 20
399.2
 42
1.0
  0
LWPOLYLINE
  5
45
102
{ACAD_REACTORS
330
31
102
}
100
AcDbEntity
  8
0
  6
CONTINUOUS
 62
     7
100
AcDbPolyline
 90
        2
 70
     1
 10
353.933333
 20
375.7
 42
-1.0
 10
353.933333
 20
372.7
 42
-1.0
  0
LWPOLYLINE
  5
46
102
{ACAD_REACTORS
330
31
102
}
100
AcDbEntity
  8
0
  6
CONTINUOUS
 62
     7
100
AcDbPolyline
 90
        2
 70
     1
 10
343.933333
 20
366.7
 42
1.0
 10
343.933333
 20
369.7
 42
1.0
  0
LWPOLYLINE
  5
47
102
{ACAD_REACTORS
330
31
102
}
100
AcDbEntity
  8
0
  6
CONTINUOUS
 62
     7
100
AcDbPolyline
 90
        2
 70
     1
 10
353.933333
 20
346.2
 42
-1.0
 10
353.933333
 20
343.2
 42
-1.0
  0
LWPOLYLINE
  5
48
102
{ACAD_REACTORS
330
31
102
}
100
AcDbEntity
  8
0
  6
CONTINUOUS
 62
     7
100
AcDbPolyline
 90
        2
 70
     1
 10
343.933333
 20
337.2
 42
1.0
 10
343.933333
 20
340.2
 42
1.0
  0
LWPOLYLINE
  5
49
102
{ACAD_REACTORS
330
31
102
}
100
AcDbEntity
  8
0
  6
CONTINUOUS
 62
     7
100
AcDbPolyline
 90
        2
 70
     1
 10
353.933333
 20
316.7
 42
-1.0
 10
353.933333
 20
313.7
 42
-1.0
  0
LWPOLYLINE
  5
4A
102
{ACAD_REACTORS
330
31
102
}
100
AcDbEntity
  8
0
  6
CONTINUOUS
 62
     7
100
AcDbPolyline
 90
        2
 70
     1
 10
343.933333
 20
307.7
 42
1.0
 10
343.933333
 20
310.7
 42
1.0
  0
LWPOLYLINE
  5
4B
102
{ACAD_REACTORS
330
31
102
}
100
AcDbEntity
  8
0
  6
CONTINUOUS
 62
     7
100
AcDbPolyline
 90
        2
 70
     1
 10
353.933333
 20
287.2
 42
-1.0
 10
353.933333
 20
284.2
 42
-1.0
  0
LWPOLYLINE
  5
4C
102
{ACAD_REACTORS
330
31
102
}
100
AcDbEntity
  8
0
  6
CONTINUOUS
 62
     7
100
AcDbPolyline
 90
        2
 70
     1
 10
343.933333
 20
278.2
 42
1.0
 10
343.933333
 20
281.2
 42
1.0
  0
LWPOLYLINE
  5
4D
102
{ACAD_REACTORS
330
31
102
}
100
AcDbEntity
  8
0
  6
CONTINUOUS
 62
     7
100
AcDbPolyline
 90
        2
 70
     1
 10
353.933333
 20
257.7
 42
-1.0
 10
353.933333
 20
254.7
 42
-1.0
  0
LWPOLYLINE
  5
4E
102
{ACAD_REACTORS
330
31
102
}
100
AcDbEntity
  8
0
  6
CONTINUOUS
 62
     7
100
AcDbPolyline
 90
        2
 70
     1
 10
343.933333
 20
248.7
 42
1.0
 10
343.933333
 20
251.7
 42
1.0
  0
LWPOLYLINE
  5
4F
102
{ACAD_REACTORS
330
31
102
}
100
AcDbEntity
  8
0
  6
CONTINUOUS
 62
     7
100
AcDbPolyline
 90
        2
 70
     1
 10
353.933333
 20
228.2
 42
-1.0
 10
353.933333
 20
225.2
 42
-1.0
  0
LWPOLYLINE
  5
50
102
{ACAD_REACTORS
330
31
102
}
100
AcDbEntity
  8
0
  6
CONTINUOUS
 62
     7
100
AcDbPolyline
 90
        2
 70
     1
 10
343.933333
 20
219.2
 42
1.0
 10
343.933333
 20
222.2
 42
1.0
  0
LWPOLYLINE
  5
51
102
{ACAD_REACTORS
330
31
102
}
100
AcDbEntity
  8
0
  6
CONTINUOUS
 62
     7
100
AcDbPolyline
 90
        2
 70
     1
 10
353.933333
 20
198.7
 42
-1.0
 10
353.933333
 20
195.7
 42
-1.0
  0
LWPOLYLINE
  5
52
102
{ACAD_REACTORS
330
31
102
}
100
AcDbEntity
  8
0
  6
CONTINUOUS
 62
     7
100
AcDbPolyline
 90
        2
 70
     1
 10
343.933333
 20
189.7
 42
1.0
 10
343.933333
 20
192.7
 42
1.0
  0
LWPOLYLINE
  5
53
102
{ACAD_REACTORS
330
31
102
}
100
AcDbEntity
  8
0
  6
CONTINUOUS
 62
     7
100
AcDbPolyline
 90
        2
 70
     1
 10
353.933333
 20
169.2
 42
-1.0
 10
353.933333
 20
166.2
 42
-1.0
  0
LWPOLYLINE
  5
54
102
{ACAD_REACTORS
330
31
102
}
100
AcDbEntity
  8
0
  6
CONTINUOUS
 62
     7
100
AcDbPolyline
 90
        2
 70
     1
 10
343.933333
 20
160.2
 42
1.0
 10
343.933333
 20
163.2
 42
1.0
  0
LWPOLYLINE
  5
55
102
{ACAD_REACTORS
330
31
102
}
100
AcDbEntity
  8
0
  6
CONTINUOUS
 62
     7
100
AcDbPolyline
 90
        2
 70
     1
 10
353.933333
 20
139.7
 42
-1.0
 10
353.933333
 20
136.7
 42
-1.0
  0
LWPOLYLINE
  5
56
102
{ACAD_REACTORS
330
31
102
}
100
AcDbEntity
  8
0
  6
CONTINUOUS
 62
     7
100
AcDbPolyline
 90
        2
 70
     1
 10
343.933333
 20
130.7
 42
1.0
 10
343.933333
 20
133.7
 42
1.0
  0
LWPOLYLINE
  5
57
102
{ACAD_REACTORS
330
31
102
}
100
AcDbEntity
  8
0
  6
CONTINUOUS
 62
     7
100
AcDbPolyline
 90
        2
 70
     1
 10
394.333333
 20
638.2
 42
-1.0
 10
394.333333
 20
635.2
 42
-1.0
  0
LWPOLYLINE
  5
58
102
{ACAD_REACTORS
330
31
102
}
100
AcDbEntity
  8
0
  6
CONTINUOUS
 62
     7
100
AcDbPolyline
 90
        2
 70
     1
 10
394.333333
 20
609.45
 42
-1.0
 10
394.333333
 20
606.45
 42
-1.0
  0
LWPOLYLINE
  5
59
102
{ACAD_REACTORS
330
31
102
}
100
AcDbEntity
  8
0
  6
CONTINUOUS
 62
     7
100
AcDbPolyline
 90
        2
 70
     1
 10
394.333333
 20
579.95
 42
-1.0
 10
394.333333
 20
576.95
 42
-1.0
  0
LWPOLYLINE
  5
5A
102
{ACAD_REACTORS
330
31
102
}
100
AcDbEntity
  8
0
  6
CONTINUOUS
 62
     7
100
AcDbPolyline
 90
        2
 70
     1
 10
394.333333
 20
550.45
 42
-1.0
 10
394.333333
 20
547.45
 42
-1.0
  0
LWPOLYLINE
  5
5B
102
{ACAD_REACTORS
330
31
102
}
100
AcDbEntity
  8
0
  6
CONTINUOUS
 62
     7
100
AcDbPolyline
 90
        2
 70
     1
 10
394.333333
 20
520.95
 42
-1.0
 10
394.333333
 20
517.95
 42
-1.0
  0
LWPOLYLINE
  5
5C
102
{ACAD_REACTORS
330
31
102
}
100
AcDbEntity
  8
0
  6
CONTINUOUS
 62
     7
100
AcDbPolyline
 90
        2
 70
     1
 10
394.333333
 20
491.45
 42
-1.0
 10
394.333333
 20
488.45
 42
-1.0
  0
LWPOLYLINE
  5
5D
102
{ACAD_REACTORS
330
31
102
}
100
AcDbEntity
  8
0
  6
CONTINUOUS
 62
     7
100
AcDbPolyline
 90
        2
 70
     1
 10
394.333333
 20
461.95
 42
-1.0
 10
394.333333
 20
458.95
 42
-1.0
  0
LWPOLYLINE
  5
5E
102
{ACAD_REACTORS
330
31
102
}
100
AcDbEntity
  8
0
  6
CONTINUOUS
 62
     7
100
AcDbPolyline
 90
        2
 70
     1
 10
394.333333
 20
432.45
 42
-1.0
 10
394.333333
 20
429.45
 42
-1.0
  0
LWPOLYLINE
  5
5F
102
{ACAD_REACTORS
330
31
102
}
100
AcDbEntity
  8
0
  6
CONTINUOUS
 62
     7
100
AcDbPolyline
 90
        2
 70
     1
 10
394.333333
 20
402.95
 42
-1.0
 10
394.333333
 20
399.95
 42
-1.0
  0
LWPOLYLINE
  5
60
102
{ACAD_REACTORS
330
31
102
}
100
AcDbEntity
  8
0
  6
CONTINUOUS
 62
     7
100
AcDbPolyline
 90
        2
 70
     1
 10
394.333333
 20
373.45
 42
-1.0
 10
394.333333
 20
370.45
 42
-1.0
  0
LWPOLYLINE
  5
61
102
{ACAD_REACTORS
330
31
102
}
100
AcDbEntity
  8
0
  6
CONTINUOUS
 62
     7
100
AcDbPolyline
 90
        2
 70
     1
 10
394.333333
 20
343.95
 42
-1.0
 10
394.333333
 20
340.95
 42
-1.0
  0
LWPOLYLINE
  5
62
102
{ACAD_REACTORS
330
31
102
}
100
AcDbEntity
  8
0
  6
CONTINUOUS
 62
     7
100
AcDbPolyline
 90
        2
 70
     1
 10
394.333333
 20
314.45
 42
-1.0
 10
394.333333
 20
311.45
 42
-1.0
  0
LWPOLYLINE
  5
63
102
{ACAD_REACTORS
330
31
102
}
100
AcDbEntity
  8
0
  6
CONTINUOUS
 62
     7
100
AcDbPolyline
 90
        2
 70
     1
 10
394.333333
 20
284.95
 42
-1.0
 10
394.333333
 20
281.95
 42
-1.0
  0
LWPOLYLINE
  5
64
102
{ACAD_REACTORS
330
31
102
}
100
AcDbEntity
  8
0
  6
CONTINUOUS
 62
     7
100
AcDbPolyline
 90
        2
 70
     1
 10
394.333333
 20
255.45
 42
-1.0
 10
394.333333
 20
252.45
 42
-1.0
  0
LWPOLYLINE
  5
65
102
{ACAD_REACTORS
330
31
102
}
100
AcDbEntity
  8
0
  6
CONTINUOUS
 62
     7
100
AcDbPolyline
 90
        2
 70
     1
 10
394.333333
 20
225.95
 42
-1.0
 10
394.333333
 20
222.95
 42
-1.0
  0
LWPOLYLINE
  5
66
102
{ACAD_REACTORS
330
31
102
}
100
AcDbEntity
  8
0
  6
CONTINUOUS
 62
     7
100
AcDbPolyline
 90
        2
 70
     1
 10
394.333333
 20
196.45
 42
-1.0
 10
394.333333
 20
193.45
 42
-1.0
  0
LWPOLYLINE
  5
67
102
{ACAD_REACTORS
330
31
102
}
100
AcDbEntity
  8
0
  6
CONTINUOUS
 62
     7
100
AcDbPolyline
 90
        2
 70
     1
 10
394.333333
 20
166.95
 42
-1.0
 10
394.333333
 20
163.95
 42
-1.0
  0
LWPOLYLINE
  5
68
102
{ACAD_REACTORS
330
31
102
}
100
AcDbEntity
  8
0
  6
CONTINUOUS
 62
     7
100
AcDbPolyline
 90
        2
 70
     1
 10
394.333333
 20
137.45
 42
-1.0
 10
394.333333
 20
134.45
 42
-1.0
  0
LWPOLYLINE
  5
69
100
AcDbEntity
  8
0
  6
CONTINUOUS
 62
     7
100
AcDbPolyline
 90
       16
 70
     1
 10
324.833333
 20
156.25
 10
324.833333
 20
171.275
 10
246.833333
 20
171.275
 42
-0.414214
 10
243.833333
 20
174.275
 10
243.833333
 20
736.925
 42
-0.414214
 10
246.833333
 20
739.925
 10
324.833333
 20
739.925
 10
324.833333
 20
755.0
 10
300.833333
 20
755.0
 10
300.833333
 20
770.0
 10
194.833333
 20
770.0
 42
0.414209
 10
184.233333
 20
759.4
 10
184.233333
 20
151.8
 42
0.414209
 10
194.833333
 20
141.2
 10
300.833333
 20
141.2
 10
300.833333
 20
156.25
  0
LWPOLYLINE
  5
6B
102
{ACAD_REACTORS
330
6A
102
}
100
AcDbEntity
  8
0
  6
CONTINUOUS
 62
     7
100
AcDbPolyline
 90
        2
 70
     1
 10
252.033333
 20
754.825
 42
-1.0
 10
257.033333
 20
754.825
 42
-1.0
  0
LWPOLYLINE
  5
6C
102
{ACAD_REACTORS
330
6A
102
}
100
AcDbEntity
  8
0
  6
CONTINUOUS
 62
     7
100
AcDbPolyline
 90
        2
 70
     1
 10
252.033333
 20
156.375
 42
-1.0
 10
257.033333
 20
156.375
 42
-1.0
  0
LWPOLYLINE
  5
6E
102
{ACAD_REACTORS
330
6D
102
}
100
AcDbEntity
  8
0
  6
CONTINUOUS
 62
     7
100
AcDbPolyline
 90
        2
 70
     1
 10
334.633333
 20
685.175
 42
-1.0
 10
339.633333
 20
685.175
 42
-1.0
  0
LWPOLYLINE
  5
6F
102
{ACAD_REACTORS
330
6D
102
}
100
AcDbEntity
  8
0
  6
CONTINUOUS
 62
     7
100
AcDbPolyline
 90
        2
 70
     1
 10
334.633333
 20
86.725
 42
-1.0
 10
339.633333
 20
86.725
 42
-1.0
  0
LWPOLYLINE
  5
71
102
{ACAD_REACTORS
330
70
102
}
100
AcDbEntity
  8
0
  6
CONTINUOUS
 62
     7
100
AcDbPolyline
 90
        2
 70
     1
 10
353.933333
 20
641.2
 42
-1.0
 10
353.933333
 20
638.2
 42
-1.0
  0
LWPOLYLINE
  5
72
102
{ACAD_REACTORS
330
70
102
}
100
AcDbEntity
  8
0
  6
CONTINUOUS
 62
     7
100
AcDbPolyline
 90
        2
 70
     1
 10
343.933333
 20
632.2
 42
1.0
 10
343.933333
 20
635.2
 42
1.0
  0
LWPOLYLINE
  5
73
102
{ACAD_REACTORS
330
70
102
}
100
AcDbEntity
  8
0
  6
CONTINUOUS
 62
     7
100
AcDbPolyline
 90
        2
 70
     1
 10
353.933333
 20
611.7
 42
-1.0
 10
353.933333
 20
608.7
 42
-1.0
  0
LWPOLYLINE
  5
74
102
{ACAD_REACTORS
330
70
102
}
100
AcDbEntity
  8
0
  6
CONTINUOUS
 62
     7
100
AcDbPolyline
 90
        2
 70
     1
 10
343.933333
 20
602.7
 42
1.0
 10
343.933333
 20
605.7
 42
1.0
  0
LWPOLYLINE
  5
75
102
{ACAD_REACTORS
330
70
102
}
100
AcDbEntity
  8
0
  6
CONTINUOUS
 62
     7
100
AcDbPolyline
 90
        2
 70
     1
 10
353.933333
 20
582.2
 42
-1.0
 10
353.933333
 20
579.2
 42
-1.0
  0
LWPOLYLINE
  5
76
102
{ACAD_REACTORS
330
70
102
}
100
AcDbEntity
  8
0
  6
CONTINUOUS
 62
     7
100
AcDbPolyline
 90
        2
 70
     1
 10
343.933333
 20
573.2
 42
1.0
 10
343.933333
 20
576.2
 42
1.0
  0
LWPOLYLINE
  5
77
102
{ACAD_REACTORS
330
70
102
}
100
AcDbEntity
  8
0
  6
CONTINUOUS
 62
     7
100
AcDbPolyline
 90
        2
 70
     1
 10
353.933333
 20
552.7
 42
-1.0
 10
353.933333
 20
549.7
 42
-1.0
  0
LWPOLYLINE
  5
78
102
{ACAD_REACTORS
330
70
102
}
100
AcDbEntity
  8
0
  6
CONTINUOUS
 62
     7
100
AcDbPolyline
 90
        2
 70
     1
 10
343.933333
 20
543.7
 42
1.0
 10
343.933333
 20
546.7
 42
1.0
  0
LWPOLYLINE
  5
79
102
{ACAD_REACTORS
330
70
102
}
100
AcDbEntity
  8
0
  6
CONTINUOUS
 62
     7
100
AcDbPolyline
 90
        2
 70
     1
 10
353.933333
 20
523.2
 42
-1.0
 10
353.933333
 20
520.2
 42
-1.0
  0
LWPOLYLINE
  5
7A
102
{ACAD_REACTORS
330
70
102
}
100
AcDbEntity
  8
0
  6
CONTINUOUS
 62
     7
100
AcDbPolyline
 90
        2
 70
     1
 10
343.933333
 20
514.2
 42
1.0
 10
343.933333
 20
517.2
 42
1.0
  0
LWPOLYLINE
  5
7B
102
{ACAD_REACTORS
330
70
102
}
100
AcDbEntity
  8
0
  6
CONTINUOUS
 62
     7
100
AcDbPolyline
 90
        2
 70
     1
 10
353.933333
 20
493.7
 42
-1.0
 10
353.933333
 20
490.7
 42
-1.0
  0
LWPOLYLINE
  5
7C
102
{ACAD_REACTORS
330
70
102
}
100
AcDbEntity
  8
0
  6
CONTINUOUS
 62
     7
100
AcDbPolyline
 90
        2
 70
     1
 10
343.933333
 20
484.7
 42
1.0
 10
343.933333
 20
487.7
 42
1.0
  0
LWPOLYLINE
  5
7D
102
{ACAD_REACTORS
330
70
102
}
100
AcDbEntity
  8
0
  6
CONTINUOUS
 62
     7
100
AcDbPolyline
 90
        2
 70
     1
 10
353.933333
 20
464.2
 42
-1.0
 10
353.933333
 20
461.2
 42
-1.0
  0
LWPOLYLINE
  5
7E
102
{ACAD_REACTORS
330
70
102
}
100
AcDbEntity
  8
0
  6
CONTINUOUS
 62
     7
100
AcDbPolyline
 90
        2
 70
     1
 10
343.933333
 20
455.2
 42
1.0
 10
343.933333
 20
458.2
 42
1.0
  0
LWPOLYLINE
  5
7F
102
{ACAD_REACTORS
330
70
102
}
100
AcDbEntity
  8
0
  6
CONTINUOUS
 62
     7
100
AcDbPolyline
 90
        2
 70
     1
 10
353.933333
 20
434.7
 42
-1.0
 10
353.933333
 20
431.7
 42
-1.0
  0
LWPOLYLINE
  5
80
102
{ACAD_REACTORS
330
70
102
}
100
AcDbEntity
  8
0
  6
CONTINUOUS
 62
     7
100
AcDbPolyline
 90
        2
 70
     1
 10
343.933333
 20
425.7
 42
1.0
 10
343.933333
 20
428.7
 42
1.0
  0
LWPOLYLINE
  5
81
102
{ACAD_REACTORS
330
70
102
}
100
AcDbEntity
  8
0
  6
CONTINUOUS
 62
     7
100
AcDbPolyline
 90
        2
 70
     1
 10
353.933333
 20
405.2
 42
-1.0
 10
353.933333
 20
402.2
 42
-1.0
  0
LWPOLYLINE
  5
82
102
{ACAD_REACTORS
330
70
102
}
100
AcDbEntity
  8
0
  6
CONTINUOUS
 62
     7
100
AcDbPolyline
 90
        2
 70
     1
 10
343.933333
 20
396.2
 42
1.0
 10
343.933333
 20
399.2
 42
1.0
  0
LWPOLYLINE
  5
83
102
{ACAD_REACTORS
330
70
102
}
100
AcDbEntity
  8
0
  6
CONTINUOUS
 62
     7
100
AcDbPolyline
 90
        2
 70
     1
 10
353.933333
 20
375.7
 42
-1.0
 10
353.933333
 20
372.7
 42
-1.0
  0
LWPOLYLINE
  5
84
102
{ACAD_REACTORS
330
70
102
}
100
AcDbEntity
  8
0
  6
CONTINUOUS
 62
     7
100
AcDbPolyline
 90
        2
 70
     1
 10
343.933333
 20
366.7
 42
1.0
 10
343.933333
 20
369.7
 42
1.0
  0
LWPOLYLINE
  5
85
102
{ACAD_REACTORS
330
70
102
}
100
AcDbEntity
  8
0
  6
CONTINUOUS
 62
     7
100
AcDbPolyline
 90
        2
 70
     1
 10
353.933333
 20
346.2
 42
-1.0
 10
353.933333
 20
343.2
 42
-1.0
  0
LWPOLYLINE
  5
86
102
{ACAD_REACTORS
330
70
102
}
100
AcDbEntity
  8
0
  6
CONTINUOUS
 62
     7
100
AcDbPolyline
 90
        2
 70
     1
 10
343.933333
 20
337.2
 42
1.0
 10
343.933333
 20
340.2
 42
1.0
  0
LWPOLYLINE
  5
87
102
{ACAD_REACTORS
330
70
102
}
100
AcDbEntity
  8
0
  6
CONTINUOUS
 62
     7
100
AcDbPolyline
 90
        2
 70
     1
 10
353.933333
 20
316.7
 42
-1.0
 10
353.933333
 20
313.7
 42
-1.0
  0
LWPOLYLINE
  5
88
102
{ACAD_REACTORS
330
70
102
}
100
AcDbEntity
  8
0
  6
CONTINUOUS
 62
     7
100
AcDbPolyline
 90
        2
 70
     1
 10
343.933333
 20
307.7
 42
1.0
 10
343.933333
 20
310.7
 42
1.0
  0
LWPOLYLINE
  5
89
102
{ACAD_REACTORS
330
70
102
}
100
AcDbEntity
  8
0
  6
CONTINUOUS
 62
     7
100
AcDbPolyline
 90
        2
 70
     1
 10
353.933333
 20
287.2
 42
-1.0
 10
353.933333
 20
284.2
 42
-1.0
  0
LWPOLYLINE
  5
8A
102
{ACAD_REACTORS
330
70
102
}
100
AcDbEntity
  8
0
  6
CONTINUOUS
 62
     7
100
AcDbPolyline
 90
        2
 70
     1
 10
343.933333
 20
278.2
 42
1.0
 10
343.933333
 20
281.2
 42
1.0
  0
LWPOLYLINE
  5
8B
102
{ACAD_REACTORS
330
70
102
}
100
AcDbEntity
  8
0
  6
CONTINUOUS
 62
     7
100
AcDbPolyline
 90
        2
 70
     1
 10
353.933333
 20
257.7
 42
-1.0
 10
353.933333
 20
254.7
 42
-1.0
  0
LWPOLYLINE
  5
8C
102
{ACAD_REACTORS
330
70
102
}
100
AcDbEntity
  8
0
  6
CONTINUOUS
 62
     7
100
AcDbPolyline
 90
        2
 70
     1
 10
343.933333
 20
248.7
 42
1.0
 10
343.933333
 20
251.7
 42
1.0
  0
LWPOLYLINE
  5
8D
102
{ACAD_REACTORS
330
70
102
}
100
AcDbEntity
  8
0
  6
CONTINUOUS
 62
     7
100
AcDbPolyline
 90
        2
 70
     1
 10
353.933333
 20
228.2
 42
-1.0
 10
353.933333
 20
225.2
 42
-1.0
  0
LWPOLYLINE
  5
8E
102
{ACAD_REACTORS
330
70
102
}
100
AcDbEntity
  8
0
  6
CONTINUOUS
 62
     7
100
AcDbPolyline
 90
        2
 70
     1
 10
343.933333
 20
219.2
 42
1.0
 10
343.933333
 20
222.2
 42
1.0
  0
LWPOLYLINE
  5
8F
102
{ACAD_REACTORS
330
70
102
}
100
AcDbEntity
  8
0
  6
CONTINUOUS
 62
     7
100
AcDbPolyline
 90
        2
 70
     1
 10
353.933333
 20
198.7
 42
-1.0
 10
353.933333
 20
195.7
 42
-1.0
  0
LWPOLYLINE
  5
90
102
{ACAD_REACTORS
330
70
102
}
100
AcDbEntity
  8
0
  6
CONTINUOUS
 62
     7
100
AcDbPolyline
 90
        2
 70
     1
 10
343.933333
 20
189.7
 42
1.0
 10
343.933333
 20
192.7
 42
1.0
  0
LWPOLYLINE
  5
91
102
{ACAD_REACTORS
330
70
102
}
100
AcDbEntity
  8
0
  6
CONTINUOUS
 62
     7
100
AcDbPolyline
 90
        2
 70
     1
 10
353.933333
 20
169.2
 42
-1.0
 10
353.933333
 20
166.2
 42
-1.0
  0
LWPOLYLINE
  5
92
102
{ACAD_REACTORS
330
70
102
}
100
AcDbEntity
  8
0
  6
CONTINUOUS
 62
     7
100
AcDbPolyline
 90
        2
 70
     1
 10
343.933333
 20
160.2
 42
1.0
 10
343.933333
 20
163.2
 42
1.0
  0
LWPOLYLINE
  5
93
102
{ACAD_REACTORS
330
70
102
}
100
AcDbEntity
  8
0
  6
CONTINUOUS
 62
     7
100
AcDbPolyline
 90
        2
 70
     1
 10
353.933333
 20
139.7
 42
-1.0
 10
353.933333
 20
136.7
 42
-1.0
  0
LWPOLYLINE
  5
94
102
{ACAD_REACTORS
330
70
102
}
100
AcDbEntity
  8
0
  6
CONTINUOUS
 62
     7
100
AcDbPolyline
 90
        2
 70
     1
 10
343.933333
 20
130.7
 42
1.0
 10
343.933333
 20
133.7
 42
1.0
  0
ENDSEC
  0
SECTION
  2
OBJECTS
  0
DICTIONARY
  5
C
100
AcDbDictionary
  3
ACAD_GROUP
350
D
  3
ACAD_MLINESTYLE
350
1B
  0
DICTIONARY
  5
D
102
{ACAD_REACTORS
330
C
102
}
100
AcDbDictionary
  3
VISIOGROUP_0
350
31
  3
VISIOGROUP_1
350
6A
  3
VISIOGROUP_2
350
6D
  3
VISIOGROUP_3
350
70
  0
DICTIONARY
  5
1B
102
{ACAD_REACTORS
330
C
102
}
100
AcDbDictionary
  3
STANDARD
350
1C
  0
MLINESTYLE
  5
1C
102
{ACAD_REACTORS
330
1B
102
}
100
AcDbMlineStyle
  2
STANDARD
 70
     0
  3

 62
   256
 51
90.0
 52
90.0
 71
     2
 49
0.5
 62
   256
  6
BYLAYER
 49
-0.5
 62
   256
  6
BYLAYER
  0
GROUP
  5
31
102
{ACAD_REACTORS
330
D
102
}
100
AcDbGroup
300
Group created by Visio.
 70
     0
 71
     1
340
32
340
33
340
34
340
35
340
36
340
37
340
38
340
39
340
3A
340
3B
340
3C
340
3D
340
3E
340
3F
340
40
340
41
340
42
340
43
340
44
340
45
340
46
340
47
340
48
340
49
340
4A
340
4B
340
4C
340
4D
340
4E
340
4F
340
50
340
51
340
52
340
53
340
54
340
55
340
56
340
57
340
58
340
59
340
5A
340
5B
340
5C
340
5D
340
5E
340
5F
340
60
340
61
340
62
340
63
340
64
340
65
340
66
340
67
340
68
  0
GROUP
  5
6A
102
{ACAD_REACTORS
330
D
102
}
100
AcDbGroup
300
Group created by Visio.
 70
     0
 71
     1
340
6B
340
6C
  0
GROUP
  5
6D
102
{ACAD_REACTORS
330
D
102
}
100
AcDbGroup
300
Group created by Visio.
 70
     0
 71
     1
340
6E
340
6F
  0
GROUP
  5
70
102
{ACAD_REACTORS
330
D
102
}
100
AcDbGroup
300
Group created by Visio.
 70
     0
 71
     1
340
71
340
72
340
73
340
74
340
75
340
76
340
77
340
78
340
79
340
7A
340
7B
340
7C
340
7D
340
7E
340
7F
340
80
340
81
340
82
340
83
340
84
340
85
340
86
340
87
340
88
340
89
340
8A
340
8B
340
8C
340
8D
340
8E
340
8F
340
90
340
91
340
92
340
93
340
94
  0
ENDSEC
  0
EOF
