<?xml version="1.0" encoding="UTF-8" standalone="no"?>
<!-- Generated by Microsoft Visio 11.0, SVG Export, v1.0 cello perspex.svg 6MM Perspex -->

<svg
   xmlns:v="http://schemas.microsoft.com/visio/2003/SVGExtensions/"
   xmlns:dc="http://purl.org/dc/elements/1.1/"
   xmlns:cc="http://creativecommons.org/ns#"
   xmlns:rdf="http://www.w3.org/1999/02/22-rdf-syntax-ns#"
   xmlns:svg="http://www.w3.org/2000/svg"
   xmlns="http://www.w3.org/2000/svg"
   xmlns:sodipodi="http://sodipodi.sourceforge.net/DTD/sodipodi-0.dtd"
   xmlns:inkscape="http://www.inkscape.org/namespaces/inkscape"
   width="33.1102in"
   height="23.3858in"
   viewBox="0 0 2383.94 1683.78"
   xml:space="preserve"
   color-interpolation-filters="sRGB"
   class="st2"
   id="svg2"
   version="1.1"
   inkscape:version="0.91 r13725"
   sodipodi:docname="cello perspex.svg"><metadata
     id="metadata19"><rdf:RDF><cc:Work
         rdf:about=""><dc:format>image/svg+xml</dc:format><dc:type
           rdf:resource="http://purl.org/dc/dcmitype/StillImage" /></cc:Work></rdf:RDF></metadata><defs
     id="defs17" /><sodipodi:namedview
     pagecolor="#ffffff"
     bordercolor="#666666"
     borderopacity="1"
     objecttolerance="10"
     gridtolerance="10"
     guidetolerance="10"
     inkscape:pageopacity="0"
     inkscape:pageshadow="2"
     inkscape:window-width="1366"
     inkscape:window-height="705"
     id="namedview15"
     showgrid="false"
     inkscape:zoom="0.34414842"
     inkscape:cx="1023.8751"
     inkscape:cy="1525.5278"
     inkscape:window-x="-8"
     inkscape:window-y="-8"
     inkscape:window-maximized="1"
     inkscape:current-layer="svg2" /><v:documentProperties
     v:langID="1033"
     v:metric="true"
     v:viewMarkup="false" /><style
     type="text/css"
     id="style4"><![CDATA[
		.st1 {fill:none;stroke:#000000;stroke-linecap:round;stroke-linejoin:round;stroke-width:0.24}
		.st2 {fill:none;fill-rule:evenodd;font-size:12;overflow:visible;stroke-linecap:square;stroke-miterlimit:3}
	]]></style><g
     v:mID="5"
     v:index="3"
     v:groupContext="foregroundPage"
     id="g6"
     style="stroke:#000000;stroke-opacity:1;fill:none;stroke-width:0.02834652;stroke-miterlimit:3;stroke-dasharray:none"><title
       id="title8">6MM Perspex</title><v:pageProperties
       v:drawingScale="0.0393701"
       v:pageScale="0.0393701"
       v:drawingUnits="24"
       v:shadowOffsetX="8.50394"
       v:shadowOffsetY="-8.50394" /><g
       id="shape1-1"
       v:mID="1"
       v:groupContext="shape"
       transform="translate(70.8661,-1218.9)"
       style="stroke:#000000;stroke-opacity:1;fill:none;stroke-width:0.02834652;stroke-miterlimit:3;stroke-dasharray:none"><title
         id="title11">Sheet.1</title><path
         d="M28.35 1446.38 A4.25197 4.25197 0 1 1 28.35 1437.87 A4.25197 4.25197 0 0 1 28.35 1446.38 Z M28.35 1578.19 A4.25197        4.25197 0 1 1 28.35 1569.69 A4.25197 4.25197 0 0 1 28.35 1578.19 Z M1459.84 1446.38 A4.25197 4.25197 0 0        1 1459.84 1437.87 A4.25197 4.25197 0 0 1 1459.84 1446.38 Z M1459.84 1578.19 A4.25197 4.25197 0 0 1 1459.84        1569.69 A4.25197 4.25197 0 1 1 1459.84 1578.19 Z M1344.33 1397.48 A4.25197 4.25197 0 1 1 1352.83 1397.48        A4.25197 4.25197 0 1 1 1344.33 1397.48 Z M1212.52 1397.48 A4.25197 4.25197 0 1 1 1221.02 1397.48 A4.25197        4.25197 0 0 1 1212.52 1397.48 Z M1344.33 1638.43 A4.25197 4.25197 0 0 1 1352.83 1638.43 A4.25197 4.25197        0 1 1 1344.33 1638.43 Z M1212.52 1638.43 A4.25197 4.25197 0 0 1 1221.02 1638.43 A4.25197 4.25197 0 1 1 1212.52        1638.43 Z M724.96 1638.43 A4.25197 4.25197 0 0 1 733.46 1638.43 A4.25197 4.25197 0 0 1 724.96 1638.43 Z        M593.15 1638.43 A4.25197 4.25197 0 0 1 601.65 1638.43 A4.25197 4.25197 0 1 1 593.15 1638.43 Z M367.09 1638.43        A4.25197 4.25197 0 1 1 375.59 1638.43 A4.25197 4.25197 0 0 1 367.09 1638.43 Z M235.28 1638.43 A4.25197 4.25197        0 0 1 243.78 1638.43 A4.25197 4.25197 0 1 1 235.28 1638.43 Z M1082.83 1638.43 A4.25197 4.25197 0 1 1 1091.34        1638.43 A4.25197 4.25197 0 0 1 1082.83 1638.43 Z M951.02 1638.43 A4.25197 4.25197 0 0 1 959.53 1638.43 A4.25197        4.25197 0 0 1 951.02 1638.43 Z M724.96 1522.2 A4.25197 4.25197 0 1 1 733.46 1522.2 A4.25197 4.25197 0 0        1 724.96 1522.2 Z M593.15 1522.2 A4.25197 4.25197 0 0 1 601.65 1522.2 A4.25197 4.25197 0 0 1 593.15 1522.2        Z M367.09 1522.2 A4.25197 4.25197 0 1 1 375.59 1522.2 A4.25197 4.25197 0 0 1 367.09 1522.2 Z M235.28 1522.2        A4.25197 4.25197 0 0 1 243.78 1522.2 A4.25197 4.25197 0 1 1 235.28 1522.2 Z M1082.83 1522.2 A4.25197 4.25197        0 0 1 1091.34 1522.2 A4.25197 4.25197 0 1 1 1082.83 1522.2 Z M951.02 1522.2 A4.25197 4.25197 0 1 1 959.53        1522.2 A4.25197 4.25197 0 0 1 951.02 1522.2 Z M1278.43 1550.55 A4.25197 4.25197 0 0 1 1286.93 1550.55 A4.25197        4.25197 0 1 1 1278.43 1550.55 Z M1282.68 1469.76 A4.25197 4.25197 0 0 1 1282.68 1461.26 A4.25197 4.25197        0 1 1 1282.68 1469.76 Z M1197.64 1546.3 A4.25197 4.25197 0 0 1 1197.64 1554.8 A4.25197 4.25197 0 1 1 1197.64        1546.3 Z M1201.89 1465.51 A4.25197 4.25197 0 0 1 1193.39 1465.51 A4.25197 4.25197 0 0 1 1201.89 1465.51        Z M114.8 1508.03 A5.66929 5.66929 0 1 1 126.14 1508.03 A5.66929 5.66929 0 0 1 114.8 1508.03 Z M1403.15 1371.97        L1126.77 1371.97 A49.6063 49.6063 -180 0 0 1077.17 1421.57 L1077.17 1457.01 A14.1732 14.1732 0 0 1 1062.99        1471.18 L254.83 1471.18 A14.1732 14.1732 0 0 1 240.66 1457.01 L240.66 1329.45 A56.6929 56.6929 -180 0 0        183.97 1272.76 L56.69 1272.76 A56.6929 56.6929 -180 0 0 -0 1329.45 L0 1547.45 A56.6929 56.6929 -180 0 0        16.6 1587.54 L96.24 1667.17 A56.6929 56.6929 -180 0 0 136.33 1683.78 L1482.52 1683.78 A5.66929 5.66929 -180        0 0 1488.19 1678.11 L1488.19 1428.66 A56.6929 56.6929 -180 0 0 1431.5 1371.97 L1403.15 1371.97 Z M1347.87        1508.03 A5.66929 5.66929 0 1 1 1359.21 1508.03 A5.66929 5.66929 0 0 1 1347.87 1508.03 Z M1207.56 1508.03        A32.5984 32.5984 0 0 1 1272.76 1508.03 A32.5984 32.5984 0 1 1 1207.56 1508.03 Z M50.17 1391.81 A4.25197        4.25197 0 0 1 58.68 1391.81 A4.25197 4.25197 0 0 1 50.17 1391.81 Z M181.98 1391.81 A4.25197 4.25197 0 0        1 190.49 1391.81 A4.25197 4.25197 0 1 1 181.98 1391.81 Z"
         class="st1"
         id="path13"
         style="stroke:#000000;stroke-opacity:1;fill:none;stroke-width:0.02834652;stroke-miterlimit:3;stroke-dasharray:none" /></g></g></svg>