  0
SECTION
  2
HEADER
  9
$ACADVER
  1
AC1014
  9
$ACADMAINTVER
 70
     0
  9
$DWGCODEPAGE
  3
ANSI_1252
  9
$INSBASE
 10
0.0
 20
0.0
 30
0.0
  9
$EXTMIN
 10
0.0
 20
0.0
 30
0.0
  9
$EXTMAX
 10
1189.0
 20
841.0
 30
0.0
  9
$LIMMIN
 10
0.0
 20
0.0
  9
$LIMMAX
 10
12.0
 20
9.0
  9
$ORTHOMODE
 70
     0
  9
$REGENMODE
 70
     1
  9
$FILLMODE
 70
     0
  9
$QTEXTMODE
 70
     0
  9
$MIRRTEXT
 70
     1
  9
$DRAGMODE
 70
     2
  9
$LTSCALE
 40
1.0
  9
$OSMODE
 70
     0
  9
$ATTMODE
 70
     1
  9
$TEXTSIZE
 40
0.2
  9
$TRACEWID
 40
0.05
  9
$TEXTSTYLE
  7
STANDARD
  9
$CLAYER
  8
0
  9
$CELTYPE
  6
BYLAYER
  9
$CECOLOR
 62
   256
  9
$CELTSCALE
 40
1.0
  9
$DELOBJ
 70
     1
  9
$DISPSILH
 70
     0
  9
$DIMSCALE
 40
1.0
  9
$DIMASZ
 40
0.18
  9
$DIMEXO
 40
0.0625
  9
$DIMDLI
 40
0.38
  9
$DIMRND
 40
0.0
  9
$DIMDLE
 40
0.0
  9
$DIMEXE
 40
0.18
  9
$DIMTP
 40
0.0
  9
$DIMTM
 40
0.0
  9
$DIMTXT
 40
0.18
  9
$DIMCEN
 40
0.09
  9
$DIMTSZ
 40
0.0
  9
$DIMTOL
 70
     0
  9
$DIMLIM
 70
     0
  9
$DIMTIH
 70
     0
  9
$DIMTOH
 70
     0
  9
$DIMSE1
 70
     0
  9
$DIMSE2
 70
     0
  9
$DIMTAD
 70
     1
  9
$DIMZIN
 70
     0
  9
$DIMBLK
  1

  9
$DIMASO
 70
     1
  9
$DIMSHO
 70
     1
  9
$DIMPOST
  1

  9
$DIMAPOST
  1

  9
$DIMALT
 70
     0
  9
$DIMALTD
 70
     2
  9
$DIMALTF
 40
25.4
  9
$DIMLFAC
 40
1.0
  9
$DIMTOFL
 70
     0
  9
$DIMTVP
 40
0.0
  9
$DIMTIX
 70
     0
  9
$DIMSOXD
 70
     0
  9
$DIMSAH
 70
     0
  9
$DIMBLK1
  1

  9
$DIMBLK2
  1

  9
$DIMSTYLE
  2
STANDARD
  9
$DIMCLRD
 70
     0
  9
$DIMCLRE
 70
     0
  9
$DIMCLRT
 70
     0
  9
$DIMTFAC
 40
1.0
  9
$DIMGAP
 40
0.09
  9
$DIMJUST
 70
     0
  9
$DIMSD1
 70
     0
  9
$DIMSD2
 70
     0
  9
$DIMTOLJ
 70
     1
  9
$DIMTZIN
 70
     0
  9
$DIMALTZ
 70
     0
  9
$DIMALTTZ
 70
     0
  9
$DIMFIT
 70
     3
  9
$DIMUPT
 70
     0
  9
$DIMUNIT
 70
     2
  9
$DIMDEC
 70
     2
  9
$DIMTDEC
 70
     4
  9
$DIMALTU
 70
     2
  9
$DIMALTTD
 70
     2
  9
$DIMTXSTY
  7
STANDARD
  9
$DIMAUNIT
 70
     0
  9
$LUNITS
 70
     2
  9
$LUPREC
 70
     4
  9
$SKETCHINC
 40
0.1
  9
$FILLETRAD
 40
0.5
  9
$AUNITS
 70
     0
  9
$AUPREC
 70
     0
  9
$MENU
  1
.
  9
$ELEVATION
 40
0.0
  9
$PELEVATION
 40
0.0
  9
$THICKNESS
 40
0.0
  9
$LIMCHECK
 70
     0
  9
$BLIPMODE
 70
     0
  9
$CHAMFERA
 40
0.5
  9
$CHAMFERB
 40
0.5
  9
$CHAMFERC
 40
1.0
  9
$CHAMFERD
 40
0.0
  9
$SKPOLY
 70
     0
  9
$TDCREATE
 40
2450772.666465926
  9
$TDUPDATE
 40
2457542.631701377
  9
$TDINDWG
 40
0.0011564931
  9
$TDUSRTIMER
 40
0.0000000000
  9
$USRTIMER
 70
     1
  9
$ANGBASE
 50
0.0
  9
$ANGDIR
 70
     0
  9
$PDMODE
 70
     0
  9
$PDSIZE
 40
0.0
  9
$PLINEWID
 40
0.0
  9
$COORDS
 70
     1
  9
$SPLFRAME
 70
     0
  9
$SPLINETYPE
 70
     6
  9
$SPLINESEGS
 70
     8
  9
$ATTDIA
 70
     0
  9
$ATTREQ
 70
     1
  9
$HANDLING
 70
     1
  9
$HANDSEED
  5
D9
  9
$SURFTAB1
 70
     6
  9
$SURFTAB2
 70
     6
  9
$SURFTYPE
 70
     6
  9
$SURFU
 70
     6
  9
$SURFV
 70
     6
  9
$UCSNAME
  2

  9
$UCSORG
 10
0.0
 20
0.0
 30
0.0
  9
$UCSXDIR
 10
1.0
 20
0.0
 30
0.0
  9
$UCSYDIR
 10
0.0
 20
1.0
 30
0.0
  9
$PUCSNAME
  2

  9
$PUCSORG
 10
0.0
 20
0.0
 30
0.0
  9
$PUCSXDIR
 10
1.0
 20
0.0
 30
0.0
  9
$PUCSYDIR
 10
0.0
 20
1.0
 30
0.0
  9
$USERI1
 70
     0
  9
$USERI2
 70
     0
  9
$USERI3
 70
     0
  9
$USERI4
 70
     0
  9
$USERI5
 70
     0
  9
$USERR1
 40
0.0
  9
$USERR2
 40
0.0
  9
$USERR3
 40
0.0
  9
$USERR4
 40
0.0
  9
$USERR5
 40
0.0
  9
$WORLDVIEW
 70
     1
  9
$SHADEDGE
 70
     3
  9
$SHADEDIF
 70
    70
  9
$TILEMODE
 70
     1
  9
$MAXACTVP
 70
    48
  9
$PINSBASE
 10
0.0
 20
0.0
 30
0.0
  9
$PLIMCHECK
 70
     0
  9
$PEXTMIN
 10
0.0
 20
0.0
 30
0.0
  9
$PEXTMAX
 10
0.0
 20
0.0
 30
0.0
  9
$PLIMMIN
 10
0.0
 20
0.0
  9
$PLIMMAX
 10
12.0
 20
9.0
  9
$UNITMODE
 70
     0
  9
$VISRETAIN
 70
     1
  9
$PLINEGEN
 70
     0
  9
$PSLTSCALE
 70
     1
  9
$TREEDEPTH
 70
  3020
  9
$PICKSTYLE
 70
     1
  9
$CMLSTYLE
  2
STANDARD
  9
$CMLJUST
 70
     0
  9
$CMLSCALE
 40
1.0
  9
$PROXYGRAPHICS
 70
     1
  9
$MEASUREMENT
 70
     0
  0
ENDSEC
  0
SECTION
  2
CLASSES
  0
CLASS
  1
LWPOLYLINE
  2
AcDbPolyline
  3
"AutoCAD"
 90
        0
280
     0
281
     1
  0
CLASS
  1
IMAGE
  2
AcDbRasterImage
  3
ISM
 90
      127
280
     0
281
     1
  0
CLASS
  1
OLE2FRAME
  2
AcDbOle2Frame
  3
""
 90
        0
280
     0
281
     1
  0
CLASS
  1
HATCH
  2
AcDbHatch
  3
"ACAD_SEDONA"
 90
        0
280
     0
281
     1
  0
CLASS
  1
DICTIONARYVAR
  2
AcDbDictionaryVar
  3
"AutoCAD"
 90
        0
280
     0
281
     0
  0
CLASS
  1
RASTERVARIABLES
  2
AcDbRasterVariables
  3
ISM
 90
        0
280
     0
281
     0
  0
CLASS
  1
IMAGEDEF
  2
AcDbRasterImageDef
  3
ISM
 90
        0
280
     0
281
     0
  0
CLASS
  1
IMAGEDEF_REACTOR
  2
AcDbRasterImageDefReactor
  3
ISM
 90
        1
280
     0
281
     0
  0
CLASS
  1
IDBUFFER
  2
AcDbIdBuffer
  3
"Acad"
 90
        0
280
     0
281
     0
  0
CLASS
  1
SPATIAL_FILTER
  2
AcDbSpatialFilter
  3
"Acad"
 90
        0
280
     0
281
     0
  0
CLASS
  1
XRECORD
  2
AcDbXrecord
  3
"<Built In>"
 90
        0
280
     0
281
     0
  0
CLASS
  1
SORTENTSTABLE
  2
AcDbSortentsTable
  3
"AutoCAD"
 90
        0
280
     0
281
     0
  0
CLASS
  1
LAYER_INDEX
  2
AcDbLayerIndex
  3
"Acad"
 90
        0
280
     0
281
     0
  0
CLASS
  1
SPATIAL_INDEX
  2
AcDbSpatialIndex
  3
"Acad"
 90
        0
280
     0
281
     0
  0
CLASS
  1
OBJECT_PTR
  2
CAseDLPNTableRecord
  3
"ASE-LPNTableRecord"
 90
        1
280
     0
281
     0
  0
CLASS
  1
LAYOUT
  2
AcDbLayout
  3
"AutoCAD 2000"
 90
        1
280
     0
281
     0
  0
CLASS
  1
PLOTSETTINGS
  2
AcDbPlotSettings
  3
"AutoCAD 2000"
 90
        1
280
     0
281
     0
  0
CLASS
  1
ACDBDICTIONARYWDFLT
  2
AcDbDictionaryWithDefault
  3
"AutoCAD 2000"
 90
        1
280
     0
281
     0
  0
CLASS
  1
ACDBPLACEHOLDER
  2
AcDbPlaceHolder
  3
"AutoCAD 2000"
 90
        1
280
     0
281
     0
  0
CLASS
  1
VBA_PROJECT
  2
AcDbVbaProject
  3
"acadvba"
 90
        1
280
     0
281
     0
  0
CLASS
  1
WIPEOUT
  2
AcDbWipeout
  3
WipeOut|AutoCAD Express Tool|expresstools@autodesk.com
 90
      127
280
     0
281
     1
  0
CLASS
  1
WIPEOUTVARIABLES
  2
AcDbWipeoutVariables
  3
WipeOut|AutoCAD Express Tool|expresstools@autodesk.com
 90
        0
280
     0
281
     0
  0
CLASS
  1
RTEXT
  2
RText
  3
RText|AutoCAD Express Tool|expresstools@autodesk.com
 90
        0
280
     0
281
     1
  0
CLASS
  1
ARCALIGNEDTEXT
  2
AcDbArcAlignedText
  3
ATEXT|AutoCAD Express Tool|expresstools@autodesk.com
 90
        0
280
     0
281
     1
  0
ENDSEC
  0
SECTION
  2
TABLES
  0
TABLE
  2
VPORT
  5
8
100
AcDbSymbolTable
 70
     1
  0
VPORT
  5
25
100
AcDbSymbolTableRecord
100
AcDbViewportTableRecord
  2
*ACTIVE
 70
     0
 10
0.0
 20
0.0
 11
1.0
 21
1.0
 12
594.5
 22
420.5
 13
0.0
 23
0.0
 14
0.5
 24
0.5
 15
0.5
 25
0.5
 16
0.0
 26
0.0
 36
1.0
 17
0.0
 27
0.0
 37
0.0
 40
841.0
 41
1.413793
 42
50.0
 43
0.0
 44
0.0
 50
0.0
 51
0.0
 71
     0
 72
   100
 73
     1
 74
     1
 75
     0
 76
     0
 77
     0
 78
     0
  0
ENDTAB
  0
TABLE
  2
LTYPE
  5
5
100
AcDbSymbolTable
 70
     3
  0
LTYPE
  5
12
100
AcDbSymbolTableRecord
100
AcDbLinetypeTableRecord
  2
BYBLOCK
 70
    64
  3

 72
    65
 73
     0
 40
0.0
  0
LTYPE
  5
13
100
AcDbSymbolTableRecord
100
AcDbLinetypeTableRecord
  2
BYLAYER
 70
    64
  3

 72
    65
 73
     0
 40
0.0
  0
LTYPE
  5
14
100
AcDbSymbolTableRecord
100
AcDbLinetypeTableRecord
  2
CONTINUOUS
 70
     0
  3
Solid line
 72
    65
 73
     0
 40
0.0
  0
ENDTAB
  0
TABLE
  2
LAYER
  5
2
100
AcDbSymbolTable
 70
     1
  0
LAYER
  5
E
100
AcDbSymbolTableRecord
100
AcDbLayerTableRecord
  2
0
 70
     0
 62
     7
  6
CONTINUOUS
  0
ENDTAB
  0
TABLE
  2
STYLE
  5
3
100
AcDbSymbolTable
 70
     1
  0
STYLE
  5
F
100
AcDbSymbolTableRecord
100
AcDbTextStyleTableRecord
  2
STANDARD
 70
     0
 40
0.0
 41
1.0
 50
0.0
 71
     0
 42
0.2
  3
txt.shx
  4

  0
ENDTAB
  0
TABLE
  2
VIEW
  5
6
100
AcDbSymbolTable
 70
     0
  0
ENDTAB
  0
TABLE
  2
UCS
  5
7
100
AcDbSymbolTable
 70
     0
  0
ENDTAB
  0
TABLE
  2
APPID
  5
9
100
AcDbSymbolTable
 70
     1
  0
APPID
  5
10
100
AcDbSymbolTableRecord
100
AcDbRegAppTableRecord
  2
ACAD
 70
     0
  0
ENDTAB
  0
TABLE
  2
DIMSTYLE
  5
A
100
AcDbSymbolTable
 70
     1
  0
DIMSTYLE
105
1D
100
AcDbSymbolTableRecord
100
AcDbDimStyleTableRecord
  2
STANDARD
 70
     0
  3

  4

  5

  6

  7

 40
1.0
 41
0.18
 42
0.0625
 43
0.38
 44
0.18
 45
0.0
 46
0.0
 47
0.0
 48
0.0
 71
     0
 72
     0
 73
     1
 74
     1
 75
     0
 76
     0
 77
     0
 78
     0
140
0.18
141
0.09
142
0.0
143
25.4
144
1.0
145
0.0
146
1.0
147
0.09
170
     0
171
     2
172
     0
173
     0
174
     0
175
     0
176
     0
177
     0
178
     0
270
     2
271
     4
272
     4
273
     2
274
     2
275
     0
280
     0
281
     0
282
     0
283
     1
284
     0
285
     0
286
     0
287
     3
288
     0
340
F
  0
ENDTAB
  0
TABLE
  2
BLOCK_RECORD
  5
1
100
AcDbSymbolTable
 70
     5
  0
BLOCK_RECORD
  5
18
100
AcDbSymbolTableRecord
100
AcDbBlockTableRecord
  2
*MODEL_SPACE
  0
BLOCK_RECORD
  5
15
100
AcDbSymbolTableRecord
100
AcDbBlockTableRecord
  2
*PAPER_SPACE
  0
BLOCK_RECORD
  5
C0
100
AcDbSymbolTableRecord
100
AcDbBlockTableRecord
  2
ROUNDED_RECTANGLE
  0
BLOCK_RECORD
  5
C5
100
AcDbSymbolTableRecord
100
AcDbBlockTableRecord
  2
RECTANGLE
  0
BLOCK_RECORD
  5
CA
100
AcDbSymbolTableRecord
100
AcDbBlockTableRecord
  2
CIRCLE
  0
BLOCK_RECORD
  5
CF
100
AcDbSymbolTableRecord
100
AcDbBlockTableRecord
  2
SQUARE
  0
BLOCK_RECORD
  5
D4
100
AcDbSymbolTableRecord
100
AcDbBlockTableRecord
  2
CENTER_DRAG_CIRCLE
  0
ENDTAB
  0
ENDSEC
  0
SECTION
  2
BLOCKS
  0
BLOCK
  5
19
100
AcDbEntity
  8
0
100
AcDbBlockBegin
  2
*MODEL_SPACE
 70
     0
 10
0.0
 20
0.0
 30
0.0
  3
*MODEL_SPACE
  1

  0
ENDBLK
  5
1A
100
AcDbEntity
  8
0
100
AcDbBlockEnd
  0
BLOCK
  5
16
100
AcDbEntity
 67
     1
  8
0
100
AcDbBlockBegin
  2
*PAPER_SPACE
 70
     0
 10
0.0
 20
0.0
 30
0.0
  3
*PAPER_SPACE
  1

  0
ENDBLK
  5
17
100
AcDbEntity
 67
     1
  8
0
100
AcDbBlockEnd
  0
BLOCK
  5
C1
100
AcDbEntity
  8
0
100
AcDbBlockBegin
  2
ROUNDED_RECTANGLE
 70
     0
 10
0.0
 20
0.0
 30
0.0
  3
ROUNDED_RECTANGLE
  1

  0
LWPOLYLINE
  5
C2
102
{ACAD_REACTORS
330
C3
102
}
100
AcDbEntity
  8
0
  6
CONTINUOUS
 62
     7
100
AcDbPolyline
 90
        8
 70
     1
 10
65.0
 20
35.0
 42
0.414209
 10
70.0
 20
40.0
 10
70.0
 20
60.0
 42
0.414209
 10
65.0
 20
65.0
 10
35.0
 20
65.0
 42
0.414209
 10
30.0
 20
60.0
 10
30.0
 20
40.0
 42
0.414209
 10
35.0
 20
35.0
  0
HATCH
  5
C3
100
AcDbEntity
  8
0
 62
   254
100
AcDbHatch
 10
0.0
 20
0.0
 30
0.0
210
0.0
220
0.0
230
1.0
  2
SOLID
 70
     1
 71
     1
 91
        1
 92
        3
 72
     1
 73
     1
 93
        8
 10
65.000000093999986
 20
35.0
 42
0.4142090102834559
 10
70.0
 20
39.999999905999999
 42
0.0
 10
70.0
 20
60.000000093999994
 42
0.4142090102834552
 10
65.000000093999986
 20
65.000000000000014
 42
0.0
 10
34.999999905999999
 20
65.0
 42
0.414209010283455
 10
30.0
 20
60.000000094000001
 42
0.0
 10
30.0
 20
39.999999905999992
 42
0.4142090102834558
 10
34.999999905999999
 20
35.0
 42
0.0
 97
        3
330
B9
330
BD
330
C2
 75
     0
 76
     1
 98
        0
  0
ENDBLK
  5
C4
100
AcDbEntity
  8
0
100
AcDbBlockEnd
  0
BLOCK
  5
C6
100
AcDbEntity
  8
0
100
AcDbBlockBegin
  2
RECTANGLE
 70
     0
 10
0.0
 20
0.0
 30
0.0
  3
RECTANGLE
  1

  0
LWPOLYLINE
  5
C7
102
{ACAD_REACTORS
330
C8
102
}
100
AcDbEntity
  8
0
  6
CONTINUOUS
 62
     7
100
AcDbPolyline
 90
        4
 70
     1
 10
30.0
 20
35.0
 10
70.0
 20
35.0
 10
70.0
 20
65.0
 10
30.0
 20
65.0
  0
HATCH
  5
C8
100
AcDbEntity
  8
0
 62
   254
100
AcDbHatch
 10
0.0
 20
0.0
 30
0.0
210
0.0
220
0.0
230
1.0
  2
SOLID
 70
     1
 71
     1
 91
        1
 92
        3
 72
     0
 73
     1
 93
        4
 10
30.0
 20
35.0
 10
70.0
 20
35.0
 10
70.0
 20
65.000000000000014
 10
30.0
 20
65.000000000000014
 97
        1
330
C7
 75
     0
 76
     1
 98
        0
  0
ENDBLK
  5
C9
100
AcDbEntity
  8
0
100
AcDbBlockEnd
  0
BLOCK
  5
CB
100
AcDbEntity
  8
0
100
AcDbBlockBegin
  2
CIRCLE
 70
     0
 10
0.0
 20
0.0
 30
0.0
  3
CIRCLE
  1

  0
LWPOLYLINE
  5
CC
102
{ACAD_REACTORS
330
CD
102
}
100
AcDbEntity
  8
0
  6
CONTINUOUS
 62
     7
100
AcDbPolyline
 90
        2
 70
     1
 10
30.0
 20
50.0
 42
-1.0
 10
70.0
 20
50.0
 42
-1.0
  0
HATCH
  5
CD
100
AcDbEntity
  8
0
 62
   254
100
AcDbHatch
 10
0.0
 20
0.0
 30
0.0
210
0.0
220
0.0
230
1.0
  2
SOLID
 70
     1
 71
     1
 91
        1
 92
        3
 72
     1
 73
     1
 93
        2
 10
30.000000000000004
 20
50.0
 42
-0.9999999999999999
 10
70.0
 20
50.0
 42
-1.0000000000000071
 97
        1
330
CC
 75
     0
 76
     1
 98
        0
  0
ENDBLK
  5
CE
100
AcDbEntity
  8
0
100
AcDbBlockEnd
  0
BLOCK
  5
D0
100
AcDbEntity
  8
0
100
AcDbBlockBegin
  2
SQUARE
 70
     0
 10
0.0
 20
0.0
 30
0.0
  3
SQUARE
  1

  0
LWPOLYLINE
  5
D1
102
{ACAD_REACTORS
330
D2
102
}
100
AcDbEntity
  8
0
  6
CONTINUOUS
 62
     7
100
AcDbPolyline
 90
        4
 70
     1
 10
30.0
 20
30.0
 10
70.0
 20
30.0
 10
70.0
 20
70.0
 10
30.0
 20
70.0
  0
HATCH
  5
D2
100
AcDbEntity
  8
0
 62
   254
100
AcDbHatch
 10
0.0
 20
0.0
 30
0.0
210
0.0
220
0.0
230
1.0
  2
SOLID
 70
     1
 71
     1
 91
        1
 92
        3
 72
     0
 73
     1
 93
        4
 10
30.0
 20
30.0
 10
70.0
 20
30.0
 10
70.0
 20
70.0
 10
30.0
 20
70.0
 97
        1
330
D1
 75
     0
 76
     1
 98
        0
  0
ENDBLK
  5
D3
100
AcDbEntity
  8
0
100
AcDbBlockEnd
  0
BLOCK
  5
D5
100
AcDbEntity
  8
0
100
AcDbBlockBegin
  2
CENTER_DRAG_CIRCLE
 70
     0
 10
0.0
 20
0.0
 30
0.0
  3
CENTER_DRAG_CIRCLE
  1

  0
LWPOLYLINE
  5
D6
102
{ACAD_REACTORS
330
D7
102
}
100
AcDbEntity
  8
0
  6
CONTINUOUS
 62
     7
100
AcDbPolyline
 90
        2
 70
     1
 10
28.75
 20
50.0
 42
-1.0
 10
68.75
 20
50.0
 42
-1.0
  0
HATCH
  5
D7
100
AcDbEntity
  8
0
 62
   254
100
AcDbHatch
 10
0.0
 20
0.0
 30
0.0
210
0.0
220
0.0
230
1.0
  2
SOLID
 70
     1
 71
     1
 91
        1
 92
        3
 72
     1
 73
     1
 93
        2
 10
28.749999999999996
 20
50.0
 42
-0.9999999999999999
 10
68.749999999999986
 20
50.0
 42
-1.0000000000000071
 97
        1
330
D6
 75
     0
 76
     1
 98
        0
  0
ENDBLK
  5
D8
100
AcDbEntity
  8
0
100
AcDbBlockEnd
  0
ENDSEC
  0
SECTION
  2
ENTITIES
  0
LWPOLYLINE
  5
32
102
{ACAD_REACTORS
330
31
102
}
100
AcDbEntity
  8
0
  6
CONTINUOUS
 62
     7
100
AcDbPolyline
 90
        2
 70
     1
 10
204.1
 20
402.35
 42
-1.0
 10
207.1
 20
402.35
 42
-1.0
  0
LWPOLYLINE
  5
33
102
{ACAD_REACTORS
330
31
102
}
100
AcDbEntity
  8
0
  6
CONTINUOUS
 62
     7
100
AcDbPolyline
 90
        2
 70
     1
 10
213.1
 20
392.35
 42
1.0
 10
210.1
 20
392.35
 42
1.0
  0
LWPOLYLINE
  5
34
102
{ACAD_REACTORS
330
31
102
}
100
AcDbEntity
  8
0
  6
CONTINUOUS
 62
     7
100
AcDbPolyline
 90
        2
 70
     1
 10
233.6
 20
402.35
 42
-1.0
 10
236.6
 20
402.35
 42
-1.0
  0
LWPOLYLINE
  5
35
102
{ACAD_REACTORS
330
31
102
}
100
AcDbEntity
  8
0
  6
CONTINUOUS
 62
     7
100
AcDbPolyline
 90
        2
 70
     1
 10
242.6
 20
392.35
 42
1.0
 10
239.6
 20
392.35
 42
1.0
  0
LWPOLYLINE
  5
36
102
{ACAD_REACTORS
330
31
102
}
100
AcDbEntity
  8
0
  6
CONTINUOUS
 62
     7
100
AcDbPolyline
 90
        2
 70
     1
 10
263.1
 20
402.35
 42
-1.0
 10
266.1
 20
402.35
 42
-1.0
  0
LWPOLYLINE
  5
37
102
{ACAD_REACTORS
330
31
102
}
100
AcDbEntity
  8
0
  6
CONTINUOUS
 62
     7
100
AcDbPolyline
 90
        2
 70
     1
 10
272.1
 20
392.35
 42
1.0
 10
269.1
 20
392.35
 42
1.0
  0
LWPOLYLINE
  5
38
102
{ACAD_REACTORS
330
31
102
}
100
AcDbEntity
  8
0
  6
CONTINUOUS
 62
     7
100
AcDbPolyline
 90
        2
 70
     1
 10
324.6
 20
402.35
 42
-1.0
 10
327.6
 20
402.35
 42
-1.0
  0
LWPOLYLINE
  5
39
102
{ACAD_REACTORS
330
31
102
}
100
AcDbEntity
  8
0
  6
CONTINUOUS
 62
     7
100
AcDbPolyline
 90
        2
 70
     1
 10
333.6
 20
392.35
 42
1.0
 10
330.6
 20
392.35
 42
1.0
  0
LWPOLYLINE
  5
3A
102
{ACAD_REACTORS
330
31
102
}
100
AcDbEntity
  8
0
  6
CONTINUOUS
 62
     7
100
AcDbPolyline
 90
        2
 70
     1
 10
355.1
 20
402.35
 42
-1.0
 10
358.1
 20
402.35
 42
-1.0
  0
LWPOLYLINE
  5
3B
102
{ACAD_REACTORS
330
31
102
}
100
AcDbEntity
  8
0
  6
CONTINUOUS
 62
     7
100
AcDbPolyline
 90
        2
 70
     1
 10
364.1
 20
392.35
 42
1.0
 10
361.1
 20
392.35
 42
1.0
  0
LWPOLYLINE
  5
3C
102
{ACAD_REACTORS
330
31
102
}
100
AcDbEntity
  8
0
  6
CONTINUOUS
 62
     7
100
AcDbPolyline
 90
        2
 70
     1
 10
411.6
 20
402.35
 42
-1.0
 10
414.6
 20
402.35
 42
-1.0
  0
LWPOLYLINE
  5
3D
102
{ACAD_REACTORS
330
31
102
}
100
AcDbEntity
  8
0
  6
CONTINUOUS
 62
     7
100
AcDbPolyline
 90
        2
 70
     1
 10
420.6
 20
392.35
 42
1.0
 10
417.6
 20
392.35
 42
1.0
  0
LWPOLYLINE
  5
3E
102
{ACAD_REACTORS
330
31
102
}
100
AcDbEntity
  8
0
  6
CONTINUOUS
 62
     7
100
AcDbPolyline
 90
        2
 70
     1
 10
442.6
 20
402.35
 42
-1.0
 10
445.6
 20
402.35
 42
-1.0
  0
LWPOLYLINE
  5
3F
102
{ACAD_REACTORS
330
31
102
}
100
AcDbEntity
  8
0
  6
CONTINUOUS
 62
     7
100
AcDbPolyline
 90
        2
 70
     1
 10
451.6
 20
392.35
 42
1.0
 10
448.6
 20
392.35
 42
1.0
  0
LWPOLYLINE
  5
40
102
{ACAD_REACTORS
330
31
102
}
100
AcDbEntity
  8
0
  6
CONTINUOUS
 62
     7
100
AcDbPolyline
 90
        2
 70
     1
 10
473.6
 20
402.35
 42
-1.0
 10
476.6
 20
402.35
 42
-1.0
  0
LWPOLYLINE
  5
41
102
{ACAD_REACTORS
330
31
102
}
100
AcDbEntity
  8
0
  6
CONTINUOUS
 62
     7
100
AcDbPolyline
 90
        2
 70
     1
 10
482.6
 20
392.35
 42
1.0
 10
479.6
 20
392.35
 42
1.0
  0
LWPOLYLINE
  5
42
102
{ACAD_REACTORS
330
31
102
}
100
AcDbEntity
  8
0
  6
CONTINUOUS
 62
     7
100
AcDbPolyline
 90
        2
 70
     1
 10
531.6
 20
402.35
 42
-1.0
 10
534.6
 20
402.35
 42
-1.0
  0
LWPOLYLINE
  5
43
102
{ACAD_REACTORS
330
31
102
}
100
AcDbEntity
  8
0
  6
CONTINUOUS
 62
     7
100
AcDbPolyline
 90
        2
 70
     1
 10
540.6
 20
392.35
 42
1.0
 10
537.6
 20
392.35
 42
1.0
  0
LWPOLYLINE
  5
44
102
{ACAD_REACTORS
330
31
102
}
100
AcDbEntity
  8
0
  6
CONTINUOUS
 62
     7
100
AcDbPolyline
 90
        2
 70
     1
 10
560.6
 20
402.35
 42
-1.0
 10
563.6
 20
402.35
 42
-1.0
  0
LWPOLYLINE
  5
45
102
{ACAD_REACTORS
330
31
102
}
100
AcDbEntity
  8
0
  6
CONTINUOUS
 62
     7
100
AcDbPolyline
 90
        2
 70
     1
 10
569.6
 20
392.35
 42
1.0
 10
566.6
 20
392.35
 42
1.0
  0
LWPOLYLINE
  5
46
102
{ACAD_REACTORS
330
31
102
}
100
AcDbEntity
  8
0
  6
CONTINUOUS
 62
     7
100
AcDbPolyline
 90
        2
 70
     1
 10
620.1
 20
402.35
 42
-1.0
 10
623.1
 20
402.35
 42
-1.0
  0
LWPOLYLINE
  5
47
102
{ACAD_REACTORS
330
31
102
}
100
AcDbEntity
  8
0
  6
CONTINUOUS
 62
     7
100
AcDbPolyline
 90
        2
 70
     1
 10
629.1
 20
392.35
 42
1.0
 10
626.1
 20
392.35
 42
1.0
  0
LWPOLYLINE
  5
48
102
{ACAD_REACTORS
330
31
102
}
100
AcDbEntity
  8
0
  6
CONTINUOUS
 62
     7
100
AcDbPolyline
 90
        2
 70
     1
 10
649.6
 20
402.35
 42
-1.0
 10
652.6
 20
402.35
 42
-1.0
  0
LWPOLYLINE
  5
49
102
{ACAD_REACTORS
330
31
102
}
100
AcDbEntity
  8
0
  6
CONTINUOUS
 62
     7
100
AcDbPolyline
 90
        2
 70
     1
 10
658.6
 20
392.35
 42
1.0
 10
655.6
 20
392.35
 42
1.0
  0
LWPOLYLINE
  5
4A
102
{ACAD_REACTORS
330
31
102
}
100
AcDbEntity
  8
0
  6
CONTINUOUS
 62
     7
100
AcDbPolyline
 90
        6
 70
     1
 10
314.85
 20
392.35
 42
0.414209
 10
317.85
 20
395.35
 10
317.85
 20
399.35
 42
0.414209
 10
314.85
 20
402.35
 42
0.414209
 10
311.85
 20
399.35
 10
311.85
 20
395.35
 42
0.414209
  0
LWPOLYLINE
  5
4B
102
{ACAD_REACTORS
330
31
102
}
100
AcDbEntity
  8
0
  6
CONTINUOUS
 62
     7
100
AcDbPolyline
 90
        6
 70
     1
 10
344.1
 20
392.35
 42
0.414209
 10
347.1
 20
395.35
 10
347.1
 20
399.35
 42
0.414209
 10
344.1
 20
402.35
 42
0.414209
 10
341.1
 20
399.35
 10
341.1
 20
395.35
 42
0.414209
  0
LWPOLYLINE
  5
4C
102
{ACAD_REACTORS
330
31
102
}
100
AcDbEntity
  8
0
  6
CONTINUOUS
 62
     7
100
AcDbPolyline
 90
        6
 70
     1
 10
373.85
 20
392.35
 42
0.414209
 10
376.85
 20
395.35
 10
376.85
 20
399.35
 42
0.414209
 10
373.85
 20
402.35
 42
0.414209
 10
370.85
 20
399.35
 10
370.85
 20
395.35
 42
0.414209
  0
LWPOLYLINE
  5
4D
102
{ACAD_REACTORS
330
31
102
}
100
AcDbEntity
  8
0
  6
CONTINUOUS
 62
     7
100
AcDbPolyline
 90
        6
 70
     1
 10
402.225
 20
392.35
 42
0.414209
 10
405.225
 20
395.35
 10
405.225
 20
399.35
 42
0.414209
 10
402.225
 20
402.35
 42
0.414209
 10
399.225
 20
399.35
 10
399.225
 20
395.35
 42
0.414209
  0
LWPOLYLINE
  5
4E
102
{ACAD_REACTORS
330
31
102
}
100
AcDbEntity
  8
0
  6
CONTINUOUS
 62
     7
100
AcDbPolyline
 90
        6
 70
     1
 10
432.225
 20
392.35
 42
0.414209
 10
435.225
 20
395.35
 10
435.225
 20
399.35
 42
0.414209
 10
432.225
 20
402.35
 42
0.414209
 10
429.225
 20
399.35
 10
429.225
 20
395.35
 42
0.414209
  0
LWPOLYLINE
  5
4F
102
{ACAD_REACTORS
330
31
102
}
100
AcDbEntity
  8
0
  6
CONTINUOUS
 62
     7
100
AcDbPolyline
 90
        6
 70
     1
 10
462.475
 20
392.35
 42
0.414209
 10
465.475
 20
395.35
 10
465.475
 20
399.35
 42
0.414209
 10
462.475
 20
402.35
 42
0.414209
 10
459.475
 20
399.35
 10
459.475
 20
395.35
 42
0.414209
  0
LWPOLYLINE
  5
50
102
{ACAD_REACTORS
330
31
102
}
100
AcDbEntity
  8
0
  6
CONTINUOUS
 62
     7
100
AcDbPolyline
 90
        6
 70
     1
 10
491.975
 20
392.35
 42
0.414209
 10
494.975
 20
395.35
 10
494.975
 20
399.35
 42
0.414209
 10
491.975
 20
402.35
 42
0.414209
 10
488.975
 20
399.35
 10
488.975
 20
395.35
 42
0.414209
  0
LWPOLYLINE
  5
51
102
{ACAD_REACTORS
330
31
102
}
100
AcDbEntity
  8
0
  6
CONTINUOUS
 62
     7
100
AcDbPolyline
 90
        6
 70
     1
 10
520.225
 20
392.35
 42
0.414209
 10
523.225
 20
395.35
 10
523.225
 20
399.35
 42
0.414209
 10
520.225
 20
402.35
 42
0.414209
 10
517.225
 20
399.35
 10
517.225
 20
395.35
 42
0.414209
  0
LWPOLYLINE
  5
52
102
{ACAD_REACTORS
330
31
102
}
100
AcDbEntity
  8
0
  6
CONTINUOUS
 62
     7
100
AcDbPolyline
 90
        6
 70
     1
 10
550.975
 20
392.35
 42
0.414209
 10
553.975
 20
395.35
 10
553.975
 20
399.35
 42
0.414209
 10
550.975
 20
402.35
 42
0.414209
 10
547.975
 20
399.35
 10
547.975
 20
395.35
 42
0.414209
  0
LWPOLYLINE
  5
53
102
{ACAD_REACTORS
330
31
102
}
100
AcDbEntity
  8
0
  6
CONTINUOUS
 62
     7
100
AcDbPolyline
 90
        6
 70
     1
 10
580.975
 20
392.35
 42
0.414209
 10
583.975
 20
395.35
 10
583.975
 20
399.35
 42
0.414209
 10
580.975
 20
402.35
 42
0.414209
 10
577.975
 20
399.35
 10
577.975
 20
395.35
 42
0.414209
  0
LWPOLYLINE
  5
54
102
{ACAD_REACTORS
330
31
102
}
100
AcDbEntity
  8
0
  6
CONTINUOUS
 62
     7
100
AcDbPolyline
 90
        6
 70
     1
 10
223.1
 20
392.35
 42
0.414209
 10
226.1
 20
395.35
 10
226.1
 20
399.35
 42
0.414209
 10
223.1
 20
402.35
 42
0.414209
 10
220.1
 20
399.35
 10
220.1
 20
395.35
 42
0.414209
  0
LWPOLYLINE
  5
55
102
{ACAD_REACTORS
330
31
102
}
100
AcDbEntity
  8
0
  6
CONTINUOUS
 62
     7
100
AcDbPolyline
 90
        6
 70
     1
 10
194.1
 20
392.35
 42
0.414209
 10
197.1
 20
395.35
 10
197.1
 20
399.35
 42
0.414209
 10
194.1
 20
402.35
 42
0.414209
 10
191.1
 20
399.35
 10
191.1
 20
395.35
 42
0.414209
  0
LWPOLYLINE
  5
56
102
{ACAD_REACTORS
330
31
102
}
100
AcDbEntity
  8
0
  6
CONTINUOUS
 62
     7
100
AcDbPolyline
 90
        6
 70
     1
 10
252.35
 20
392.35
 42
0.414209
 10
255.35
 20
395.35
 10
255.35
 20
399.35
 42
0.414209
 10
252.35
 20
402.35
 42
0.414209
 10
249.35
 20
399.35
 10
249.35
 20
395.35
 42
0.414209
  0
LWPOLYLINE
  5
57
102
{ACAD_REACTORS
330
31
102
}
100
AcDbEntity
  8
0
  6
CONTINUOUS
 62
     7
100
AcDbPolyline
 90
        6
 70
     1
 10
282.1
 20
392.35
 42
0.414209
 10
285.1
 20
395.35
 10
285.1
 20
399.35
 42
0.414209
 10
282.1
 20
402.35
 42
0.414209
 10
279.1
 20
399.35
 10
279.1
 20
395.35
 42
0.414209
  0
LWPOLYLINE
  5
58
102
{ACAD_REACTORS
330
31
102
}
100
AcDbEntity
  8
0
  6
CONTINUOUS
 62
     7
100
AcDbPolyline
 90
        6
 70
     1
 10
609.5375
 20
392.35
 42
0.414209
 10
612.5375
 20
395.35
 10
612.5375
 20
399.35
 42
0.414209
 10
609.5375
 20
402.35
 42
0.414209
 10
606.5375
 20
399.35
 10
606.5375
 20
395.35
 42
0.414209
  0
LWPOLYLINE
  5
59
102
{ACAD_REACTORS
330
31
102
}
100
AcDbEntity
  8
0
  6
CONTINUOUS
 62
     7
100
AcDbPolyline
 90
        6
 70
     1
 10
639.2875
 20
392.35
 42
0.414209
 10
642.2875
 20
395.35
 10
642.2875
 20
399.35
 42
0.414209
 10
639.2875
 20
402.35
 42
0.414209
 10
636.2875
 20
399.35
 10
636.2875
 20
395.35
 42
0.414209
  0
LWPOLYLINE
  5
5A
102
{ACAD_REACTORS
330
31
102
}
100
AcDbEntity
  8
0
  6
CONTINUOUS
 62
     7
100
AcDbPolyline
 90
        6
 70
     1
 10
669.1625
 20
392.35
 42
0.414209
 10
672.1625
 20
395.35
 10
672.1625
 20
399.35
 42
0.414209
 10
669.1625
 20
402.35
 42
0.414209
 10
666.1625
 20
399.35
 10
666.1625
 20
395.35
 42
0.414209
  0
LWPOLYLINE
  5
5B
102
{ACAD_REACTORS
330
31
102
}
100
AcDbEntity
  8
0
  6
CONTINUOUS
 62
     7
100
AcDbPolyline
 90
        2
 70
     1
 10
327.275
 20
441.85
 42
-1.0
 10
330.275
 20
441.85
 42
-1.0
  0
LWPOLYLINE
  5
5C
102
{ACAD_REACTORS
330
31
102
}
100
AcDbEntity
  8
0
  6
CONTINUOUS
 62
     7
100
AcDbPolyline
 90
        2
 70
     1
 10
356.925
 20
441.85
 42
-1.0
 10
359.925
 20
441.85
 42
-1.0
  0
LWPOLYLINE
  5
5D
102
{ACAD_REACTORS
330
31
102
}
100
AcDbEntity
  8
0
  6
CONTINUOUS
 62
     7
100
AcDbPolyline
 90
        2
 70
     1
 10
415.2
 20
441.85
 42
-1.0
 10
418.2
 20
441.85
 42
-1.0
  0
LWPOLYLINE
  5
5E
102
{ACAD_REACTORS
330
31
102
}
100
AcDbEntity
  8
0
  6
CONTINUOUS
 62
     7
100
AcDbPolyline
 90
        2
 70
     1
 10
444.85
 20
441.85
 42
-1.0
 10
447.85
 20
441.85
 42
-1.0
  0
LWPOLYLINE
  5
5F
102
{ACAD_REACTORS
330
31
102
}
100
AcDbEntity
  8
0
  6
CONTINUOUS
 62
     7
100
AcDbPolyline
 90
        2
 70
     1
 10
474.5
 20
441.85
 42
-1.0
 10
477.5
 20
441.85
 42
-1.0
  0
LWPOLYLINE
  5
60
102
{ACAD_REACTORS
330
31
102
}
100
AcDbEntity
  8
0
  6
CONTINUOUS
 62
     7
100
AcDbPolyline
 90
        2
 70
     1
 10
533.525
 20
441.85
 42
-1.0
 10
536.525
 20
441.85
 42
-1.0
  0
LWPOLYLINE
  5
61
102
{ACAD_REACTORS
330
31
102
}
100
AcDbEntity
  8
0
  6
CONTINUOUS
 62
     7
100
AcDbPolyline
 90
        2
 70
     1
 10
563.175
 20
441.85
 42
-1.0
 10
566.175
 20
441.85
 42
-1.0
  0
LWPOLYLINE
  5
62
102
{ACAD_REACTORS
330
31
102
}
100
AcDbEntity
  8
0
  6
CONTINUOUS
 62
     7
100
AcDbPolyline
 90
        2
 70
     1
 10
622.275
 20
441.85
 42
-1.0
 10
625.275
 20
441.85
 42
-1.0
  0
LWPOLYLINE
  5
63
102
{ACAD_REACTORS
330
31
102
}
100
AcDbEntity
  8
0
  6
CONTINUOUS
 62
     7
100
AcDbPolyline
 90
        2
 70
     1
 10
651.925
 20
441.85
 42
-1.0
 10
654.925
 20
441.85
 42
-1.0
  0
LWPOLYLINE
  5
64
102
{ACAD_REACTORS
330
31
102
}
100
AcDbEntity
  8
0
  6
CONTINUOUS
 62
     7
100
AcDbPolyline
 90
        2
 70
     1
 10
235.779833
 20
441.85
 42
-1.0
 10
238.779833
 20
441.85
 42
-1.0
  0
LWPOLYLINE
  5
65
102
{ACAD_REACTORS
330
31
102
}
100
AcDbEntity
  8
0
  6
CONTINUOUS
 62
     7
100
AcDbPolyline
 90
        2
 70
     1
 10
265.429833
 20
441.85
 42
-1.0
 10
268.429833
 20
441.85
 42
-1.0
  0
LWPOLYLINE
  5
66
102
{ACAD_REACTORS
330
31
102
}
100
AcDbEntity
  8
0
  6
CONTINUOUS
 62
     7
100
AcDbPolyline
 90
        2
 70
     1
 10
206.270167
 20
441.85
 42
-1.0
 10
209.270167
 20
441.85
 42
-1.0
  0
LWPOLYLINE
  5
67
102
{ACAD_REACTORS
330
31
102
}
100
AcDbEntity
  8
0
  6
CONTINUOUS
 62
     7
100
AcDbPolyline
 90
       27
 70
     1
 10
115.6
 20
334.35
 10
115.6
 20
320.35
 10
115.6
 20
310.35
 10
130.675
 20
310.35
 10
130.675
 20
320.35
 10
130.675
 20
359.65
 10
130.675
 20
384.85
 42
-0.414214
 10
133.675
 20
387.85
 10
696.325
 20
387.85
 42
-0.414214
 10
699.325
 20
384.85
 10
699.325
 20
359.65
 10
699.325
 20
320.35
 10
699.325
 20
310.35
 10
714.35
 20
310.35
 10
714.35
 20
320.35
 10
714.35
 20
334.35
 10
729.4
 20
334.35
 10
729.4
 20
344.35
 10
729.4
 20
359.65
 10
729.4
 20
459.05
 42
0.414209
 10
718.8
 20
469.65
 10
111.2
 20
469.65
 42
0.414209
 10
100.6
 20
459.05
 10
100.6
 20
450.35
 10
100.6
 20
359.65
 10
100.6
 20
344.35
 10
100.6
 20
334.35
  0
LWPOLYLINE
  5
69
102
{ACAD_REACTORS
330
68
102
}
100
AcDbEntity
  8
0
  6
CONTINUOUS
 62
     7
100
AcDbPolyline
 90
        2
 70
     1
 10
166.0
 20
423.5
 42
-1.0
 10
162.0
 20
423.5
 42
-1.0
  0
LWPOLYLINE
  5
6A
102
{ACAD_REACTORS
330
68
102
}
100
AcDbEntity
  8
0
  6
CONTINUOUS
 62
     7
100
AcDbPolyline
 90
        2
 70
     1
 10
670.0
 20
423.5
 42
-1.0
 10
666.0
 20
423.5
 42
-1.0
  0
LWPOLYLINE
  5
6C
102
{ACAD_REACTORS
330
6B
102
}
100
AcDbEntity
  8
0
  6
CONTINUOUS
 62
     7
100
AcDbPolyline
 90
        2
 70
     1
 10
620.25
 20
233.9
 42
-1.0
 10
617.25
 20
233.9
 42
-1.0
  0
LWPOLYLINE
  5
6D
102
{ACAD_REACTORS
330
6B
102
}
100
AcDbEntity
  8
0
  6
CONTINUOUS
 62
     7
100
AcDbPolyline
 90
        2
 70
     1
 10
590.6
 20
233.9
 42
-1.0
 10
587.6
 20
233.9
 42
-1.0
  0
LWPOLYLINE
  5
6E
102
{ACAD_REACTORS
330
6B
102
}
100
AcDbEntity
  8
0
  6
CONTINUOUS
 62
     7
100
AcDbPolyline
 90
        2
 70
     1
 10
560.95
 20
233.9
 42
-1.0
 10
557.95
 20
233.9
 42
-1.0
  0
LWPOLYLINE
  5
6F
102
{ACAD_REACTORS
330
6B
102
}
100
AcDbEntity
  8
0
  6
CONTINUOUS
 62
     7
100
AcDbPolyline
 90
        2
 70
     1
 10
531.3
 20
233.9
 42
-1.0
 10
528.3
 20
233.9
 42
-1.0
  0
LWPOLYLINE
  5
70
102
{ACAD_REACTORS
330
6B
102
}
100
AcDbEntity
  8
0
  6
CONTINUOUS
 62
     7
100
AcDbPolyline
 90
        2
 70
     1
 10
501.65
 20
233.9
 42
-1.0
 10
498.65
 20
233.9
 42
-1.0
  0
LWPOLYLINE
  5
71
102
{ACAD_REACTORS
330
6B
102
}
100
AcDbEntity
  8
0
  6
CONTINUOUS
 62
     7
100
AcDbPolyline
 90
        2
 70
     1
 10
472.0
 20
233.9
 42
-1.0
 10
469.0
 20
233.9
 42
-1.0
  0
LWPOLYLINE
  5
72
102
{ACAD_REACTORS
330
6B
102
}
100
AcDbEntity
  8
0
  6
CONTINUOUS
 62
     7
100
AcDbPolyline
 90
        2
 70
     1
 10
442.35
 20
233.9
 42
-1.0
 10
439.35
 20
233.9
 42
-1.0
  0
LWPOLYLINE
  5
73
102
{ACAD_REACTORS
330
6B
102
}
100
AcDbEntity
  8
0
  6
CONTINUOUS
 62
     7
100
AcDbPolyline
 90
        2
 70
     1
 10
412.7
 20
233.9
 42
-1.0
 10
409.7
 20
233.9
 42
-1.0
  0
LWPOLYLINE
  5
74
102
{ACAD_REACTORS
330
6B
102
}
100
AcDbEntity
  8
0
  6
CONTINUOUS
 62
     7
100
AcDbPolyline
 90
        2
 70
     1
 10
383.05
 20
233.9
 42
-1.0
 10
380.05
 20
233.9
 42
-1.0
  0
LWPOLYLINE
  5
75
102
{ACAD_REACTORS
330
6B
102
}
100
AcDbEntity
  8
0
  6
CONTINUOUS
 62
     7
100
AcDbPolyline
 90
        2
 70
     1
 10
353.4
 20
233.9
 42
-1.0
 10
350.4
 20
233.9
 42
-1.0
  0
LWPOLYLINE
  5
76
102
{ACAD_REACTORS
330
6B
102
}
100
AcDbEntity
  8
0
  6
CONTINUOUS
 62
     7
100
AcDbPolyline
 90
        2
 70
     1
 10
323.75
 20
233.9
 42
-1.0
 10
320.75
 20
233.9
 42
-1.0
  0
LWPOLYLINE
  5
77
102
{ACAD_REACTORS
330
6B
102
}
100
AcDbEntity
  8
0
  6
CONTINUOUS
 62
     7
100
AcDbPolyline
 90
        2
 70
     1
 10
294.1
 20
233.9
 42
-1.0
 10
291.1
 20
233.9
 42
-1.0
  0
LWPOLYLINE
  5
78
102
{ACAD_REACTORS
330
6B
102
}
100
AcDbEntity
  8
0
  6
CONTINUOUS
 62
     7
100
AcDbPolyline
 90
        2
 70
     1
 10
264.45
 20
233.9
 42
-1.0
 10
261.45
 20
233.9
 42
-1.0
  0
LWPOLYLINE
  5
79
102
{ACAD_REACTORS
330
6B
102
}
100
AcDbEntity
  8
0
  6
CONTINUOUS
 62
     7
100
AcDbPolyline
 90
        2
 70
     1
 10
234.8
 20
233.9
 42
-1.0
 10
231.8
 20
233.9
 42
-1.0
  0
LWPOLYLINE
  5
7A
102
{ACAD_REACTORS
330
6B
102
}
100
AcDbEntity
  8
0
  6
CONTINUOUS
 62
     7
100
AcDbPolyline
 90
        2
 70
     1
 10
205.15
 20
233.9
 42
-1.0
 10
202.15
 20
233.9
 42
-1.0
  0
LWPOLYLINE
  5
7B
102
{ACAD_REACTORS
330
6B
102
}
100
AcDbEntity
  8
0
  6
CONTINUOUS
 62
     7
100
AcDbPolyline
 90
        2
 70
     1
 10
175.5
 20
233.9
 42
-1.0
 10
172.5
 20
233.9
 42
-1.0
  0
LWPOLYLINE
  5
7C
102
{ACAD_REACTORS
330
6B
102
}
100
AcDbEntity
  8
0
  6
CONTINUOUS
 62
     7
100
AcDbPolyline
 90
        2
 70
     1
 10
145.85
 20
233.9
 42
-1.0
 10
142.85
 20
233.9
 42
-1.0
  0
LWPOLYLINE
  5
7D
102
{ACAD_REACTORS
330
6B
102
}
100
AcDbEntity
  8
0
  6
CONTINUOUS
 62
     7
100
AcDbPolyline
 90
        2
 70
     1
 10
116.2
 20
233.9
 42
-1.0
 10
113.2
 20
233.9
 42
-1.0
  0
LWPOLYLINE
  5
7E
102
{ACAD_REACTORS
330
6B
102
}
100
AcDbEntity
  8
0
  6
CONTINUOUS
 62
     7
100
AcDbPolyline
 90
        2
 70
     1
 10
623.25
 20
273.4
 42
-1.0
 10
620.25
 20
273.4
 42
-1.0
  0
LWPOLYLINE
  5
7F
102
{ACAD_REACTORS
330
6B
102
}
100
AcDbEntity
  8
0
  6
CONTINUOUS
 62
     7
100
AcDbPolyline
 90
        2
 70
     1
 10
614.25
 20
283.4
 42
1.0
 10
617.25
 20
283.4
 42
1.0
  0
LWPOLYLINE
  5
80
102
{ACAD_REACTORS
330
6B
102
}
100
AcDbEntity
  8
0
  6
CONTINUOUS
 62
     7
100
AcDbPolyline
 90
        2
 70
     1
 10
119.25
 20
273.4
 42
-1.0
 10
116.25
 20
273.4
 42
-1.0
  0
LWPOLYLINE
  5
81
102
{ACAD_REACTORS
330
6B
102
}
100
AcDbEntity
  8
0
  6
CONTINUOUS
 62
     7
100
AcDbPolyline
 90
        2
 70
     1
 10
110.25
 20
283.4
 42
1.0
 10
113.25
 20
283.4
 42
1.0
  0
LWPOLYLINE
  5
82
102
{ACAD_REACTORS
330
6B
102
}
100
AcDbEntity
  8
0
  6
CONTINUOUS
 62
     7
100
AcDbPolyline
 90
        2
 70
     1
 10
593.75
 20
273.4
 42
-1.0
 10
590.75
 20
273.4
 42
-1.0
  0
LWPOLYLINE
  5
83
102
{ACAD_REACTORS
330
6B
102
}
100
AcDbEntity
  8
0
  6
CONTINUOUS
 62
     7
100
AcDbPolyline
 90
        2
 70
     1
 10
584.75
 20
283.4
 42
1.0
 10
587.75
 20
283.4
 42
1.0
  0
LWPOLYLINE
  5
84
102
{ACAD_REACTORS
330
6B
102
}
100
AcDbEntity
  8
0
  6
CONTINUOUS
 62
     7
100
AcDbPolyline
 90
        2
 70
     1
 10
564.75
 20
273.4
 42
-1.0
 10
561.75
 20
273.4
 42
-1.0
  0
LWPOLYLINE
  5
85
102
{ACAD_REACTORS
330
6B
102
}
100
AcDbEntity
  8
0
  6
CONTINUOUS
 62
     7
100
AcDbPolyline
 90
        2
 70
     1
 10
555.75
 20
283.4
 42
1.0
 10
558.75
 20
283.4
 42
1.0
  0
LWPOLYLINE
  5
86
102
{ACAD_REACTORS
330
6B
102
}
100
AcDbEntity
  8
0
  6
CONTINUOUS
 62
     7
100
AcDbPolyline
 90
        2
 70
     1
 10
535.75
 20
273.4
 42
-1.0
 10
532.75
 20
273.4
 42
-1.0
  0
LWPOLYLINE
  5
87
102
{ACAD_REACTORS
330
6B
102
}
100
AcDbEntity
  8
0
  6
CONTINUOUS
 62
     7
100
AcDbPolyline
 90
        2
 70
     1
 10
526.75
 20
283.4
 42
1.0
 10
529.75
 20
283.4
 42
1.0
  0
LWPOLYLINE
  5
88
102
{ACAD_REACTORS
330
6B
102
}
100
AcDbEntity
  8
0
  6
CONTINUOUS
 62
     7
100
AcDbPolyline
 90
        2
 70
     1
 10
506.25
 20
273.4
 42
-1.0
 10
503.25
 20
273.4
 42
-1.0
  0
LWPOLYLINE
  5
89
102
{ACAD_REACTORS
330
6B
102
}
100
AcDbEntity
  8
0
  6
CONTINUOUS
 62
     7
100
AcDbPolyline
 90
        2
 70
     1
 10
497.25
 20
283.4
 42
1.0
 10
500.25
 20
283.4
 42
1.0
  0
LWPOLYLINE
  5
8A
102
{ACAD_REACTORS
330
6B
102
}
100
AcDbEntity
  8
0
  6
CONTINUOUS
 62
     7
100
AcDbPolyline
 90
        2
 70
     1
 10
476.25
 20
273.4
 42
-1.0
 10
473.25
 20
273.4
 42
-1.0
  0
LWPOLYLINE
  5
8B
102
{ACAD_REACTORS
330
6B
102
}
100
AcDbEntity
  8
0
  6
CONTINUOUS
 62
     7
100
AcDbPolyline
 90
        2
 70
     1
 10
467.25
 20
283.4
 42
1.0
 10
470.25
 20
283.4
 42
1.0
  0
LWPOLYLINE
  5
8C
102
{ACAD_REACTORS
330
6B
102
}
100
AcDbEntity
  8
0
  6
CONTINUOUS
 62
     7
100
AcDbPolyline
 90
        2
 70
     1
 10
448.25
 20
273.4
 42
-1.0
 10
445.25
 20
273.4
 42
-1.0
  0
LWPOLYLINE
  5
8D
102
{ACAD_REACTORS
330
6B
102
}
100
AcDbEntity
  8
0
  6
CONTINUOUS
 62
     7
100
AcDbPolyline
 90
        2
 70
     1
 10
439.25
 20
283.4
 42
1.0
 10
442.25
 20
283.4
 42
1.0
  0
LWPOLYLINE
  5
8E
102
{ACAD_REACTORS
330
6B
102
}
100
AcDbEntity
  8
0
  6
CONTINUOUS
 62
     7
100
AcDbPolyline
 90
        2
 70
     1
 10
417.75
 20
273.4
 42
-1.0
 10
414.75
 20
273.4
 42
-1.0
  0
LWPOLYLINE
  5
8F
102
{ACAD_REACTORS
330
6B
102
}
100
AcDbEntity
  8
0
  6
CONTINUOUS
 62
     7
100
AcDbPolyline
 90
        2
 70
     1
 10
408.75
 20
283.4
 42
1.0
 10
411.75
 20
283.4
 42
1.0
  0
LWPOLYLINE
  5
90
102
{ACAD_REACTORS
330
6B
102
}
100
AcDbEntity
  8
0
  6
CONTINUOUS
 62
     7
100
AcDbPolyline
 90
        2
 70
     1
 10
388.75
 20
273.4
 42
-1.0
 10
385.75
 20
273.4
 42
-1.0
  0
LWPOLYLINE
  5
91
102
{ACAD_REACTORS
330
6B
102
}
100
AcDbEntity
  8
0
  6
CONTINUOUS
 62
     7
100
AcDbPolyline
 90
        2
 70
     1
 10
379.75
 20
283.4
 42
1.0
 10
382.75
 20
283.4
 42
1.0
  0
LWPOLYLINE
  5
92
102
{ACAD_REACTORS
330
6B
102
}
100
AcDbEntity
  8
0
  6
CONTINUOUS
 62
     7
100
AcDbPolyline
 90
        2
 70
     1
 10
359.25
 20
273.4
 42
-1.0
 10
356.25
 20
273.4
 42
-1.0
  0
LWPOLYLINE
  5
93
102
{ACAD_REACTORS
330
6B
102
}
100
AcDbEntity
  8
0
  6
CONTINUOUS
 62
     7
100
AcDbPolyline
 90
        2
 70
     1
 10
350.25
 20
283.4
 42
1.0
 10
353.25
 20
283.4
 42
1.0
  0
LWPOLYLINE
  5
94
102
{ACAD_REACTORS
330
6B
102
}
100
AcDbEntity
  8
0
  6
CONTINUOUS
 62
     7
100
AcDbPolyline
 90
        2
 70
     1
 10
328.75
 20
273.4
 42
-1.0
 10
325.75
 20
273.4
 42
-1.0
  0
LWPOLYLINE
  5
95
102
{ACAD_REACTORS
330
6B
102
}
100
AcDbEntity
  8
0
  6
CONTINUOUS
 62
     7
100
AcDbPolyline
 90
        2
 70
     1
 10
319.75
 20
283.4
 42
1.0
 10
322.75
 20
283.4
 42
1.0
  0
LWPOLYLINE
  5
96
102
{ACAD_REACTORS
330
6B
102
}
100
AcDbEntity
  8
0
  6
CONTINUOUS
 62
     7
100
AcDbPolyline
 90
        2
 70
     1
 10
298.75
 20
273.4
 42
-1.0
 10
295.75
 20
273.4
 42
-1.0
  0
LWPOLYLINE
  5
97
102
{ACAD_REACTORS
330
6B
102
}
100
AcDbEntity
  8
0
  6
CONTINUOUS
 62
     7
100
AcDbPolyline
 90
        2
 70
     1
 10
289.75
 20
283.4
 42
1.0
 10
292.75
 20
283.4
 42
1.0
  0
LWPOLYLINE
  5
98
102
{ACAD_REACTORS
330
6B
102
}
100
AcDbEntity
  8
0
  6
CONTINUOUS
 62
     7
100
AcDbPolyline
 90
        2
 70
     1
 10
269.75
 20
273.4
 42
-1.0
 10
266.75
 20
273.4
 42
-1.0
  0
LWPOLYLINE
  5
99
102
{ACAD_REACTORS
330
6B
102
}
100
AcDbEntity
  8
0
  6
CONTINUOUS
 62
     7
100
AcDbPolyline
 90
        2
 70
     1
 10
260.75
 20
283.4
 42
1.0
 10
263.75
 20
283.4
 42
1.0
  0
LWPOLYLINE
  5
9A
102
{ACAD_REACTORS
330
6B
102
}
100
AcDbEntity
  8
0
  6
CONTINUOUS
 62
     7
100
AcDbPolyline
 90
        2
 70
     1
 10
238.75
 20
273.4
 42
-1.0
 10
235.75
 20
273.4
 42
-1.0
  0
LWPOLYLINE
  5
9B
102
{ACAD_REACTORS
330
6B
102
}
100
AcDbEntity
  8
0
  6
CONTINUOUS
 62
     7
100
AcDbPolyline
 90
        2
 70
     1
 10
229.75
 20
283.4
 42
1.0
 10
232.75
 20
283.4
 42
1.0
  0
LWPOLYLINE
  5
9C
102
{ACAD_REACTORS
330
6B
102
}
100
AcDbEntity
  8
0
  6
CONTINUOUS
 62
     7
100
AcDbPolyline
 90
        2
 70
     1
 10
208.25
 20
273.4
 42
-1.0
 10
205.25
 20
273.4
 42
-1.0
  0
LWPOLYLINE
  5
9D
102
{ACAD_REACTORS
330
6B
102
}
100
AcDbEntity
  8
0
  6
CONTINUOUS
 62
     7
100
AcDbPolyline
 90
        2
 70
     1
 10
199.25
 20
283.4
 42
1.0
 10
202.25
 20
283.4
 42
1.0
  0
LWPOLYLINE
  5
9E
102
{ACAD_REACTORS
330
6B
102
}
100
AcDbEntity
  8
0
  6
CONTINUOUS
 62
     7
100
AcDbPolyline
 90
        2
 70
     1
 10
178.75
 20
273.4
 42
-1.0
 10
175.75
 20
273.4
 42
-1.0
  0
LWPOLYLINE
  5
9F
102
{ACAD_REACTORS
330
6B
102
}
100
AcDbEntity
  8
0
  6
CONTINUOUS
 62
     7
100
AcDbPolyline
 90
        2
 70
     1
 10
169.75
 20
283.4
 42
1.0
 10
172.75
 20
283.4
 42
1.0
  0
LWPOLYLINE
  5
A0
102
{ACAD_REACTORS
330
6B
102
}
100
AcDbEntity
  8
0
  6
CONTINUOUS
 62
     7
100
AcDbPolyline
 90
        2
 70
     1
 10
149.75
 20
273.4
 42
-1.0
 10
146.75
 20
273.4
 42
-1.0
  0
LWPOLYLINE
  5
A1
102
{ACAD_REACTORS
330
6B
102
}
100
AcDbEntity
  8
0
  6
CONTINUOUS
 62
     7
100
AcDbPolyline
 90
        2
 70
     1
 10
140.75
 20
283.4
 42
1.0
 10
143.75
 20
283.4
 42
1.0
  0
LWPOLYLINE
  5
A2
102
{ACAD_REACTORS
330
6B
102
}
100
AcDbEntity
  8
0
  6
CONTINUOUS
 62
     7
100
AcDbPolyline
 90
        6
 70
     1
 10
545.75
 20
283.4
 42
0.414209
 10
542.75
 20
280.4
 10
542.75
 20
276.4
 42
0.414209
 10
545.75
 20
273.4
 42
0.414209
 10
548.75
 20
276.4
 10
548.75
 20
280.4
 42
0.414209
  0
LWPOLYLINE
  5
A3
102
{ACAD_REACTORS
330
6B
102
}
100
AcDbEntity
  8
0
  6
CONTINUOUS
 62
     7
100
AcDbPolyline
 90
        6
 70
     1
 10
574.75
 20
283.4
 42
0.414209
 10
571.75
 20
280.4
 10
571.75
 20
276.4
 42
0.414209
 10
574.75
 20
273.4
 42
0.414209
 10
577.75
 20
276.4
 10
577.75
 20
280.4
 42
0.414209
  0
LWPOLYLINE
  5
A4
102
{ACAD_REACTORS
330
6B
102
}
100
AcDbEntity
  8
0
  6
CONTINUOUS
 62
     7
100
AcDbPolyline
 90
        6
 70
     1
 10
604.0
 20
283.4
 42
0.414209
 10
601.0
 20
280.4
 10
601.0
 20
276.4
 42
0.414209
 10
604.0
 20
273.4
 42
0.414209
 10
607.0
 20
276.4
 10
607.0
 20
280.4
 42
0.414209
  0
LWPOLYLINE
  5
A5
102
{ACAD_REACTORS
330
6B
102
}
100
AcDbEntity
  8
0
  6
CONTINUOUS
 62
     7
100
AcDbPolyline
 90
        6
 70
     1
 10
633.125
 20
283.4
 42
0.414209
 10
630.125
 20
280.4
 10
630.125
 20
276.4
 42
0.414209
 10
633.125
 20
273.4
 42
0.414209
 10
636.125
 20
276.4
 10
636.125
 20
280.4
 42
0.414209
  0
LWPOLYLINE
  5
A6
102
{ACAD_REACTORS
330
6B
102
}
100
AcDbEntity
  8
0
  6
CONTINUOUS
 62
     7
100
AcDbPolyline
 90
        6
 70
     1
 10
516.5
 20
283.4
 42
0.414209
 10
513.5
 20
280.4
 10
513.5
 20
276.4
 42
0.414209
 10
516.5
 20
273.4
 42
0.414209
 10
519.5
 20
276.4
 10
519.5
 20
280.4
 42
0.414209
  0
LWPOLYLINE
  5
A7
102
{ACAD_REACTORS
330
6B
102
}
100
AcDbEntity
  8
0
  6
CONTINUOUS
 62
     7
100
AcDbPolyline
 90
        6
 70
     1
 10
486.75
 20
283.4
 42
0.414209
 10
483.75
 20
280.4
 10
483.75
 20
276.4
 42
0.414209
 10
486.75
 20
273.4
 42
0.414209
 10
489.75
 20
276.4
 10
489.75
 20
280.4
 42
0.414209
  0
LWPOLYLINE
  5
A8
102
{ACAD_REACTORS
330
6B
102
}
100
AcDbEntity
  8
0
  6
CONTINUOUS
 62
     7
100
AcDbPolyline
 90
        6
 70
     1
 10
457.75
 20
283.4
 42
0.414209
 10
454.75
 20
280.4
 10
454.75
 20
276.4
 42
0.414209
 10
457.75
 20
273.4
 42
0.414209
 10
460.75
 20
276.4
 10
460.75
 20
280.4
 42
0.414209
  0
LWPOLYLINE
  5
A9
102
{ACAD_REACTORS
330
6B
102
}
100
AcDbEntity
  8
0
  6
CONTINUOUS
 62
     7
100
AcDbPolyline
 90
        6
 70
     1
 10
428.5
 20
283.4
 42
0.414209
 10
425.5
 20
280.4
 10
425.5
 20
276.4
 42
0.414209
 10
428.5
 20
273.4
 42
0.414209
 10
431.5
 20
276.4
 10
431.5
 20
280.4
 42
0.414209
  0
LWPOLYLINE
  5
AA
102
{ACAD_REACTORS
330
6B
102
}
100
AcDbEntity
  8
0
  6
CONTINUOUS
 62
     7
100
AcDbPolyline
 90
        6
 70
     1
 10
398.75
 20
283.4
 42
0.414209
 10
395.75
 20
280.4
 10
395.75
 20
276.4
 42
0.414209
 10
398.75
 20
273.4
 42
0.414209
 10
401.75
 20
276.4
 10
401.75
 20
280.4
 42
0.414209
  0
LWPOLYLINE
  5
AB
102
{ACAD_REACTORS
330
6B
102
}
100
AcDbEntity
  8
0
  6
CONTINUOUS
 62
     7
100
AcDbPolyline
 90
        6
 70
     1
 10
369.5
 20
283.4
 42
0.414209
 10
366.5
 20
280.4
 10
366.5
 20
276.4
 42
0.414209
 10
369.5
 20
273.4
 42
0.414209
 10
372.5
 20
276.4
 10
372.5
 20
280.4
 42
0.414209
  0
LWPOLYLINE
  5
AC
102
{ACAD_REACTORS
330
6B
102
}
100
AcDbEntity
  8
0
  6
CONTINUOUS
 62
     7
100
AcDbPolyline
 90
        6
 70
     1
 10
339.5
 20
283.4
 42
0.414209
 10
336.5
 20
280.4
 10
336.5
 20
276.4
 42
0.414209
 10
339.5
 20
273.4
 42
0.414209
 10
342.5
 20
276.4
 10
342.5
 20
280.4
 42
0.414209
  0
LWPOLYLINE
  5
AD
102
{ACAD_REACTORS
330
6B
102
}
100
AcDbEntity
  8
0
  6
CONTINUOUS
 62
     7
100
AcDbPolyline
 90
        6
 70
     1
 10
309.25
 20
283.4
 42
0.414209
 10
306.25
 20
280.4
 10
306.25
 20
276.4
 42
0.414209
 10
309.25
 20
273.4
 42
0.414209
 10
312.25
 20
276.4
 10
312.25
 20
280.4
 42
0.414209
  0
LWPOLYLINE
  5
AE
102
{ACAD_REACTORS
330
6B
102
}
100
AcDbEntity
  8
0
  6
CONTINUOUS
 62
     7
100
AcDbPolyline
 90
        6
 70
     1
 10
279.75
 20
283.4
 42
0.414209
 10
276.75
 20
280.4
 10
276.75
 20
276.4
 42
0.414209
 10
279.75
 20
273.4
 42
0.414209
 10
282.75
 20
276.4
 10
282.75
 20
280.4
 42
0.414209
  0
LWPOLYLINE
  5
AF
102
{ACAD_REACTORS
330
6B
102
}
100
AcDbEntity
  8
0
  6
CONTINUOUS
 62
     7
100
AcDbPolyline
 90
        6
 70
     1
 10
249.75
 20
283.4
 42
0.414209
 10
246.75
 20
280.4
 10
246.75
 20
276.4
 42
0.414209
 10
249.75
 20
273.4
 42
0.414209
 10
252.75
 20
276.4
 10
252.75
 20
280.4
 42
0.414209
  0
LWPOLYLINE
  5
B0
102
{ACAD_REACTORS
330
6B
102
}
100
AcDbEntity
  8
0
  6
CONTINUOUS
 62
     7
100
AcDbPolyline
 90
        6
 70
     1
 10
219.0
 20
283.4
 42
0.414209
 10
216.0
 20
280.4
 10
216.0
 20
276.4
 42
0.414209
 10
219.0
 20
273.4
 42
0.414209
 10
222.0
 20
276.4
 10
222.0
 20
280.4
 42
0.414209
  0
LWPOLYLINE
  5
B1
102
{ACAD_REACTORS
330
6B
102
}
100
AcDbEntity
  8
0
  6
CONTINUOUS
 62
     7
100
AcDbPolyline
 90
        6
 70
     1
 10
189.0
 20
283.4
 42
0.414209
 10
186.0
 20
280.4
 10
186.0
 20
276.4
 42
0.414209
 10
189.0
 20
273.4
 42
0.414209
 10
192.0
 20
276.4
 10
192.0
 20
280.4
 42
0.414209
  0
LWPOLYLINE
  5
B2
102
{ACAD_REACTORS
330
6B
102
}
100
AcDbEntity
  8
0
  6
CONTINUOUS
 62
     7
100
AcDbPolyline
 90
        6
 70
     1
 10
159.75
 20
283.4
 42
0.414209
 10
156.75
 20
280.4
 10
156.75
 20
276.4
 42
0.414209
 10
159.75
 20
273.4
 42
0.414209
 10
162.75
 20
276.4
 10
162.75
 20
280.4
 42
0.414209
  0
LWPOLYLINE
  5
B3
102
{ACAD_REACTORS
330
6B
102
}
100
AcDbEntity
  8
0
  6
CONTINUOUS
 62
     7
100
AcDbPolyline
 90
        6
 70
     1
 10
130.0
 20
283.4
 42
0.414209
 10
127.0
 20
280.4
 10
127.0
 20
276.4
 42
0.414209
 10
130.0
 20
273.4
 42
0.414209
 10
133.0
 20
276.4
 10
133.0
 20
280.4
 42
0.414209
  0
LWPOLYLINE
  5
B4
102
{ACAD_REACTORS
330
6B
102
}
100
AcDbEntity
  8
0
  6
CONTINUOUS
 62
     7
100
AcDbPolyline
 90
        6
 70
     1
 10
100.125
 20
283.4
 42
0.414209
 10
97.125
 20
280.4
 10
97.125
 20
276.4
 42
0.414209
 10
100.125
 20
273.4
 42
0.414209
 10
103.125
 20
276.4
 10
103.125
 20
280.4
 42
0.414209
  0
LWPOLYLINE
  5
B5
102
{ACAD_REACTORS
330
6B
102
}
100
AcDbEntity
  8
0
  6
CONTINUOUS
 62
     7
100
AcDbPolyline
 90
       24
 70
     1
 10
649.325
 20
310.9
 10
649.325
 20
310.4
 10
649.325
 20
290.9
 42
-0.414214
 10
646.325
 20
287.9
 10
83.675
 20
287.9
 42
-0.414214
 10
80.675
 20
290.9
 10
80.675
 20
310.4
 10
80.675
 20
310.9
 10
80.675
 20
354.9
 10
65.65
 20
354.9
 10
65.65
 20
330.9
 10
50.6
 20
330.9
 10
50.6
 20
310.9
 10
50.6
 20
310.4
 10
50.6
 20
216.7
 42
0.414209
 10
61.2
 20
206.1
 10
668.8
 20
206.1
 42
0.414209
 10
679.4
 20
216.7
 10
679.4
 20
310.4
 10
679.4
 20
310.9
 10
679.4
 20
330.9
 10
664.4
 20
330.9
 10
664.4
 20
354.9
 10
649.325
 20
354.9
  0
LWPOLYLINE
  5
B6
102
{ACAD_REACTORS
330
6B
102
}
100
AcDbEntity
  8
0
  6
CONTINUOUS
 62
     7
100
AcDbPolyline
 90
        2
 70
     1
 10
614.0
 20
252.5
 42
-1.0
 10
618.0
 20
252.5
 42
-1.0
  0
LWPOLYLINE
  5
B7
102
{ACAD_REACTORS
330
6B
102
}
100
AcDbEntity
  8
0
  6
CONTINUOUS
 62
     7
100
AcDbPolyline
 90
        2
 70
     1
 10
110.0
 20
252.5
 42
-1.0
 10
114.0
 20
252.5
 42
-1.0
  0
LWPOLYLINE
  5
B9
102
{ACAD_REACTORS
330
B8
102
}
100
AcDbEntity
  8
0
  6
CONTINUOUS
 62
     7
100
AcDbPolyline
 90
       15
 70
     1
 10
852.5
 20
380.2
 10
878.5
 20
380.2
 10
878.5
 20
494.9
 42
0.414209
 10
867.9
 20
505.5
 10
846.5
 20
505.5
 10
762.1
 20
505.5
 42
0.414209
 10
751.5
 20
494.9
 10
751.5
 20
380.2
 10
777.5
 20
380.2
 10
777.5
 20
356.7
 10
802.5
 20
356.7
 10
802.5
 20
380.2
 10
827.5
 20
380.2
 10
827.5
 20
356.7
 10
852.5
 20
356.7
  0
LWPOLYLINE
  5
BA
102
{ACAD_REACTORS
330
B8
102
}
100
AcDbEntity
  8
0
  6
CONTINUOUS
 62
     7
100
AcDbPolyline
 90
        2
 70
     1
 10
818.0
 20
480.5
 42
-1.0
 10
814.0
 20
480.5
 42
-1.0
  0
LWPOLYLINE
  5
BB
102
{ACAD_REACTORS
330
B8
102
}
100
AcDbEntity
  8
0
  6
CONTINUOUS
 62
     7
100
AcDbPolyline
 90
        2
 70
     1
 10
818.0
 20
405.5
 42
-1.0
 10
814.0
 20
405.5
 42
-1.0
  0
LWPOLYLINE
  5
BD
102
{ACAD_REACTORS
330
BC
102
}
100
AcDbEntity
  8
0
  6
CONTINUOUS
 62
     7
100
AcDbPolyline
 90
       15
 70
     1
 10
777.5
 20
300.8
 10
751.5
 20
300.8
 10
751.5
 20
186.1
 42
0.414209
 10
762.1
 20
175.5
 10
783.5
 20
175.5
 10
867.9
 20
175.5
 42
0.414209
 10
878.5
 20
186.1
 10
878.5
 20
300.8
 10
852.5
 20
300.8
 10
852.5
 20
324.3
 10
827.5
 20
324.3
 10
827.5
 20
300.8
 10
802.5
 20
300.8
 10
802.5
 20
324.3
 10
777.5
 20
324.3
  0
LWPOLYLINE
  5
BE
102
{ACAD_REACTORS
330
BC
102
}
100
AcDbEntity
  8
0
  6
CONTINUOUS
 62
     7
100
AcDbPolyline
 90
        2
 70
     1
 10
812.0
 20
200.5
 42
-1.0
 10
816.0
 20
200.5
 42
-1.0
  0
LWPOLYLINE
  5
BF
102
{ACAD_REACTORS
330
BC
102
}
100
AcDbEntity
  8
0
  6
CONTINUOUS
 62
     7
100
AcDbPolyline
 90
        2
 70
     1
 10
812.0
 20
275.5
 42
-1.0
 10
816.0
 20
275.5
 42
-1.0
  0
ENDSEC
  0
SECTION
  2
OBJECTS
  0
DICTIONARY
  5
C
100
AcDbDictionary
  3
ACAD_GROUP
350
D
  3
ACAD_MLINESTYLE
350
1B
  0
DICTIONARY
  5
D
102
{ACAD_REACTORS
330
C
102
}
100
AcDbDictionary
  3
VISIOGROUP_0
350
31
  3
VISIOGROUP_1
350
68
  3
VISIOGROUP_2
350
6B
  3
VISIOGROUP_3
350
B8
  3
VISIOGROUP_4
350
BC
  0
DICTIONARY
  5
1B
102
{ACAD_REACTORS
330
C
102
}
100
AcDbDictionary
  3
STANDARD
350
1C
  0
MLINESTYLE
  5
1C
102
{ACAD_REACTORS
330
1B
102
}
100
AcDbMlineStyle
  2
STANDARD
 70
     0
  3

 62
   256
 51
90.0
 52
90.0
 71
     2
 49
0.5
 62
   256
  6
BYLAYER
 49
-0.5
 62
   256
  6
BYLAYER
  0
GROUP
  5
31
102
{ACAD_REACTORS
330
D
102
}
100
AcDbGroup
300
Group created by Visio.
 70
     0
 71
     1
340
32
340
33
340
34
340
35
340
36
340
37
340
38
340
39
340
3A
340
3B
340
3C
340
3D
340
3E
340
3F
340
40
340
41
340
42
340
43
340
44
340
45
340
46
340
47
340
48
340
49
340
4A
340
4B
340
4C
340
4D
340
4E
340
4F
340
50
340
51
340
52
340
53
340
54
340
55
340
56
340
57
340
58
340
59
340
5A
340
5B
340
5C
340
5D
340
5E
340
5F
340
60
340
61
340
62
340
63
340
64
340
65
340
66
340
67
  0
GROUP
  5
68
102
{ACAD_REACTORS
330
D
102
}
100
AcDbGroup
300
Group created by Visio.
 70
     0
 71
     1
340
69
340
6A
  0
GROUP
  5
6B
102
{ACAD_REACTORS
330
D
102
}
100
AcDbGroup
300
Group created by Visio.
 70
     0
 71
     1
340
6C
340
6D
340
6E
340
6F
340
70
340
71
340
72
340
73
340
74
340
75
340
76
340
77
340
78
340
79
340
7A
340
7B
340
7C
340
7D
340
7E
340
7F
340
80
340
81
340
82
340
83
340
84
340
85
340
86
340
87
340
88
340
89
340
8A
340
8B
340
8C
340
8D
340
8E
340
8F
340
90
340
91
340
92
340
93
340
94
340
95
340
96
340
97
340
98
340
99
340
9A
340
9B
340
9C
340
9D
340
9E
340
9F
340
A0
340
A1
340
A2
340
A3
340
A4
340
A5
340
A6
340
A7
340
A8
340
A9
340
AA
340
AB
340
AC
340
AD
340
AE
340
AF
340
B0
340
B1
340
B2
340
B3
340
B4
340
B5
340
B6
340
B7
  0
GROUP
  5
B8
102
{ACAD_REACTORS
330
D
102
}
100
AcDbGroup
300
Group created by Visio.
 70
     0
 71
     1
340
B9
340
BA
340
BB
  0
GROUP
  5
BC
102
{ACAD_REACTORS
330
D
102
}
100
AcDbGroup
300
Group created by Visio.
 70
     0
 71
     1
340
BD
340
BE
340
BF
  0
ENDSEC
  0
EOF
