%
M48
M72
T01C0.01969
T02C0.02756
T03C0.03150
T04C0.03200
T05C0.03543
T06C0.03937
T07C0.12598
%
T01
X82525Y127484
X102210Y147661
X102210Y152583
X96305Y166362
X110576Y168823
X75143Y172268
T02
X127683Y32484
X127683Y24610
T03
X36265Y22169
X43647Y22169
X51029Y44807
X36265Y67937
T04
X46521Y60319
X56521Y60319
X56521Y90319
X46521Y90319
X55537Y118114
X55537Y128114
X55537Y138114
X55537Y148114
X55537Y158114
X55537Y168114
X55537Y178114
X45537Y173114
X45537Y163114
X45537Y153114
X45537Y143114
X45537Y133114
X45537Y123114
X116403Y123114
X116403Y133114
X116403Y143114
X116403Y153114
X116403Y163114
X116403Y173114
X116403Y183114
X126403Y178114
X126403Y168114
X126403Y158114
X126403Y148114
X126403Y138114
X126403Y128114
X126403Y118114
X45537Y183114
T05
X108942Y75811
X128942Y75811
T06
X111127Y8626
X111127Y48626
T07
X85970Y95496
M30
