G75*
%MOIN*%
%OFA0B0*%
%FSLAX25Y25*%
%IPPOS*%
%LPD*%
%AMOC8*
5,1,8,0,0,1.08239X$1,22.5*
%
%ADD10C,0.00000*%
%ADD11C,0.12998*%
%ADD12C,0.08200*%
%ADD13C,0.06699*%
%ADD14C,0.05600*%
%ADD15C,0.05600*%
%ADD16C,0.08000*%
%ADD17R,0.08000X0.08000*%
D10*
X0030852Y0001008D02*
X0030852Y0197858D01*
X0141088Y0197858D01*
X0141088Y0001008D01*
X0030852Y0001008D01*
X0079671Y0095496D02*
X0079673Y0095654D01*
X0079679Y0095812D01*
X0079689Y0095970D01*
X0079703Y0096128D01*
X0079721Y0096285D01*
X0079742Y0096442D01*
X0079768Y0096598D01*
X0079798Y0096754D01*
X0079831Y0096909D01*
X0079869Y0097062D01*
X0079910Y0097215D01*
X0079955Y0097367D01*
X0080004Y0097518D01*
X0080057Y0097667D01*
X0080113Y0097815D01*
X0080173Y0097961D01*
X0080237Y0098106D01*
X0080305Y0098249D01*
X0080376Y0098391D01*
X0080450Y0098531D01*
X0080528Y0098668D01*
X0080610Y0098804D01*
X0080694Y0098938D01*
X0080783Y0099069D01*
X0080874Y0099198D01*
X0080969Y0099325D01*
X0081066Y0099450D01*
X0081167Y0099572D01*
X0081271Y0099691D01*
X0081378Y0099808D01*
X0081488Y0099922D01*
X0081601Y0100033D01*
X0081716Y0100142D01*
X0081834Y0100247D01*
X0081955Y0100349D01*
X0082078Y0100449D01*
X0082204Y0100545D01*
X0082332Y0100638D01*
X0082462Y0100728D01*
X0082595Y0100814D01*
X0082730Y0100898D01*
X0082866Y0100977D01*
X0083005Y0101054D01*
X0083146Y0101126D01*
X0083288Y0101196D01*
X0083432Y0101261D01*
X0083578Y0101323D01*
X0083725Y0101381D01*
X0083874Y0101436D01*
X0084024Y0101487D01*
X0084175Y0101534D01*
X0084327Y0101577D01*
X0084480Y0101616D01*
X0084635Y0101652D01*
X0084790Y0101683D01*
X0084946Y0101711D01*
X0085102Y0101735D01*
X0085259Y0101755D01*
X0085417Y0101771D01*
X0085574Y0101783D01*
X0085733Y0101791D01*
X0085891Y0101795D01*
X0086049Y0101795D01*
X0086207Y0101791D01*
X0086366Y0101783D01*
X0086523Y0101771D01*
X0086681Y0101755D01*
X0086838Y0101735D01*
X0086994Y0101711D01*
X0087150Y0101683D01*
X0087305Y0101652D01*
X0087460Y0101616D01*
X0087613Y0101577D01*
X0087765Y0101534D01*
X0087916Y0101487D01*
X0088066Y0101436D01*
X0088215Y0101381D01*
X0088362Y0101323D01*
X0088508Y0101261D01*
X0088652Y0101196D01*
X0088794Y0101126D01*
X0088935Y0101054D01*
X0089074Y0100977D01*
X0089210Y0100898D01*
X0089345Y0100814D01*
X0089478Y0100728D01*
X0089608Y0100638D01*
X0089736Y0100545D01*
X0089862Y0100449D01*
X0089985Y0100349D01*
X0090106Y0100247D01*
X0090224Y0100142D01*
X0090339Y0100033D01*
X0090452Y0099922D01*
X0090562Y0099808D01*
X0090669Y0099691D01*
X0090773Y0099572D01*
X0090874Y0099450D01*
X0090971Y0099325D01*
X0091066Y0099198D01*
X0091157Y0099069D01*
X0091246Y0098938D01*
X0091330Y0098804D01*
X0091412Y0098668D01*
X0091490Y0098531D01*
X0091564Y0098391D01*
X0091635Y0098249D01*
X0091703Y0098106D01*
X0091767Y0097961D01*
X0091827Y0097815D01*
X0091883Y0097667D01*
X0091936Y0097518D01*
X0091985Y0097367D01*
X0092030Y0097215D01*
X0092071Y0097062D01*
X0092109Y0096909D01*
X0092142Y0096754D01*
X0092172Y0096598D01*
X0092198Y0096442D01*
X0092219Y0096285D01*
X0092237Y0096128D01*
X0092251Y0095970D01*
X0092261Y0095812D01*
X0092267Y0095654D01*
X0092269Y0095496D01*
X0092267Y0095338D01*
X0092261Y0095180D01*
X0092251Y0095022D01*
X0092237Y0094864D01*
X0092219Y0094707D01*
X0092198Y0094550D01*
X0092172Y0094394D01*
X0092142Y0094238D01*
X0092109Y0094083D01*
X0092071Y0093930D01*
X0092030Y0093777D01*
X0091985Y0093625D01*
X0091936Y0093474D01*
X0091883Y0093325D01*
X0091827Y0093177D01*
X0091767Y0093031D01*
X0091703Y0092886D01*
X0091635Y0092743D01*
X0091564Y0092601D01*
X0091490Y0092461D01*
X0091412Y0092324D01*
X0091330Y0092188D01*
X0091246Y0092054D01*
X0091157Y0091923D01*
X0091066Y0091794D01*
X0090971Y0091667D01*
X0090874Y0091542D01*
X0090773Y0091420D01*
X0090669Y0091301D01*
X0090562Y0091184D01*
X0090452Y0091070D01*
X0090339Y0090959D01*
X0090224Y0090850D01*
X0090106Y0090745D01*
X0089985Y0090643D01*
X0089862Y0090543D01*
X0089736Y0090447D01*
X0089608Y0090354D01*
X0089478Y0090264D01*
X0089345Y0090178D01*
X0089210Y0090094D01*
X0089074Y0090015D01*
X0088935Y0089938D01*
X0088794Y0089866D01*
X0088652Y0089796D01*
X0088508Y0089731D01*
X0088362Y0089669D01*
X0088215Y0089611D01*
X0088066Y0089556D01*
X0087916Y0089505D01*
X0087765Y0089458D01*
X0087613Y0089415D01*
X0087460Y0089376D01*
X0087305Y0089340D01*
X0087150Y0089309D01*
X0086994Y0089281D01*
X0086838Y0089257D01*
X0086681Y0089237D01*
X0086523Y0089221D01*
X0086366Y0089209D01*
X0086207Y0089201D01*
X0086049Y0089197D01*
X0085891Y0089197D01*
X0085733Y0089201D01*
X0085574Y0089209D01*
X0085417Y0089221D01*
X0085259Y0089237D01*
X0085102Y0089257D01*
X0084946Y0089281D01*
X0084790Y0089309D01*
X0084635Y0089340D01*
X0084480Y0089376D01*
X0084327Y0089415D01*
X0084175Y0089458D01*
X0084024Y0089505D01*
X0083874Y0089556D01*
X0083725Y0089611D01*
X0083578Y0089669D01*
X0083432Y0089731D01*
X0083288Y0089796D01*
X0083146Y0089866D01*
X0083005Y0089938D01*
X0082866Y0090015D01*
X0082730Y0090094D01*
X0082595Y0090178D01*
X0082462Y0090264D01*
X0082332Y0090354D01*
X0082204Y0090447D01*
X0082078Y0090543D01*
X0081955Y0090643D01*
X0081834Y0090745D01*
X0081716Y0090850D01*
X0081601Y0090959D01*
X0081488Y0091070D01*
X0081378Y0091184D01*
X0081271Y0091301D01*
X0081167Y0091420D01*
X0081066Y0091542D01*
X0080969Y0091667D01*
X0080874Y0091794D01*
X0080783Y0091923D01*
X0080694Y0092054D01*
X0080610Y0092188D01*
X0080528Y0092324D01*
X0080450Y0092461D01*
X0080376Y0092601D01*
X0080305Y0092743D01*
X0080237Y0092886D01*
X0080173Y0093031D01*
X0080113Y0093177D01*
X0080057Y0093325D01*
X0080004Y0093474D01*
X0079955Y0093625D01*
X0079910Y0093777D01*
X0079869Y0093930D01*
X0079831Y0094083D01*
X0079798Y0094238D01*
X0079768Y0094394D01*
X0079742Y0094550D01*
X0079721Y0094707D01*
X0079703Y0094864D01*
X0079689Y0095022D01*
X0079679Y0095180D01*
X0079673Y0095338D01*
X0079671Y0095496D01*
D11*
X0085970Y0095496D03*
D12*
X0111127Y0048626D03*
X0111127Y0008626D03*
D13*
X0127683Y0024610D03*
X0127683Y0032484D03*
D14*
X0126403Y0118114D03*
X0126403Y0128114D03*
X0126403Y0138114D03*
X0126403Y0148114D03*
X0126403Y0158114D03*
X0126403Y0168114D03*
X0126403Y0178114D03*
X0116403Y0173114D03*
X0116403Y0163114D03*
X0116403Y0153114D03*
X0116403Y0143114D03*
X0116403Y0133114D03*
X0116403Y0123114D03*
X0116403Y0183114D03*
X0055537Y0178114D03*
X0055537Y0168114D03*
X0055537Y0158114D03*
X0055537Y0148114D03*
X0055537Y0138114D03*
X0055537Y0128114D03*
X0055537Y0118114D03*
X0045537Y0123114D03*
X0045537Y0133114D03*
X0045537Y0143114D03*
X0045537Y0153114D03*
X0045537Y0163114D03*
X0045537Y0173114D03*
X0045537Y0183114D03*
D15*
X0046521Y0095519D02*
X0046521Y0090319D01*
X0056521Y0090319D02*
X0056521Y0095519D01*
X0056521Y0060319D02*
X0056521Y0055119D01*
X0046521Y0055119D02*
X0046521Y0060319D01*
D16*
X0128942Y0075811D03*
D17*
X0108942Y0075811D03*
M02*
