G75*
%MOIN*%
%OFA0B0*%
%FSLAX25Y25*%
%IPPOS*%
%LPD*%
%AMOC8*
5,1,8,0,0,1.08239X$1,22.5*
%
%ADD10C,0.00000*%
%ADD11C,0.07800*%
%ADD12C,0.06299*%
%ADD13C,0.05200*%
%ADD14C,0.05200*%
%ADD15C,0.07600*%
%ADD16R,0.07600X0.07600*%
%ADD17C,0.01000*%
%ADD18C,0.03169*%
%ADD19C,0.04724*%
D10*
X0030852Y0001008D02*
X0030852Y0197858D01*
X0141088Y0197858D01*
X0141088Y0001008D01*
X0030852Y0001008D01*
X0079671Y0095496D02*
X0079673Y0095654D01*
X0079679Y0095812D01*
X0079689Y0095970D01*
X0079703Y0096128D01*
X0079721Y0096285D01*
X0079742Y0096442D01*
X0079768Y0096598D01*
X0079798Y0096754D01*
X0079831Y0096909D01*
X0079869Y0097062D01*
X0079910Y0097215D01*
X0079955Y0097367D01*
X0080004Y0097518D01*
X0080057Y0097667D01*
X0080113Y0097815D01*
X0080173Y0097961D01*
X0080237Y0098106D01*
X0080305Y0098249D01*
X0080376Y0098391D01*
X0080450Y0098531D01*
X0080528Y0098668D01*
X0080610Y0098804D01*
X0080694Y0098938D01*
X0080783Y0099069D01*
X0080874Y0099198D01*
X0080969Y0099325D01*
X0081066Y0099450D01*
X0081167Y0099572D01*
X0081271Y0099691D01*
X0081378Y0099808D01*
X0081488Y0099922D01*
X0081601Y0100033D01*
X0081716Y0100142D01*
X0081834Y0100247D01*
X0081955Y0100349D01*
X0082078Y0100449D01*
X0082204Y0100545D01*
X0082332Y0100638D01*
X0082462Y0100728D01*
X0082595Y0100814D01*
X0082730Y0100898D01*
X0082866Y0100977D01*
X0083005Y0101054D01*
X0083146Y0101126D01*
X0083288Y0101196D01*
X0083432Y0101261D01*
X0083578Y0101323D01*
X0083725Y0101381D01*
X0083874Y0101436D01*
X0084024Y0101487D01*
X0084175Y0101534D01*
X0084327Y0101577D01*
X0084480Y0101616D01*
X0084635Y0101652D01*
X0084790Y0101683D01*
X0084946Y0101711D01*
X0085102Y0101735D01*
X0085259Y0101755D01*
X0085417Y0101771D01*
X0085574Y0101783D01*
X0085733Y0101791D01*
X0085891Y0101795D01*
X0086049Y0101795D01*
X0086207Y0101791D01*
X0086366Y0101783D01*
X0086523Y0101771D01*
X0086681Y0101755D01*
X0086838Y0101735D01*
X0086994Y0101711D01*
X0087150Y0101683D01*
X0087305Y0101652D01*
X0087460Y0101616D01*
X0087613Y0101577D01*
X0087765Y0101534D01*
X0087916Y0101487D01*
X0088066Y0101436D01*
X0088215Y0101381D01*
X0088362Y0101323D01*
X0088508Y0101261D01*
X0088652Y0101196D01*
X0088794Y0101126D01*
X0088935Y0101054D01*
X0089074Y0100977D01*
X0089210Y0100898D01*
X0089345Y0100814D01*
X0089478Y0100728D01*
X0089608Y0100638D01*
X0089736Y0100545D01*
X0089862Y0100449D01*
X0089985Y0100349D01*
X0090106Y0100247D01*
X0090224Y0100142D01*
X0090339Y0100033D01*
X0090452Y0099922D01*
X0090562Y0099808D01*
X0090669Y0099691D01*
X0090773Y0099572D01*
X0090874Y0099450D01*
X0090971Y0099325D01*
X0091066Y0099198D01*
X0091157Y0099069D01*
X0091246Y0098938D01*
X0091330Y0098804D01*
X0091412Y0098668D01*
X0091490Y0098531D01*
X0091564Y0098391D01*
X0091635Y0098249D01*
X0091703Y0098106D01*
X0091767Y0097961D01*
X0091827Y0097815D01*
X0091883Y0097667D01*
X0091936Y0097518D01*
X0091985Y0097367D01*
X0092030Y0097215D01*
X0092071Y0097062D01*
X0092109Y0096909D01*
X0092142Y0096754D01*
X0092172Y0096598D01*
X0092198Y0096442D01*
X0092219Y0096285D01*
X0092237Y0096128D01*
X0092251Y0095970D01*
X0092261Y0095812D01*
X0092267Y0095654D01*
X0092269Y0095496D01*
X0092267Y0095338D01*
X0092261Y0095180D01*
X0092251Y0095022D01*
X0092237Y0094864D01*
X0092219Y0094707D01*
X0092198Y0094550D01*
X0092172Y0094394D01*
X0092142Y0094238D01*
X0092109Y0094083D01*
X0092071Y0093930D01*
X0092030Y0093777D01*
X0091985Y0093625D01*
X0091936Y0093474D01*
X0091883Y0093325D01*
X0091827Y0093177D01*
X0091767Y0093031D01*
X0091703Y0092886D01*
X0091635Y0092743D01*
X0091564Y0092601D01*
X0091490Y0092461D01*
X0091412Y0092324D01*
X0091330Y0092188D01*
X0091246Y0092054D01*
X0091157Y0091923D01*
X0091066Y0091794D01*
X0090971Y0091667D01*
X0090874Y0091542D01*
X0090773Y0091420D01*
X0090669Y0091301D01*
X0090562Y0091184D01*
X0090452Y0091070D01*
X0090339Y0090959D01*
X0090224Y0090850D01*
X0090106Y0090745D01*
X0089985Y0090643D01*
X0089862Y0090543D01*
X0089736Y0090447D01*
X0089608Y0090354D01*
X0089478Y0090264D01*
X0089345Y0090178D01*
X0089210Y0090094D01*
X0089074Y0090015D01*
X0088935Y0089938D01*
X0088794Y0089866D01*
X0088652Y0089796D01*
X0088508Y0089731D01*
X0088362Y0089669D01*
X0088215Y0089611D01*
X0088066Y0089556D01*
X0087916Y0089505D01*
X0087765Y0089458D01*
X0087613Y0089415D01*
X0087460Y0089376D01*
X0087305Y0089340D01*
X0087150Y0089309D01*
X0086994Y0089281D01*
X0086838Y0089257D01*
X0086681Y0089237D01*
X0086523Y0089221D01*
X0086366Y0089209D01*
X0086207Y0089201D01*
X0086049Y0089197D01*
X0085891Y0089197D01*
X0085733Y0089201D01*
X0085574Y0089209D01*
X0085417Y0089221D01*
X0085259Y0089237D01*
X0085102Y0089257D01*
X0084946Y0089281D01*
X0084790Y0089309D01*
X0084635Y0089340D01*
X0084480Y0089376D01*
X0084327Y0089415D01*
X0084175Y0089458D01*
X0084024Y0089505D01*
X0083874Y0089556D01*
X0083725Y0089611D01*
X0083578Y0089669D01*
X0083432Y0089731D01*
X0083288Y0089796D01*
X0083146Y0089866D01*
X0083005Y0089938D01*
X0082866Y0090015D01*
X0082730Y0090094D01*
X0082595Y0090178D01*
X0082462Y0090264D01*
X0082332Y0090354D01*
X0082204Y0090447D01*
X0082078Y0090543D01*
X0081955Y0090643D01*
X0081834Y0090745D01*
X0081716Y0090850D01*
X0081601Y0090959D01*
X0081488Y0091070D01*
X0081378Y0091184D01*
X0081271Y0091301D01*
X0081167Y0091420D01*
X0081066Y0091542D01*
X0080969Y0091667D01*
X0080874Y0091794D01*
X0080783Y0091923D01*
X0080694Y0092054D01*
X0080610Y0092188D01*
X0080528Y0092324D01*
X0080450Y0092461D01*
X0080376Y0092601D01*
X0080305Y0092743D01*
X0080237Y0092886D01*
X0080173Y0093031D01*
X0080113Y0093177D01*
X0080057Y0093325D01*
X0080004Y0093474D01*
X0079955Y0093625D01*
X0079910Y0093777D01*
X0079869Y0093930D01*
X0079831Y0094083D01*
X0079798Y0094238D01*
X0079768Y0094394D01*
X0079742Y0094550D01*
X0079721Y0094707D01*
X0079703Y0094864D01*
X0079689Y0095022D01*
X0079679Y0095180D01*
X0079673Y0095338D01*
X0079671Y0095496D01*
D11*
X0111127Y0048626D03*
X0111127Y0008626D03*
D12*
X0127683Y0024610D03*
X0127683Y0032484D03*
D13*
X0126403Y0118114D03*
X0126403Y0128114D03*
X0126403Y0138114D03*
X0126403Y0148114D03*
X0126403Y0158114D03*
X0126403Y0168114D03*
X0126403Y0178114D03*
X0116403Y0173114D03*
X0116403Y0163114D03*
X0116403Y0153114D03*
X0116403Y0143114D03*
X0116403Y0133114D03*
X0116403Y0123114D03*
X0116403Y0183114D03*
X0055537Y0178114D03*
X0055537Y0168114D03*
X0055537Y0158114D03*
X0055537Y0148114D03*
X0055537Y0138114D03*
X0055537Y0128114D03*
X0055537Y0118114D03*
X0045537Y0123114D03*
X0045537Y0133114D03*
X0045537Y0143114D03*
X0045537Y0153114D03*
X0045537Y0163114D03*
X0045537Y0173114D03*
X0045537Y0183114D03*
D14*
X0046521Y0095519D02*
X0046521Y0090319D01*
X0056521Y0090319D02*
X0056521Y0095519D01*
X0056521Y0060319D02*
X0056521Y0055119D01*
X0046521Y0055119D02*
X0046521Y0060319D01*
D15*
X0128942Y0075811D03*
D16*
X0108942Y0075811D03*
D17*
X0103042Y0075408D02*
X0032952Y0075408D01*
X0032952Y0073008D02*
X0103042Y0073008D01*
X0103042Y0071141D02*
X0104273Y0069911D01*
X0113612Y0069911D01*
X0114842Y0071141D01*
X0114842Y0080481D01*
X0113612Y0081711D01*
X0104273Y0081711D01*
X0103042Y0080481D01*
X0103042Y0071141D01*
X0103576Y0070608D02*
X0039056Y0070608D01*
X0039265Y0070399D02*
X0038727Y0070937D01*
X0038095Y0071360D01*
X0037392Y0071651D01*
X0036646Y0071799D01*
X0036553Y0071799D01*
X0036553Y0068224D01*
X0040127Y0068224D01*
X0040127Y0068317D01*
X0039979Y0069064D01*
X0039688Y0069766D01*
X0039265Y0070399D01*
X0038052Y0071377D02*
X0038052Y0146677D01*
X0037742Y0146677D02*
X0043499Y0146677D01*
X0043388Y0146621D01*
X0042866Y0146241D01*
X0042410Y0145785D01*
X0042030Y0145263D01*
X0041737Y0144688D01*
X0041538Y0144074D01*
X0041437Y0143437D01*
X0041437Y0143414D01*
X0045237Y0143414D01*
X0045237Y0142814D01*
X0045837Y0142814D01*
X0045837Y0139014D01*
X0045860Y0139014D01*
X0046497Y0139115D01*
X0047111Y0139315D01*
X0047686Y0139608D01*
X0048208Y0139987D01*
X0048664Y0140443D01*
X0049044Y0140965D01*
X0049337Y0141540D01*
X0049536Y0142154D01*
X0049637Y0142791D01*
X0049637Y0142814D01*
X0045837Y0142814D01*
X0045837Y0143414D01*
X0049637Y0143414D01*
X0049637Y0143437D01*
X0049536Y0144074D01*
X0049337Y0144688D01*
X0049044Y0145263D01*
X0048664Y0145785D01*
X0048208Y0146241D01*
X0047686Y0146621D01*
X0047575Y0146677D01*
X0051045Y0146677D01*
X0051552Y0145452D01*
X0052875Y0144130D01*
X0054602Y0143414D01*
X0056472Y0143414D01*
X0058199Y0144130D01*
X0059521Y0145452D01*
X0060029Y0146677D01*
X0063824Y0146677D01*
X0063824Y0131913D01*
X0075143Y0118134D01*
X0107624Y0118134D01*
X0110084Y0120594D01*
X0110084Y0140280D01*
X0112313Y0142731D01*
X0112404Y0142154D01*
X0112603Y0141540D01*
X0112896Y0140965D01*
X0113276Y0140443D01*
X0113732Y0139987D01*
X0114254Y0139608D01*
X0114829Y0139315D01*
X0115443Y0139115D01*
X0116080Y0139014D01*
X0116103Y0139014D01*
X0116103Y0142814D01*
X0116703Y0142814D01*
X0116703Y0139014D01*
X0116726Y0139014D01*
X0117363Y0139115D01*
X0117977Y0139315D01*
X0118552Y0139608D01*
X0119074Y0139987D01*
X0119530Y0140443D01*
X0119910Y0140965D01*
X0120203Y0141540D01*
X0120402Y0142154D01*
X0120503Y0142791D01*
X0120503Y0142814D01*
X0116703Y0142814D01*
X0116703Y0143414D01*
X0120503Y0143414D01*
X0120503Y0143437D01*
X0120402Y0144074D01*
X0120203Y0144688D01*
X0119910Y0145263D01*
X0119597Y0145693D01*
X0122319Y0145693D01*
X0122419Y0145452D01*
X0123741Y0144130D01*
X0125468Y0143414D01*
X0127338Y0143414D01*
X0129065Y0144130D01*
X0130388Y0145452D01*
X0130487Y0145693D01*
X0134690Y0145693D01*
X0138988Y0141395D01*
X0138988Y0003337D01*
X0138759Y0003108D01*
X0113484Y0003108D01*
X0114526Y0003539D01*
X0116214Y0005227D01*
X0117127Y0007433D01*
X0117127Y0009819D01*
X0116214Y0012025D01*
X0114526Y0013713D01*
X0112321Y0014626D01*
X0109934Y0014626D01*
X0107729Y0013713D01*
X0106041Y0012025D01*
X0105127Y0009819D01*
X0105127Y0007433D01*
X0106041Y0005227D01*
X0107729Y0003539D01*
X0108771Y0003108D01*
X0032952Y0003108D01*
X0032952Y0020176D01*
X0033265Y0019707D01*
X0033803Y0019169D01*
X0034436Y0018747D01*
X0035139Y0018456D01*
X0035885Y0018307D01*
X0035978Y0018307D01*
X0035978Y0021882D01*
X0036553Y0021882D01*
X0036553Y0022457D01*
X0043360Y0022457D01*
X0043360Y0026031D01*
X0043267Y0026031D01*
X0042521Y0025883D01*
X0041818Y0025592D01*
X0041185Y0025169D01*
X0040647Y0024631D01*
X0040225Y0023999D01*
X0039956Y0023351D01*
X0039688Y0023999D01*
X0039265Y0024631D01*
X0038727Y0025169D01*
X0038095Y0025592D01*
X0037392Y0025883D01*
X0036646Y0026031D01*
X0036553Y0026031D01*
X0036553Y0022457D01*
X0035978Y0022457D01*
X0035978Y0026031D01*
X0035885Y0026031D01*
X0035139Y0025883D01*
X0034436Y0025592D01*
X0033803Y0025169D01*
X0033265Y0024631D01*
X0032952Y0024162D01*
X0032952Y0065944D01*
X0033265Y0065475D01*
X0033803Y0064937D01*
X0034436Y0064514D01*
X0035139Y0064223D01*
X0035885Y0064075D01*
X0035978Y0064075D01*
X0035978Y0067650D01*
X0036553Y0067650D01*
X0036553Y0068224D01*
X0035978Y0068224D01*
X0035978Y0071799D01*
X0035885Y0071799D01*
X0035139Y0071651D01*
X0034436Y0071360D01*
X0033803Y0070937D01*
X0033265Y0070399D01*
X0032952Y0069930D01*
X0032952Y0141887D01*
X0037742Y0146677D01*
X0036072Y0145008D02*
X0041900Y0145008D01*
X0042852Y0146227D02*
X0042852Y0146677D01*
X0040452Y0146677D02*
X0040452Y0024339D01*
X0041024Y0025008D02*
X0038889Y0025008D01*
X0038052Y0025610D02*
X0038052Y0064497D01*
X0038095Y0064514D02*
X0038727Y0064937D01*
X0039265Y0065475D01*
X0039688Y0066108D01*
X0039979Y0066810D01*
X0040127Y0067557D01*
X0040127Y0067650D01*
X0036553Y0067650D01*
X0036553Y0064075D01*
X0036646Y0064075D01*
X0037392Y0064223D01*
X0038095Y0064514D01*
X0039488Y0065808D02*
X0138988Y0065808D01*
X0138988Y0068208D02*
X0036553Y0068208D01*
X0038052Y0068224D02*
X0038052Y0067650D01*
X0036553Y0065808D02*
X0035978Y0065808D01*
X0035652Y0064121D02*
X0035652Y0025985D01*
X0035978Y0025008D02*
X0036553Y0025008D01*
X0036553Y0022608D02*
X0035978Y0022608D01*
X0036553Y0021882D02*
X0039785Y0021882D01*
X0043360Y0021882D01*
X0043935Y0021882D01*
X0043935Y0022457D01*
X0047509Y0022457D01*
X0047509Y0022550D01*
X0047361Y0023296D01*
X0047070Y0023999D01*
X0046647Y0024631D01*
X0046109Y0025169D01*
X0045477Y0025592D01*
X0044774Y0025883D01*
X0044028Y0026031D01*
X0043935Y0026031D01*
X0043935Y0022457D01*
X0043360Y0022457D01*
X0043360Y0021882D01*
X0043360Y0018307D01*
X0043267Y0018307D01*
X0042521Y0018456D01*
X0041818Y0018747D01*
X0041185Y0019169D01*
X0040647Y0019707D01*
X0040225Y0020340D01*
X0039956Y0020988D01*
X0039688Y0020340D01*
X0039265Y0019707D01*
X0038727Y0019169D01*
X0038095Y0018747D01*
X0037392Y0018456D01*
X0036646Y0018307D01*
X0036553Y0018307D01*
X0036553Y0021882D01*
X0038052Y0021882D02*
X0038052Y0022457D01*
X0040452Y0022457D02*
X0040452Y0021882D01*
X0040313Y0020208D02*
X0039600Y0020208D01*
X0040452Y0020000D02*
X0040452Y0003108D01*
X0042852Y0003108D02*
X0042852Y0018390D01*
X0043935Y0018307D02*
X0044028Y0018307D01*
X0044774Y0018456D01*
X0045477Y0018747D01*
X0046109Y0019169D01*
X0046647Y0019707D01*
X0047070Y0020340D01*
X0047361Y0021043D01*
X0047509Y0021789D01*
X0047509Y0021882D01*
X0043935Y0021882D01*
X0043935Y0018307D01*
X0045252Y0018654D02*
X0045252Y0003108D01*
X0047652Y0003108D02*
X0047652Y0042910D01*
X0047606Y0042978D02*
X0048029Y0042345D01*
X0048567Y0041807D01*
X0049200Y0041384D01*
X0049902Y0041093D01*
X0050649Y0040945D01*
X0050742Y0040945D01*
X0050742Y0044520D01*
X0051316Y0044520D01*
X0051316Y0040945D01*
X0051409Y0040945D01*
X0052156Y0041093D01*
X0052859Y0041384D01*
X0053491Y0041807D01*
X0054029Y0042345D01*
X0054452Y0042978D01*
X0054743Y0043681D01*
X0054891Y0044427D01*
X0054891Y0044520D01*
X0051317Y0044520D01*
X0051317Y0045094D01*
X0054891Y0045094D01*
X0054891Y0045187D01*
X0054743Y0045934D01*
X0054452Y0046637D01*
X0054029Y0047269D01*
X0053491Y0047807D01*
X0052859Y0048230D01*
X0052156Y0048521D01*
X0051409Y0048669D01*
X0051316Y0048669D01*
X0051316Y0045095D01*
X0050742Y0045095D01*
X0050742Y0048669D01*
X0050649Y0048669D01*
X0049902Y0048521D01*
X0049200Y0048230D01*
X0048567Y0047807D01*
X0048029Y0047269D01*
X0047606Y0046637D01*
X0047315Y0045934D01*
X0047167Y0045187D01*
X0047167Y0045094D01*
X0050742Y0045094D01*
X0050742Y0044520D01*
X0047167Y0044520D01*
X0047167Y0044427D01*
X0047315Y0043681D01*
X0047606Y0042978D01*
X0047210Y0044208D02*
X0032952Y0044208D01*
X0032952Y0046608D02*
X0047595Y0046608D01*
X0047652Y0046705D02*
X0047652Y0050500D01*
X0047456Y0050419D02*
X0049184Y0051134D01*
X0050506Y0052457D01*
X0051221Y0054184D01*
X0051221Y0061254D01*
X0050506Y0062981D01*
X0049184Y0064303D01*
X0047456Y0065019D01*
X0045586Y0065019D01*
X0043859Y0064303D01*
X0042537Y0062981D01*
X0041821Y0061254D01*
X0041821Y0054184D01*
X0042537Y0052457D01*
X0043859Y0051134D01*
X0045586Y0050419D01*
X0047456Y0050419D01*
X0049457Y0051408D02*
X0053585Y0051408D01*
X0053859Y0051134D02*
X0055586Y0050419D01*
X0057456Y0050419D01*
X0059184Y0051134D01*
X0060506Y0052457D01*
X0061221Y0054184D01*
X0061221Y0061254D01*
X0060506Y0062981D01*
X0059184Y0064303D01*
X0057456Y0065019D01*
X0055586Y0065019D01*
X0053859Y0064303D01*
X0052537Y0062981D01*
X0051821Y0061254D01*
X0051821Y0054184D01*
X0052537Y0052457D01*
X0053859Y0051134D01*
X0054852Y0050723D02*
X0054852Y0045385D01*
X0054852Y0045094D02*
X0054852Y0044520D01*
X0054852Y0044229D02*
X0054852Y0003108D01*
X0052452Y0003108D02*
X0052452Y0041216D01*
X0053492Y0041808D02*
X0138988Y0041808D01*
X0138988Y0044208D02*
X0115195Y0044208D01*
X0114852Y0043865D02*
X0114852Y0013387D01*
X0115231Y0013008D02*
X0138988Y0013008D01*
X0138988Y0015408D02*
X0032952Y0015408D01*
X0032952Y0017808D02*
X0138988Y0017808D01*
X0138988Y0020208D02*
X0130704Y0020208D01*
X0130656Y0020160D02*
X0132133Y0021637D01*
X0132932Y0023566D01*
X0132932Y0025654D01*
X0132133Y0027584D01*
X0131170Y0028547D01*
X0132133Y0029511D01*
X0132932Y0031440D01*
X0132932Y0033528D01*
X0132133Y0035458D01*
X0130656Y0036935D01*
X0128727Y0037734D01*
X0126638Y0037734D01*
X0124709Y0036935D01*
X0123232Y0035458D01*
X0122433Y0033528D01*
X0122433Y0031440D01*
X0123232Y0029511D01*
X0124196Y0028547D01*
X0123232Y0027584D01*
X0122433Y0025654D01*
X0122433Y0023566D01*
X0123232Y0021637D01*
X0124709Y0020160D01*
X0126638Y0019361D01*
X0128727Y0019361D01*
X0130656Y0020160D01*
X0131652Y0021155D02*
X0131652Y0003108D01*
X0134052Y0003108D02*
X0134052Y0074385D01*
X0134112Y0074570D02*
X0134242Y0075394D01*
X0134242Y0075425D01*
X0129328Y0075425D01*
X0129328Y0070511D01*
X0129360Y0070511D01*
X0130184Y0070642D01*
X0130977Y0070899D01*
X0131720Y0071278D01*
X0132395Y0071768D01*
X0132985Y0072358D01*
X0133475Y0073033D01*
X0133854Y0073777D01*
X0134112Y0074570D01*
X0134242Y0075408D02*
X0138988Y0075408D01*
X0138988Y0073008D02*
X0133457Y0073008D01*
X0134052Y0075425D02*
X0134052Y0076197D01*
X0134242Y0076197D02*
X0134242Y0076228D01*
X0134112Y0077052D01*
X0133854Y0077846D01*
X0133475Y0078589D01*
X0132985Y0079264D01*
X0132395Y0079854D01*
X0131720Y0080344D01*
X0130977Y0080723D01*
X0130184Y0080981D01*
X0129360Y0081111D01*
X0129328Y0081111D01*
X0129328Y0076197D01*
X0128557Y0076197D01*
X0128557Y0081111D01*
X0128525Y0081111D01*
X0127701Y0080981D01*
X0126908Y0080723D01*
X0126165Y0080344D01*
X0125490Y0079854D01*
X0124900Y0079264D01*
X0124409Y0078589D01*
X0124031Y0077846D01*
X0123773Y0077052D01*
X0123642Y0076228D01*
X0123642Y0076197D01*
X0128557Y0076197D01*
X0128557Y0075425D01*
X0129328Y0075425D01*
X0129328Y0076197D01*
X0134242Y0076197D01*
X0134052Y0077237D02*
X0134052Y0145693D01*
X0135376Y0145008D02*
X0129944Y0145008D01*
X0129252Y0144316D02*
X0129252Y0141064D01*
X0129074Y0141241D02*
X0128552Y0141621D01*
X0127977Y0141914D01*
X0127363Y0142113D01*
X0126726Y0142214D01*
X0126703Y0142214D01*
X0126703Y0138414D01*
X0130503Y0138414D01*
X0130503Y0138437D01*
X0130402Y0139074D01*
X0130203Y0139688D01*
X0129910Y0140263D01*
X0129530Y0140785D01*
X0129074Y0141241D01*
X0129938Y0140208D02*
X0138988Y0140208D01*
X0138852Y0141531D02*
X0138852Y0003201D01*
X0138988Y0003408D02*
X0114209Y0003408D01*
X0114852Y0003108D02*
X0114852Y0003865D01*
X0117252Y0003108D02*
X0117252Y0118414D01*
X0117338Y0118414D02*
X0119065Y0119130D01*
X0120388Y0120452D01*
X0121103Y0122179D01*
X0121103Y0124049D01*
X0120388Y0125777D01*
X0119065Y0127099D01*
X0117338Y0127814D01*
X0115468Y0127814D01*
X0113741Y0127099D01*
X0112419Y0125777D01*
X0111703Y0124049D01*
X0111703Y0122179D01*
X0112419Y0120452D01*
X0113741Y0119130D01*
X0115468Y0118414D01*
X0117338Y0118414D01*
X0117806Y0118608D02*
X0121703Y0118608D01*
X0121703Y0119049D02*
X0121703Y0117179D01*
X0122419Y0115452D01*
X0123741Y0114130D01*
X0125468Y0113414D01*
X0127338Y0113414D01*
X0129065Y0114130D01*
X0130388Y0115452D01*
X0131103Y0117179D01*
X0131103Y0119049D01*
X0130388Y0120777D01*
X0129065Y0122099D01*
X0127338Y0122814D01*
X0125468Y0122814D01*
X0123741Y0122099D01*
X0122419Y0120777D01*
X0121703Y0119049D01*
X0122052Y0119891D02*
X0122052Y0126337D01*
X0122271Y0125808D02*
X0120356Y0125808D01*
X0119652Y0126512D02*
X0119652Y0130610D01*
X0119650Y0130608D02*
X0122349Y0130608D01*
X0122419Y0130777D02*
X0121703Y0129049D01*
X0121703Y0127179D01*
X0122419Y0125452D01*
X0123741Y0124130D01*
X0125468Y0123414D01*
X0127338Y0123414D01*
X0129065Y0124130D01*
X0130388Y0125452D01*
X0131103Y0127179D01*
X0131103Y0129049D01*
X0130388Y0130777D01*
X0129065Y0132099D01*
X0127338Y0132814D01*
X0125468Y0132814D01*
X0123741Y0132099D01*
X0122419Y0130777D01*
X0122052Y0129891D02*
X0122052Y0145693D01*
X0122863Y0145008D02*
X0120040Y0145008D01*
X0119652Y0145618D02*
X0119652Y0145693D01*
X0119652Y0143414D02*
X0119652Y0142814D01*
X0120474Y0142608D02*
X0137776Y0142608D01*
X0136452Y0143931D02*
X0136452Y0003108D01*
X0138988Y0005808D02*
X0116455Y0005808D01*
X0117127Y0008208D02*
X0138988Y0008208D01*
X0138988Y0010608D02*
X0116801Y0010608D01*
X0112452Y0014572D02*
X0112452Y0042680D01*
X0112321Y0042626D02*
X0114526Y0043539D01*
X0116214Y0045227D01*
X0117127Y0047433D01*
X0117127Y0049819D01*
X0116214Y0052025D01*
X0114526Y0053713D01*
X0112321Y0054626D01*
X0109934Y0054626D01*
X0107729Y0053713D01*
X0106041Y0052025D01*
X0105127Y0049819D01*
X0105127Y0047433D01*
X0106041Y0045227D01*
X0107729Y0043539D01*
X0109934Y0042626D01*
X0112321Y0042626D01*
X0110052Y0042626D02*
X0110052Y0014626D01*
X0107652Y0013636D02*
X0107652Y0043616D01*
X0107060Y0044208D02*
X0054848Y0044208D01*
X0052452Y0044520D02*
X0052452Y0045094D01*
X0051316Y0044208D02*
X0050742Y0044208D01*
X0050052Y0044520D02*
X0050052Y0045094D01*
X0050742Y0046608D02*
X0051316Y0046608D01*
X0052452Y0048398D02*
X0052452Y0052661D01*
X0051977Y0053808D02*
X0051065Y0053808D01*
X0050052Y0052003D02*
X0050052Y0048551D01*
X0047652Y0045094D02*
X0047652Y0044520D01*
X0048566Y0041808D02*
X0032952Y0041808D01*
X0032952Y0039408D02*
X0138988Y0039408D01*
X0138988Y0037008D02*
X0130479Y0037008D01*
X0129252Y0037516D02*
X0129252Y0075425D01*
X0129328Y0075408D02*
X0128557Y0075408D01*
X0128557Y0075425D02*
X0128557Y0070511D01*
X0128525Y0070511D01*
X0127701Y0070642D01*
X0126908Y0070899D01*
X0126165Y0071278D01*
X0125490Y0071768D01*
X0124900Y0072358D01*
X0124409Y0073033D01*
X0124031Y0073777D01*
X0123773Y0074570D01*
X0123642Y0075394D01*
X0123642Y0075425D01*
X0128557Y0075425D01*
X0129252Y0076197D02*
X0129252Y0114316D01*
X0128288Y0113808D02*
X0138988Y0113808D01*
X0138988Y0116208D02*
X0130701Y0116208D01*
X0131103Y0118608D02*
X0138988Y0118608D01*
X0138988Y0121008D02*
X0130156Y0121008D01*
X0129252Y0121912D02*
X0129252Y0124316D01*
X0130535Y0125808D02*
X0138988Y0125808D01*
X0138988Y0128208D02*
X0131103Y0128208D01*
X0130457Y0130608D02*
X0138988Y0130608D01*
X0138988Y0133008D02*
X0116703Y0133008D01*
X0116703Y0132814D02*
X0116703Y0133414D01*
X0120503Y0133414D01*
X0120503Y0133437D01*
X0120402Y0134074D01*
X0120203Y0134688D01*
X0119910Y0135263D01*
X0119530Y0135785D01*
X0119074Y0136241D01*
X0118552Y0136621D01*
X0117977Y0136914D01*
X0117363Y0137113D01*
X0116726Y0137214D01*
X0116703Y0137214D01*
X0116703Y0133414D01*
X0116103Y0133414D01*
X0116103Y0132814D01*
X0116703Y0132814D01*
X0116703Y0129014D01*
X0116726Y0129014D01*
X0117363Y0129115D01*
X0117977Y0129315D01*
X0118552Y0129608D01*
X0119074Y0129987D01*
X0119530Y0130443D01*
X0119910Y0130965D01*
X0120203Y0131540D01*
X0120402Y0132154D01*
X0120503Y0132791D01*
X0120503Y0132814D01*
X0116703Y0132814D01*
X0117252Y0132814D02*
X0117252Y0133414D01*
X0116103Y0133414D02*
X0116103Y0137214D01*
X0116080Y0137214D01*
X0115443Y0137113D01*
X0114829Y0136914D01*
X0114254Y0136621D01*
X0113732Y0136241D01*
X0113276Y0135785D01*
X0112896Y0135263D01*
X0112603Y0134688D01*
X0112404Y0134074D01*
X0112303Y0133437D01*
X0112303Y0133414D01*
X0116103Y0133414D01*
X0116103Y0133008D02*
X0110084Y0133008D01*
X0112303Y0132814D02*
X0112303Y0132791D01*
X0112404Y0132154D01*
X0112603Y0131540D01*
X0112896Y0130965D01*
X0113276Y0130443D01*
X0113732Y0129987D01*
X0114254Y0129608D01*
X0114829Y0129315D01*
X0115443Y0129115D01*
X0116080Y0129014D01*
X0116103Y0129014D01*
X0116103Y0132814D01*
X0112303Y0132814D01*
X0112452Y0132814D02*
X0112452Y0133414D01*
X0112452Y0134222D02*
X0112452Y0142007D01*
X0112332Y0142608D02*
X0112201Y0142608D01*
X0113511Y0140208D02*
X0110084Y0140208D01*
X0110084Y0137808D02*
X0122303Y0137808D01*
X0122303Y0137814D02*
X0122303Y0137791D01*
X0122404Y0137154D01*
X0122603Y0136540D01*
X0122896Y0135965D01*
X0123276Y0135443D01*
X0123732Y0134987D01*
X0124254Y0134608D01*
X0124829Y0134315D01*
X0125443Y0134115D01*
X0126080Y0134014D01*
X0126103Y0134014D01*
X0126103Y0137814D01*
X0126703Y0137814D01*
X0126703Y0134014D01*
X0126726Y0134014D01*
X0127363Y0134115D01*
X0127977Y0134315D01*
X0128552Y0134608D01*
X0129074Y0134987D01*
X0129530Y0135443D01*
X0129910Y0135965D01*
X0130203Y0136540D01*
X0130402Y0137154D01*
X0130503Y0137791D01*
X0130503Y0137814D01*
X0126703Y0137814D01*
X0126703Y0138414D01*
X0126103Y0138414D01*
X0126103Y0137814D01*
X0122303Y0137814D01*
X0122303Y0138414D02*
X0126103Y0138414D01*
X0126103Y0142214D01*
X0126080Y0142214D01*
X0125443Y0142113D01*
X0124829Y0141914D01*
X0124254Y0141621D01*
X0123732Y0141241D01*
X0123276Y0140785D01*
X0122896Y0140263D01*
X0122603Y0139688D01*
X0122404Y0139074D01*
X0122303Y0138437D01*
X0122303Y0138414D01*
X0122868Y0140208D02*
X0119295Y0140208D01*
X0119652Y0140610D02*
X0119652Y0135618D01*
X0119804Y0135408D02*
X0123311Y0135408D01*
X0124452Y0134507D02*
X0124452Y0132393D01*
X0126852Y0132814D02*
X0126852Y0134034D01*
X0126703Y0135408D02*
X0126103Y0135408D01*
X0126103Y0137808D02*
X0126703Y0137808D01*
X0126852Y0137814D02*
X0126852Y0138414D01*
X0126703Y0140208D02*
X0126103Y0140208D01*
X0126852Y0142194D02*
X0126852Y0143414D01*
X0124452Y0143835D02*
X0124452Y0141722D01*
X0124452Y0138414D02*
X0124452Y0137814D01*
X0119652Y0133414D02*
X0119652Y0132814D01*
X0116703Y0130608D02*
X0116103Y0130608D01*
X0114852Y0129307D02*
X0114852Y0127559D01*
X0117252Y0127814D02*
X0117252Y0129098D01*
X0113156Y0130608D02*
X0110084Y0130608D01*
X0110084Y0128208D02*
X0121703Y0128208D01*
X0121103Y0123408D02*
X0138988Y0123408D01*
X0129252Y0131912D02*
X0129252Y0135165D01*
X0129495Y0135408D02*
X0138988Y0135408D01*
X0138988Y0137808D02*
X0130503Y0137808D01*
X0129252Y0137814D02*
X0129252Y0138414D01*
X0131652Y0145693D02*
X0131652Y0080379D01*
X0131908Y0080208D02*
X0138988Y0080208D01*
X0138988Y0082608D02*
X0032952Y0082608D01*
X0032952Y0085008D02*
X0138988Y0085008D01*
X0138988Y0087408D02*
X0088392Y0087408D01*
X0088452Y0087433D02*
X0088452Y0003108D01*
X0090852Y0003108D02*
X0090852Y0088500D01*
X0090728Y0088376D02*
X0093091Y0090738D01*
X0094369Y0093825D01*
X0094369Y0097167D01*
X0093091Y0100254D01*
X0090728Y0102617D01*
X0087641Y0103895D01*
X0084299Y0103895D01*
X0081212Y0102617D01*
X0078850Y0100254D01*
X0077571Y0097167D01*
X0077571Y0093825D01*
X0078850Y0090738D01*
X0081212Y0088376D01*
X0084299Y0087097D01*
X0087641Y0087097D01*
X0090728Y0088376D01*
X0092160Y0089808D02*
X0138988Y0089808D01*
X0138988Y0092208D02*
X0093699Y0092208D01*
X0093252Y0091128D02*
X0093252Y0003108D01*
X0095652Y0003108D02*
X0095652Y0118134D01*
X0098052Y0118134D02*
X0098052Y0003108D01*
X0100452Y0003108D02*
X0100452Y0118134D01*
X0102852Y0118134D02*
X0102852Y0003108D01*
X0105252Y0003108D02*
X0105252Y0007132D01*
X0105127Y0008208D02*
X0032952Y0008208D01*
X0032952Y0010608D02*
X0105454Y0010608D01*
X0105252Y0010120D02*
X0105252Y0047132D01*
X0105469Y0046608D02*
X0054464Y0046608D01*
X0057252Y0050419D02*
X0057252Y0003108D01*
X0059652Y0003108D02*
X0059652Y0051603D01*
X0059457Y0051408D02*
X0105785Y0051408D01*
X0105252Y0050120D02*
X0105252Y0069911D01*
X0107652Y0069911D02*
X0107652Y0053636D01*
X0107959Y0053808D02*
X0061065Y0053808D01*
X0061221Y0056208D02*
X0138988Y0056208D01*
X0138988Y0058608D02*
X0061221Y0058608D01*
X0061221Y0061008D02*
X0138988Y0061008D01*
X0138988Y0063408D02*
X0060079Y0063408D01*
X0059652Y0063835D02*
X0059652Y0086803D01*
X0059184Y0086334D02*
X0060506Y0087657D01*
X0061221Y0089384D01*
X0061221Y0096454D01*
X0060506Y0098181D01*
X0059184Y0099503D01*
X0057456Y0100219D01*
X0055586Y0100219D01*
X0053859Y0099503D01*
X0052537Y0098181D01*
X0051821Y0096454D01*
X0051821Y0089384D01*
X0052537Y0087657D01*
X0053859Y0086334D01*
X0055586Y0085619D01*
X0057456Y0085619D01*
X0059184Y0086334D01*
X0060257Y0087408D02*
X0083548Y0087408D01*
X0083652Y0087365D02*
X0083652Y0003108D01*
X0086052Y0003108D02*
X0086052Y0087097D01*
X0081252Y0088359D02*
X0081252Y0003108D01*
X0078852Y0003108D02*
X0078852Y0090736D01*
X0079780Y0089808D02*
X0061221Y0089808D01*
X0061221Y0092208D02*
X0078241Y0092208D01*
X0077571Y0094608D02*
X0061221Y0094608D01*
X0060992Y0097008D02*
X0077571Y0097008D01*
X0078499Y0099408D02*
X0059279Y0099408D01*
X0059652Y0099035D02*
X0059652Y0115767D01*
X0059521Y0115452D02*
X0060237Y0117179D01*
X0060237Y0119049D01*
X0059521Y0120777D01*
X0058199Y0122099D01*
X0056472Y0122814D01*
X0054602Y0122814D01*
X0052875Y0122099D01*
X0051552Y0120777D01*
X0050837Y0119049D01*
X0050837Y0117179D01*
X0051552Y0115452D01*
X0052875Y0114130D01*
X0054602Y0113414D01*
X0056472Y0113414D01*
X0058199Y0114130D01*
X0059521Y0115452D01*
X0059835Y0116208D02*
X0122105Y0116208D01*
X0122052Y0116337D02*
X0122052Y0003108D01*
X0124452Y0003108D02*
X0124452Y0020417D01*
X0124661Y0020208D02*
X0046982Y0020208D01*
X0045252Y0021882D02*
X0045252Y0022457D01*
X0043935Y0022608D02*
X0043360Y0022608D01*
X0042852Y0022457D02*
X0042852Y0021882D01*
X0043360Y0020208D02*
X0043935Y0020208D01*
X0047498Y0022608D02*
X0122830Y0022608D01*
X0122433Y0025008D02*
X0046271Y0025008D01*
X0045252Y0025685D02*
X0045252Y0050557D01*
X0043585Y0051408D02*
X0032952Y0051408D01*
X0032952Y0053808D02*
X0041977Y0053808D01*
X0042852Y0052141D02*
X0042852Y0025949D01*
X0043360Y0025008D02*
X0043935Y0025008D01*
X0038052Y0018729D02*
X0038052Y0003108D01*
X0035652Y0003108D02*
X0035652Y0018353D01*
X0035978Y0020208D02*
X0036553Y0020208D01*
X0033252Y0019727D02*
X0033252Y0003108D01*
X0032952Y0003408D02*
X0108046Y0003408D01*
X0107652Y0003616D02*
X0107652Y0003108D01*
X0105800Y0005808D02*
X0032952Y0005808D01*
X0032952Y0013008D02*
X0107024Y0013008D01*
X0119652Y0003108D02*
X0119652Y0119716D01*
X0120618Y0121008D02*
X0122650Y0121008D01*
X0124452Y0122393D02*
X0124452Y0123835D01*
X0126852Y0123414D02*
X0126852Y0122814D01*
X0124452Y0113835D02*
X0124452Y0078647D01*
X0124019Y0077808D02*
X0114842Y0077808D01*
X0114842Y0080208D02*
X0125977Y0080208D01*
X0126852Y0080694D02*
X0126852Y0113414D01*
X0124518Y0113808D02*
X0057422Y0113808D01*
X0057252Y0113737D02*
X0057252Y0100219D01*
X0054852Y0099915D02*
X0054852Y0113414D01*
X0053652Y0113808D02*
X0032952Y0113808D01*
X0032952Y0116208D02*
X0051239Y0116208D01*
X0052452Y0114552D02*
X0052452Y0097976D01*
X0052051Y0097008D02*
X0050992Y0097008D01*
X0051221Y0096454D02*
X0050506Y0098181D01*
X0049184Y0099503D01*
X0047456Y0100219D01*
X0045586Y0100219D01*
X0043859Y0099503D01*
X0042537Y0098181D01*
X0041821Y0096454D01*
X0041821Y0089384D01*
X0042537Y0087657D01*
X0043859Y0086334D01*
X0045586Y0085619D01*
X0047456Y0085619D01*
X0049184Y0086334D01*
X0050506Y0087657D01*
X0051221Y0089384D01*
X0051221Y0096454D01*
X0051221Y0094608D02*
X0051821Y0094608D01*
X0051821Y0092208D02*
X0051221Y0092208D01*
X0051221Y0089808D02*
X0051821Y0089808D01*
X0052452Y0087861D02*
X0052452Y0062776D01*
X0052963Y0063408D02*
X0050079Y0063408D01*
X0050052Y0063435D02*
X0050052Y0087203D01*
X0050257Y0087408D02*
X0052785Y0087408D01*
X0054852Y0085923D02*
X0054852Y0064715D01*
X0057252Y0065019D02*
X0057252Y0085619D01*
X0047652Y0085700D02*
X0047652Y0064938D01*
X0045252Y0064880D02*
X0045252Y0085757D01*
X0042852Y0087341D02*
X0042852Y0063296D01*
X0042963Y0063408D02*
X0032952Y0063408D01*
X0033252Y0065495D02*
X0033252Y0024611D01*
X0032952Y0025008D02*
X0033642Y0025008D01*
X0032952Y0027408D02*
X0123159Y0027408D01*
X0123109Y0029808D02*
X0032952Y0029808D01*
X0032952Y0032208D02*
X0122433Y0032208D01*
X0122880Y0034608D02*
X0032952Y0034608D01*
X0032952Y0037008D02*
X0124886Y0037008D01*
X0124452Y0036678D02*
X0124452Y0072975D01*
X0124428Y0073008D02*
X0114842Y0073008D01*
X0114842Y0075408D02*
X0123642Y0075408D01*
X0124452Y0075425D02*
X0124452Y0076197D01*
X0126852Y0076197D02*
X0126852Y0075425D01*
X0128557Y0073008D02*
X0129328Y0073008D01*
X0129328Y0070608D02*
X0128557Y0070608D01*
X0127914Y0070608D02*
X0114309Y0070608D01*
X0112452Y0069911D02*
X0112452Y0054572D01*
X0114296Y0053808D02*
X0138988Y0053808D01*
X0138988Y0051408D02*
X0116470Y0051408D01*
X0117127Y0049008D02*
X0138988Y0049008D01*
X0138988Y0046608D02*
X0116786Y0046608D01*
X0114852Y0053387D02*
X0114852Y0118669D01*
X0115001Y0118608D02*
X0108098Y0118608D01*
X0107652Y0118162D02*
X0107652Y0081711D01*
X0105252Y0081711D02*
X0105252Y0118134D01*
X0110052Y0120562D02*
X0110052Y0081711D01*
X0112452Y0081711D02*
X0112452Y0120419D01*
X0112188Y0121008D02*
X0110084Y0121008D01*
X0110084Y0123408D02*
X0111703Y0123408D01*
X0112450Y0125808D02*
X0110084Y0125808D01*
X0112452Y0125810D02*
X0112452Y0132007D01*
X0114852Y0132814D02*
X0114852Y0133414D01*
X0116103Y0135408D02*
X0116703Y0135408D01*
X0117252Y0137131D02*
X0117252Y0139098D01*
X0116703Y0140208D02*
X0116103Y0140208D01*
X0114852Y0139307D02*
X0114852Y0136921D01*
X0113002Y0135408D02*
X0110084Y0135408D01*
X0105163Y0135408D02*
X0068608Y0135408D01*
X0068253Y0135850D02*
X0068253Y0152091D01*
X0058207Y0152091D01*
X0058199Y0152099D01*
X0056472Y0152814D01*
X0054602Y0152814D01*
X0052875Y0152099D01*
X0052867Y0152091D01*
X0049515Y0152091D01*
X0049536Y0152154D01*
X0049637Y0152791D01*
X0049637Y0152814D01*
X0045837Y0152814D01*
X0045837Y0153414D01*
X0049637Y0153414D01*
X0049637Y0153437D01*
X0049536Y0154074D01*
X0049337Y0154688D01*
X0049044Y0155263D01*
X0048664Y0155785D01*
X0048208Y0156241D01*
X0047686Y0156621D01*
X0047111Y0156914D01*
X0046497Y0157113D01*
X0045860Y0157214D01*
X0045837Y0157214D01*
X0045837Y0153414D01*
X0045237Y0153414D01*
X0045237Y0152814D01*
X0041437Y0152814D01*
X0041437Y0152791D01*
X0041538Y0152154D01*
X0041559Y0152091D01*
X0032952Y0152091D01*
X0032952Y0175220D01*
X0041322Y0175220D01*
X0040837Y0174049D01*
X0040837Y0172179D01*
X0041552Y0170452D01*
X0042875Y0169130D01*
X0044602Y0168414D01*
X0046472Y0168414D01*
X0048199Y0169130D01*
X0049521Y0170452D01*
X0050237Y0172179D01*
X0050237Y0174049D01*
X0049521Y0175777D01*
X0048863Y0176435D01*
X0050837Y0178311D01*
X0050837Y0177179D01*
X0051552Y0175452D01*
X0052875Y0174130D01*
X0054114Y0173616D01*
X0053333Y0172835D01*
X0053059Y0172175D01*
X0052875Y0172099D01*
X0051552Y0170777D01*
X0050837Y0169049D01*
X0050837Y0167179D01*
X0051552Y0165452D01*
X0052875Y0164130D01*
X0054602Y0163414D01*
X0056472Y0163414D01*
X0058199Y0164130D01*
X0059521Y0165452D01*
X0060237Y0167179D01*
X0060237Y0169049D01*
X0059521Y0170777D01*
X0059075Y0171223D01*
X0069330Y0181479D01*
X0082432Y0181479D01*
X0088783Y0175128D01*
X0088783Y0160432D01*
X0089179Y0159476D01*
X0089911Y0158745D01*
X0092860Y0155795D01*
X0092860Y0155043D01*
X0093612Y0155043D01*
X0097545Y0151110D01*
X0098277Y0150379D01*
X0099232Y0149983D01*
X0099600Y0149983D01*
X0099885Y0149698D01*
X0099814Y0149628D01*
X0099477Y0149122D01*
X0099244Y0148561D01*
X0099126Y0147965D01*
X0099126Y0147661D01*
X0099126Y0147358D01*
X0099244Y0146762D01*
X0099477Y0146200D01*
X0099814Y0145695D01*
X0100244Y0145266D01*
X0100749Y0144928D01*
X0101311Y0144696D01*
X0101906Y0144577D01*
X0102210Y0144577D01*
X0102210Y0147661D01*
X0102210Y0147661D01*
X0099126Y0147661D01*
X0102210Y0147661D01*
X0102210Y0147661D01*
X0102210Y0144577D01*
X0102514Y0144577D01*
X0103110Y0144696D01*
X0103671Y0144928D01*
X0104176Y0145266D01*
X0104606Y0145695D01*
X0104943Y0146200D01*
X0105176Y0146762D01*
X0105294Y0147358D01*
X0105294Y0147661D01*
X0102210Y0147661D01*
X0102210Y0147661D01*
X0105294Y0147661D01*
X0105294Y0147965D01*
X0105176Y0148561D01*
X0104943Y0149122D01*
X0104606Y0149628D01*
X0104536Y0149698D01*
X0105334Y0150496D01*
X0105894Y0151850D01*
X0105894Y0153316D01*
X0105334Y0154670D01*
X0104960Y0155043D01*
X0108608Y0155043D01*
X0108608Y0166430D01*
X0108610Y0166427D01*
X0109115Y0166090D01*
X0109677Y0165857D01*
X0110273Y0165739D01*
X0110576Y0165739D01*
X0110576Y0168823D01*
X0110576Y0171907D01*
X0110273Y0171907D01*
X0109677Y0171789D01*
X0109115Y0171556D01*
X0108610Y0171219D01*
X0108608Y0171216D01*
X0108608Y0173744D01*
X0111703Y0173744D01*
X0111703Y0172179D01*
X0111945Y0171594D01*
X0111476Y0171789D01*
X0110880Y0171907D01*
X0110576Y0171907D01*
X0110576Y0168823D01*
X0110576Y0168823D01*
X0110576Y0168823D01*
X0113661Y0168823D01*
X0113661Y0169127D01*
X0113640Y0169231D01*
X0113741Y0169130D01*
X0115468Y0168414D01*
X0117338Y0168414D01*
X0119065Y0169130D01*
X0120388Y0170452D01*
X0121103Y0172179D01*
X0121103Y0173744D01*
X0124672Y0173744D01*
X0125468Y0173414D01*
X0127338Y0173414D01*
X0128134Y0173744D01*
X0138988Y0173744D01*
X0138988Y0151959D01*
X0137643Y0150614D01*
X0130455Y0150614D01*
X0130388Y0150777D01*
X0129065Y0152099D01*
X0127338Y0152814D01*
X0125468Y0152814D01*
X0123741Y0152099D01*
X0122419Y0150777D01*
X0122351Y0150614D01*
X0119655Y0150614D01*
X0119910Y0150965D01*
X0120203Y0151540D01*
X0120402Y0152154D01*
X0120503Y0152791D01*
X0120503Y0152814D01*
X0116703Y0152814D01*
X0116703Y0153414D01*
X0120503Y0153414D01*
X0120503Y0153437D01*
X0120402Y0154074D01*
X0120203Y0154688D01*
X0119910Y0155263D01*
X0119530Y0155785D01*
X0119074Y0156241D01*
X0118552Y0156621D01*
X0117977Y0156914D01*
X0117363Y0157113D01*
X0116726Y0157214D01*
X0116703Y0157214D01*
X0116703Y0153414D01*
X0116103Y0153414D01*
X0116103Y0152814D01*
X0112303Y0152814D01*
X0112303Y0152791D01*
X0112404Y0152154D01*
X0112603Y0151540D01*
X0112896Y0150965D01*
X0113276Y0150443D01*
X0113311Y0150408D01*
X0105163Y0142740D01*
X0105163Y0123547D01*
X0078096Y0123547D01*
X0068253Y0135850D01*
X0069252Y0134602D02*
X0069252Y0181400D01*
X0068860Y0181008D02*
X0082903Y0181008D01*
X0083652Y0180259D02*
X0083652Y0130356D01*
X0083425Y0130450D02*
X0082829Y0130568D01*
X0082525Y0130568D01*
X0082221Y0130568D01*
X0081625Y0130450D01*
X0081064Y0130217D01*
X0080559Y0129880D01*
X0080129Y0129450D01*
X0079792Y0128945D01*
X0079559Y0128384D01*
X0079441Y0127788D01*
X0079441Y0127484D01*
X0079441Y0127180D01*
X0079559Y0126585D01*
X0079792Y0126023D01*
X0080129Y0125518D01*
X0080559Y0125089D01*
X0081064Y0124751D01*
X0081625Y0124519D01*
X0082221Y0124400D01*
X0082525Y0124400D01*
X0082525Y0127484D01*
X0082525Y0127484D01*
X0079441Y0127484D01*
X0082525Y0127484D01*
X0082525Y0127484D01*
X0082525Y0124400D01*
X0082829Y0124400D01*
X0083425Y0124519D01*
X0083986Y0124751D01*
X0084491Y0125089D01*
X0084921Y0125518D01*
X0085258Y0126023D01*
X0085491Y0126585D01*
X0085609Y0127180D01*
X0085609Y0127484D01*
X0082525Y0127484D01*
X0082525Y0127484D01*
X0082525Y0130568D01*
X0082525Y0127484D01*
X0082525Y0127484D01*
X0085609Y0127484D01*
X0085609Y0127788D01*
X0085491Y0128384D01*
X0085258Y0128945D01*
X0084921Y0129450D01*
X0084491Y0129880D01*
X0083986Y0130217D01*
X0083425Y0130450D01*
X0082525Y0128208D02*
X0082525Y0128208D01*
X0083652Y0127484D02*
X0083652Y0127484D01*
X0085526Y0128208D02*
X0105163Y0128208D01*
X0105163Y0130608D02*
X0072448Y0130608D01*
X0071652Y0131602D02*
X0071652Y0181479D01*
X0074052Y0181479D02*
X0074052Y0175154D01*
X0074244Y0175233D02*
X0073682Y0175001D01*
X0073177Y0174663D01*
X0072748Y0174234D01*
X0072410Y0173729D01*
X0072178Y0173167D01*
X0072059Y0172571D01*
X0072059Y0172268D01*
X0075143Y0172268D01*
X0075143Y0175352D01*
X0074839Y0175352D01*
X0074244Y0175233D01*
X0075143Y0175352D02*
X0075447Y0175352D01*
X0076043Y0175233D01*
X0076604Y0175001D01*
X0077109Y0174663D01*
X0077539Y0174234D01*
X0077876Y0173729D01*
X0078109Y0173167D01*
X0078227Y0172571D01*
X0078227Y0172268D01*
X0075143Y0172268D01*
X0075143Y0172268D01*
X0075143Y0172268D01*
X0075143Y0175352D01*
X0076452Y0175064D02*
X0076452Y0181479D01*
X0078852Y0181479D02*
X0078852Y0123547D01*
X0081252Y0123547D02*
X0081252Y0124673D01*
X0082525Y0125808D02*
X0082525Y0125808D01*
X0083652Y0124613D02*
X0083652Y0123547D01*
X0086052Y0123547D02*
X0086052Y0177859D01*
X0085303Y0178608D02*
X0066460Y0178608D01*
X0066852Y0179000D02*
X0066852Y0152091D01*
X0064452Y0152091D02*
X0064452Y0176600D01*
X0064060Y0176208D02*
X0087703Y0176208D01*
X0088452Y0175459D02*
X0088452Y0123547D01*
X0090852Y0123547D02*
X0090852Y0157803D01*
X0091647Y0157008D02*
X0059488Y0157008D01*
X0059536Y0157154D02*
X0059637Y0157791D01*
X0059637Y0157814D01*
X0055837Y0157814D01*
X0055837Y0154014D01*
X0055860Y0154014D01*
X0056497Y0154115D01*
X0057111Y0154315D01*
X0057686Y0154608D01*
X0094047Y0154608D01*
X0093252Y0155043D02*
X0093252Y0123547D01*
X0095652Y0123547D02*
X0095652Y0153003D01*
X0096447Y0152208D02*
X0057936Y0152208D01*
X0057252Y0152491D02*
X0057252Y0154386D01*
X0057686Y0154608D02*
X0058208Y0154987D01*
X0058664Y0155443D01*
X0059044Y0155965D01*
X0059337Y0156540D01*
X0059536Y0157154D01*
X0059637Y0158414D02*
X0059637Y0158437D01*
X0059536Y0159074D01*
X0059337Y0159688D01*
X0059044Y0160263D01*
X0058664Y0160785D01*
X0058208Y0161241D01*
X0057686Y0161621D01*
X0057111Y0161914D01*
X0056497Y0162113D01*
X0055860Y0162214D01*
X0055837Y0162214D01*
X0055837Y0158414D01*
X0059637Y0158414D01*
X0059428Y0159408D02*
X0089247Y0159408D01*
X0089911Y0158745D02*
X0089911Y0158745D01*
X0091383Y0160949D02*
X0091383Y0176205D01*
X0083509Y0184079D01*
X0068253Y0184079D01*
X0055537Y0171362D01*
X0055537Y0168114D01*
X0052184Y0171408D02*
X0049917Y0171408D01*
X0050052Y0171733D02*
X0050052Y0164496D01*
X0050171Y0164208D02*
X0052796Y0164208D01*
X0052452Y0164552D02*
X0052452Y0160827D01*
X0052410Y0160785D02*
X0052030Y0160263D01*
X0051737Y0159688D01*
X0051538Y0159074D01*
X0051437Y0158437D01*
X0051437Y0158414D01*
X0055237Y0158414D01*
X0055237Y0157814D01*
X0055837Y0157814D01*
X0055837Y0158414D01*
X0055237Y0158414D01*
X0055237Y0162214D01*
X0055214Y0162214D01*
X0054577Y0162113D01*
X0053963Y0161914D01*
X0053388Y0161621D01*
X0052866Y0161241D01*
X0052410Y0160785D01*
X0051646Y0159408D02*
X0048477Y0159408D01*
X0048199Y0159130D02*
X0046472Y0158414D01*
X0044602Y0158414D01*
X0042875Y0159130D01*
X0041552Y0160452D01*
X0040837Y0162179D01*
X0040837Y0164049D01*
X0041552Y0165777D01*
X0042875Y0167099D01*
X0044602Y0167814D01*
X0046472Y0167814D01*
X0048199Y0167099D01*
X0049521Y0165777D01*
X0050237Y0164049D01*
X0050237Y0162179D01*
X0049521Y0160452D01*
X0048199Y0159130D01*
X0047652Y0158903D02*
X0047652Y0156638D01*
X0046821Y0157008D02*
X0051585Y0157008D01*
X0051538Y0157154D02*
X0051737Y0156540D01*
X0052030Y0155965D01*
X0052410Y0155443D01*
X0052866Y0154987D01*
X0053388Y0154608D01*
X0049363Y0154608D01*
X0047652Y0153414D02*
X0047652Y0152814D01*
X0049544Y0152208D02*
X0053138Y0152208D01*
X0052452Y0152091D02*
X0052452Y0155401D01*
X0053388Y0154608D02*
X0053963Y0154315D01*
X0054577Y0154115D01*
X0055214Y0154014D01*
X0055237Y0154014D01*
X0055237Y0157814D01*
X0051437Y0157814D01*
X0051437Y0157791D01*
X0051538Y0157154D01*
X0052452Y0157814D02*
X0052452Y0158414D01*
X0054852Y0158414D02*
X0054852Y0157814D01*
X0055237Y0157008D02*
X0055837Y0157008D01*
X0057252Y0157814D02*
X0057252Y0158414D01*
X0055837Y0159408D02*
X0055237Y0159408D01*
X0055237Y0161808D02*
X0055837Y0161808D01*
X0054852Y0162157D02*
X0054852Y0163414D01*
X0053755Y0161808D02*
X0050083Y0161808D01*
X0050052Y0161733D02*
X0050052Y0152091D01*
X0054852Y0152814D02*
X0054852Y0154072D01*
X0055237Y0154608D02*
X0055837Y0154608D01*
X0059652Y0152091D02*
X0059652Y0165767D01*
X0060000Y0166608D02*
X0088783Y0166608D01*
X0088783Y0169008D02*
X0060237Y0169008D01*
X0059652Y0170461D02*
X0059652Y0171800D01*
X0059260Y0171408D02*
X0072170Y0171408D01*
X0072178Y0171368D02*
X0072410Y0170807D01*
X0072748Y0170302D01*
X0073177Y0169872D01*
X0073682Y0169534D01*
X0074244Y0169302D01*
X0074839Y0169183D01*
X0075143Y0169183D01*
X0075143Y0172268D01*
X0072059Y0172268D01*
X0072059Y0171964D01*
X0072178Y0171368D01*
X0074052Y0172268D02*
X0074052Y0172268D01*
X0075143Y0172268D02*
X0075143Y0172268D01*
X0075143Y0172268D01*
X0078227Y0172268D01*
X0078227Y0171964D01*
X0078109Y0171368D01*
X0077876Y0170807D01*
X0077539Y0170302D01*
X0077109Y0169872D01*
X0076604Y0169534D01*
X0076043Y0169302D01*
X0075447Y0169183D01*
X0075143Y0169183D01*
X0075143Y0172268D01*
X0075143Y0171408D02*
X0075143Y0171408D01*
X0076452Y0172268D02*
X0076452Y0172268D01*
X0078117Y0171408D02*
X0088783Y0171408D01*
X0088783Y0173808D02*
X0077824Y0173808D01*
X0075143Y0173808D02*
X0075143Y0173808D01*
X0072463Y0173808D02*
X0061660Y0173808D01*
X0062052Y0174200D02*
X0062052Y0152091D01*
X0062052Y0146677D02*
X0062052Y0003108D01*
X0064452Y0003108D02*
X0064452Y0131149D01*
X0064897Y0130608D02*
X0059591Y0130608D01*
X0059652Y0130461D02*
X0059652Y0145767D01*
X0059077Y0145008D02*
X0063824Y0145008D01*
X0063824Y0142608D02*
X0049608Y0142608D01*
X0047652Y0142814D02*
X0047652Y0143414D01*
X0045837Y0142608D02*
X0045237Y0142608D01*
X0045237Y0142814D02*
X0045237Y0139014D01*
X0045214Y0139014D01*
X0044577Y0139115D01*
X0043963Y0139315D01*
X0043388Y0139608D01*
X0042866Y0139987D01*
X0042410Y0140443D01*
X0042030Y0140965D01*
X0041737Y0141540D01*
X0041538Y0142154D01*
X0041437Y0142791D01*
X0041437Y0142814D01*
X0045237Y0142814D01*
X0045252Y0142814D02*
X0045252Y0133414D01*
X0045237Y0133414D02*
X0045237Y0137214D01*
X0045214Y0137214D01*
X0044577Y0137113D01*
X0043963Y0136914D01*
X0043388Y0136621D01*
X0042866Y0136241D01*
X0042410Y0135785D01*
X0042030Y0135263D01*
X0041737Y0134688D01*
X0041538Y0134074D01*
X0041437Y0133437D01*
X0041437Y0133414D01*
X0045237Y0133414D01*
X0045237Y0132814D01*
X0045837Y0132814D01*
X0045837Y0129014D01*
X0045860Y0129014D01*
X0046497Y0129115D01*
X0047111Y0129315D01*
X0047686Y0129608D01*
X0048208Y0129987D01*
X0048664Y0130443D01*
X0049044Y0130965D01*
X0049337Y0131540D01*
X0049536Y0132154D01*
X0049637Y0132791D01*
X0049637Y0132814D01*
X0045837Y0132814D01*
X0045837Y0133414D01*
X0049637Y0133414D01*
X0049637Y0133437D01*
X0049536Y0134074D01*
X0049337Y0134688D01*
X0049044Y0135263D01*
X0048664Y0135785D01*
X0048208Y0136241D01*
X0047686Y0136621D01*
X0047111Y0136914D01*
X0046497Y0137113D01*
X0045860Y0137214D01*
X0045837Y0137214D01*
X0045837Y0133414D01*
X0045237Y0133414D01*
X0045237Y0133008D02*
X0032952Y0133008D01*
X0032952Y0135408D02*
X0042136Y0135408D01*
X0042852Y0136227D02*
X0042852Y0140001D01*
X0042645Y0140208D02*
X0032952Y0140208D01*
X0033252Y0142187D02*
X0033252Y0070379D01*
X0033474Y0070608D02*
X0032952Y0070608D01*
X0035652Y0071753D02*
X0035652Y0144587D01*
X0033672Y0142608D02*
X0041466Y0142608D01*
X0042852Y0142814D02*
X0042852Y0143414D01*
X0045237Y0140208D02*
X0045837Y0140208D01*
X0047652Y0139590D02*
X0047652Y0136638D01*
X0048938Y0135408D02*
X0052445Y0135408D01*
X0052452Y0135401D02*
X0052452Y0131676D01*
X0052875Y0132099D02*
X0051552Y0130777D01*
X0050837Y0129049D01*
X0050837Y0127179D01*
X0051552Y0125452D01*
X0052875Y0124130D01*
X0054602Y0123414D01*
X0056472Y0123414D01*
X0058199Y0124130D01*
X0059521Y0125452D01*
X0060237Y0127179D01*
X0060237Y0129049D01*
X0059521Y0130777D01*
X0058199Y0132099D01*
X0056472Y0132814D01*
X0054602Y0132814D01*
X0052875Y0132099D01*
X0051483Y0130608D02*
X0048784Y0130608D01*
X0047652Y0129590D02*
X0047652Y0127325D01*
X0048199Y0127099D02*
X0046472Y0127814D01*
X0044602Y0127814D01*
X0042875Y0127099D01*
X0041552Y0125777D01*
X0040837Y0124049D01*
X0040837Y0122179D01*
X0041552Y0120452D01*
X0042875Y0119130D01*
X0044602Y0118414D01*
X0046472Y0118414D01*
X0048199Y0119130D01*
X0049521Y0120452D01*
X0050237Y0122179D01*
X0050237Y0124049D01*
X0049521Y0125777D01*
X0048199Y0127099D01*
X0049490Y0125808D02*
X0051405Y0125808D01*
X0052452Y0124552D02*
X0052452Y0121676D01*
X0051784Y0121008D02*
X0049752Y0121008D01*
X0050052Y0121733D02*
X0050052Y0098635D01*
X0049279Y0099408D02*
X0053763Y0099408D01*
X0047652Y0100138D02*
X0047652Y0118903D01*
X0046939Y0118608D02*
X0050837Y0118608D01*
X0050237Y0123408D02*
X0070811Y0123408D01*
X0071652Y0122384D02*
X0071652Y0003108D01*
X0069252Y0003108D02*
X0069252Y0125306D01*
X0068840Y0125808D02*
X0059669Y0125808D01*
X0059652Y0125767D02*
X0059652Y0120461D01*
X0059290Y0121008D02*
X0072782Y0121008D01*
X0074052Y0119462D02*
X0074052Y0003108D01*
X0076452Y0003108D02*
X0076452Y0118134D01*
X0074754Y0118608D02*
X0060237Y0118608D01*
X0057252Y0122491D02*
X0057252Y0123737D01*
X0054852Y0123414D02*
X0054852Y0122814D01*
X0050052Y0124496D02*
X0050052Y0146677D01*
X0049174Y0145008D02*
X0051996Y0145008D01*
X0052452Y0144552D02*
X0052452Y0140827D01*
X0052410Y0140785D02*
X0052030Y0140263D01*
X0051737Y0139688D01*
X0051538Y0139074D01*
X0051437Y0138437D01*
X0051437Y0138414D01*
X0055237Y0138414D01*
X0055237Y0137814D01*
X0055837Y0137814D01*
X0055837Y0134014D01*
X0055860Y0134014D01*
X0056497Y0134115D01*
X0057111Y0134315D01*
X0057686Y0134608D01*
X0058208Y0134987D01*
X0058664Y0135443D01*
X0059044Y0135965D01*
X0059337Y0136540D01*
X0059536Y0137154D01*
X0059637Y0137791D01*
X0059637Y0137814D01*
X0055837Y0137814D01*
X0055837Y0138414D01*
X0059637Y0138414D01*
X0059637Y0138437D01*
X0059536Y0139074D01*
X0059337Y0139688D01*
X0059044Y0140263D01*
X0058664Y0140785D01*
X0058208Y0141241D01*
X0057686Y0141621D01*
X0057111Y0141914D01*
X0056497Y0142113D01*
X0055860Y0142214D01*
X0055837Y0142214D01*
X0055837Y0138414D01*
X0055237Y0138414D01*
X0055237Y0142214D01*
X0055214Y0142214D01*
X0054577Y0142113D01*
X0053963Y0141914D01*
X0053388Y0141621D01*
X0052866Y0141241D01*
X0052410Y0140785D01*
X0052002Y0140208D02*
X0048429Y0140208D01*
X0051437Y0137814D02*
X0051437Y0137791D01*
X0051538Y0137154D01*
X0051737Y0136540D01*
X0052030Y0135965D01*
X0052410Y0135443D01*
X0052866Y0134987D01*
X0053388Y0134608D01*
X0053963Y0134315D01*
X0054577Y0134115D01*
X0055214Y0134014D01*
X0055237Y0134014D01*
X0055237Y0137814D01*
X0051437Y0137814D01*
X0051437Y0137808D02*
X0032952Y0137808D01*
X0032952Y0130608D02*
X0042290Y0130608D01*
X0042410Y0130443D02*
X0042866Y0129987D01*
X0043388Y0129608D01*
X0043963Y0129315D01*
X0044577Y0129115D01*
X0045214Y0129014D01*
X0045237Y0129014D01*
X0045237Y0132814D01*
X0041437Y0132814D01*
X0041437Y0132791D01*
X0041538Y0132154D01*
X0041737Y0131540D01*
X0042030Y0130965D01*
X0042410Y0130443D01*
X0042852Y0130001D02*
X0042852Y0127076D01*
X0041584Y0125808D02*
X0032952Y0125808D01*
X0032952Y0128208D02*
X0050837Y0128208D01*
X0045837Y0130608D02*
X0045237Y0130608D01*
X0045252Y0132814D02*
X0045252Y0127814D01*
X0040837Y0123408D02*
X0032952Y0123408D01*
X0032952Y0121008D02*
X0041322Y0121008D01*
X0042852Y0119152D02*
X0042852Y0098496D01*
X0043763Y0099408D02*
X0032952Y0099408D01*
X0032952Y0101808D02*
X0080404Y0101808D01*
X0081252Y0102633D02*
X0081252Y0118134D01*
X0078852Y0118134D02*
X0078852Y0100256D01*
X0083652Y0103627D02*
X0083652Y0118134D01*
X0086052Y0118134D02*
X0086052Y0103895D01*
X0088452Y0103559D02*
X0088452Y0118134D01*
X0090852Y0118134D02*
X0090852Y0102492D01*
X0091536Y0101808D02*
X0138988Y0101808D01*
X0138988Y0099408D02*
X0093441Y0099408D01*
X0093252Y0099864D02*
X0093252Y0118134D01*
X0098052Y0123547D02*
X0098052Y0150603D01*
X0097545Y0151110D02*
X0097545Y0151110D01*
X0099775Y0149808D02*
X0068253Y0149808D01*
X0068253Y0147408D02*
X0099126Y0147408D01*
X0100452Y0147661D02*
X0100452Y0147661D01*
X0102210Y0147408D02*
X0102210Y0147408D01*
X0102852Y0147661D02*
X0102852Y0147661D01*
X0105252Y0147661D02*
X0105252Y0147661D01*
X0105294Y0147408D02*
X0110122Y0147408D01*
X0110052Y0147342D02*
X0110052Y0165782D01*
X0110576Y0165739D02*
X0110880Y0165739D01*
X0111476Y0165857D01*
X0112037Y0166090D01*
X0112542Y0166427D01*
X0112972Y0166857D01*
X0113310Y0167362D01*
X0113542Y0167923D01*
X0113661Y0168519D01*
X0113661Y0168823D01*
X0110576Y0168823D01*
X0110576Y0168823D01*
X0110576Y0165739D01*
X0110576Y0166608D02*
X0110576Y0166608D01*
X0112452Y0166367D02*
X0112452Y0165810D01*
X0112419Y0165777D02*
X0111703Y0164049D01*
X0111703Y0162179D01*
X0112419Y0160452D01*
X0113741Y0159130D01*
X0115468Y0158414D01*
X0117338Y0158414D01*
X0119065Y0159130D01*
X0120388Y0160452D01*
X0121103Y0162179D01*
X0121103Y0164049D01*
X0120388Y0165777D01*
X0119065Y0167099D01*
X0117338Y0167814D01*
X0115468Y0167814D01*
X0113741Y0167099D01*
X0112419Y0165777D01*
X0112723Y0166608D02*
X0113250Y0166608D01*
X0114852Y0167559D02*
X0114852Y0168669D01*
X0114035Y0169008D02*
X0113661Y0169008D01*
X0112452Y0168823D02*
X0112452Y0168823D01*
X0110576Y0169008D02*
X0110576Y0169008D01*
X0110576Y0171408D02*
X0110576Y0171408D01*
X0110052Y0171863D02*
X0110052Y0173744D01*
X0108894Y0171408D02*
X0108608Y0171408D01*
X0105163Y0171408D02*
X0095460Y0171408D01*
X0096001Y0169446D02*
X0095460Y0169339D01*
X0095460Y0178198D01*
X0095064Y0179154D01*
X0094333Y0179885D01*
X0087443Y0186775D01*
X0086487Y0187171D01*
X0057460Y0187171D01*
X0056976Y0187183D01*
X0056944Y0187171D01*
X0056910Y0187171D01*
X0056463Y0186986D01*
X0056011Y0186812D01*
X0055986Y0186788D01*
X0055954Y0186775D01*
X0055612Y0186433D01*
X0054688Y0185555D01*
X0052013Y0185555D01*
X0049501Y0182814D01*
X0045837Y0182814D01*
X0045837Y0183414D01*
X0049637Y0183414D01*
X0049637Y0183437D01*
X0049536Y0184074D01*
X0049337Y0184688D01*
X0049044Y0185263D01*
X0048664Y0185785D01*
X0048208Y0186241D01*
X0047686Y0186621D01*
X0047111Y0186914D01*
X0046497Y0187113D01*
X0045860Y0187214D01*
X0045837Y0187214D01*
X0045837Y0183414D01*
X0045237Y0183414D01*
X0045237Y0182814D01*
X0041437Y0182814D01*
X0041437Y0182791D01*
X0041538Y0182154D01*
X0041737Y0181540D01*
X0042030Y0180965D01*
X0042410Y0180443D01*
X0042866Y0179987D01*
X0043330Y0179650D01*
X0032927Y0179650D01*
X0032927Y0195783D01*
X0139013Y0195783D01*
X0139013Y0177681D01*
X0131078Y0177681D01*
X0131078Y0179044D01*
X0130366Y0180762D01*
X0129051Y0182077D01*
X0127333Y0182789D01*
X0125473Y0182789D01*
X0123755Y0182077D01*
X0122440Y0180762D01*
X0121728Y0179044D01*
X0121728Y0177681D01*
X0117593Y0177681D01*
X0117333Y0177789D01*
X0115473Y0177789D01*
X0115213Y0177681D01*
X0108608Y0177681D01*
X0105163Y0174728D01*
X0105163Y0158980D01*
X0096993Y0158980D01*
X0095460Y0160514D01*
X0095460Y0163386D01*
X0096001Y0163278D01*
X0096305Y0163278D01*
X0096608Y0163278D01*
X0097204Y0163396D01*
X0097766Y0163629D01*
X0098271Y0163967D01*
X0098700Y0164396D01*
X0099038Y0164901D01*
X0099270Y0165463D01*
X0099389Y0166058D01*
X0099389Y0166362D01*
X0096305Y0166362D01*
X0096305Y0166362D01*
X0096305Y0163278D01*
X0096305Y0166362D01*
X0096305Y0166362D01*
X0099389Y0166362D01*
X0099389Y0166666D01*
X0099270Y0167262D01*
X0099038Y0167823D01*
X0098700Y0168328D01*
X0098271Y0168758D01*
X0097766Y0169095D01*
X0097204Y0169328D01*
X0096608Y0169446D01*
X0096305Y0169446D01*
X0096305Y0166362D01*
X0096305Y0166362D01*
X0096305Y0169446D01*
X0096001Y0169446D01*
X0095652Y0169377D02*
X0095652Y0195783D01*
X0098052Y0195783D02*
X0098052Y0168904D01*
X0097897Y0169008D02*
X0105163Y0169008D01*
X0105163Y0166608D02*
X0099389Y0166608D01*
X0098052Y0166362D02*
X0098052Y0166362D01*
X0096305Y0166608D02*
X0096305Y0166608D01*
X0096305Y0169008D02*
X0096305Y0169008D01*
X0096305Y0164208D02*
X0096305Y0164208D01*
X0095652Y0163347D02*
X0095652Y0160322D01*
X0096566Y0159408D02*
X0105163Y0159408D01*
X0102852Y0158980D02*
X0102852Y0195783D01*
X0105252Y0195783D02*
X0105252Y0174805D01*
X0105163Y0173808D02*
X0095460Y0173808D01*
X0095460Y0176208D02*
X0106889Y0176208D01*
X0107652Y0176862D02*
X0107652Y0195783D01*
X0110052Y0195783D02*
X0110052Y0177681D01*
X0112452Y0177681D02*
X0112452Y0182007D01*
X0112404Y0182154D02*
X0112603Y0181540D01*
X0112896Y0180965D01*
X0113276Y0180443D01*
X0113732Y0179987D01*
X0114254Y0179608D01*
X0114829Y0179315D01*
X0115443Y0179115D01*
X0116080Y0179014D01*
X0116103Y0179014D01*
X0116103Y0182814D01*
X0116703Y0182814D01*
X0116703Y0179014D01*
X0116726Y0179014D01*
X0117363Y0179115D01*
X0117977Y0179315D01*
X0118552Y0179608D01*
X0119074Y0179987D01*
X0119530Y0180443D01*
X0119910Y0180965D01*
X0120203Y0181540D01*
X0120402Y0182154D01*
X0120503Y0182791D01*
X0120503Y0182814D01*
X0116703Y0182814D01*
X0116703Y0183414D01*
X0120503Y0183414D01*
X0120503Y0183437D01*
X0120402Y0184074D01*
X0120203Y0184688D01*
X0119910Y0185263D01*
X0119530Y0185785D01*
X0119074Y0186241D01*
X0118552Y0186621D01*
X0117977Y0186914D01*
X0117363Y0187113D01*
X0116726Y0187214D01*
X0116703Y0187214D01*
X0116703Y0183414D01*
X0116103Y0183414D01*
X0116103Y0182814D01*
X0112303Y0182814D01*
X0112303Y0182791D01*
X0112404Y0182154D01*
X0112452Y0182814D02*
X0112452Y0183414D01*
X0112303Y0183414D02*
X0116103Y0183414D01*
X0116103Y0187214D01*
X0116080Y0187214D01*
X0115443Y0187113D01*
X0114829Y0186914D01*
X0114254Y0186621D01*
X0113732Y0186241D01*
X0113276Y0185785D01*
X0112896Y0185263D01*
X0112603Y0184688D01*
X0112404Y0184074D01*
X0112303Y0183437D01*
X0112303Y0183414D01*
X0112452Y0184222D02*
X0112452Y0195783D01*
X0114852Y0195783D02*
X0114852Y0186921D01*
X0116103Y0185808D02*
X0116703Y0185808D01*
X0117252Y0187131D02*
X0117252Y0195783D01*
X0119652Y0195783D02*
X0119652Y0185618D01*
X0119508Y0185808D02*
X0139013Y0185808D01*
X0139013Y0188208D02*
X0032927Y0188208D01*
X0032927Y0190608D02*
X0139013Y0190608D01*
X0139013Y0193008D02*
X0032927Y0193008D01*
X0032927Y0195408D02*
X0139013Y0195408D01*
X0138852Y0195783D02*
X0138852Y0177681D01*
X0139013Y0178608D02*
X0131078Y0178608D01*
X0131652Y0177681D02*
X0131652Y0195783D01*
X0134052Y0195783D02*
X0134052Y0177681D01*
X0136452Y0177681D02*
X0136452Y0195783D01*
X0129252Y0195783D02*
X0129252Y0181877D01*
X0130121Y0181008D02*
X0139013Y0181008D01*
X0139013Y0183408D02*
X0116703Y0183408D01*
X0117252Y0183414D02*
X0117252Y0182814D01*
X0116103Y0183408D02*
X0090810Y0183408D01*
X0090852Y0183366D02*
X0090852Y0195783D01*
X0088452Y0195783D02*
X0088452Y0185766D01*
X0088410Y0185808D02*
X0113299Y0185808D01*
X0114852Y0183414D02*
X0114852Y0182814D01*
X0116103Y0181008D02*
X0116703Y0181008D01*
X0117252Y0179098D02*
X0117252Y0177789D01*
X0114852Y0177681D02*
X0114852Y0179307D01*
X0112875Y0181008D02*
X0093210Y0181008D01*
X0093252Y0180966D02*
X0093252Y0195783D01*
X0100452Y0195783D02*
X0100452Y0158980D01*
X0098052Y0158980D02*
X0098052Y0163820D01*
X0098512Y0164208D02*
X0105163Y0164208D01*
X0105163Y0161808D02*
X0095460Y0161808D01*
X0091383Y0160949D02*
X0099750Y0152583D01*
X0102210Y0152583D01*
X0104646Y0149808D02*
X0112672Y0149808D01*
X0112452Y0149600D02*
X0112452Y0152007D01*
X0112396Y0152208D02*
X0105894Y0152208D01*
X0105252Y0150414D02*
X0105252Y0148179D01*
X0105252Y0147144D02*
X0105252Y0142824D01*
X0105163Y0142608D02*
X0068253Y0142608D01*
X0068253Y0140208D02*
X0105163Y0140208D01*
X0105163Y0137808D02*
X0068253Y0137808D01*
X0070527Y0133008D02*
X0105163Y0133008D01*
X0105163Y0125808D02*
X0085114Y0125808D01*
X0081252Y0127484D02*
X0081252Y0127484D01*
X0079524Y0128208D02*
X0074368Y0128208D01*
X0074052Y0128602D02*
X0074052Y0169381D01*
X0076452Y0169471D02*
X0076452Y0125602D01*
X0076288Y0125808D02*
X0079936Y0125808D01*
X0081252Y0130295D02*
X0081252Y0181479D01*
X0081252Y0187171D02*
X0081252Y0195783D01*
X0078852Y0195783D02*
X0078852Y0187171D01*
X0076452Y0187171D02*
X0076452Y0195783D01*
X0074052Y0195783D02*
X0074052Y0187171D01*
X0071652Y0187171D02*
X0071652Y0195783D01*
X0069252Y0195783D02*
X0069252Y0187171D01*
X0066852Y0187171D02*
X0066852Y0195783D01*
X0064452Y0195783D02*
X0064452Y0187171D01*
X0062052Y0187171D02*
X0062052Y0195783D01*
X0059652Y0195783D02*
X0059652Y0187171D01*
X0057252Y0187176D02*
X0057252Y0195783D01*
X0054852Y0195783D02*
X0054852Y0185711D01*
X0054954Y0185808D02*
X0048642Y0185808D01*
X0047652Y0186638D02*
X0047652Y0195783D01*
X0050052Y0195783D02*
X0050052Y0183415D01*
X0050045Y0183408D02*
X0045837Y0183408D01*
X0045252Y0183414D02*
X0045252Y0195783D01*
X0042852Y0195783D02*
X0042852Y0186227D01*
X0042866Y0186241D02*
X0042410Y0185785D01*
X0042030Y0185263D01*
X0041737Y0184688D01*
X0041538Y0184074D01*
X0041437Y0183437D01*
X0041437Y0183414D01*
X0045237Y0183414D01*
X0045237Y0187214D01*
X0045214Y0187214D01*
X0044577Y0187113D01*
X0043963Y0186914D01*
X0043388Y0186621D01*
X0042866Y0186241D01*
X0042432Y0185808D02*
X0032927Y0185808D01*
X0032927Y0183408D02*
X0045237Y0183408D01*
X0042852Y0183414D02*
X0042852Y0182814D01*
X0042009Y0181008D02*
X0032927Y0181008D01*
X0033252Y0179650D02*
X0033252Y0195783D01*
X0035652Y0195783D02*
X0035652Y0179650D01*
X0038052Y0179650D02*
X0038052Y0195783D01*
X0040452Y0195783D02*
X0040452Y0179650D01*
X0042852Y0179650D02*
X0042852Y0180001D01*
X0040452Y0175220D02*
X0040452Y0152091D01*
X0041529Y0152208D02*
X0032952Y0152208D01*
X0033252Y0152091D02*
X0033252Y0175220D01*
X0032952Y0173808D02*
X0040837Y0173808D01*
X0038052Y0175220D02*
X0038052Y0152091D01*
X0041437Y0153414D02*
X0045237Y0153414D01*
X0045237Y0157214D01*
X0045214Y0157214D01*
X0044577Y0157113D01*
X0043963Y0156914D01*
X0043388Y0156621D01*
X0042866Y0156241D01*
X0042410Y0155785D01*
X0042030Y0155263D01*
X0041737Y0154688D01*
X0041538Y0154074D01*
X0041437Y0153437D01*
X0041437Y0153414D01*
X0041711Y0154608D02*
X0032952Y0154608D01*
X0032952Y0157008D02*
X0044253Y0157008D01*
X0045237Y0157008D02*
X0045837Y0157008D01*
X0045252Y0158414D02*
X0045252Y0153414D01*
X0045237Y0154608D02*
X0045837Y0154608D01*
X0042852Y0153414D02*
X0042852Y0152814D01*
X0042852Y0156227D02*
X0042852Y0159152D01*
X0042596Y0159408D02*
X0032952Y0159408D01*
X0032952Y0161808D02*
X0040991Y0161808D01*
X0040903Y0164208D02*
X0032952Y0164208D01*
X0032952Y0166608D02*
X0042384Y0166608D01*
X0042852Y0167076D02*
X0042852Y0169152D01*
X0043169Y0169008D02*
X0032952Y0169008D01*
X0032952Y0171408D02*
X0041156Y0171408D01*
X0045252Y0168414D02*
X0045252Y0167814D01*
X0047652Y0167325D02*
X0047652Y0168903D01*
X0047905Y0169008D02*
X0050837Y0169008D01*
X0051074Y0166608D02*
X0048690Y0166608D01*
X0052452Y0171676D02*
X0052452Y0174552D01*
X0053652Y0173808D02*
X0050237Y0173808D01*
X0050052Y0174496D02*
X0050052Y0177565D01*
X0049090Y0176208D02*
X0051239Y0176208D01*
X0047652Y0182814D02*
X0047652Y0183414D01*
X0045837Y0185808D02*
X0045237Y0185808D01*
X0052452Y0185555D02*
X0052452Y0195783D01*
X0035652Y0175220D02*
X0035652Y0152091D01*
X0047652Y0146677D02*
X0047652Y0146638D01*
X0054852Y0143414D02*
X0054852Y0142157D01*
X0055237Y0140208D02*
X0055837Y0140208D01*
X0054852Y0138414D02*
X0054852Y0137814D01*
X0055237Y0137808D02*
X0055837Y0137808D01*
X0057252Y0137814D02*
X0057252Y0138414D01*
X0059637Y0137808D02*
X0063824Y0137808D01*
X0063824Y0140208D02*
X0059072Y0140208D01*
X0057252Y0141842D02*
X0057252Y0143737D01*
X0052452Y0138414D02*
X0052452Y0137814D01*
X0055237Y0135408D02*
X0055837Y0135408D01*
X0054852Y0134072D02*
X0054852Y0132814D01*
X0057252Y0132491D02*
X0057252Y0134386D01*
X0058629Y0135408D02*
X0063824Y0135408D01*
X0063824Y0133008D02*
X0045837Y0133008D01*
X0047652Y0132814D02*
X0047652Y0133414D01*
X0045837Y0135408D02*
X0045237Y0135408D01*
X0042852Y0133414D02*
X0042852Y0132814D01*
X0044134Y0118608D02*
X0032952Y0118608D01*
X0032952Y0111408D02*
X0138988Y0111408D01*
X0138988Y0109008D02*
X0032952Y0109008D01*
X0032952Y0106608D02*
X0138988Y0106608D01*
X0138988Y0104208D02*
X0032952Y0104208D01*
X0032952Y0097008D02*
X0042051Y0097008D01*
X0041821Y0094608D02*
X0032952Y0094608D01*
X0032952Y0092208D02*
X0041821Y0092208D01*
X0041821Y0089808D02*
X0032952Y0089808D01*
X0032952Y0087408D02*
X0042785Y0087408D01*
X0032952Y0080208D02*
X0103042Y0080208D01*
X0103042Y0077808D02*
X0032952Y0077808D01*
X0035978Y0070608D02*
X0036553Y0070608D01*
X0033043Y0065808D02*
X0032952Y0065808D01*
X0032952Y0061008D02*
X0041821Y0061008D01*
X0041821Y0058608D02*
X0032952Y0058608D01*
X0032952Y0056208D02*
X0041821Y0056208D01*
X0051221Y0056208D02*
X0051821Y0056208D01*
X0051821Y0058608D02*
X0051221Y0058608D01*
X0051221Y0061008D02*
X0051821Y0061008D01*
X0051316Y0041808D02*
X0050742Y0041808D01*
X0050052Y0041064D02*
X0050052Y0003108D01*
X0066852Y0003108D02*
X0066852Y0128228D01*
X0066868Y0128208D02*
X0060237Y0128208D01*
X0045252Y0118414D02*
X0045252Y0100080D01*
X0068253Y0145008D02*
X0100630Y0145008D01*
X0100452Y0145127D02*
X0100452Y0123547D01*
X0102852Y0123547D02*
X0102852Y0144644D01*
X0102210Y0145008D02*
X0102210Y0145008D01*
X0103790Y0145008D02*
X0107572Y0145008D01*
X0107652Y0145083D02*
X0107652Y0155043D01*
X0108608Y0157008D02*
X0115119Y0157008D01*
X0114852Y0156921D02*
X0114852Y0158669D01*
X0113463Y0159408D02*
X0108608Y0159408D01*
X0108608Y0161808D02*
X0111857Y0161808D01*
X0112452Y0160419D02*
X0112452Y0154222D01*
X0112404Y0154074D02*
X0112303Y0153437D01*
X0112303Y0153414D01*
X0116103Y0153414D01*
X0116103Y0157214D01*
X0116080Y0157214D01*
X0115443Y0157113D01*
X0114829Y0156914D01*
X0114254Y0156621D01*
X0113732Y0156241D01*
X0113276Y0155785D01*
X0112896Y0155263D01*
X0112603Y0154688D01*
X0112404Y0154074D01*
X0112577Y0154608D02*
X0105359Y0154608D01*
X0105252Y0154751D02*
X0105252Y0155043D01*
X0112452Y0153414D02*
X0112452Y0152814D01*
X0114852Y0152814D02*
X0114852Y0153414D01*
X0116103Y0154608D02*
X0116703Y0154608D01*
X0117252Y0153414D02*
X0117252Y0152814D01*
X0119652Y0152814D02*
X0119652Y0153414D01*
X0120229Y0154608D02*
X0124254Y0154608D01*
X0124829Y0154315D01*
X0125443Y0154115D01*
X0126080Y0154014D01*
X0126103Y0154014D01*
X0126103Y0157814D01*
X0126703Y0157814D01*
X0126703Y0154014D01*
X0126726Y0154014D01*
X0127363Y0154115D01*
X0127977Y0154315D01*
X0128552Y0154608D01*
X0138988Y0154608D01*
X0138988Y0157008D02*
X0130355Y0157008D01*
X0130402Y0157154D02*
X0130503Y0157791D01*
X0130503Y0157814D01*
X0126703Y0157814D01*
X0126703Y0158414D01*
X0130503Y0158414D01*
X0130503Y0158437D01*
X0130402Y0159074D01*
X0130203Y0159688D01*
X0129910Y0160263D01*
X0129530Y0160785D01*
X0129074Y0161241D01*
X0128552Y0161621D01*
X0127977Y0161914D01*
X0127363Y0162113D01*
X0126726Y0162214D01*
X0126703Y0162214D01*
X0126703Y0158414D01*
X0126103Y0158414D01*
X0126103Y0157814D01*
X0122303Y0157814D01*
X0122303Y0157791D01*
X0122404Y0157154D01*
X0122603Y0156540D01*
X0122896Y0155965D01*
X0123276Y0155443D01*
X0123732Y0154987D01*
X0124254Y0154608D01*
X0124452Y0154507D02*
X0124452Y0152393D01*
X0124004Y0152208D02*
X0120411Y0152208D01*
X0122052Y0150614D02*
X0122052Y0166337D01*
X0121940Y0166608D02*
X0119556Y0166608D01*
X0119652Y0166512D02*
X0119652Y0169716D01*
X0118771Y0169008D02*
X0121703Y0169008D01*
X0121703Y0169049D02*
X0121703Y0167179D01*
X0122419Y0165452D01*
X0123741Y0164130D01*
X0125468Y0163414D01*
X0127338Y0163414D01*
X0129065Y0164130D01*
X0130388Y0165452D01*
X0131103Y0167179D01*
X0131103Y0169049D01*
X0130388Y0170777D01*
X0129065Y0172099D01*
X0127338Y0172814D01*
X0125468Y0172814D01*
X0123741Y0172099D01*
X0122419Y0170777D01*
X0121703Y0169049D01*
X0122052Y0169891D02*
X0122052Y0173744D01*
X0124452Y0173744D02*
X0124452Y0172393D01*
X0123050Y0171408D02*
X0120784Y0171408D01*
X0117252Y0168414D02*
X0117252Y0167814D01*
X0121037Y0164208D02*
X0123663Y0164208D01*
X0124452Y0163835D02*
X0124452Y0161722D01*
X0124621Y0161808D02*
X0120949Y0161808D01*
X0119652Y0159716D02*
X0119652Y0155618D01*
X0117687Y0157008D02*
X0122452Y0157008D01*
X0122303Y0158414D02*
X0126103Y0158414D01*
X0126103Y0162214D01*
X0126080Y0162214D01*
X0125443Y0162113D01*
X0124829Y0161914D01*
X0124254Y0161621D01*
X0123732Y0161241D01*
X0123276Y0160785D01*
X0122896Y0160263D01*
X0122603Y0159688D01*
X0122404Y0159074D01*
X0122303Y0158437D01*
X0122303Y0158414D01*
X0122512Y0159408D02*
X0119344Y0159408D01*
X0117252Y0158414D02*
X0117252Y0157131D01*
X0116703Y0157008D02*
X0116103Y0157008D01*
X0124452Y0157814D02*
X0124452Y0158414D01*
X0126103Y0159408D02*
X0126703Y0159408D01*
X0126852Y0158414D02*
X0126852Y0157814D01*
X0126703Y0157008D02*
X0126103Y0157008D01*
X0126103Y0154608D02*
X0126703Y0154608D01*
X0126852Y0154034D02*
X0126852Y0152814D01*
X0128552Y0154608D02*
X0129074Y0154987D01*
X0129530Y0155443D01*
X0129910Y0155965D01*
X0130203Y0156540D01*
X0130402Y0157154D01*
X0129252Y0157814D02*
X0129252Y0158414D01*
X0130294Y0159408D02*
X0138988Y0159408D01*
X0138988Y0161808D02*
X0128185Y0161808D01*
X0129252Y0161064D02*
X0129252Y0164316D01*
X0129144Y0164208D02*
X0138988Y0164208D01*
X0138988Y0166608D02*
X0130866Y0166608D01*
X0131103Y0169008D02*
X0138988Y0169008D01*
X0138988Y0171408D02*
X0129756Y0171408D01*
X0129252Y0171912D02*
X0129252Y0173744D01*
X0131652Y0173744D02*
X0131652Y0150614D01*
X0134052Y0150614D02*
X0134052Y0173744D01*
X0136452Y0173744D02*
X0136452Y0150614D01*
X0138852Y0151823D02*
X0138852Y0173744D01*
X0126852Y0173414D02*
X0126852Y0172814D01*
X0121728Y0178608D02*
X0095290Y0178608D01*
X0086052Y0187171D02*
X0086052Y0195783D01*
X0083652Y0195783D02*
X0083652Y0187171D01*
X0088783Y0164208D02*
X0058277Y0164208D01*
X0057252Y0163737D02*
X0057252Y0161842D01*
X0057319Y0161808D02*
X0088783Y0161808D01*
X0108608Y0164208D02*
X0111769Y0164208D01*
X0126103Y0161808D02*
X0126703Y0161808D01*
X0126852Y0162194D02*
X0126852Y0163414D01*
X0129252Y0155165D02*
X0129252Y0151912D01*
X0128802Y0152208D02*
X0138988Y0152208D01*
X0117252Y0143414D02*
X0117252Y0142814D01*
X0116703Y0142608D02*
X0116103Y0142608D01*
X0119652Y0177681D02*
X0119652Y0180610D01*
X0119931Y0181008D02*
X0122686Y0181008D01*
X0122052Y0179825D02*
X0122052Y0195783D01*
X0124452Y0195783D02*
X0124452Y0182366D01*
X0126852Y0182789D02*
X0126852Y0195783D01*
X0119652Y0183414D02*
X0119652Y0182814D01*
X0138988Y0097008D02*
X0094369Y0097008D01*
X0094369Y0094608D02*
X0138988Y0094608D01*
X0129328Y0080208D02*
X0128557Y0080208D01*
X0128557Y0077808D02*
X0129328Y0077808D01*
X0131652Y0076197D02*
X0131652Y0075425D01*
X0133866Y0077808D02*
X0138988Y0077808D01*
X0138988Y0070608D02*
X0129971Y0070608D01*
X0131652Y0071243D02*
X0131652Y0035939D01*
X0132485Y0034608D02*
X0138988Y0034608D01*
X0138988Y0032208D02*
X0132932Y0032208D01*
X0132256Y0029808D02*
X0138988Y0029808D01*
X0138988Y0027408D02*
X0132206Y0027408D01*
X0131652Y0028065D02*
X0131652Y0029029D01*
X0132932Y0025008D02*
X0138988Y0025008D01*
X0138988Y0022608D02*
X0132535Y0022608D01*
X0129252Y0019578D02*
X0129252Y0003108D01*
X0126852Y0003108D02*
X0126852Y0019361D01*
X0126852Y0037734D02*
X0126852Y0070928D01*
X0110052Y0069911D02*
X0110052Y0054626D01*
X0105127Y0049008D02*
X0032952Y0049008D01*
D18*
X0082525Y0127484D03*
X0102210Y0147661D03*
X0102210Y0152583D03*
X0096305Y0166362D03*
X0110576Y0168823D03*
X0075143Y0172268D03*
D19*
X0036265Y0067937D03*
X0051029Y0044807D03*
X0043647Y0022169D03*
X0036265Y0022169D03*
M02*
